<?xml version="1.0" encoding="UTF-8"?>
<svg xmlns="http://www.w3.org/2000/svg" id="Layer_2" data-name="Layer 2"
    viewBox="0 0 1662.04 1611.81">
    <defs>
        <style> .cls-1, .cls-2, .cls-3, .cls-4, .cls-5, .cls-6, .cls-7, .cls-8, .cls-9, .cls-10,
            .cls-11, .cls-12, .cls-13, .cls-14, .cls-15, .cls-16 { stroke: #000; stroke-width: 5px;
            } .cls-1, .cls-11 { stroke-linejoin: round; } .cls-1, .cls-11, .cls-13, .cls-14,
            .cls-15, .cls-16 { stroke-linecap: round; } .cls-1, .cls-13 { fill: white; } .cls-2 {
            fill: red; } .cls-2, .cls-3, .cls-4, .cls-5, .cls-6, .cls-7, .cls-8, .cls-9,
            .cls-10, .cls-12, .cls-13, .cls-14, .cls-15, .cls-16 { stroke-miterlimit: 10; } .cls-3 {
            fill: #efefef; } .cls-4, .cls-15 { fill: gray; } .cls-5 { fill: gold; } .cls-6 {
            fill: #e0e0e0; } .cls-7 { fill: #aeafab; } .cls-8 { fill: #a2b473; } .cls-9 { fill:
            #222; } .cls-10, .cls-14 { fill: #231f20; } .cls-11 { fill: #eaeaea; } .cls-12, .cls-16
            { fill: none; } </style>
    </defs>
    <g id="Layer_2-2" data-name="Layer 2">
        <g>
            <line class="cls-8" x1="994.55" y1="1301.21" x2="1637.62" y2="1210.37"></line>
            <line class="cls-8" x1="994.27" y1="1224.91" x2="1640.57" y2="1288.92"></line>
            <line class="cls-8" x1="1012.06" y1="1150.73" x2="1624.83" y2="1365.93"></line>
            <line class="cls-8" x1="1046.91" y1="1082.86" x2="1591.3" y2="1437.03"></line>
            <line class="cls-8" x1="1096.84" y1="1025.17" x2="1541.9" y2="1498.17"></line>
            <line class="cls-8" x1="1159" y1="980.95" x2="1479.42" y2="1545.87"></line>
            <line class="cls-8" x1="1229.88" y1="952.7" x2="1407.43" y2="1577.42"></line>
            <line class="cls-8" x1="1305.42" y1="942.04" x2="1330.01" y2="1591.03"></line>
            <line class="cls-8" x1="1381.34" y1="949.56" x2="1251.57" y2="1585.93"></line>
            <line class="cls-8" x1="1453.32" y1="974.85" x2="1176.57" y2="1562.39"></line>
            <line class="cls-8" x1="1517.27" y1="1016.46" x2="1109.28" y2="1521.77"></line>
            <line class="cls-8" x1="1569.54" y1="1072.02" x2="1053.51" y2="1466.38"></line>
            <line class="cls-8" x1="1607.18" y1="1138.39" x2="1012.45" y2="1399.35"></line>
        </g>
        <g>
            <line class="cls-8" x1="14.23" y1="1316.82" x2="657.31" y2="1225.98"></line>
            <line class="cls-8" x1="13.95" y1="1240.53" x2="660.25" y2="1304.53"></line>
            <line class="cls-8" x1="31.74" y1="1166.34" x2="644.51" y2="1381.55"></line>
            <line class="cls-8" x1="66.59" y1="1098.47" x2="610.98" y2="1452.64"></line>
            <line class="cls-8" x1="116.52" y1="1040.79" x2="561.58" y2="1513.78"></line>
            <line class="cls-8" x1="178.69" y1="996.56" x2="499.1" y2="1561.48"></line>
            <line class="cls-8" x1="249.56" y1="968.31" x2="427.11" y2="1593.03"></line>
            <line class="cls-8" x1="325.1" y1="957.65" x2="349.69" y2="1606.65"></line>
            <line class="cls-8" x1="401.02" y1="965.17" x2="271.25" y2="1601.54"></line>
            <line class="cls-8" x1="473" y1="990.46" x2="196.26" y2="1578.01"></line>
            <line class="cls-8" x1="536.95" y1="1032.07" x2="128.96" y2="1537.39"></line>
            <line class="cls-8" x1="589.22" y1="1087.63" x2="73.2" y2="1481.99"></line>
            <line class="cls-8" x1="626.86" y1="1154" x2="32.13" y2="1414.96"></line>
        </g>
    </g>
    <g id="Layer_3" data-name="Layer 3">
        <path class="cls-9"
            d="m1317.49,920.72c-188.91,0-342.05,153.14-342.05,342.05s153.14,342.05,342.05,342.05,342.05-153.14,342.05-342.05-153.14-342.05-342.05-342.05Zm3.43,652.06c-171.06,0-309.73-138.67-309.73-309.73s138.67-309.73,309.73-309.73,309.73,138.67,309.73,309.73-138.67,309.73-309.73,309.73Z"></path>
        <path class="cls-3"
            d="m1320.92,953.31c-171.06,0-309.73,138.67-309.73,309.73s138.67,309.73,309.73,309.73,309.73-138.67,309.73-309.73-138.67-309.73-309.73-309.73Zm-1.5,601.51c-160.78,0-291.13-130.34-291.13-291.13s130.34-291.13,291.13-291.13,291.13,130.34,291.13,291.13-130.34,291.13-291.13,291.13Z"></path>
        <circle class="cls-12" cx="1319.42" cy="1263.7" r="291.13"
            transform="translate(-507.12 1303.1) rotate(-45)"></circle>
        <path class="cls-9"
            d="m344.55,925.22c-188.91,0-342.05,153.14-342.05,342.05s153.14,342.05,342.05,342.05,342.05-153.14,342.05-342.05-153.14-342.05-342.05-342.05Zm3.43,652.06c-171.06,0-309.73-138.67-309.73-309.73s138.67-309.73,309.73-309.73,309.73,138.67,309.73,309.73-138.67,309.73-309.73,309.73Z"></path>
        <path class="cls-3"
            d="m347.97,957.81c-171.06,0-309.73,138.67-309.73,309.73s138.67,309.73,309.73,309.73,309.73-138.67,309.73-309.73-138.67-309.73-309.73-309.73Zm-1.5,601.51c-160.78,0-291.13-130.34-291.13-291.13s130.34-291.13,291.13-291.13,291.13,130.34,291.13,291.13-130.34,291.13-291.13,291.13Z"></path>
        <circle class="cls-12" cx="346.47" cy="1268.2" r="291.13"
            transform="translate(-795.27 616.44) rotate(-45)"></circle>
    </g>
    <g id="Layer_4" data-name="Layer 4">
        <polygon class="cls-11"
            points="710.51 1336.41 707.35 1351.9 720.94 1353.65 726 1369.55 740.23 1367.56 747.39 1380.36 764.07 1373.88 774.05 1380.36 786.07 1369.55 799.66 1372.02 804.22 1351.9 838.23 1292 812.94 1261.86 797.05 1264.08 791.44 1243.99 775.8 1252.74 766.15 1237.94 755.09 1254.68 740.23 1240.47 732.47 1258.89 715.84 1259.76 718.41 1276.4 702.92 1279.29 708.3 1297.69 696.6 1305.08 709.24 1318.26 696.6 1332.28 710.51 1336.41"></polygon>
        <path class="cls-15"
            d="m869.85,1069.06s20.08-31.92,30-33.17,7.83,22,15.27,23c7.44,1,22.04-5.5,25.81,2.28,3.53,7.28-3.66,16.54-2.58,31.94,1.87,26.76,33.53,33.77,34.89,56.24.49,8.15-2.89,20.19-22.02,35.77-11.92-10.59-25.08-23.93-37.97-40.43-21.58-27.61-34.98-54.54-43.39-75.63Z"></path>
        <rect class="cls-14" x="734.59" y="1329.67" width="158.21" height="33" rx="5.82" ry="5.82"
            transform="translate(936.61 -222) rotate(35.63)"></rect>
        <path class="cls-7"
            d="m311.38,1238.78l23.23-1.77.33-21.5,185.67-267.22s8.24-15.35,24.22-14.08,20.71,3.1,24,14.08,2.91,20.12,2.91,20.12l26.18-30.49-53.09-22.58s-21.65-3.04-32.71,10.35-206.76,296.27-206.76,296.27l-1.45,16.06,7.47.76Z"></path>
        <path class="cls-7"
            d="m531.5,792.14s82.36,57.46,86.67,78.72c4.3,21.25,129.99,431.11,129.99,431.11,0,0-11.5,10.45-7.33,17.85s13.25,19.35,26.65,12.33c13.4-7.02,22.09-17.48,11.72-32.91-10.37-15.43-86.39-274.41-86.39-274.41l-55.2-184.96c156.21-17.81,312.41-35.61,468.62-53.42l-13.81-58.35,41.24-10.46,3.57,39.6,61.82,184.55,89.31,236.02,40.87,52.04s24.86,4.98,21.87,30.2-35.49,42.98-50.59,33.38c-15.09-9.6-27.89-28.28-19.31-52.09,8.58-23.81,4.27-16.19,7.15-19.86,2.89-3.66-27.31-42.02-30.58-53.4s-99.24-264.51-99.24-264.51l-18.83.51-313.99,371.23-8.19-29.35,135.87-171.31,165.96-195.6-9.53-57.76-448.85,66.81c-33.36-35.37-66.73-70.75-100.09-106.12"></path>
        <path class="cls-7"
            d="m177.52,869.46l37.82,3.59,90.03,348.91s34.9-11.62,44.99-2.72,279.6-340.19,279.6-340.19l35.95,1.91-35.95,26.58-267.58,322.49,6.87,16.38c20.31,2.87,268.27,28.74,268.27,28.74l-2.11,28.89-265.72-32.72s-4.75,32.07-33.4,34.04-46.31-15.03-48.98-40.64-109.8-395.25-109.8-395.25Z"></path>
        <rect class="cls-4" x="1182.12" y="846.44" width="39.16" height="82.14" rx="10.48"
            ry="10.48" transform="translate(-206 387.38) rotate(-16.89)"></rect>
        <polygon class="cls-7"
            points="290.36 879.05 290.36 1088.94 301.03 1125.36 312.45 1126.94 315.87 879.05 290.36 879.05"></polygon>
        <ellipse class="cls-6" cx="292.35" cy="1113.55" rx="24.7" ry="26.06"></ellipse>
        <circle class="cls-7" cx="329.16" cy="1261.84" r="46.33"></circle>
        <circle class="cls-7" cx="1316.18" cy="1257.45" r="40.17"></circle>
        <circle class="cls-6" cx="329.16" cy="1262.84" r="24.5"></circle>
        <path class="cls-7"
            d="m131.56,853.38l360.86,25.66,32.14-12.83,47.18,33.53,44.54-38.1,280.3-21.05,21.69-29.25,187.94-24.9,3.59,34.84-504.81,76.93-27.77,39.7-38.78-21.76-22.07-8.61-338.94-22.46s-30,5.08-45.88-31.69Z"></path>
        <polygon class="cls-7"
            points="469.48 760.36 479.3 862.18 564.88 919.36 571.75 899.74 519.51 858.92 511.11 771.2 469.48 760.36"></polygon>
        <ellipse class="cls-4" cx="1120.14" cy="764.13" rx="33.12" ry="7.2"
            transform="translate(-118.72 212.92) rotate(-10.32)"></ellipse>
        <path class="cls-2"
            d="m745.75,107.32S806.45-7.8,897.21,3.25s138.49,83.86,138.02,145.44c-.47,61.58-289.48-41.36-289.48-41.36Z"></path>
        <path class="cls-2"
            d="m743.98,168.75s77.22-24.36,131.36-14.98c54.15,9.37,129.8,43.81,142.79,54.33,12.98,10.52,42.82-37.25,42.82-37.25,0,0-53.88-61.04-166.21-76.47-112.33-15.43-180.1,33.24-180.1,33.24l29.35,41.13Z"></path>
        <path class="cls-10"
            d="m1116.43,691.42s-47.99,8.38-52.01,17.88-.16,23.79,6.47,26.48,73.28-16.61,73.28-16.61l18.57-30.23-46.31,2.48Z"></path>
        <path class="cls-5"
            d="m932.82,903.26l39.16-77.15s43.96,23.34,53.55,52.94,4.76,68.62-11.43,98.8-92.07,144.48-92.07,144.48l-17.46-99.06s23.81-31.47,30.48-45.42,10.53-40.94,8.44-52.05-10.66-22.54-10.66-22.54Z"></path>
        <path class="cls-5"
            d="m799.18,982.87l78.4-70.55s37.05,49.19,45.83,70.55,26.89,53.42,24.98,79.77-51.76,132.91-82.55,180.59-40.96,64.82-40.96,64.82l-33.02-21.27s32.7-67.31,36.51-82.23,44.77-80.01,30.8-127c-13.97-46.99-59.99-94.69-59.99-94.69Z"></path>
        <path class="cls-15"
            d="m773.58,1285.29s17.85-31.41,28.73-33.7,11.86,19.13,20.31,19.18,23.79-7.57,29.1-.92-1.5,17.72,1.66,29.39,45.62,35.83,43.84,56.87-6.08,25.56-6.08,25.56c0,0-47.05-24-58.42-32.53s-59.15-63.85-59.15-63.85Z"></path>
        <path class="cls-14"
            d="m617.63,737.67s-62.89,2.42-91.21-2.84-61.84-24.74-76.99-7.43-4.73,53.55,18.22,64.74,75.4,23.41,93.22,24.5,100.09-8.34,100.09-8.34l-43.33-70.61Z"></path>
        <path class="cls-1"
            d="m676.47,760.36c16.88,25.81,41.45,57.4,76.32,87.91,61.55,53.84,125.33,78.2,164.77,89.64,12.91-19.74,26.45-43.34,38.9-70.8,9.04-19.95,16.12-38.89,21.7-56.26-56.95-15.77-113.89-31.54-170.84-47.31"></path>
        <path class="cls-13"
            d="m564.88,734.83s54.53,164.85,179.95,272.05c49.53-13.69,135.14-63.63,143.28-93.96-17.11-21.21-114.63-119.22-114.63-119.22"></path>
        <path class="cls-2"
            d="m808.41,313.89c-43.76,47.21-93.16,108.1-140.06,183.78-54.77,88.39-90.34,171.47-113.81,239.12,26.54,14.13,90.31,29.84,121.74,33.24,31.44,3.4,118.86,12.18,146.08,4.18,3.74-26.77,10.25-67.36,21.53-116.18,21.83-94.44,32.43-93.77,40.85-148.03,16.28-104.92-7.19-211.8-7.19-211.8h0l-69.14,15.68Z"></path>
        <path class="cls-5"
            d="m902.6,520.48l67.38-4.58s39.07,62.2,73.95,92.07,75.56,43.14,98.35,51.07,36.99,25.68,33.45,38.61-25.27,33.49-41.53,30.05,12.93-18.75,14.2-21.61,5.71-8.25,4.44-11.75-17.33,9.21-33.42-.95-13.36-15.22-22.35-20.31-84.84-42.98-112.5-63.19-72.84-65.81-81.98-89.42Z"></path>
        <path class="cls-2"
            d="m834.87,335.04l11.34,202.6s154.71-5.29,165.87-17.88-85.42-193.83-85.42-193.83l-91.79,9.12Z"></path>
        <path class="cls-5"
            d="m719.61,228.12s52.75-95.04,161.96-74.36c109.21,20.68,135.58,101.9,144.84,112.65,9.25,10.75,53.22,26.16,37.02,71.44s-79.19,67.96-209.42,50.37c-130.23-17.58-184.37-54.14-183.91-105.97s49.51-54.14,49.51-54.14Z"></path>
        <circle class="cls-13" cx="771.38" cy="204.19" r="68.66"></circle>
        <circle class="cls-13" cx="984.54" cy="232.8" r="68.66"></circle>
        <circle class="cls-10" cx="967.36" cy="232.08" r="7.6"></circle>
        <circle class="cls-10" cx="788.26" cy="209.81" r="7.99"></circle>
        <path class="cls-16" d="m707.49,266.42s64.16,47,149.71,55.73c85.55,8.73,178.02,0,178.02,0"></path>
        <path class="cls-16" d="m702.72,278.79s-3.71-16.43,8.9-18.09"></path>
        <path class="cls-16" d="m1032.94,310.35s10.61,7.41,2.29,24.7"></path>
        <path class="cls-16" d="m824.53,329.89s38.02,16.9,67.62,13.5"></path>
    </g>
</svg> 