<?xml version="1.0" encoding="UTF-8"?>
<svg xmlns="http://www.w3.org/2000/svg" id="Layer_2" data-name="Layer 2"
    viewBox="0 0 1411.54 440.34">
    <defs>
        <style> .cls-1 { fill: #00aaff; fill-rule: evenodd; stroke: #363436; stroke-width: 9px; }
            .cls-1, .cls-2 { stroke-miterlimit: 10; } .cls-2 { fill: #fafafa; stroke: #353216;
            stroke-width: 8px; } </style>
    </defs>
    <g id="Layer_1-2" data-name="Layer 1">
        <g>
            <g>
                <path class="cls-2"
                    d="m866.67,159.31c.62-1.7-.21-2.92-1.15-4.3-1.52-2.24-2.55-4.74-1.61-7.57.21-.64.27-1.2-.06-1.8-.77-1.41-1.18-2.91-1.27-4.53-.01-.23-.65-.43-1-.65-.17.39-.49.79-.46,1.17.05.78.36,1.53.45,2.31.23,1.99-.4,3.78-1.56,5.33-1.06,1.41-2.39,2.4-4.31,2.63-1.59.19-1.64.54-1.77,2.22-.11,1.4-.33,2.8-.52,4.19-.44,3.15-2.39,5.03-5.21,6.17-.58.24-1.19.41-1.79.62-.67.24-.94.77-.99,1.44-.09,1.1-.13,2.2-.29,3.29-.71,4.73-3.36,7.65-8.08,8.66-1.27.27-1.61.71-1.72,1.89-.06.63-.07,1.26-.09,1.9-.1,3.65-1.83,6.39-4.99,8.02-1.4.72-2.24,1.43-2.57,3.02-.75,3.64-2.82,6.29-6.37,7.65-.15.06-.28.15-.43.19-1.58.45-2.22,1.61-2.45,3.14-.14.93-.32,1.88-.62,2.77q-1.8,5.38,1.23,10.25c.17.27.41.51.5.8.52,1.64.61,3.64,1.63,4.84,1.01,1.18,3.03,1.46,4.5,2.32,3.37,1.98,4.25,5.28,4.47,8.89-.79,1.83.51,2.55,1.73,3.37,1.04.7,2.19,1.36,3.01,2.28,1.91,2.15,3.47,4.52,3.22,7.63-.08,1.02.31,1.86,1.3,2.31,4.16,1.87,6.02,5.4,6.79,9.62.31,1.68.92,2.8,2.56,3.61,1.96.96,3.73,2.28,4.99,4.22,1.25,1.93,2.14,3.91,1.66,6.21-.24,1.18.28,1.79,1.1,2.34,2.66,1.8,4.82,4,6.23,6.96.51,1.08,1.53,2.04,2.53,2.74,2.31,1.64,3.1,3.87,3.07,6.55,0,.47,0,.95,0,1.42.02,4.2-3.08,6.35-6.71,6.39-3.28.04-6.13-1.28-8.78-3.06-.91-.61-1.64-1.48-2.48-2.19-.57-.48-1.14-.4-1.6.19-.39.5-.76,1.01-1.12,1.53-1.21,1.77-2.98,2.75-4.88,3.61-1.91.87-3.69.75-5.41-.36-1.18-.76-2.21-2.12-3.45-2.3-1.24-.19-2.62.87-3.99,1.16-3.03.64-5.61-.25-7.58-2.66-.79-.96-1.22-2.42-2.19-2.96-.99-.55-2.44-.27-3.7-.31-2.75-.08-4.83-1.24-6.23-3.63-.68-1.16-.67-2.41-.59-3.68.05-.83-.04-1.71-.78-2.11-2.79-1.48-3.46-3.91-3.26-6.79.07-1.03-.16-1.96-1.39-2.03-2.33-.14-3.6-1.79-4.95-3.34-1.26-1.44-1.19-3.2-1.14-4.95.01-.47.23-.98.11-1.41-.15-.56-.4-1.28-.84-1.53-2.33-1.32-3.99-3.02-4.29-5.84-.05-.48-.75-.95-1.23-1.3-1.79-1.28-3.78-2.3-4.76-4.47-.13-.29-.79-.47-1.21-.47-.45,0-.89.29-1.35.42-2.4.67-2.38.67-2.65,3.03-.54,4.75-2.64,8.42-7.37,10.04-1.25.43-1.75,1.06-1.89,2.32-.38,3.56-2.35,6.17-5.32,7.96-1.35.81-2.18,1.62-2.18,3.27,0,3.11-1.64,5.52-4.07,7.11-1.66,1.09-2.3,1.99-2.19,4.07.13,2.47-.45,4.99-2.16,7.09-2.2,2.7-5.02,3.72-8.39,3.4-.78-.07-1.57-.26-2.29-.57-1.28-.55-2.52-1.74-3.76-1.71-1.25.03-2.44,1.28-3.7,1.89-2.51,1.21-4.84.95-7.08-.82-1.79-1.42-1.88-1.35-3.8.27-1.35,1.14-2.72,2.04-4.61,2.13-2.7.13-5.05-.32-6.61-2.75-.59-.92-1.37-1.26-2.4-1.09-3.17.54-5.93-.2-8.24-2.53-.55-.55-1.17-.24-1.64.26-.21.23-.32.56-.54.77-4.08,4.08-8.58,4.82-13.74,2.09-1.26-.67-2.17-.71-3.49-.12-2.22.99-4.64.67-7,.29-1.26-.2-2.01-1.92-3.35-1.4-1.13.43-1.98,1.51-3.06,2.14-2.34,1.37-4.8,1.47-7.27.34-.86-.39-1.7-.86-2.46-1.42-.89-.66-1.71-.68-2.6-.08-2.35,1.6-4.97,2.03-7.7,1.59-1.38-.22-2.71-.8-4.03-1.29-.79-.3-1.45-.39-2.18.16-3.88,2.89-7.9,2.8-11.98.45-.92-.53-1.76-.58-2.65.02-.39.26-.81.49-1.22.72-2.55,1.38-5.14,1.57-7.67.03-1.3-.79-2.39-.93-3.95-.48-7.39,2.14-11.51-4.59-10.89-10.33.08-.77.4-1.53.66-2.27.47-1.31,1.4-2.6,1.38-3.89-.02-1.11-1.24-2.14-1.68-3.3-1.38-3.64-1-7.16,1.22-10.36.77-1.11.78-1.81-.11-2.86-1.23-1.44-2.16-3.14-2.43-5.07-.38-2.74-.12-5.36,1.59-7.69.97-1.31,1.38-2.56.43-4.26-2.35-4.2-1.88-8.18,1.55-11.69.6-.62.82-1.19.19-2.02-.76-.99-1.46-2.08-1.93-3.24-1.5-3.67-.8-7.09,1.36-10.32,1.17-1.75,1.12-1.78.1-3.17-3.62-4.95-2.63-8.43-.54-11.81.96-1.56,1.27-2.56.05-4.15-2.06-2.69-2.59-5.85-.95-8.91,1.12-2.09,1.43-3.94.6-6.19-1.11-3.03-.41-5.88,1.46-8.49.94-1.31.87-1.34.02-2.38-.69-.85-1.49-1.65-2.01-2.6-1.58-2.88-1.4-5.84.28-8.58.82-1.34.67-2.16-.31-3.31-2.66-3.12-2.76-6.59-.87-10.14.54-1.02,1.03-1.99.48-3.12-1.25-2.56-.67-4.96.71-7.21.75-1.22.64-2.28.32-3.58-.41-1.66-.59-3.41-.63-5.13-.16-5.85,4.92-9.55,10.6-8.08,1.99.51,3.87,1.33,5.4,2.83.66.66,1.31.51,1.96-.27,2.79-3.32,6.44-4.36,10.63-3.77.77.11,1.72.16,2.24.62,1.61,1.43,2.78,1.08,4.53-.03,3.69-2.35,7.75-2.52,11.69-.41,1.13.61,2.01.55,3.08.03,1.41-.69,2.88-1.28,4.34-1.89,3.1-1.3,6.14-1.29,9.11.43.41.24.92.32,1.28.6.86.65,1.67.79,2.57.09.37-.29.84-.44,1.23-.7,2.94-1.99,5.96-2.02,8.87-.12,1.47.96,2.79.88,4.42.61,1.66-.28,3.43.09,5.16.17,2.45,2.28,5.49.44,8.18,1.14.5.13,1.25-.26,1.75-.61,3.51-2.42,7.03-2.56,10.62-.23.84.54,1.69.66,2.67.18,3.77-1.85,7.35-1.33,10.68,1.09.8.58,1.35.44,2.11.04,1.52-.82,3.05-1.67,4.66-2.28,4.12-1.57,6.26-.93,8.99,2.62.66.86,1.26,1.17,2.37.89,3.39-.84,6.17.25,8.46,2.87,1.13,1.3,1.48,2.77,1.45,4.38-.03,1.49.64,2.36,2.01,2.82,2.65.89,4.16,2.83,4.61,5.51.2,1.23.61,1.92,1.84,2.37,3.33,1.22,5.05,3.69,4.93,7.26-.05,1.44.42,2.43,1.69,3.08,3.19,1.64,4.99,4.28,5.55,7.78.2,1.23.88,1.94,1.94,2.48,1.6.81,2.68,2.17,3.64,3.64.57.87-.18,2.54,1.26,2.7.75.08,1.59-.86,2.41-1.32,3.06-1.69,4.35-3.56,5.42-7.16.88-2.98,2.42-5.58,5.83-6.22,1.5-.28,2.11-1.04,2.28-2.52.32-2.64,1.7-4.75,3.83-6.29,1.6-1.15,2.73-2.46,3.14-4.5.48-2.41,2-4.27,3.96-5.72,1.09-.8,1.6-1.74,1.77-3.14.37-2.98,2.09-5.38,4.51-6.96,3.63-2.36,7.53-3.41,11.42-.33.78.62,1.59,1.03,2.5.2.11-.1.28-.14.42-.22,3.2-1.9,6.5-2.35,9.92-.63.93.47,1.74.53,2.66-.02.81-.49,1.69-.85,2.58-1.2,2.63-1.02,5.23-1.21,7.74.37,1.25.79,2.51,1.04,4.01.56,1.02-.33,2.19-.28,3.29-.29,1.75-.02,3.49.05,4.89,1.36.67.63,1.43.51,2.15,0,.39-.27.76-.58,1.17-.8,3.59-1.99,7.37-2.3,10.83-.1,2.03,1.29,3.34.85,5.04-.22,1.19-.75,2.53-1.4,3.89-1.68,3.19-.67,6.32-.59,8.87,1.89.67.65,1.3.57,2.12.2,1.71-.79,3.43-1.73,5.25-2.08,3.16-.59,6.32-.4,9.04,1.69.84.65,1.65.76,2.56.08.5-.37,1.11-.59,1.69-.85,3.83-1.77,7.61-2.07,11.15.62,1.21.92,2.16.95,3.41.14,1.17-.77,2.46-1.38,3.74-1.95,3.12-1.4,6.2-1.22,8.99.76,1.19.84,2.07,1.09,3.39.27,2.25-1.41,4.82-1.42,7.36-1.15,3.54.38,5.65,2.63,6.15,6.15.21,1.52-.83,3.33.58,4.5,1.06.87,2.54,1.21,3.79,1.88,2.6,1.39,4.03,3.54,3.66,6.55-.14,1.13.11,1.68,1.09,2.25,2.09,1.22,3.8,2.82,4.32,5.35.21,1,.81,1.62,1.74,2.08,1.47.73,2.45,2.01,3.12,3.46,1,2.18.83,4.27-.75,6.2-1.95,2.37-4.65,3.14-7.49,3.55-2.65.38-5.33.6-7.98.97-3.37.48-6.67.16-9.79-1.1-1.69-.68-3.07-.34-4.49.4-.97.5-1.83,1.22-2.79,1.76-.95.54-2.2.77-2.87,1.54-.84.96.36,2.03.52,3.08.41,2.61.07,5.04-1.54,7.2-.38.51-.77,1.01-1.17,1.49-.89,1.04-1.23,2.06-.51,3.44.98,1.89.78,4,.66,6.05-.03.47-.11.95-.24,1.4-.35,1.28-.28,6.02.17,7.12,1.69,4.17,1.19,8.03-1.73,11.49-1.07,1.26-1.17,2.48-.44,3.92.49.98.96,2.02,1.17,3.08.55,2.87.45,5.68-1.32,8.19-.84,1.19-.73,2.34.09,3.51.45.64.88,1.32,1.2,2.04,1.16,2.58,1.36,5.18-.01,7.76-.22.42-.42.85-.67,1.26-.65,1.03-.57,1.84.17,2.95,2.3,3.45,2.49,8.33.56,12.12-.57,1.11-.66,1.98-.04,3.07,1.66,2.92,1.65,6.14.89,9.22-.59,2.38-.75,4.49-.14,6.92.76,3.06.91,6.28-.96,9.18-.56.87-.4,1.73-.17,2.71.31,1.37.52,2.82.42,4.21-.34,5.06-5.11,8.54-10.06,7.45-.46-.1-.92-.25-1.35-.43-1.58-.65-3.16-1.32-4.74-1.98-1.2,1-2.32,2.12-3.62,2.96-2.66,1.73-6.3,1.49-8.75-.68-1.11-.98-1.96-1.39-3.32-.64-1.4.77-2.94,1.07-4.57,1.05-2.75-.04-4.8-1.25-6.46-3.38-.96-1.24-.97-2.64-1.01-4.05-.03-1.09-.41-1.75-1.48-2.11-.57-.19-1.05-.67-1.57-1.01-3.21-2.13-2.87-5.76-2.15-8.53.15-.57.62-1.1,1.04-1.55.75-.81,1.57-1.55,2.35-2.33.94-.94,1.08-1.21.14-2.42-2.74-3.5-2.54-6.98-.16-10.49.61-.9.7-1.58.16-2.56-1.67-3.02-2.32-6.21-.87-9.51.57-1.3.35-2.42-.29-3.58-1.73-3.13-1.67-6.37-.35-9.59.52-1.26.52-2.34.03-3.62-1.64-4.3-1.15-8.37,1.8-12,.84-1.04.72-1.96.11-3.02-1.94-3.35-1.79-6.62.51-9.76.19-.25.36-.52.54-.78.4-.57.44-1.15.09-1.75-.24-.41-.49-.81-.75-1.21-2.3-3.56-2.15-7.49-1.75-11.46,1.46-2.49.9-4.86.2-7.55-.83-3.16-.83-6.61,1.11-9.64.37-.58.34-1.18,0-1.78-.47-.82-.9-1.66-1.39-2.47-.81-1.32-.94-3.03-2.28-4.06-1.31.51-2.63,1.03-3.94,1.54-1.53.59-3.12.71-4.65.2-1.98-.66-3.63-1.75-4.71-3.7-.8-1.45-1.21-1.46-2.61-.45-1.43,1.04-2.94,1.7-4.7,2.09-5.22,1.13-8.33-2.37-8.19-6.48.02-.47.05-.95.08-1.43Zm-162.36,95.71c3.49,0,6.48,2.51,6.44,6.21-.02,1.43-.05,2.83-.71,4.16-.59,1.19-.47,2.37,0,3.65.47,1.31.62,2.74.79,4.13.11.93-.06,1.9.03,2.84.04.38.27.96.94.75.9-.27,1.8-.57,2.7-.84,1.89-.57,2-.56,2.03-2.5.07-3.93,1.92-6.53,5.55-7.93.29-.11.66-.2.83-.42.37-.46.73-.98.92-1.53.14-.42.04-.94.01-1.41-.21-3.78,1.67-6.26,4.9-7.9.14-.07.3-.11.45-.16,1.65-.57,2.55-1.57,2.45-3.47-.13-2.73,1.33-4.84,3.21-6.6,1.02-.96,2.26-1.68,3.47-2.41,1-.6,1.67-1.28,1.82-2.54.35-2.87,1.99-5.07,4.44-6.36,1.74-.92,2.71-1.98,2.92-3.89.34-3.03,1.82-5.36,4.56-6.77,1.69-.87,2.44-2.16,2.72-4.07.3-2.02,1.24-3.86,2.66-5.44,1.03-1.15.92-1.72-.58-2.56-4.05-2.27-5.66-5.81-5.34-10.26.11-1.54-.31-2.37-1.68-2.94-1.01-.42-1.99-.95-2.89-1.57-4.06-2.75-5.93-6.42-4.73-11.38.31-1.27.23-1.29-1.21-1.75-5.41-1.76-7.38-4.27-7.64-9.97-.06-1.24-.31-1.97-1.62-2.45-4.8-1.78-7.04-5.56-7.69-10.44-.04-.31-.05-.63-.04-.95.03-1.13-.53-1.72-1.61-1.96-4.31-.98-6.7-3.87-7.88-7.97-.17-.6-.4-1.2-.67-1.77-.84-1.76-2.55-2.24-4.21-2.76-.05-.02-.38.47-.35.68.06.46.21.94.43,1.34,1.02,1.82,1.02,3.65.02,5.43-.75,1.32-.56,2.75-.77,4.15-.48,3.25-1.78,5.91-4.86,7.66-1.79,1.01-3.57,1.31-5.44,1.15-2-.16-3.63.18-5.25,1.48-2.61,2.09-5.62,2.01-8.41.45-1.24-.69-2.13-1.14-3.41-.33-1.95,1.23-3.91,1-5.82-.15-.27-.16-.57-.28-.84-.45-.75-.45-1.61-.49-2.23,0-2.62,2.11-5.47,2.15-8.5,1.23-.42-.13-.98-.2-1.36-.04-2.18.98-4.41,1.67-6.84,1.66-.37,0-.78.46-1.09.78-.33.33-.53.79-.85,1.14-.8.89-1.03,1.71-.5,2.96.93,2.19,1.37,4.5.37,6.88-.57,1.35-.33,2.79.07,4.19.3,1.06.64,2.11.83,3.19.57,3.14.54,3.14,3.4,2.3.6-.18,1.24-.49,1.82-.43,1.55.16,3.11.78,4.63.67,1.53-.11,2.97-.96,4.61-.87,1.31.07,2.46.45,3.53,1.2.71.5,1.39.4,2.12-.2,3.01-2.44,6.11-2.14,9.1-.01,1.02.72,1.95.84,3.09.58,1.53-.34,3.08-.79,4.62-.79,3.08.01,4.92,1.58,5.62,4.68.25,1.11.55,2.11,1.27,2.98,1.91,2.33,2.06,4.91.89,7.56-.48,1.09-.56,1.97.03,3.03,1.15,2.06,1.46,4.41.2,6.34-1.15,1.76-1.22,3.49-1.29,5.38-.05,1.25-.11,2.48-.78,3.65-1.67,2.92-5.47,5.43-9.19,3.13-.88-.54-1.74-.66-2.63-.01-2.55,1.84-5.27,1.91-8.04.59-.96-.46-1.78-.44-2.66.12-2.55,1.61-5.24,2.1-8.13.98-.81-.31-1.54-.1-2.2.44-2.05,1.69-4.45,2.41-7.04,2.29-1.82-.09-2.35,1.23-3.21,2.33-.8,1.03-.77,1.94-.14,3.03.91,1.57,1.1,3.27.5,5.02-.38,1.12-.21,2.16.39,3.17.24.4.36.88.52,1.32,1.24,3.33,1.3,6.48-1.35,9.25-.32.34-.62.73-.83,1.14-.1.2-.09.61.05.76.19.21.56.37.84.36.61-.03,1.31-.03,1.81-.31,3.25-1.81,6.58-2.15,9.99-.58.97.44,1.76.33,2.69-.06,1.9-.79,3.86-1.54,5.95-.68,1.17.48,1.94.16,2.92-.65,2.83-2.34,6-2.56,9.23-.76.85.47,1.59.91,2.64.59,2.81-.87,5.29-.13,7.51,1.71.68.57,1.38.63,2.16.18,1.51-.87,3.05-1.69,4.81-1.6Z"></path>
                <path class="cls-2"
                    d="m1108.41,205.89c.2-.92.34-1.87.62-2.77.94-2.97,2.57-5.46,5.44-6.86,1.76-.85,2.78-1.89,2.37-4.02-1.08-5.63,5.77-12.01,11.32-11.29.47.06.95.09,1.42.1,1.35.01,1.59-.19,1.93-1.52.12-.46.27-.92.32-1.39.75-8.04,10.32-14.41,19.48-10.12,1.91.89,1.9.82,3.32-1.08.85-1.13,1.7-2.29,2.74-3.23,5.22-4.73,11.2-4.7,16.55,0,1.3,1.14,1.32,1.14,2.76.07,6.08-4.56,13.57-3.96,18.68,1.64,1.03,1.12,1.74,1.39,3.2.81,4.32-1.69,8.64-1.35,12.92.42,2.99,1.24,4.96,3.28,5.88,6.35.14.45.2.93.29,1.39.25,1.28,1.11,1.83,2.34,1.93.63.05,1.27.06,1.89.19,2.77.59,4.98,2.01,6.25,4.61.62,1.27,1.26,2.61,1.47,3.98.25,1.62.68,2.64,2.52,2.8.9.08,1.79.6,2.61,1.05,3.71,2.08,5.18,5.27,4.2,9.51-.26,1.14-.11,1.75.84,2.32.95.57,1.87,1.18,2.75,1.85,3.6,2.79,3.93,8.47,1.84,12.07-.63,1.09-1.47,2.05-2.22,3.06-.44.59-.42,1.17.06,1.7,2.26,2.49,3.14,5.42,2.83,8.74-.25,2.6-1.35,4.87-3,6.84-.86,1.03-.89,1.92-.18,2.98.35.52.56,1.13.85,1.7,2.08,4.13,1.43,7.94-1.37,11.49-.39.5-.87.96-1.12,1.52-.23.52-.47,1.29-.25,1.71,1.17,2.19,1.8,4.46.93,6.84-.95,2.59-2.75,4.72-5.1,6.03-2.15,1.2-3.01,2.58-3.33,5.09-.47,3.8-2.6,6.76-6.74,7.61-1.01.21-1.71.77-2.21,1.62-.16.27-.27.57-.43.85-1.56,2.67-3.83,4.14-6.98,4-1.26-.06-2.05.38-2.66,1.49-1.53,2.78-3.83,4.58-7.03,5.09-2.28.37-4.37-.25-6.41-1.22-1.53-.72-1.56-.66-2.59.8-.46.64-.91,1.3-1.44,1.88-4,4.35-7.39,3.54-11.03,1.54-2.17-2.59-4.1-2.31-6.81-.29-3.29,2.46-7.78,1.63-10.91-1.16-.59-.52-1.12-1.11-1.66-1.68-1.35-1.42-1.52-1.6-3.11-.46-1.91,1.37-3.97,1.79-6.22,1.89-3.82.17-6.39-1.61-7.68-5.07-1.12-3.01-1.4-2.95-4.52-2.22-1.36.32-2.83.38-4.23.27-4.9-.4-8.48-3.72-9.48-8.53-.28-1.36.25-3.14-1.11-3.95-1-.6-2.42-.52-3.67-.67-2.37-.3-3.94-1.94-5.59-3.37-2.11-1.85-3.38-4.15-3.04-7.11.11-.94.12-1.89.17-2.84.05-.88-.24-1.56-1.2-1.71-1.26-.21-2.4-.61-3.53-1.27-3.7-2.14-6.1-4.99-5.79-9.53.02-.3-.08-.62-.15-.92-.03-.11-.19-.29-.21-.28-.14.07-.3.15-.37.28-.46.82-.74,1.83-1.38,2.46-1.82,1.78-2.16,3.57-1.09,5.96,1.21,2.71.3,5.28-1.53,7.48-1.42,1.71-3.03,3.22-5.02,4.26-1.12.59-1.55,1.47-1.53,2.7.07,4.56-2.48,7.33-6.42,8.99-1.34.57-2.46,1.08-3.2,2.51-1.41,2.77-3.74,4.19-6.98,3.83-1.18-.13-1.91.28-2.59,1.48-2.9,5.09-7.45,6.53-12.84,4.31-.44-.18-.86-.48-1.31-.54-.4-.05-1,0-1.24.26-.74.81-1.34,1.74-2.02,2.61-2.92,3.77-8.35,3.87-11.03,1.44-2.53-2.29-4.32-2.3-6.9-.24-2.57,2.06-7.12,1.78-9.73-.2-1.25-.94-2.29-2.16-3.54-3.11-.41-.32-1.23-.42-1.73-.25-1.03.36-1.95,1.03-2.95,1.49-5.38,2.48-10.12.43-12.05-5.19-.1-.3-.08-.63-.17-.93-.29-.93-.86-1.32-1.78-.94-1.81.74-3.68.85-5.58.82-5.54-.1-9.79-3.94-10.54-9.54-.04-.31-.03-.63-.07-.95-.22-1.75-.3-2.02-1.91-2.07-2.36-.08-4.25-1.1-6.08-2.39-3.95-2.77-6.25-6.23-4.69-11.29.21-.68.01-1.17-.69-1.49-1.86-.85-3.76-1.63-5.53-2.65-1.06-.62-2.02-1.53-2.8-2.49-1.92-2.38-2.54-5.06-1.25-7.97.51-1.15,1.12-2.25,1.71-3.37.36-.69.09-1.09-.48-1.54-4.51-3.56-5.13-6.83-2.24-11.87.78-1.36,1.71-2.64,2.58-3.95.42-.64.26-1.17-.28-1.63-.7-.61-1.46-1.17-2.1-1.84-2-2.08-2.11-4.47-1.06-7.03.8-1.94,2.08-3.52,3.65-4.89.74-.65,1.31-1.4.68-2.46-.08-.13-.13-.29-.16-.44-.98-4.7.38-8.4,4.61-10.91.14-.08.24-.22.38-.28,1.86-.91,2.59-2.15,2.39-4.44-.34-3.77,1.95-6.57,4.69-8.84,2.42-2.01,5.3-2.69,8.46-2.21.88.14,1.49-.37,1.69-1.27.1-.46.14-.94.21-1.4.62-4.2,3.02-7.27,6.45-9.49,3.17-2.05,6.72-2.7,10.43-1.59,1.05.31,2.03.86,3.04,1.29,1.21.51,1.7.42,2.39-.65,1.56-2.41,3.3-4.58,5.9-6,4.34-2.37,8.47-2.12,12.49.67.64.45,1.17,1.06,1.76,1.58,1.02.89,1.07.93,2.32-.12,4.53-3.77,9.47-3.9,14.66-1.7,1.61.68,3.11,1.66,4.07,3.16.88,1.36,1.81,1.3,3.21.88,3.37-1.02,6.85-1.08,10.3-.34,1.21.26,2.4.72,3.54,1.23,2.78,1.24,4.61,3.37,5.11,6.38.31,1.84.99,2.85,3.02,2.79,1.97-.06,3.63.88,5.21,1.99,2.08,1.46,3.34,3.54,3.57,5.92.23,2.52,1.6,3.35,3.68,4.15,5.28,2.02,6.77,4.72,5.92,10.27-.17,1.11-.03,1.82.99,2.31,2.37,1.12,4.14,2.84,5.32,5.19.11.22.51.3.77.44.02,1.07.01,2.14.08,3.21.01.2.34.39.55.55.28.21.81-.46.62-.86-.45-.93-.28-2.19-1.39-2.79Zm93.61,12.2c-.23-.34-.42-.75-.72-1.05-2.01-2.08-3.68-4.31-3.81-7.38-.03-.68-.68-1.02-1.36-1.02-.79,0-1.58.04-2.36.13-2.7.33-4.91-.59-6.89-2.41-.85-.78-1.43-1.59-1.73-2.71-.31-1.18-1.15-1.84-2.44-1.81-2.34.04-4.19-1.21-6.08-2.35-.54-.32-1.02-.83-1.6-.97-1.11-.27-1.09.9-1.49,1.46-1.33,1.89-3.02,3.11-5.33,3.61-2.03.44-3.72-.32-5.45-1.06-.75-.32-1.29-.04-1.48.59-.97,3.28-3.01,5.46-6.31,6.44-1.12.33-1.32,1.34-1.44,2.24-.41,3.27-2.11,5.46-5.1,6.82-1.7.77-1.66.88-1.1,2.84.17.61.34,1.22.54,1.82.75,2.31-.09,4.39-1.17,6.3-.68,1.21-1.83,2.16-2.76,3.22.76,1.34,1.5,2.69,2.28,4.02,1.08,1.85,1.27,3.88,1.24,5.95-.02,1.42.4,2.44,1.84,2.92,2.68.9,4.62,2.64,5.78,5.25.41.92,1.15,1.46,2.21,1.51,3.21.17,5.72,1.51,7.36,4.37.52.92,1.39,1.15,2.45.8,1.7-.56,3.45-.64,5.09.1,1.32.6,2.33.36,3.51-.4,3.04-1.96,6.32-2.81,9.9-1.56,1.08.38,1.86.05,2.28-1,1.06-2.66,3.1-4.37,5.58-5.52,1.4-.65,2.97-.99,4.5-1.3,1.02-.21,1.91-.55,2.1-1.59.48-2.72,2.11-4.47,4.36-5.87,1.08-.67,1.15-1.21.36-2.36-2.11-3.09-2.4-6.08.21-9.03.47-.53.54-1.2.04-1.69-2.58-2.57-4.57-5.31-3.01-9.32Zm-154.62,36.56c.17.05.63.18,1.07.34.89.32,1.51,0,1.97-.76.24-.41.44-.84.7-1.24,2.04-3.24,4.7-5.49,8.79-5.44.47,0,.98.02,1.4-.14.4-.16.95-.5,1.01-.85.64-3.33,2.57-5.67,5.39-7.39.41-.25.59-.62.22-1.12-.55-.76-1.06-1.56-1.53-2.38-1.11-1.95-1.07-3.91.12-5.82.33-.53.67-1.07,1.08-1.55,1.09-1.25.62-1.36-.3-2.25-.57-.55-1.12-1.11-1.67-1.66-1.45-1.45-1.92-3.22-1.61-5.21.07-.46.39-.91.36-1.36-.03-.58-.11-1.39-.49-1.69-2.25-1.78-3.18-4.21-3.81-6.87-.33-1.39-.74-1.73-1.93-1.32-2.1.73-4.03.4-5.96-.47-2.09-.94-3.75-2.29-4.5-4.56-.1-.3-.21-.64-.42-.84-.43-.41-.93-1.04-1.42-1.06-2.97-.11-5.54-1.05-7.74-3.07-.2-.18-.97-.07-1.19.17-.76.79-1.38,1.71-2.07,2.57-1.51,1.89-3.56,2.6-5.88,2.33-1.22-.14-2.4-.69-3.57-1.11-1.15-.42-1.16-.47-1.66.68-.69,1.58-1.21,3.25-2.58,4.45-1.23,1.07-2.72,1.51-4.21,2-.52,1.62-.85,3.33-1.6,4.84-.99,2.01-2.63,3.46-4.77,4.37-1.43.61-1.54.93-.9,2.1,1.82,3.3,1.35,6.33-.86,9.23-.38.5-.81.97-1.23,1.44-.69.77-1.03,1.52-.3,2.5,2.05,2.75,2.75,5.98,3.12,9.3.11,1.02.34,1.75,1.44,2.12,2.66.9,4.67,2.58,5.77,5.23.4.96,1.11,1.51,2.19,1.46,1.84-.09,3.43.57,4.8,1.7.95.79,1.82,1.73,2.55,2.73.65.9,1.37,1.17,2.41,1.02,1.39-.19,2.76-.73,4.19-.17,2.04.8,3.84.52,5.67-.85,2.25-1.69,4.92-2.02,7.97-1.4Zm59.13-11.62c.03.47.03.95.11,1.41.05.28.22.54.33.8.26-.16.62-.27.77-.5.42-.65.82-1.33,1.12-2.04.23-.57-.69-1.52-1.46-1.43-.32.04-.65.49-.84.84-.13.24-.03.61-.03.93Zm1.64-19.08c-.28.64-.52.99-.56,1.36-.03.27.18.58.28.87.36-.28.88-.5,1.01-.86.09-.26-.35-.71-.73-1.36Z"></path>
                <path class="cls-2"
                    d="m459.97,285.17c.24-1.5-.18-2.98-1.09-4.63-2.23-4.09-2.06-8.19,1.32-11.76.54-.57.64-1,.09-1.56-2.66-2.69-2.41-6.01-1.97-9.35.08-.6.28-1.31.68-1.73,1.98-2.13,1.96-4.08-.32-5.94-1.72-4.26-2.65-8.49.63-12.48.83-1.01.71-1.82.14-2.97-2.1-4.16-2.07-8.16,1.29-11.8,1.41-1.52,1.35-1.58.4-3.16-.33-.54-.71-1.05-1.01-1.61-1.93-3.57-2.43-7.21-.19-10.8.85-1.36,1.02-2.39.1-3.84-2.91-4.54-2.79-9.22-.04-13.8.63-1.04.77-1.83.31-2.99-1.41-3.54-1.33-7.11.35-10.57.45-.92.51-1.77.1-2.71-.38-.86-.87-1.75-.94-2.66-.2-2.93-1.3-5.26-3.17-7.6-2.1-2.63-1.73-5.94-.34-8.98.39-.85,1-1.6,1.55-2.37.53-.74.54-1.42-.04-2.13-.79-.97-1.67-1.9-2.31-2.97-2.27-3.8-.77-8.03,2.26-10.03.65-.43,1.34-.82,2.07-1.09.86-.33,1.24-.88,1.21-1.77-.03-1.26-.08-2.52-.07-3.79.02-2.04.94-3.66,2.53-4.87,2.77-2.11,5.79-3.17,9.29-2.12.9.27,1.84.48,2.67.9.95.48,1.78.42,2.7,0,.71-.33,1.48-.53,2.21-.83,3.48-1.42,6.84-1.26,9.83,1.11,1.2.95,2.18.93,3.46.39,1.29-.55,2.64-1.12,4.01-1.29,3.03-.38,6.02-.25,8.49,1.98,1.05.95,2.15,1.02,3.48.41,2.18-.99,4.59-1.35,6.93-1.15,3.31.28,6.63.83,8.87,3.77.43.56,1.04.64,1.68.29.69-.38,1.43-.7,2.06-1.17,3.75-2.79,9.59-1.1,11.54,3.42.12.29.18.61.32.89.56,1.12.87,1.21,2.25.77,1.2-.38,2.39-.78,3.62-1.07,3.96-.92,7.56.67,9.59,4.2.16.27.3.56.49.81.86,1.1.39,3.14,1.9,3.54,1.09.29,2.42-.48,3.67-.63,4.84-.58,9.85,2.93,11.52,8.02.15.45.16.93.25,1.4.16.86.7,1.4,1.51,1.64.9.27,1.86.42,2.74.75,5.2,1.95,8.25,5.62,8.81,11.22.03.31.04.63.02.95-.06,1.06.36,1.81,1.36,2.23.58.24,1.15.52,1.71.81,4.87,2.51,6.42,6.04,4.96,11.31-.13.46-.41.92-.36,1.36.06.58.34,1.14.56,1.7.05.12.23.21.37.29,2.13,1.25,3.82,2.98,4.35,5.38.62,2.78.68,5.65-.62,8.35-.21.43-.32.9-.56,1.3-.5.84-.14,1.48.36,2.13.77,1,1.65,1.93,2.26,3.02,1.94,3.45,1.86,7.11-.01,10.41-1.13,1.99-.93,3.35,0,5.21,1.45,2.95,1.39,6.16.41,9.25-.42,1.31-1.25,2.57-2.16,3.61-.97,1.1-1.05,2.05-.68,3.43.4,1.5.43,3.12.41,4.69-.04,3.03-1.13,5.6-3.94,7.06-1.52.79-1.81,1.97-1.83,3.5-.02,1.57-.02,3.22-.49,4.68-1.16,3.6-3.2,6.54-7.15,7.57-1.02.27-1.7.8-1.76,1.91-.27,4.68-3.15,7.79-6.44,10.61-1.48,1.27-3.4,1.6-5.29,1.82-.86.1-1.38.45-1.76,1.28-.65,1.43-1.29,2.88-2.65,3.85-1.96,1.41-3.96,2.65-6.51,2.38-1.61-.17-2.5.57-3.47,1.86-2.11,2.8-5.03,4.4-8.65,3.79-2.19-.37-3.73,0-5.35,1.71-3.09,3.25-7.07,3.92-11.35,2.75-.9-.25-1.77-.66-2.62-1.07-.93-.45-1.82-.54-2.64.16-2.28,1.92-5.07,2.37-7.88,2.89-2.14.4-4.1-.27-6.08-.63-1.87-.34-3.3-.27-4.74,1.13-.86.84-2.15,1.27-3.27,1.83-1.49.74-3.01.77-4.6.25-1.95-.64-3.97-1.06-5.58-2.45-1.09-.94-2.19-.94-3.43-.11-5.11,3.44-10.32,3.47-15.49.14-.94-.6-1.7-.63-2.61-.12-.55.31-1.12.59-1.71.81-6.16,2.26-12.11-1.64-12.45-8.16-.03-.63,0-1.26,0-2.17Zm41.45-104.16c-.35,1.15-.52,2.28-1.03,3.21-.48.88-.9,1.49-.17,2.5,2.4,3.34,2.37,6.76-.1,10.07-.69.93-.56,1.65.02,2.54,2.5,3.82,2.67,7.63-.09,11.43-.51.7-.42,1.37.2,2.1,2.06,2.4,2.28,5.22,1.19,8.01-.6,1.53-.27,2.67.27,4.03.51,1.3,1.25,2.86.95,4.06-.68,2.7-.57,5.15.35,7.75.39,1.11.33,2.64-.13,3.72-.8,1.84-.38,3.21.53,4.81.98,1.72.82,3.67.28,5.53-.22.75-.57,1.47-.9,2.19-.35.75-.07,1.03.63,1.34,1.13.51,2.25,1.11,3.25,1.84,1.02.74,1.85.83,2.95.13,2.89-1.83,5.69-1.57,8.29.66.12.1.28.16.39.27.82.78,1.63.82,2.49.04.35-.32.74-.59,1.13-.86,3.43-2.44,6.9-3.01,10.45-.24.12.09.28.14.42.21.69.36,1.17.17,1.54-.5.53-.97,1.03-1.96,1.66-2.86.91-1.32,2.06-2.39,3.66-2.86,1.19-.35,2.66-.42,3.5-1.18.84-.76.99-2.24,1.55-3.35.97-1.92,2.71-3.02,4.54-3.98.93-.49,1.38-1.24,1.28-2.3-.38-3.86,1.1-6.79,4.49-8.66.98-.54,1.32-1.23,1.28-2.27-.1-2.65.86-4.94,2.4-7.03.56-.76,1.32-1.42,1.66-2.26.48-1.21-.97-1.87-1.17-2.92-.61-3.29-1.03-6.55.91-9.64.8-1.28.68-1.44-.29-2.43-.33-.34-.68-.66-1.04-.97-2.41-2.02-3.17-4.63-2.75-7.65.11-.77.36-1.53.58-2.28.21-.72-.04-1.21-.68-1.53-3.63-1.82-5.96-4.58-6.36-8.75-.02-.16-.03-.32-.09-.46-.93-2.39-1.94-4.6-4.83-5.35-2.17-.56-3.95-1.97-5.41-3.68-.81-.95-1.41-2.13-2.33-2.95-1.27-1.12-2.71.5-4.09.05-.3-.1-.62-.13-.93-.17-2.85-.4-4.91-2.03-6.58-4.24-.53-.7-1.16-1.09-2.02-.76-2.67,1.01-5.34.83-7.83-.39-1.4-.69-2.37-.29-3.44.47-2.87,2.05-5.84,2.03-8.9.46-.26-.14-.58-.32-.84-.28-.26.04-.69.34-.68.51.04,1.25.23,2.49.27,3.74.06,2-1.69,3.52-1.81,5.26-.13,1.91.88,3.9,1.4,5.86Z"></path>
                <path class="cls-2"
                    d="m1316.32,207.77c-.35-2.99.99-5.48,2.8-7.75.77-.97.76-1.78.44-3-.85-3.25-1.04-6.6.84-9.63.98-1.58,2.7-2.85,3.21-4.53.45-1.51-.63-3.41-.46-5.08.41-3.97,2.35-7.18,5.83-9.27.77-.46,1.82-.73,2.72-.68,2.44.13,4.07-.65,5.43-2.84.95-1.53,2.68-2.63,4.2-3.73,3.17-2.27,6.76-2.67,10.39-1.55,1.35.41,2.43.54,3.55-.23,3.19-2.19,6.82-2.29,10.48-2.26,2.41.02,4.75.16,6.48,2.24.75.91,1.82,1.08,3.02.89,4.89-.78,9.34.1,13.38,3.24,1.15.89,2.94,1.12,4.48,1.29,2,.21,3.61,1.14,5.15,2.24,2.51,1.79,3.55,5.09,2.64,8-.14.45-.32.9-.58,1.29-.86,1.31-2.22,2.49-2.53,3.91-.3,1.39.67,3.02.67,4.54,0,2.3-1.07,4.31-2.75,5.83-1.54,1.39-2.76,2.88-3.84,4.69-2.03,3.43-5.38,4.66-9.33,4.29-3.64-.34-6.69-1.84-8.94-4.7-.88-1.12-1.81-1.68-3.2-1.56-.63.06-1.28.14-1.89.04-2.69-.42-4.91.01-6.42,2.64-.42.73-1.56,1.02-2.32,1.57-.54.39-.83.94-.54,1.64.56,1.34.96,2.76.45,4.15-.59,1.62.16,2.7,1.02,3.88.5.68,1.01,1.21,1.87,1.23,3.14.09,5.8,1.45,8.23,3.27,1.34,1.01,2.7,1.46,4.38,1.39,2.53-.11,5.02.23,7.5.91,2.44.67,4.4,1.78,5.39,4.16.54,1.3,1.49,2.03,2.74,2.38,3.4.96,5.4,3.21,5.96,6.62.25,1.53,1.04,2.03,2.38,2.47,1.31.44,2.58,1.18,3.37,2.48,1.12,1.85,1.73,3.81.78,5.85-.88,1.88-.35,3.08,1,4.57,2.24,2.47,3.15,5.46,1.71,8.77-.41.94-.43,1.81.09,2.71.24.41.45.84.61,1.28,1.7,4.71.83,8.13-3.09,11.38-.96.79-1.22,1.47-1.18,2.73.12,4.23-1.69,7.67-5.08,10.16-1.57,1.15-2.98,2.17-3.32,4.32-.15.98-.99,1.98-1.76,2.72-4,3.85-8.7,6.32-14.33,6.43-2.33.04-4.17.79-6.16,1.9-4.28,2.4-8.87,3.41-13.52.9-1.36-.73-2.52-.89-4.02-.39-3.78,1.26-7.25-.03-10.29-2.13-1.47-1.01-2.76-1.26-4.38-1.14-1.57.12-3.16.06-4.74.04-2.84-.03-5.17-1.1-7.08-3.25-1.44-1.62-1.64-1.64-3,.24-1.65,2.26-3.79,3.22-6.51,3.11-.16,0-.32.03-.47,0-1.88-.39-3.25.24-4.59,1.67-2.5,2.67-5.67,2.71-8.69,1.1-2-1.06-3.64-1.19-5.78-.37-2.9,1.11-5.63-.04-7.88-1.98-1.14-.99-2.08-1.11-3.37-.45-2.46,1.25-4.95.84-7.3-.32-1-.49-1.76-.42-2.6.18-.26.18-.58.27-.83.46-2.49,1.81-5.03,1.74-7.48.04-1.32-.91-2.26-1.03-3.74-.04-3.5,2.36-8.98,2.01-12.49-.37-3.21-2.18-4.45-5.21-3.96-8.98.12-.93.43-1.85.74-2.74.34-.95.3-1.84-.07-2.76-1.43-3.59-1.04-7.14.42-10.61.47-1.12.42-1.94-.21-3.05-1.52-2.67-2.31-5.51-1.08-8.62.33-.82.42-1.97.11-2.78-1.83-4.82-.33-9.33,1.06-13.88.09-.3.38-.56.4-.85.07-.76.28-1.62.03-2.28-1.36-3.48-.92-6.83.57-10.11.42-.93.62-1.72.07-2.66-.39-.67-.62-1.45-.89-2.19-.78-2.11-1.25-4.23-.55-6.48.48-1.55.39-3.05-.17-4.63-1.03-2.91-.89-5.93-.16-8.89.29-1.16.27-2.11-.35-3.14-1.74-2.87-2.15-5.99-.84-9.05.72-1.67.41-2.97-.17-4.44-.41-1.02-.79-2.08-.98-3.15-.49-2.73-.12-5.44,1.36-7.76.87-1.37,1.42-2.77,1.92-4.27.92-2.77,2.85-4.41,5.7-5.11,2.31-.56,4.58-1.25,6.99-1.03,1.34.12,2.47-.17,3.4-1.24.51-.58,1.23-.99,1.85-1.47,4.51-3.43,10.27-.88,12.03,3.01.32.72.74,1.43.86,2.19.19,1.25.88,1.9,1.97,2.42.83.4,1.6,1,2.3,1.62,3.4,3.05,4.23,6.46,2.51,10.66-.55,1.34-1.32,2.62-.66,4.06,1.1,2.41.48,4.78-.51,6.88-.88,1.88-.67,3.26.41,4.78.27.39.52.8.69,1.24.81,2.14,1.09,4.28-.03,6.42-.37.7-.63,1.46-1.06,2.12-.49.75-.55,1.44-.05,2.18.18.26.32.54.49.81,1.89,3.08,2.12,6.24.41,9.45-.8,1.5-1.05,2.95-.25,4.5,1.74,3.39,1.47,6.76-.34,9.97-.82,1.45-.79,2.62.19,3.87.1.12.17.27.24.41,2.08,3.67,2.08,7.27-.66,10.59-1.15,1.39-1.52,2.63-.64,4.27,1.1,2.06.72,4.32.67,6.52-.02.9.34,1.51,1.28,1.66.62.1,1.27.12,1.87.3,1.35.4,2.71,1.27,4.02,1.21,1.32-.07,2.58-1.07,3.88-1.63,2.93-1.26,5.83-1.36,8.6.39,1.17.74,2.22.83,3.55.35,3.25-1.16,6.17-.27,8.89,1.71,1.02.74,1.79.44,2.29-.61.27-.57.47-1.17.74-1.75,2.21-4.76,7.16-6.64,11.85-4.49,2.61,1.2,5.02,2.71,6.72,5.08.83,1.16,1.79,1.71,3.21,1.38.61-.14,1.28-.07,1.88-.25,2.57-.78,5.04-.32,7.39.7,1.32.58,2.39.5,3.57-.18.54-.31,1.19-.41,1.77-.66,2.52-1.09,5.13-1.66,7.86-1.08,1.1.23,1.82-.08,2.45-.9.38-.5.9-.92,1.19-1.47.42-.78.7-1.64,1.04-2.46-.72-.29-1.43-.63-2.17-.87-2.25-.72-3.93-2.19-4.67-4.36-.52-1.53-1.41-1.84-2.77-1.99-3.18-.36-5.69-1.79-7.07-4.84-.46-1.02-1.22-1.27-2.32-.96-1.91.54-3.8.1-5.56-.63-1.29-.54-2.71-1.18-3.21-2.64-.66-1.95-2.07-2.09-3.77-1.99-2.05.12-4.11.13-6.1-.58-2.53-.91-4.6-2.22-4.71-5.25-.05-1.33-.87-1.94-1.9-2.45-.99-.49-2.05-.91-2.92-1.57-2.6-1.98-4.65-4.36-4.34-7.93.16-1.82-.17-3.35-1.28-4.87-1.44-1.97-1.89-4.31-1.7-6.82Z"></path>
            </g>
            <path class="cls-1"
                d="m143.86,28.86c-25.66,13.37-46.66,24.68-46.66,25.14.01,1.19,61.6,32.38,63.78,32.3.99-.03,8.21-3.35,16.03-7.38l14.22-7.31,15.53,7.98,15.53,7.99,25.44-11.43c38.33-17.22,42.31-19.11,41.68-19.74-.83-.84-14.57-8.23-51.87-27.86-18.02-9.49-35.52-18.79-38.88-20.68-3.36-1.88-6.56-3.4-7.12-3.37s-22.02,10.99-47.68,24.36h0ZM31.29,87.15l-26.72,13.8v60.57c0,33.31.35,60.57.78,60.57s13.57-5.7,29.21-12.66l28.43-12.66v-63.84l13.89,7.57c10.71,5.83,21.42,11.64,32.14,17.45l18.24,9.88,8.12-3.67c5.09-2.31,10.17-4.63,15.24-6.98,3.92-1.82,13.54-6.16,21.37-9.63,7.84-3.47,15.09-6.97,16.12-7.76,1.37-1.06-15.3-10.27-61.63-34.06-34.92-17.93-64.62-32.55-65.99-32.48s-14.51,6.34-29.21,13.93h0Zm262.94,3.88c-18.2,8.21-33.1,15.26-33.11,15.67-.02.4,9.9,6.3,22.04,13.1,12.14,6.81,22.07,12.74,22.07,13.18s-10.74,5.65-23.87,11.57c-13.13,5.92-46.31,20.9-73.74,33.3l-91.9,41.54c-23.12,10.45-43.96,19.87-46.31,20.94-47.22,21.38-60.2,27.31-61.98,28.33-1.79,1.03-2.2,6.98-2.52,36.87l-.38,35.65,23.89,12.17,23.89,12.17,33.13-14.95c18.22-8.22,33.13-15.38,33.13-15.91s-3.37-2.72-7.48-4.88c-4.12-2.16-12.61-6.93-18.88-10.62-6.27-3.68-12.52-7.06-13.89-7.51-1.37-.45-2.47-1.23-2.45-1.74.02-.51,14.61-7.44,32.42-15.4,34.58-15.46,61.05-27.38,117.87-53.07,25.41-11.49,50.82-22.96,76.23-34.44,22.33-10.08,48.3-21.86,57.71-26.16l17.1-7.83.38-36.06.38-36.05-24.23-12.44c-13.33-6.84-24.72-12.42-25.32-12.4-.6.02-15.97,6.76-34.17,14.97h0Zm76.46,130.08c-3.57,1.74-10.62,5.01-15.67,7.26s-14.63,6.57-21.29,9.61l-12.11,5.52-.28,31.65c-.15,17.41-.79,31.58-1.42,31.48-1.43-.21-24.13-11.85-46.95-24.08-16.47-8.82-17.5-9.17-21.37-7.26-2.24,1.11-15.61,7.11-29.72,13.33-14.11,6.22-26.11,11.72-26.67,12.22-.56.5,27.83,15.88,63.09,34.2l64.11,33.29,27.39-14.17c15.06-7.79,27.87-14.9,28.46-15.79,1.33-2.01,1.21-120.71-.12-120.55-.53.06-3.88,1.54-7.45,3.29h0Zm-151.67,139.33c-4.75,2.04-9.5,4.09-14.25,6.14-14.34,6.2-11.53,6.41-28.59-2.08-11.36-5.66-16.26-7.4-18.38-6.55-1.59.64-15.32,6.81-30.5,13.72-15.18,6.91-28.13,12.56-28.77,12.56-6.37,0,4.22,6.33,45.08,26.94l47.92,24.17,20.16-9.95c11.09-5.47,33.45-16.44,49.7-24.36,16.25-7.93,29.34-14.62,29.09-14.87-.25-.25-13.86-7.24-30.25-15.53l-29.81-15.08-11.4,4.9Z"></path>
        </g>
    </g>
</svg> 