<?xml version="1.0" encoding="UTF-8"?> <svg xmlns="http://www.w3.org/2000/svg" id="Layer_2" data-name="Layer 2" viewBox="0 0 4694.04 1599.9"><defs><style> .cls-1 { fill: #77c26a; stroke-width: 79px; } .cls-1, .cls-2 { stroke: #363436; stroke-miterlimit: 10; } .cls-2 { fill: #fff; stroke-width: 29px; } </style></defs><g id="Layer_1-2" data-name="Layer 1"><g><ellipse class="cls-1" cx="2347.02" cy="799.95" rx="2307.52" ry="760.45"></ellipse><g><path class="cls-2" d="m1321.79,932.57c.28,4.87-3.73,8.1-4.78,12.4-.96,3.94.94,8.32-1.29,12.12-1.64,2.79-1.67,5.26-.05,8.08.76,1.32,1.5,3.56.9,4.58-3.64,6.2-1.88,12.87-2.18,19.34-.43,9.28,2.41,10.37-10.24,15.32-4.99-2.44-10.06-4.92-15.26-7.47-3,2.72-5.72,5.19-8.15,7.4-3.92.22-4.99-3.48-7.63-4.35-2.42-.8-4.56-3.07-7.82-.78-1.55,1.09-4.73.1-7.11-.29-1.96-.32-3.97-1.93-5.73-1.62-7.69,1.35-12.21-3.11-16.9-8.01-3.28-3.43-4.38-7.12-2.3-11.15,2.11-4.08,2.33-7.67-.06-11.63-1.45-2.41-.88-5.56-2.74-8.05-.76-1.02-.67-3.44.02-4.64,1.25-2.15.91-3.36-.58-5.24-3.42-4.32-3.56-5.4-.09-9.53,3.11-3.71,3.27-7.28,1.4-11.34-.68-1.48-1.24-3.06-2.14-4.4-2.33-3.45-2.01-6.85-.5-10.5,1.85-4.49,3.44-9.08,5.37-14.23-.94-2.57-5.36-4.35-4.09-8.91.77-2.79-1.5-4.54-3.18-6.33-1.92-2.05-2.09-4.34-1.12-6.83.59-1.5,1.56-2.95,1.75-4.5.3-2.41.57-5.03-1.6-6.93-2.3-2.02-3.6-4.45-3.41-7.59.02-.29-.52-.6-.81-.91-.45.45-1.23.86-1.3,1.36-.4,2.81-.23,5.54-1.65,8.36-1.19,2.36-.95,5.58-.86,8.4.12,3.62-.59,8.92-1.94,11.65-.34.68-.68,1.98-.35,2.28,3.24,3.04.55,5.81.19,8.88-.34,2.92,1.19,6.33,2.65,9.13,2.5,4.8,2.57,9.37.17,14.06-1.25,2.44-1.14,4.72.41,6.94,1.94,2.78,1.44,5.4-.4,7.97-1.16,1.62-.83,3.33.52,4.38,3.37,2.63,3.79,6.12,3.6,9.98-.16,3.3.21,6.66-.23,9.91-.3,2.23-1.69,3.86-.38,6.67,1.27,2.74.56,6.47.47,9.75-.03,1.14-.45,2.67-1.25,3.32-4.93,3.97-4.46,11.64-10.37,14.88-1.77.97-3.56,2.01-5.07,3.32-1.71,1.48-3.58,1.88-5.69,1.81-1.24-.04-2.51.18-3.72-.03-5.49-.95-10.48,1.04-15.53,2.59-3.47,1.06-6.86,2.37-10.3,3.54-7.94,2.69-12.19,1.11-16.16-5.98-.79-1.41-1.58-2.83-2.75-4.91-4.89-.06-10.21-.29-15.5-.12-3.22.11-5.72-.98-7.49-3.45-1.89-2.64-3.51-5.48-5.07-8.32-.3-.55-.06-1.79.39-2.29,3.86-4.26-.75-11.02,4.45-14.86.64-.47,1.03-1.27,1.54-1.92-5.9-12.71-5.91-14.69-.07-22.25-.63-2.69-2.91-3.27-5.04-4.46-4.55-2.55-6.78-6.41-6.8-12.13-.02-5.66,1.85-9.22,7.45-11.12-4.76-4.46-6.42-8.99-3.04-14.61,1-1.66.74-4.06,1.68-5.78.96-1.76.57-2.87-.36-4.35-2.37-3.78-4.65-7.62-6.81-11.52-.54-.98-1.14-2.8-.68-3.32,2.08-2.37,1.43-5.54,2.77-8.05,1.26-2.37,3.81-2.93,5.91-4.15,1.7-.99,3.49-2.28,1.63-4.82-.66-.9-.93-2.33-.85-3.49.22-3.14-.68-5.7-3.16-7.63-5.72-4.44-5.37-9.6-1.94-15.22,1.51-2.47,2.17-5.05.24-7.69-.21-.28-.19-.84-.09-1.22.76-2.7,2.2-5.4,2.19-8.09,0-2.7-1.86-5.35-2.14-8.1-.24-2.34.3-4.88,1.05-7.15.44-1.32.51-2.2-.33-3.19-.8-.94-1.78-1.77-2.45-2.79-3.66-5.54-4.91-11.23-.74-17.11,2-2.82,2.55-5.93,2.41-9.33-.12-2.86-.02-5.78.4-8.61.35-2.34,4.29-3.1,3.45-5.86-.56-1.83-2.65-3.15-3.61-4.93-.52-.96-.39-2.51-.04-3.64.35-1.11,1.33-2.03,2.05-3.03,2.73-3.78,2.69-3.75-.18-8.11-1.34-2.04-2.6-4.15-3.63-6.35-.45-.97-.76-2.67-.23-3.33,2.31-2.92,1.71-5.2-.87-7.45-1.62-1.41-2.41-3.2-2.35-5.46.08-3.27.27-6.49-1.96-9.48-1.18-1.58-.88-4.12.7-5.73,2.4-2.45,4.52-4.89,3.75-8.65,4.26-9.43,2.36-19.44,2.31-29.18-.02-4.7-1.51-9.64-3.39-14.02-2.29-5.31-1.22-10.55-1.1-15.81.03-1.29,1.65-3.25,2.94-3.68,6.58-2.15,9.15-9.47,15.56-11.81.68-.25.94-2.14,1.07-3.31.3-2.83,2.35-5.51,4.36-5.31,5.23.51,9.26-3.21,14.33-3.02,4.11.16,7.27,1,8.72,5.25.2.59.86,1.02,1.99,2.31.24-2.41-.05-4.22.63-5.52,3.29-6.26,6.65-7.62,14.16-5.86,1.16.27,2.33,1.14,3.15-.04,3.28-4.73,7.02-2.47,10.61-.74,2.56,1.23,5.03,2.72,7.37,4.35,1.65,1.15,3.02,3.41,5.19,2.33,1.22-.6,1.55-2.78,2.57-4.01,3.1-3.77,7.49-4.33,11.92-.82,2.3,1.82,3.69,2.4,6.26.71,1.03-.68,3.29-.18,4.64.49,1.8.9,3.35,3.67,4.85,3.56,5.17-.39,9.23,3.47,14.22,3.09,2.87-.22,5,1.26,6.01,3.55,1.4,3.18,3.01,5.71,6.51,6.87.78.26,1.44,1.96,1.5,3.03.15,2.45.79,5.52-.38,7.27-3.25,4.88-1.79,8.23,1.81,11.95,2.16,2.23,1.61,5.51.64,8.22-.95,2.66-2.54,5.09-3.89,7.7.8.93,1.47,2.06,2.43,2.77,5.11,3.79,5.75,9.1,3.81,14.35-1.11,3-1.89,5.16.26,7.78.37.46.28,1.78-.12,2.31-2.62,3.47-1.53,6.4-.01,10.21,3.99,10.02,3.95,17.64,1.57,28.69-.14.65.02,1.55.39,2.09.44.64,1.2,1.23,1.93,1.4.39.09,1.46-.77,1.43-1.14-.3-3.82,1.52-7.1,2.35-10.63.83-3.54-.14-7.46.39-11.12.58-4.03-3.15-6.82-2.54-10.59.58-3.57,1.84-7.03,2.35-10.6.33-2.38.41-4.91-1.18-7.15-2.09-2.96-1.99-6.75-.9-9.54,1.7-4.35,2.2-8.65,2.32-13.15,3.42-4.33,2.05-9.46,2.31-14.3.11-2.06.15-4.15,0-6.21-.45-6.5,3.09-9.87,8.89-11.36,1.69-.43,2.56-1.37,3.73-2.59,2.66-2.74,5.55-6.28,10.25-3.35,2.49-1.11,5.16-1.96,7.44-3.41,2.4-1.53,4.26-3.88,6.64-5.43,5.43-3.54,8.44-2.66,12.96,3.22,1.25,1.63,2.65,3.16,4.09,4.63.55.56,1.38.85,2.57,1.55.2-1.79.55-3.35.52-4.9-.08-4.96,3.53-7.17,7-9.35.88-.55,2.8-.56,3.59.03,2.88,2.17,6.1,2,9.39,2.33,3.16.31,6.23,2.23,9.33,2.21,4.96-.03,7.63,2.93,9.85,6.36,1.32,2.04,1.79,4.6,4.69,5.61.28-1.16.93-2.34.78-3.42-.66-4.97,2.36-7.97,5.95-9.99,3.25-1.84,7.32-1.63,10.67.04,2.34,1.16,5.5,1.53,6.4,5.17.38,1.52,2.87,3.4,4.53,3.53,3.26.27,5.29,2.02,7.37,4.02,1.28,1.24,2.13-.24,3.2-.44,5.37-1,9.89,3.01,9.12,7.98-.12.8-.06,1.77-.49,2.37-2.9,4.04-2.5,7.54,1.25,10.85,2.1,1.85,2.44,4.47,1.08,6.75-4.46,7.45-6.44,14.92-2.08,23.2.6,1.13,0,3.32-.75,4.63-1.06,1.87-.32,2.85.81,4.16,1.04,1.21,2.23,2.6,2.51,4.08.74,3.87.23,7.84-3.93,9.39-3.11,1.15-3.27,3.07-3.38,5.66-.19,4.44.78,7.54,5.38,9.88,6.23,3.16,6.62,11.72,1.36,16.56-1.47,1.35-3.51,2.08-5.02,3.41-.77.68-1.63,2.51-1.28,3.01,3.7,5.31,1.02,12.13,4.36,17.6.8,1.31.09,4.23-.9,5.8-1.68,2.66-1.3,4.55.82,6.45,3.69,3.3,3.42,7.18,1.62,11.23-.83,1.86-1.73,3.71-2.8,5.45-.97,1.59-.71,2.86-.02,4.53,1.53,3.72,2.64,7.61,3.97,11.42.39,1.11.69,2.86,1.46,3.14,5.17,1.88,4.19,6.23,2.73,9.17-1.59,3.21-1.22,6.4-2.03,9.5-.72,2.74-4.95,3.94-4.23,7.11.49,2.19,3.13,3.81,3.99,6.01,1.05,2.65,1.22,5.67-.63,8.26-.96,1.34-2.41,2.38-3.11,3.82-.39.8.02,2.86.6,3.1,2.62,1.09,3.8,2.69,3.77,5.59-.04,4.05-.79,8.2,2.07,11.92.71.92.41,3.8-.48,4.58-5.47,4.82-2.63,9.97.3,13.75,3.57,4.6,3.99,9.1,2.05,13.73-1.43,3.4-1.93,6,.14,9.17,1.47,2.25,1.29,4.87-.75,6.78-4.67,4.38-4.09,9.39-2.19,14.7.54,1.51,1.05,3.07,1.26,4.66.43,3.28-.15,6.44-1.73,9.39,2.35,2.84,1.6,6.24,1.78,9.5.18,3.43-2.91,4.8-4.27,7.23,1.24,4.5,4.2,7.76,7.32,11.03,2.87,3.01,2.87,8.19-.27,11.09-3.44,3.18-5.39,7.17-7.66,11.04-1.22,2.09-2.62,4.12-4.21,5.93-2.43,2.76-4.76,5.44-6.7,8.7-3.96,6.62-9.82,8.13-16.93,4.25-5.77-3.15-11.63-3.58-17.81-3.24-1.19.06-2.51.29-3.5.89-3.97,2.42-7.71,2.09-11.6-.25-1.83-1.1-3.96-.98-5.84.23-2.74,1.76-5.45,3.56-8.17,5.33-2.75,1.79-5.31,1.58-7.83-.63-.31-.27-.56-.65-.91-.83-4.93-2.49-1.87-10.4-7.62-11.87-5.84-1.49-5.7-7.77-9.66-10.61-.57-.41-1.08-1.48-.99-2.16.67-5.13-2.1-8.42-5.48-11.74-3.08-3.02-3.34-7.63-.21-11.06,3.37-3.7,3.51-6.71,1.19-11.01-1.24-2.29-.34-5.67-.79-8.49-.14-.91-1.5-1.63-2.3-2.44.04-.82-.1-1.69.15-2.44.96-2.9,3.65-5.47.45-8.85-1.32-1.39-.7-3.79.35-5.74.74-1.38,1.31-2.99,1.43-4.53.25-3.22.33-6.25,1.76-9.44,1.22-2.72.74-6.37.39-9.54-.14-1.32-1.89-2.46-3.51-4.42-.62,2.71-.74,4.7-1.55,6.33-.89,1.79-3.11,3.1-3.48,4.89-.35,1.67,1.4,3.67,1.48,5.56.22,5.31.06,10.64.06,15.97,0,3.28-.12,6.57.17,9.82.08.86,1.5,1.59,2.3,2.39Zm3.72-79.18c-2.3,3.78-.84,8.17-3.31,11.8-1.33,1.95-.43,5.58-.13,8.41.11,1.04,1.34,1.98,2.12,2.91.24.29.71.47,1.09.52.26.03.74-.19.8-.4,1.1-3.57.8-15.77-.58-23.23Zm1.64-41.6c.24.31.49.89.72.88,1.76-.09,3.91-3.38,3.45-5.24-.08-.34-.5-.86-.74-.85-1.81.13-3.85,3.31-3.43,5.21Z"></path><path class="cls-2" d="m1833.24,925.12c.53,3.32-1.54,5.35-3.58,7.46-1.22,1.26-1.67,2.78-.51,4.42.48.68,1.05,1.35,1.29,2.11.78,2.56-.91,4.73-1.2,6.96-.23,1.78,3.42,3.82,3.68,5.94.47,3.99.45,8.34-.74,12.11-.84,2.66-1.19,4.42.42,6.69,1.17,1.65,2.05,3.56,2.73,5.48.71,1.98.77,4.23-.86,5.78-2.05,1.94-4.37,3.61-6.69,5.25-1.5,1.06-2,.94-6.47.06-2.97-.59-4.72.18-5.28,3.24-.79,4.34-2.91,6.49-7.39,6.64-1.95.06-3.9.89-5.8,1.52-4.43,1.48-9.18,1.85-13.22,0-3.68-1.68-7.19-1.58-10.82-1.52-3.26.06-5.41-1.27-7.25-3.81-2.89-4-3.21-4.2-5.97-1.7-5.05,4.59-10.89,3.91-16.13,1.81-4.98-1.99-9.6-4.3-15.17-4.05-1.33.06-3.25-1.22-3.99-2.44-2.25-3.7-4.5-7.03-1.74-12.2,2.59-4.86,3.88-10.75,2.95-16.63,4.7-6.82-.03-15.57,4.56-22.45.32-.48.06-1.76-.38-2.29-2.41-2.87-1.73-6.26-1.74-9.5-.01-3.28-.79-7.16.65-9.71,2.1-3.72-1.38-6.03-.81-9.21.57-3.21.29-6.61.09-9.91-.28-4.42.61-8.25,4.21-10.15-3.01-5.5-5.79-10.46-8.41-15.5-.53-1.02-1.02-2.74-.54-3.49,2.05-3.16.03-6.06.06-9.04.05-5.38-1.28-9.58-5.52-12.98-2.58-2.07-3.01-5-1.17-7.73,1.52-2.27,1.57-4.64,1.49-7.1-.09-2.55.65-4.69,1.84-7,1.76-3.4,4.48-6.95.9-11.12-.82-.96-.72-3.5-.05-4.8,2.21-4.27,3-8.3.14-12.58-.28-.42.23-1.58.65-2.21,1.77-2.67,2.05-5.28.18-8.03-1.52-2.24-1.46-4.51-.19-6.94,2.07-3.95,4.1-7.78,4.33-12.59.14-2.99,2.88-5.78,3.99-8.83,1.14-3.14,1.26-6.35-1.13-9.29-1.52-1.87-2.47-4.21-3.96-6.11-1.83-2.33-1.71-4.3-.02-6.65,1.27-1.77,1.29-4.04-.05-5.8-1.81-2.38-1.19-4.23-.04-6.72.95-2.07.51-4.78.69-7.21-3.68-3.1-.99-8.13-3.47-11.54-2.53-3.48-.05-8.22-3.31-11.68-1.25-1.32-.13-3.76.62-5.79,2.14-5.78,1.87-13.69-.15-20.37-.12-.38-.7-.83-.61-1.03,2.43-5.09-.6-9.11-2.78-13.37,1.29-2.6,2.45-5.19,3.84-7.65.89-1.58,1.2-2.96.08-4.51-1.9-2.62-1.88-5.22-.11-7.99,2.4-3.76,4.5-7.71,6.92-11.46,2.14-3.32,5.98-4.13,9.32-5.53.98-.41,2.49-.07,3.56.39,2.6,1.11,5.08,2.5,7.11,3.52,3.81-1.48,7.22-2.75,10.6-4.13,1.47-.6,3.18-1.11,4.21-2.2,2.22-2.34,4.81-2.93,7.83-2.77,2.06.11,4.14.06,6.2.04,2.86-.03,5.58.01,8.33-1.6,2.93-1.72,6.34-1.48,9.34.53,1.86,1.25,4.1,1.66,5.81.51,2.81-1.88,4.91-1.62,7.77.09,3.45,2.06,7.36,3.84,11.63,2.87,4.02-.91,6.93,2.37,10.57,2.51,4.54.17,9.1-.04,13.65.08,4.82.13,8.08-3.68,13.18-4.91,2.32,2.2,5.04,4.62,7.56,7.24.78.81,1.5,2.2,1.4,3.25-.37,4.09,1.36,7.03,4.08,9.86,1.36,1.41,1.98,3.55,2.85,5.39.93,1.96.98,3.95-.2,5.86-.43.7-.92,1.38-1.33,2.1-3.63,6.37-4.41,12.24,2.32,17.36,3.08,2.35,3.01,5.46,1,8.81-1.68,2.78-2.6,6.03-4.37,8.74-1.59,2.44-.92,4.17-.2,6.72,1.09,3.84.84,8.1.97,12.19.15,4.88,3.48,7.1,7.26,8.91.43.21,1.75-.42,1.97-.95,1.4-3.33-.15-7.51,2.93-10.4-.74-1.86-1.21-3.9-2.28-5.54-2.25-3.43-2.71-6.63-.01-10.01.75-.94,1.37-2.09,1.7-3.24.3-1.07.5-2.43.08-3.38-1.29-2.96-2.89-5.79-4.21-8.36,2.12-4.41,5.5-6.63,9.19-8.49-.63-1.48-1.29-2.96-1.89-4.45-.73-1.83-3.15-3.59-1.79-5.48,1.58-2.2,1.36-5.75,4.99-6.61,1.44-.34,2.6-1.87,4.13-3.04-1.45-1.82-2.82-3.27-3.87-4.93-1.08-1.72-2.88-3.89-2.51-5.42.63-2.64,2.15-5.82,4.3-7.16,2.93-1.82,4.79-4.06,6.61-6.77.77-1.15,2.72-1.53,4.16-2.2.35-.16.84.02,1.23-.08,5.17-1.35,8.14,2.96,12.17,4.45,3.9,1.45,5.64-5.67,10.72-4.6,2.58.54,4.79,1.06,6.28,3.24,1.14,1.67,2,3.53,3.16,5.19.31.45,1.26.53,1.94.58.2.02.56-.6.65-.98.38-1.57.36-3.33,1.08-4.71,1.66-3.16,4.11-3.56,6.97-1.41.66.5,1.22,1.12,1.82,1.68,2.09,1.93,4.51,2.12,6.8.73,2.24-1.36,4.58-2.46,6.9-1.15,2.13,1.2,3.3.94,5.23-.5,5.49-4.12,9.75-3.76,13.21,2,1.77,2.95,4.71,3.01,6.71,4.93.39.38,2.2-.38,3.1-.99.55-.37.45-1.59.92-2.22,3.05-4.08,7.67-5.07,11.83-2.49,1.03.64,1.79,1.72,2.75,2.5,1.4,1.13,2.96,1.48,4.44.2,2.47-2.13,4.56-1.27,6.37.83,2.1,2.43,3.69,5.45,6.18,7.32,1.98,1.49,4.68,2.51,4.97,5.02.57,4.84,4.37,9.11,2.64,14.26-.62,1.86-1.8,3.58-2.95,5.19-2.28,3.21-2.61,3.55.08,6.22,2.85,2.83,3.7,5.33.82,8.47-.07,4.85-1.2,9.63,1.41,14.44,2.5,4.61.08,8.68-3.38,12.05,1.71,3.88,5.99,6.92,3.92,12.03-.15.37-.32.91-.61,1.01-3.73,1.24-2.91,3.54-1.84,6.3.56,1.45-.02,3.3.23,4.92.69,4.57-1.57,7.87-4.61,10.89,3.34,5.01,5.28,10.24,4.59,16.29-.45,3.96,2.48,6.81,3.92,10.14.73,1.67.98,2.98-.07,4.52-2.58,3.78-.98,8.03-1.31,12.07-.2,2.51,3.45,4.2,1.82,6.75-1.38,2.16-.39,3.53.19,5.47.81,2.68,1.42,6.04-1.04,8.16-3.24,2.79-3.74,6.15-3.55,10,.14,2.89-.05,5.8.1,8.69.06,1.17.29,2.69,1.05,3.4,6.52,6.16,3.12,13.91,3.53,21.03-3.41,4.37-1.84,9.51-2.19,14.35-.21,2.85.42,6.15-.81,8.46-2.04,3.84-1.88,6.8.4,10.3.7,1.08.42,3.41-.29,4.68-2.62,4.74-2.53,9.33-.23,14.08,1.78,3.66.45,8.11,2.96,11.73.39.56-1.25,2.76-2.24,3.97-1.07,1.32-1.83,2.24-.81,4.15,1.12,2.1,1.17,4.78,2.32,6.85,1.94,3.49,1.47,6.33-1.4,8.82-2.99,2.58-3.15,6.22-2,9.1,1.43,3.59,3.31,6.66.45,10.24.6,2.29.72,4.87,1.9,6.81,2.29,3.78,2.39,7.76,2.23,11.89-.16,4.05.95,8.34-2.14,11.86.85,6.59-3.04,9.5-8.6,11.16-.36.11-.63.52-1.03.87,1.27,2.5,2.68,4.98,3.8,7.58,1.53,3.54-.9,8.2-4.49,8.58-5.33.56-10.59.33-15.54-2.1-4.38,3.33-9.43,2.09-14.3,2.1-4.14-3.6-10.82-.63-14.47-5.61-.76-1.03-1.99-1.36-3.02-.21-3.95,4.41-8.08,4.04-13.33,1.89-3.21-1.31-7.19-3.91-11.25-1.08-.55.39-1.79.36-2.41,0-3.7-2.15-7.68-2.44-11.85-2.44-2.93,0-5.37-2.71-5.62-5.53-.07-.82,0-1.66-.09-2.48-.32-2.95.34-5.66,1.86-8.19-1.67-2.05-1.51-4.55-2-6.96-.68-3.37,2.59-6.16,1.14-9.2-1.44-3.03-.6-5.3.55-8.12.75-1.82-2.58-4.1-.32-6.59,1.85-2.04,1.38-4.7,1.24-7.12-.15-2.66.97-4.72,2.17-6.92.53-.96.7-2.85.12-3.57-3.54-4.38-1.08-7.38,1.85-10.57.7-.77.48-2.33.85-3.48,1.19-3.66-2.69-6.03-2.4-9.34.32-3.66-.99-6.33-3.63-8.74-1.14-1.04-1.67-2.73-2.59-4.32-3.36,5.01-5.73,9.91-1.75,15.7.6.87.72,2.59.28,3.57-1.32,2.98-3.35,5.77-.44,8.91-2.03,2.43-1.95,5.33-1.83,8.24.11,2.66-.34,4.81-3.43,5.73-.73.22-1.36,2.01-1.4,3.1-.12,3.24-.68,6.52,1.43,9.58.81,1.18,1.31,3.83.61,4.59-3.4,3.72-.76,9.09-3.84,12.78-.46.55-.8,1.88-.49,2.26,3.33,3.97-2.08,7.68-.25,11.55.52,1.1.86,2.31,1.51,3.31,1.1,1.68.74,3.17-.46,4.45-2.55,2.71-5.02,5.56-7.89,7.9-3.51,2.86-7.48,4.85-12.33,4.64-2.55-.11-4.71-.96-7.04-1.76-1.5-.52-3.7,1.23-5.64,1.69-3.91.93-6.85-2.19-10.49-2.88-2.9-.55-5.21-.84-7.74.49-1.43.75-2.87,1.49-4.06,2.12-3.26.19-4.04-3.04-6.92-3.87-1.69.8-3.96,1.61-5.94,2.89-2.07,1.33-3.69,1.11-5.58-.24-1.31-.93-2.97-1.36-4.34-2.23-2.05-1.3-3.4-4.36-2.41-6.51,2.89-6.29,3.74-12.43.15-18.78-.41-.72.41-2.32.97-3.34.83-1.53,1.13-2.78.25-4.54-1.43-2.87-2.41-5.97-3.55-8.99-.76-2.01-.88-4.04.46-5.85,1.38-1.86,2-3.9.05-5.44-2.9-2.28-3.43-5.39-4.09-8.62-.11-.53-1.24-.86-1.89-1.28-.01-1.66.09-3.32-.06-4.96-.3-3.31,1.33-5.5,3.94-7.14.91-.57,1.93-.98,3.36-1.68-2.36-2.39-4.32-4.52-6.43-6.46-3.04-2.81-3.65-5.45-2.19-9.8,2.38-7.08,3.4-14.68-2.83-21.22-.61,2.2-.74,4.38-1.77,5.99-1.47,2.31-1.43,4.67-1.41,7.13.03,3.27-.28,6.46,1.8,9.51,1.9,2.79-.52,5.3-1.43,7.97-.96,2.81,3.95,5.6.5,8.98-.59.58-.65,2.81-.12,3.25,2.89,2.33,3.29,6.56,6.65,8.43Zm100.92-41.57c.85-3.97,1.68-6.91.2-9.41-1.57-2.64-1.82-5.29-1.92-8.15-.03-.78.07-2.48-2.25-1.35,0,4.27-.3,8.75.15,13.14.17,1.69,2.05,3.2,3.82,5.78Zm-113.3-38.68c1.22,3.61,3.05,7.23,2.68,11.3-.03.3.38.78.7.94.67.34,1.41.61,2.15.72.27.04.91-.66.89-.69-2.63-3.89-.64-8.56-2.17-12.59-.19-.5-1.27-.94-1.92-.91-.66.02-1.3.65-2.33,1.23Zm115.37-16.95c.86-1.61,1.74-2.91,2.24-4.35.31-.89.42-2.45-.09-2.9-1.07-.94-2.57-1.72-3.97-1.88-1.52-.17-1.77,2.18-.46,4.72.71,1.38,1.42,2.75,2.27,4.41Z"></path><path class="cls-2" d="m3352.17,913.89c-.95-1.12-1.93-2.36-3.01-3.51-1.6-1.7-2.12-4.09-1.14-5.71,1.57-2.6,1.59-4.28-.79-6.2-1.72-1.39-2.49-3.2-.94-5.35,2.28-3.18,1.68-5.91-.84-8.87-3.11-3.64-2.92-3.83.23-8.06,2.38-3.19,2.37-3.25-.44-5.69-.29-.25-.8-.25-1.12-.48-.33-.23-.78-.61-.78-.93-.08-7.44-6.63-14.6-.99-22.34.37-.5.3-1.81-.1-2.32-2.69-3.39-2.43-6.73-.17-10.15-3.58-3.98-.86-7.63.56-11.36.72-1.88,1.94-3.84,1.84-5.7-.1-1.88-1.31-3.88-2.49-5.49-1.73-2.35-1.78-4.31-.07-6.68.54-.75.26-2.28.01-3.37-.45-1.96-1.13-3.86-1.79-5.77-.92-2.66-3.05-4.99-2.32-8.09.37-1.56.95-3.07,1.43-4.61,1.2-3.86,1.96-7.94,5.46-10.45-.95-2.09-1.79-3.92-2.63-5.75-2.86-6.26-2.77-6.63,3.19-10.78.98-.68,2.03-.82,1.21-2.54-2.06-4.31-1.83-8.66.33-12.97.47-.95.49-2.34.24-3.41q-2.16-9.18-.21-16.52c.51-1.95.76-3.99.86-6.01.34-6.54.29-6.54,4.38-12.11-.5-.66-1.01-1.3-1.48-1.97-6.37-8.95-6.6-9.12-.05-17.87,2.29-3.07,2.2-6.06,2.12-9.28-.08-2.86,1.23-5.13,3.53-6.04,8.63-3.44,12.23-10.67,13.67-18.86,1.13-6.44,6.24-6.8,10.42-8.85.47-.23,1.48.48,2.16.89,1.46.88,2.99,1.73,4.45.3,1.13-1.11,2.37-2.42,2.81-3.87.59-1.92.06-4.2.74-6.06.67-1.86,2.29-4.16,4.44-3.59,2.95.79,4.75,1.18,6.09-2.35.92-2.42,3.51-3.29,6.23-3.09,2.68.2,4.49-.49,5.58-3.49,1.04-2.86,3.74-4.35,7.02-3.88,2.26.32,4.73,1.57,6.68.99,1.48-.44,2.08-3.32,3.46-4.75,1.55-1.6,4.05-1.9,5.71-.75,2.9,2,4.92.93,5.74-1.58,1.18-3.63,3.59-4.18,6.64-3.87,2.73.28,5.42.85,8.66,1.38,1.65-1.56,3.75-3.54,6.09-5.75.95.6,1.96,1.09,2.8,1.78,1.55,1.29,2.99,3.4,5.23,1.99,2.22-1.39,4.67-2.78,6.86-1.48,3.08,1.83,7.59,2.13,8.83,6.19.95,3.11,2.07,2.01,4.19,1.37,6.44-1.95,11.88,1.38,17.03,4.5,2.18,1.32,4.02,2.65,6.68,2.46,2.85-.2,4.73.79,4.76,4.1.02,3.31,2.87,4.81,4.8,6.87,1.06,1.14,2.12.4,3.19-.19,3.58-1.97,6.88-.91,8.38,2.41,1.71,3.78,4.21,4.46,7.74,4.18,2.05-.16,4.07-.09,5.78,1.5,2.93,2.74,3.05,5.64.84,8.8-1.12,1.6-1.02,3.12.56,4.23,2.66,1.87,5.32,3.81,8.2,5.26,1.74.87,2.74,1.95,2.54,3.67-.45,3.85,1.18,5.86,4.64,7.52,2.92,1.4,2.89,2.87,1.81,6.08-.77,2.29-1.02,4.9-2.27,6.86-2.86,4.47-1.56,7.8,2.15,10.71,3.15,2.46,3.86,7.09,8.23,8.62,2.01.71,5.68,10.83,5.31,13.1-.19,1.15-.62,2.51-1.42,3.27-4.64,4.35-4.18,9.37-2.29,14.69.54,1.51,1.11,3.07,1.27,4.64.26,2.55.05,5-3.25,5.67-1.13.23-1.06.93-.55,1.9,2.45,4.65-.75,7.41-3.59,10.27-.81.81-2.13,1.63-2.23,2.54-.47,4.5-1.16,9.16,3.44,12.33,1,.69,1.82,1.7,2.59,2.66,1.87,2.34,1.63,5.65-.75,7.75-1.19,1.05-2.97,1.45-4.1,2.54-.7.67-.75,2.08-.96,3.18-.05.29.39.7.64,1.03,1.49,1.9,3.66,3.27,3.85,6.1.2,2.92-1.75,4.48-3.4,6.28-1.92,2.09-2.24,4.54-.84,6.8,3.73,6.01,3.1,13.36,6.21,19.54.83,1.66-.1,3.19-1.4,4.33-3.61,3.18-4.29,7.23-2.1,11.13,3.28,5.86.98,10.13-2.87,14.15.73,1.62,1.14,3.31,2.11,4.55,3.5,4.46,2.72,8.1-1.29,11.85-2.1,1.97-1.39,4.35,1.2,6.14,2,1.38,4.16,2.53,6.12,3.95,1.28.93,1.34,3.45.11,4.37-1.6,1.21-3.41,2.13-5.05,3.29-.99.71-2.22,1.49-2.61,2.51-.32.84.45,2.09.72,3.16.2.78.27,1.61.57,2.35,1.34,3.28-2.47,6.12-.98,9.15,1.59,3.23.78,6.48.93,9.71.15,3.3-.13,6.63.09,9.92.22,3.33-1.19,5.76-3.97,7.06-2.06.96-3.55,1.84-3.47,4.33.11,3-.13,5.76-3.79,6.82-.48.14-.83,2.17-.57,3.14,1.46,5.48.18,10.51-4.96,13.08-3.9,1.94-5.36,4.17-5.76,8.37-.57,5.94-3.23,10.6-9.48,13.07-4.57,1.81-8.73,4.4-13.93,3.8-2.28-.27-3.92,1.12-5.27,2.72-2.82,3.33-6.11,4.92-10.7,4.88-3.51-.03-7.01,1.79-10.58,2.2-3.67.42-7.47-.19-11.13.28-1.82.23-3.66,1.64-5.14,2.92-2.11,1.83-4.66,2.76-6.74,1.31-3.44-2.39-7.09-1.67-10.72-1.95-2.58-.2-4.76,1.56-6.95,1.6-2.16.04-4.26-2.44-6.58-3.01-5.98-1.47-12.03-2.19-17.91.77-2.38,1.2-4.78.94-6.8-1.03-1.18-1.15-2.26-2.46-3.58-3.43-1.27-.93-2.93-2.34-4.19-2.13-4.81.81-8.33-3.6-13.08-2.77-2.26.39-4.37-1.07-5-2.93-1.22-3.59-4.3-4.68-7.02-6.26-1.76-1.02-3.63-1.56-4.41-3.86-.27-.81-2-1.74-2.91-1.6-4.78.72-7.25-3.33-10.87-4.76-4.07-1.6-4.89-5.16-7.18-7.86-2.27-2.67-4.39-5.26-3.33-8.76,1.15-3.8,2.2-6.94-3.68-6.51-3.73-3.81-7.87-7.33-11.05-11.56-1.82-2.42-3.31-5.48-2.91-9.17.37-3.35,3.09-4.74,4.59-7.51Zm100.61-191.74c.28.8.53,1.5.76,2.22,1.14,3.59,5.2,6.75,1.65,11.04,3.43,3.78.43,8.95,2.79,12.96,2.33,3.96,1.85,7.61-.44,11.56-1.49,2.57-3.68,5.63-.65,8.77,0,5.78.17,11.58-.1,17.35-.12,2.58-3.77,4.82-.83,7.76,2.74,2.74-2.8,6.15.75,8.8.16,4.06,1.04,8.12-1.56,11.94-.77,1.13-.62,3.22-.26,4.72q2.51,10.36.21,20.07c-.47,1.96-.54,4.05-.56,6.08-.07,6.2-.01,12.4-.03,18.6-.01,3.72.94,7.85-.37,11.05-1.43,3.5.2,6.1.2,9.08,0,3.64,1.26,6.2,3.7,8.74,2.3,2.39,2.01,5.23-.25,7.77-1.01,1.13-1.98,2.3-2.79,3.25,1.47,2.8,2.61,4.97,3.75,7.14.75,1.43,1.33,2.99,2.27,4.29.96,1.34,2.42,2.59,4.13,1.81.82-.37,1.4-1.84,1.59-2.9.28-1.61.06-3.3.15-4.94.37-6.46-1.38-13.19,2.38-19.23-.04-4.03.99-8.24-2.85-11.45-2.54-2.12-2.88-5.06-.95-7.74,1.68-2.34-1.56-3.76-.73-5.49,1.03-2.16,2.73-3.99,4.01-6.03.4-.65.56-1.54.56-2.33.03-4.54.71-9.26-.27-13.58-.82-3.58-2.63-6.62.08-10.13.56-.73.14-2.42-.16-3.59-2.81-11.22-2.87-14.49-.06-24.97.49-1.83-.25-3.04-1.31-4.4-1.22-1.56-2.72-3.29-3-5.12-.44-2.84-1.47-5.51-2-8.18-1.02-5.16-.57-10.64-.48-15.98.02-1.05,1.04-2.17,1.8-3.1,1.05-1.27,2.26-2.41,3.44-3.57,2.39-2.35,2.75-5.04.97-7.79-1.26-1.96-1.4-3.53-.13-5.59,1.47-2.38,2.49-5.05,3.63-7.44-7-9.04-6.63-11.21-.71-18.36-.6-.44-1.18-.9-1.79-1.32-6.1-4.14-6.77-8.64-2.04-14.06,1.35-1.54,2.82-2.98,3.82-4.04-.68-2.46-1.75-4.43-1.62-6.32.25-3.64-2.18-6.08-3.3-9.09-.19-.5-1.63-1.1-2.01-.87-3.09,1.86-6.17,3.78-9,6-.68.54-.7,2.35-.49,3.47.21,1.12,1.02,2.17,1.7,3.16,4.66,6.84,4.38,11.2-1.15,17.28-.83.91-1.66,1.83-2.45,2.71Z"></path><path class="cls-2" d="m2949,750.6c-4.18-2.19-8.1-4.41-12.17-6.3-2.78-1.29-5.3-2.47-8.95-.84-3.59,1.61-7.17-1.94-7.14-6.14.01-1.97.77-3.94,1.13-5.92.13-.7.43-1.82.11-2.07-3.15-2.51-3.44-6.29-4.74-9.68-.76-1.98-1.65-3.42-.44-5.63.92-1.7,1.44-3.92,1.28-5.84-.3-3.49,2.61-3.77,4.41-5.21-1.07-2.21-1.95-4.54-3.27-6.59-1.43-2.22-.18-3.72.65-5.6,1.12-2.51.28-3.57-2.56-4.02-2.72-.43-5.44-.87-8.21-1.32-2.69,5.56-2.75,12.25-5.49,18.16-.57,1.23-.08,3.33.59,4.7,2.12,4.33,2.25,8.53.54,13.03-.61,1.6.05,3.65-.41,5.35-.75,2.79,1.88,3.27,2.88,4.82.88,1.37,3.05,2.59,2.99,3.79-.29,5.55,4.24,6.35,7.53,8.36,3.12,1.9,6.38,3.56,9.52,5.43,4.44,2.66,9.55,3.86,13.37,8.03,3.21,3.5,8.83,4.02,12.41,7.65,2.26,2.29,5.48,1.33,8.3,1.34,2.85.01,4.6,1.55,6.01,3.69.43.66.4,1.62.81,2.3,2.5,4.21,5.17,8.34,10.65,8.86,2.25.21,3.82,1.24,5.33,2.71,5.29,5.14,10.2,10.59,16.69,14.49,4.18,2.51,6.1,7.68,9.39,11.15,3.34,3.53,4.72,7.48,6.16,11.67.38,1.1,1.11,2.65.67,3.35-1.28,2.03-1.05,3.26.37,5.27,2.57,3.64,4.67,7.66,6.54,11.72.93,2.01-2.67,4.18-.36,6.63,1.92,2.03,1.3,4.66,1.39,7.1.12,3.27-.05,6.39,1.87,9.53,1.07,1.75,1.03,5.28-.06,7.05-2.44,3.94-1.68,8-1.71,12.03-.01,1.5.59,3.36,1.59,4.44,4.66,5.01,4.54,10.22,1.3,15.81-.4.69-.31,1.72-.79,2.3-2.08,2.54-2.4,4.8-.27,7.69,3.31,4.5,1.28,8.99-.84,13.33-2.55.56-3.35,1.64-1.62,4.07,1.17,1.65,2.19,3.55,2.68,5.49.37,1.47.41,3.72-.46,4.67-3.6,3.96-6.27,8.57-9.63,12.67-1.56,1.91-3.41,3.42-6.26,3.49-1.49.04-2.9,1.48-4.44,1.82-3.07.68-3.93,2.66-3.67,5.42.31,3.3-1.28,5.48-3.9,7.16-2.04,1.31-4.08,2.63-6.1,3.97-3.06,2.02-5.89,5.16-9.22,5.84-6.23,1.27-11.07,5.14-16.76,7.24-4.31,1.6-8.74,1.05-13.76-1.55-2.42,3.13-4.95,6.42-7.36,9.54-9.14.29-17.37.13-25.59.04-1.54-.02-3.2-.67-4.57-1.44-1.67-.94-2.98-.78-4.53.15-1.74,1.05-3.67,1.81-5.44,2.83-2.72,1.56-5.59,1.4-8.34.48-3.83-1.28-7.7-2.62-11.25-4.5-5.87-3.11-11.7-5.82-18.6-4.97-1.69.21-2.62-1.07-3.81-2.4-4.06-4.52-7.95-6.39-13.23-7.41-.8-.15-1.9.07-2.39-.38-4.59-4.35-10.19-6.58-16.14-8.24-1-.28-2.17-1.63-2.41-2.68-.7-3.14-2.93-3.31-5.47-3.83-3.08-.63-4.85-2.88-4.92-6.23-.07-3.26.06-6.38-1.68-9.56-1.5-2.74-1.08-6.46-4.15-8.59-.63-.44-1-1.3-1.39-2.02-.18-.33-.24-.81-.17-1.2.78-4.61-1.88-8.72-1.92-13.06-.02-1.8,1.16-3.23-.54-5.16-4.68-5.31-2.62-11.56-1.59-17.48.2-1.15,3.41-1.85,3.52-2.93.47-4.51.52-9.1.2-13.62-.1-1.36-1.78-2.7-2.92-3.88-1.58-1.64-2.03-3.53-1.68-5.67.3-1.81,2.35-3.1.83-5.51-1.68-2.66-.76-6.56-4.01-8.68-1.83-1.19-.26-2.67-.12-4.13.39-4.08,6.27-3.82,6-8.61-.1-1.87,2.51-3.97,4.07-5.82,1.48-1.75,3.24-2.23,5.39-.82,1.7,1.12,3.7,1.76,5.41,2.86,2.22,1.42,3.83.59,5.42-.99.59-.58,1.18-1.16,1.82-1.69,1.96-1.63,3.71-1.2,5.38.51.86.88,1.84,1.65,2.71,2.42,2.98-.02,4.25-5.85,8.26-2.18.7.64,2.78.77,3.52.21,3.54-2.68,6.87-2.02,10.01.35,3.59,2.7,6.28,2.25,9.57-.86,2.85-2.7,5.18-2.44,12.76-.34,2.11.59,2.02-.65,2.19-1.65.59-3.4-1.34-5.52-4.11-6.86-1.41-.68-4.16-.36-4.5-1.22-2.09-5.21-7.79-3.67-11.08-6.41-5.84,1.84-9.42-2.86-13.05-5.51-5.4-3.93-11.79-7.33-14.41-14.34-.76-2.04-7.83-6.44-11.84-7.59-3.74-1.08-5.49-3.3-5.47-7.1,0-1.66-.05-3.31,0-4.97.08-2.62-.09-5.04-3.37-5.62-1.86-4.42-6.82-7.03-6.9-12.65-.02-1.63-2.5-3.14-3.54-4.89-.54-.92-.6-2.25-.53-3.37.07-1.09,1.2-2.6.8-3.15-1.91-2.63-.85-5.67-1.57-8.38-.83-3.11-1.91-6.21-3.36-9.07-.99-1.94-1.49-3.81-1.35-5.89.22-3.43-.18-6.52-3.12-8.92-2.16-1.77-2.64-4.5-1.25-6.7,1.68-2.65,1.51-5.44,2.04-8.24.49-2.66,1.96-5.14.07-7.77,3.19-5.27,1.84-11.16,2.39-16.8.14-1.47,1.12-3.1,2.18-4.2,3.91-4.02,4.4-9.52,6.49-14.31.25-.58.14-1.57-.2-2.11-2.62-4.08-.61-6.92,2.29-9.71,2.95-2.83,5.64-5.77,7.59-9.58,1.43-2.8,4.11-5.55,6.92-6.91,3.35-1.62,5.03-4.26,6.1-7.13,1.29-3.47,3.49-4.12,6.61-4.02,1.66.05,3.37-.16,3.92-2.16,1.01-3.69,4.12-4.92,7.18-6.15,6.04-2.43,12.11-4.84,18.84-3.99,1.18.15,2.69.26,3.43,1,5.05,5.06,8.24,2.6,11.22-2.32.47-.77,2.15-.83,3.28-1.16,2.1-.63,3.28,2.4,5.58,1.37,1.46-.65,3.06-1.3,4.61-1.35,2.82-.08,5.55-.13,8.4,1.18,4.57,2.11,9.66,2.08,14.27.03,2.92-1.29,5.38-1.76,8.04.12,1.83,1.3,4.07,1.67,5.82.57,5.81-3.66,12.09-1.4,18.14-1.77.92-.06,2.45.95,2.79,1.82.92,2.35,2.56,2.85,4.78,2.98,1.56.09,4.13.27,4.47,1.12,1.61,4.06,4.79,3.8,8.09,3.79,2.61,0,2.6.09,8.98,4.26.64.42,1.52.66,2.28.66,3.39,0,3.92,2.17,4.1,4.89.08,1.12.55,2.32,2.3,1.38,1.02-.55,2.6-1.25,3.37-.84,2.21,1.17,4.36,1.95,6.87,2.38,2.45.42,4.42,2.38,4.57,5.15.15,2.96,1.23,4.42,4.39,4.6,3.24.19,5.63,2.34,5.47,5.56-.23,4.71,2.07,7.63,5.16,10.62,3.21,3.11,3.24,3.5.09,7.09-2.22,2.54-3.13,4.55-.77,7.47,1.26,1.55,2.01,3.55,2.84,5.41,1.65,3.73,3.23,7.41,2.9,11.73-.28,3.63-.34,7.23,1.83,10.74,1.13,1.83,1.27,5.19.37,7.2-3.18,7.12-2.16,14.5-2.26,21.82-.03,2.27-1.02,3.91-2.52,5.41-1.76,1.75-3.87,3.28-5.19,5.32-2.38,3.69-6.61,2.88-9.76,4.6-3.48,1.9-6.98,1.93-10.49-.27-.87-.54-2.33-.55-3.39-.29-12.6,3.07-10.75,3.1-24.78-1.53-3.98-1.31-6.75-1.67-10.21.6-2.71,1.77-5.88,2.82-9.68,4.58Zm-25.94,158.38c-.45-7.16,1.57-14.09-2.05-20.83-.95-1.77-.41-5.14.69-7.06,3.62-6.31.34-11.94-1.17-17.69-1.11-4.22-4.27-6.68-8.4-8.27-2.28-.87-3.84-2.96-3.98-5.81-.06-1.11-.55-2.61-1.37-3.21-2.6-1.89-5.4-3.5-8.23-5.03-.41-.22-1.64.38-2,.92-.37.56-.41,1.67-.09,2.26.33.61,1.23,1.01,1.96,1.31,6.29,2.58,7.55,9.48,11.83,13.77.61,4.47,1.34,8.96-.57,13.29-1.31,2.99-2.52,6.07-4.25,8.81-3.04,4.81-3.18,9.17,1,13.32,1.98,1.97,2.38,4.32,1.29,6.77-.66,1.48-1.67,2.6-.19,4.25,1.85,2.07,3.42,4.39,5.16,6.66,3.41-1.14,6.77-2.26,10.37-3.46Z"></path><path class="cls-2" d="m1662.38,821.17c2.93,5.21,2.02,10.15,1.86,15.04-3.51,3.02-7.51,3.98-12.11,4.75-5.85.97-12.06,1.54-17.43,4.67-.34.2-.88.13-1.16.37-3.23,2.83-7.9,1.91-11.27,4.34-3.96-1.22-7.39-3.26-10.44-6.12-1.76-1.65-5.18-.57-5.97,1.98-.7,2.27-1.13,4.88-.73,7.17.41,2.32,1.82,4.54,3.11,6.61,1.68,2.7,2.21,5.26.31,8.02-.23.34-.65.98-.6,1.03,3.3,2.76-.48,6.19.72,8.79,1.87,4.06.42,8.2,1.26,12.15.63,2.97-3.18,5.26-1.09,7.9,1.44,1.82,3.91,2.78,5.69,4.37,3.13,2.81,4.55,3.05,6.31.44.9-1.34,1.37-2.97,2.26-4.31,1.47-2.2,3.63-2.82,6.27-3.25,2.96-.48,5.07,3.08,7.98,1.21,2.68-1.72,5.62-.96,8.45-.98,3.24-.03,6.63-.7,9.51,1.69.54.45,1.85.75,2.27.42,6.27-4.89,8.35,1.71,12,4.21,4.83,3.31,5.16,8.06,4.69,13.18-.04.4-.02.89-.23,1.19-2.09,2.93-1.34,3.72,2.2,4.35,4.27.75,5.66,3.07,5.51,6.83-.06,1.6-.18,3.38-.92,4.72-1.08,1.95-1.72,3.56-.33,5.64,1.13,1.69,1.82,3.66,2.85,5.42,1.14,1.94,1.41,4.06.28,5.84-1.41,2.22-1.89,4.47-1.89,7.01,0,1.17-.2,2.72-.94,3.44-3.68,3.54-4.56,8.78-7.59,12.5-2.83,3.47-3.92,6.79-3.96,11.17-.05,5.28-3.16,8.95-8.12,11.02-2.04.85-4.1,1.21-5.84-.1-2.59-1.94-5.46-1.5-8.31-1.64-2.14-.1-3.89.52-5.65,1.88-2.56,1.99-5.47,3.53-8.64,5.53-1.95-.81-4.35-1.45-6.34-2.73-2.55-1.66-5.14-2.45-8.13-2.2-2.53.21-4.8-.39-7.02-1.8-1.78-1.13-3.83-.81-5.85.17-5.49,2.66-10.99,2.57-16.49-.22-2.38-1.2-4.66-.77-6.83,1.01-1.86,1.53-4.12,2.58-6.1,3.98-3.36,2.38-6.93,2.54-10.43.74-4.08-2.1-7.8-2.02-11.56.61-.98.68-2.31.85-3.35,1.47-3.98,2.37-7.76,2.09-11.52-.52-.99-.68-2.54-.71-3.29-1.53-4.29-4.69-8.98-5.35-14.28-1.86-7.01.1-14.02.35-21.01.18-1.36-.03-2.8-1.56-4-2.63-4.02-3.56-5.78-8.84-9.7-12.62-2.48-2.39-2.04-6.88-.77-9.43,2.39-4.79,2.02-9.55,2.13-14.43.02-.83-.23-1.8.12-2.46,2.08-3.91,2.44-7.12-1.31-10.69-2.6-2.48-1.75-7.35.55-10.17,2.28-2.79,5.56-4.66,5.86-9.07.21-3.09,2.38-5.83,2.45-9.34.06-2.99,2.77-5.92-1.36-8.36-2.53-1.5-3.47-4.43-4.86-6.96-1.11-2.01-1.64-3.59-.19-5.59.7-.96.71-2.52,1.52-3.3,2.53-2.43.51-4.4-.35-6.51-.3-.75-.57-1.6-1.1-2.17-5.28-5.67-5.93-11.37-.55-17.45.98-1.11,1.47-2.92,1.6-4.46.43-5.25-.97-10.76,2.45-15.54-.35-5.26,1.51-10.68-1.46-15.77-.76-1.31-.85-3.14-.86-4.74-.07-11.59-.04-23.18-.03-34.77,0-.83.03-1.66.13-2.48.7-5.93.02-9.2-2.57-13.16-1.56-2.39-3.12-4.79-4.38-7.34-1.18-2.39-.84-4.78,1.13-6.79,1.45-1.48,2.88-2.97,4.32-4.46,1.15-1.18.11-2.11-.23-3.21-.32-1.06-.51-2.41-.14-3.39,1.15-3.01,3.92-6.07,3.58-8.8-.37-3.02-1.01-6.53-2.2-9.29-2.08-4.79-2.09-9.52-2.12-14.41-.02-3.31-.17-6.63.03-9.93.22-3.71-.86-6.79-4.48-7.92-5.24-1.63-5.98-6.38-7.72-10.35-.51-1.17.11-3.46,1.03-4.53,2.92-3.4,5.82-6.98,10.83-8.79-1.45-1.61-2.65-3.16-4.07-4.48-3.13-2.89-3.87-5.84-1.7-9.84,1.08-1.99,1.05-4.75,1.01-7.15-.04-2.77,1.09-4.77,3.04-6.44,1.56-1.34.84-2.48.4-4.18-1.84-6.98-.59-9.61,5.3-14.46,2.87-2.35,5.34-5.18,8.16-7.59,2.39-2.04,5.66-2.93,6.81-6.56.59-1.85,2.81-2.77,5.11-2.82,5.68-.13,11.31.35,16.87-2.19,2.67-1.21,6.47-.95,9.48,1.18,2.24,1.59,4.58,1.2,6.92-.13,3.47-1.96,7.04-2.09,10.43.23,1.65,1.13,3,.63,4.51-.24,3.03-1.76,6.39-2.2,9.34-.32,3.12,1.98,6.35,1.44,9.59,1.41,3.5-.03,6.44-4.52,10.35-1.46,3.32,2.6,7.21,1.02,10.78,1.71.77.15,1.43.82,2.19,1.07,3.73,1.21,5.27.99,6.82-2.48,1.24-2.77,2.94-4.89,5.06-6.85,2.75-2.55,6.04-2.56,8.71.24,1.67,1.75,2.85,3.97,4.49,5.76,1.03,1.13,2.58,1.77,3.78,2.76,1.49,1.23,2.81,1.5,4.14-.18,2.71-3.41,6.85-4.19,10-2.44,4.02,2.23,7.93,1.92,11.97,1.89,2.79-.02,5.08.98,6.17,3.29,1.38,2.91,3,4.18,6.41,4.34,5.27.25,7.31,3.05,6.96,8-.03.41.1.91-.09,1.23-2.69,4.45-2.33,8.29,1.87,11.71.48.39.09,2.3-.37,3.28-.51,1.08-1.67,1.82-2.38,2.82-2.06,2.89-2.42,5.28.03,7.73,3.76,3.76,4.68,7.73,2.16,12.21-1.79,3.18-1.09,6.43-1.16,9.65-.05,2.61-.63,4.75-2.55,6.67-3.66,3.66-5.16,8.19-5.09,13.41.03,1.92-1,3.85-1.55,5.78-1.44,5.08-4.64,7.48-10.04,6.91-4.02-.42-8.19.79-11.96-1.98-1.65-1.21-3.93-.75-5.81.47-2.38,1.55-4.85,2.98-7.2,4.57-6.17,4.16-7.46,4.18-13.84-.26-.67-.47-1.19-1.16-1.83-1.67-1.43-1.14-2.93-1.34-4.44-.12-1.65,1.34-3.46,3.09-2.68,5.16,1.55,4.12,1.55,8.95,4.81,12.29,3.18,3.26,3.21,6.35.57,9.87-1.7,2.27-3.27,4.66-4.62,7.15-.48.89-.55,2.46-.07,3.32.7,1.26,1.71,3.38,3.58,2.32,4.81-2.72,7.36.86,10.35,3.31.27.22.16.84.39,1.15,3.29,4.36,4.41,4.72,9.29,2.99,1.14-.4,2.21-1.02,3.37-1.38q10.42-3.26,20.58,1.86c2.55-1.34,5.01-2.86,7.64-3.98,4.06-1.73,9.39,1.77,8.27,5.94-1.15,4.29-.82,7.7,1.58,11.15,1.94,2.8,1.26,5.39-.47,8-.41.62-.83,1.88-.52,2.25,3.89,4.72.14,8.35-1.73,12.13-1.45,2.94-1.29,5.3.74,7.95,2.2,2.86,3.92,6.08,5.74,8.96q-7.51,9.82-17.03,10.65Z"></path><path class="cls-2" d="m2191.92,611.9c1.96-3.59,3.51-6.43,5.29-9.71,1.98,0,4.02.09,6.04-.02,2.86-.17,4.48.95,5.47,3.76.48,1.37,2.38,3.36,3.42,3.23,5.18-.63,9.29,3.57,14.25,2.9,3.61-.49,6.39,1.22,9.28,2.65,2.23,1.1,4.21,2.42,6.54.17.45-.43,1.6-.25,2.41-.19,5.86.48,7.77.15,11.63-1.84.68-.35,1.93-.71,2.28-.38,3.07,2.9,5.71,1.46,8.89-.07,3.19-1.53,5.52.63,5.24,4.42-.17,2.33-.85,4.62-1.32,7.03,1.25,1.22,3,.51,4.58.71,3.12.39,4.07,1.09,4.12,3.38.08,3.26.59,6.48-1.35,9.6-1.85,2.97-1.46,6.28.19,9.38,1.64,3.08,1.87,6.22.32,9.41-2.3,4.74-2.33,9.31.23,14.09.88,1.65,1.34,4.55.47,5.92-3.95,6.24,1.13,11.57,1.2,17.33,2.18,2.37.52,4.26-.34,6.63-1.52,4.18-4.96,6.49-7.69,9.5-1.55,1.7-3.6,1.82-5.69,1.74-2.44-.09-4.97.46-7.15-1.24-2.17-1.69-3.64,2.03-5.51.92-2.41-1.43-4.2-1.78-6.24.71-.9,1.1-2.78,1.86-4.26,1.96-6.14.39-12.43.82-17.81-3.04-4.61-3.31-10.43-.58-15.17-3.25-.31-.18-1.7,1.54-2.83,2.61,2.29,2.51,4.48,4.9,6.61,7.23-.7,1.98-2.35,3.43-1.22,5.78,1.22,2.52,1.54,5.54,3,7.88,1.74,2.8.9,4.66-1.14,6.4-2.72,2.32-2.52,4.44-.82,7.5,1.28,2.29,1.13,5.39,1.71,8.69,7.14-.73,14.1,1.92,20.72-2.12,1.09-.66,3.44-.27,4.66.5,2.4,1.51,4.33,1.85,6.71.04.73-.56,2.27-.32,3.35-.07,1.15.26,2.16,1.25,3.3,1.4,2.33.3,4.13-3.55,6.63-1.33,1.76,1.57,2.49,4.84,4.4,5.62,7.82,3.22,9.69,10.68,13.17,17.07-1.74,2-1.27,5.72-4.88,6.48-.39.08-.98,1.44-.8,1.67,1.93,2.46.27,4.39-.4,6.76-1.35,4.77-1.79,9.69,2.68,13.64,1.02.9,1.17,2.91,1.47,4.46.44,2.22-2.92,3.78-.72,6.73,1.25,1.67.72,4.73.82,7.18.1,2.48-.02,4.97-.02,7.45,0,3.35-1.75,5.85-4.81,6.3-6.08.9-10.46,4.25-14.65,8.33-1.06,1.03-2.91,1.8-4.37,1.75-6.06-.21-12.12,1.05-18.13-2.03-3.36-1.72-8.18.6-11.79-2.46-.5-.42-2.64.2-3.22.96-1.73,2.24-3.23,4.71-4.49,7.25-1.19,2.41-.75,4.78,1.2,6.78,2.32,2.36,4.7,4.67,6.9,7.14,2.2,2.49,1.47,6.82-1.52,8.61-2.78,1.67-5.75,3.02-8.65,4.51,7.61,5.91,7.81,6.66,4.87,18.75,3.74.41,7.43.27,11.09.21,3.78-.06,7.47-.16,10.05,3.37.46.63,1.25,1.18,2,1.4,2.5.73,4.96,3.38,7.64.36,6.62-.02,13.23-.06,19.85-.06,2.35,0,4.28,1.54,4.74,3.39.91,3.66,2.02,7.02,4.89,9.6-1.26,2.98-.09,5.09,2.16,7.1.72.64,1.22,2.78.77,3.26-4.25,4.56-.58,8.44.84,12.49.27.76.83,1.42,1.46,2.45-1.16,2.31-2.56,4.75-3.59,7.32-.39.96-.36,2.56.2,3.36,4.04,5.74,4.2,12.15,4.16,18.83-.02,4.15-1.12,7.47-4.44,9.55-3.95,2.47-6.4,5.76-8.32,9.94-2.26,4.9-3.92,5.15-9.97,3.18-1.1-.36-2.3-.67-3.43-.6-.72.04-1.36.9-2.1,1.25-7.85,3.74-7.94,3.91-15.7-.08-2.52-1.29-4.17-1.37-6.71-.07-3.55,1.83-8.01.76-11.66,3.13-1.16.75-3.62.74-4.81,0-4.96-3.09-10.35-2.3-15.6-2.12-3.5.12-6.28-1.38-9.36-2.41-3.05-1.01-6.66.77-9.61-1.34-1.96-1.4-3.56-1.02-5.61.03-2.86,1.45-5.94,2.61-9.06,3.35-3.13.75-6.67-.35-9.39,2.34-.37.37-1.77.23-2.3-.18-3.49-2.67-6.77-2.39-10.15.22-.46.35-1.8.18-2.3-.25-2.74-2.37-5.05-1.52-7.72.31-1.98,1.36-4.61,1.75-6.64,3.05-2.55,1.63-5.13,2.52-8.13,2.24-2.81-.26-5.76.69-8.37-1.28-2.71-2.05-2.65-4.92-2.67-7.83-.01-1.91-1.46-2.51-2.71-3.6-1.75-1.54-2.98-3.78-4.03-5.92-.42-.86-.12-2.46.45-3.35,2.08-3.25,1.3-5.93-.51-9.11-3.1-5.46-5.1-11.29-1.03-17.32-.76-4.34-1.63-8.69,2.58-11.75-1.26-2.64-2.09-4.94-3.38-6.95-1.36-2.12-.89-3.72.4-5.59.91-1.33,1.49-2.91,2.06-4.44.21-.56.05-1.84-.14-1.88-4.06-.85-3.42-4.04-3.54-6.87-.11-2.53.76-4.69,1.7-7.04,2.54-6.38-.72-12.09-3.93-17.08-2.29-3.55-3.34-6.09-1.21-10.01,1.08-1.98.59-4.78,1.01-7.18.27-1.56.44-3.63,1.48-4.48,3.77-3.1,3.13-7.19,3.62-11.28.49-4.08-3.15-6.86-2.56-10.58.64-4-2.16-5.99-4.1-8.58-.44-.59-.88-1.89-.59-2.2,3.26-3.62.47-9.27,4.01-12.52,2.94-2.7,2.04-4.32-.21-6.84-2.75-3.09-2.29-6.84-.25-10.28.94-1.58,1.14-2.98.03-4.51-2.78-3.83-1.32-6.92,1.73-9.74,1.75-1.62,2.07-3.31.57-5.39-1.9-2.64-3.72-5.36-5.31-8.19-.5-.89-.57-2.41-.17-3.36.96-2.24,1.95-4.66,3.6-6.35,2.68-2.74,4.05-5.19,1.01-8.42.57-7.44-3.58-14.17-3.11-21.7.16-2.63,3.71-4.68.91-7.92-1.45-1.68-1.47-4.55-2.31-6.82-1.55-4.21-1.51-8.05,2.2-11.18,1.67-1.41,1.15-2.76.05-4.18-.24-.31-.45-.72-.5-1.11-.65-4.87,1.18-10.02-1.12-14.65-1.99-4.03-3.34-8.27-5.07-12.35-1.16-2.74-1.08-4.5.52-6.69.7-.96.88-2.29,1.51-3.32,2.08-3.37,7.54-5.07,6.23-9.95-1.05-3.91-1.56-7.98-2.91-11.7-1-2.77-1.76-5.33-1.88-8.25-.13-3.21.7-6.16,3.65-7.2,3.56-1.25,4.1-3.55,3.91-6.63-.18-2.96.35-5.48,2.48-7.94,2.81-3.24,6.3-4.54,9.91-3.27,2.93,1.03,5.22,1.09,7.74-.36,3.17-1.82,6.59-3.11,9.42-5.67,3.08-2.78,7.07-2.7,10.15-.18,2.48,2.03,4.06,2.49,7.31,1.32,3.31-1.19,7.43-.82,11.06-.25,3.5.55,6.76,1.55,10.25-.04,1.01-.46,2.73-.46,3.63.11,4.92,3.1,10.26,2.32,16.12,2.06Z"></path><path class="cls-2" d="m2572.19,924.04c-2.34-3.95-4.59-7.76-7.06-11.93,4.56-3.6,6.31-7.96,5.49-13.26-.06-.4-.1-.85,0-1.24.8-3.12,1.6-6.23,2.45-9.34.99-3.6-2.75-5.96-2.44-9.32.18-1.99.36-4.15,1.26-5.87,1.12-2.15.68-3.62-.29-5.65-1.92-4.01-1.79-7.96,1.93-11.16,2.33-2.01,1.97-3.98.44-6.47-1.22-2-.98-5.1-2.47-6.67-3.01-3.17-4.02-5.76-1.1-9.56,1.65-2.16,2-4.7.51-7.72-.9-1.81-.19-4.97.79-7.05,1.96-4.14,1.43-7.6-.44-11.66-2.68-5.84-2.82-12.54-5.38-18.53-.52-1.23.12-3.26.8-4.65,2.31-4.75,2.36-9.92.46-14.29-1.33-3.04,1.49-4.52.68-6.78-.68-1.89-1.84-3.69-2.12-5.63-.72-4.9.77-6.68,6.46-8.55.39-.13.84-.04,1.22-.18,1.89-.66,2.82-2.65,1.44-3.75-5.4-4.35-3.62-11.42-6.6-16.65-.34-.6-.3-2.05.12-2.37,3.62-2.74-1.7-5.94.65-8.92,2.52-3.2,2.25-6.97.26-10.41-2.02-3.48-1.31-6.33,1.55-8.76,2.59-2.21,2.14-5.13,2.29-7.99.13-2.6-.64-4.62-2.33-6.74-3.45-4.33-3.99-8.73-.89-10.69,2.6-1.65,3.17-3.27,3.23-5.88.08-3.39-.2-6.38-3-8.99-1.7-1.59-2.64-4.09-3.64-6.31-1.43-3.16-1.79-6.76.76-9.22,3.07-2.97,3.56-6.29,3.35-10.1-.07-1.24-.09-2.5.06-3.72.84-6.75,3.84-9.1,10.77-8.5.82.07,1.9-.12,2.4.33,3.16,2.81,5.48,1.97,8.53-.68,3.91-3.4,7.02-2.96,12.02.65,1.43,1.04,2.31,1.58,4.17.71,1.75-.82,3.95-.9,5.95-.9,3.47,0,5.36-.64,7.84-3.28,1.22-1.3,2.8-2.26,4.31-1.15,2.56,1.87,5.61,2.72,8.16,1.6,4.16-1.83,7.34-2.27,10.67,1.55,1.75,2.01,4.55,1.58,6.81.11,2.24-1.47,4.65-2.13,6.89-.58,2.4,1.66,4.21,1.29,6.73.08,2.04-.98,4.77-.54,7.19-.73,3.73,3.82,6.44,1.54,9.4-1.28,1.02-.97,3.01-1.33,4.54-1.28,3.62.12,7.45-1.02,10.83,1.41.4.29,1.49-.07,2.09-.43,3.46-2.08,6.08-.84,8.81,1.64,3.2,2.91,3.54,2.89,7.09-.29,2.02-1.81,4.48-3.46,6.59-2.11,4.63,2.95,9.54,1.88,14.38,2.14,4.86.26,6.18.95,7.47,6.26.65,2.69,1.96,4.36,4,5.86,4.58,3.37,4.63,4.07,1.6,8.54-1.59,2.35-3.35,4.68-4.45,7.26-1.48,3.48-2.14,7.18,1.16,10.24,1.91,1.77,2.95,3.8,2.86,6.53-.05,1.56.26,3.36,1.05,4.67,1.99,3.32,1.95,6.23-.96,8.86-3.24,2.92-3.07,6.48-2.09,10.22.1.38.49.69.61,1.07,1.21,3.76,3.32,7.27,3.25,11.4-4.84,5.61-9.63,11.38-17.2,13.34-1.85.48-4.37.35-5.97-.57-2.7-1.55-5.42-1.56-8.3-1.79-2.32-.19-4.68-1.71-6.86-1.42-2.29.31-4.41,2.04-6.57,3.2-1.97,1.06-3.88.95-5.88.05-1.47-.66-2.96-1.43-4.52-1.68-3.54-.57-6.98.27-8.27,3.84-1.47,4.06-3.84,6.1-8.07,6.3-.64.03-1.8.95-1.75,1.33.15,1.06.58,2.7,1.29,2.94,3.78,1.29,5.87,4.49,8.49,7.05,2.71,2.65,2.55,3.19-1.43,6.08-2.05,1.5-3.92,3.03-3.88,5.89.08,5.37.08,10.75.2,16.12.04,1.7,3.18,3.26,4.86,2.31,3.17-1.8,6.3-3.68,9.3-5.74,1.91-1.31,3.41-1.31,5.59-.32,4.62,2.11,9.61,1.97,14.29.2,1.96-.74,3.77-1.38,5.87-1.45,3.4-.12,6.34.27,8.94,3.07,3.13,3.38,6.52,6.38,5.63,11.62,1.88,3.31,2.74,6.48.28,10.09-1.03,1.51,2.12,3.09.83,5.52-1.4,2.65,1.8,1.8,2.81,2.61,4.22,3.4,4.68,5.67,1.09,10.33-1.59,2.06-2.69,3.93-2.64,6.62.12,7.44-.34,14.92.16,22.33.29,4.31-3.2,8.41-.4,12.7-1.33,1.48-2.57,3.06-4.04,4.37-.49.44-1.65.03-2.41.28-2.94.99-5.31-2.59-8.01-1.23-2.9,1.46-5.33,1.45-8.11-.15-.68-.39-2.08.58-3.17.76-4.04.68-8.03,1.46-11.92-.96-1.25-.78-3.76-1.36-4.58-.68-2.89,2.39-5.27.19-7.86-.15-1.7-.22-3.33.13-4.01,1.97-.69,1.9-.93,3.99-1.84,5.76-.89,1.74-.7,3.1.34,4.52,1.89,2.6,1.49,5.51.93,8.32-.31,1.54-2.04,3.15-1.73,4.38.86,3.46,1.7,7.4,3.93,9.93,2.82,3.21,3.14,6.45,3.13,10.21,0,2.24-.83,3.92-2.28,5.52-1.29,1.42-3.6,2.75-1.95,5.02.34.47,2.95-1.18,4.09-.74,2.76,1.04,5.11.78,7.82-.21,2.65-.97,4.68.91,6.41,2.78,2.06,2.22,4.09,2.13,6.5.4.76-.54,2.68-.6,3.29-.04,6.73,6.28,14.13,5.09,21.75,2.3.38-.14.73-.41,1.12-.46,2.1-.3,4.21-.3,5.66,1.54,2.22,2.8,3.94,5.88,7.47,7.6,2.3,1.12,2.83,4.31,1.8,6.55-1.2,2.6-2.66,5.08-4.12,7.82,3.89,3.97,6.49,8.34,2.99,14.06-.54.89-.69,2.39-.35,3.38.65,1.92,1.62,3.77,2.73,5.47,1.72,2.65,2,5.06.47,8.04-1.44,2.79-2.07,5.99-3.11,9.17,2.16,2.36,4.38,4.78,6.91,7.53-2.93,4.86-5.82,9.68-9.23,15.34-3.67.82-8.2.07-12.66.27-2.06.09-4.28-.36-6.16.26-3.58,1.17-6.01,4.85-11,2.87-3.6-1.43-8.13-.42-12.24-.7-1.99-.14-4.2-.29-5.87-1.22-3.46-1.94-5.96-1.2-8.9,1.2-4.52,3.68-7.77,3.84-11.98.26-3.38-2.87-6.09-3.09-9.96-1.04-3.5,1.85-7.94.9-11.64,3.11-1.76,1.05-4.02-.05-5.52-1.72-2.86-3.19-5.98-4.06-9.81-1.52-.84.56-2.42.7-3.37.32-6.79-2.79-13.32-2.8-20.14.25-2.44,1.09-5.7.27-8.58.44-5.66.32-11.41-.97-16.9,2.14-1.7.96-4.87.09-7.07-.73-16.79-6.24-12.99-3.09-19.24-18.93-1.28-3.23-1.92-6.41-.05-9.37,1.47-2.32.68-4.96,1.56-7.06,1.69-4.04-4.53-6.52-1.6-10.42,2.22-2.96,1.3-6.35,1.39-9.57.19-6.2.13-6.2,4.13-11.75Z"></path><path class="cls-2" d="m2449.02,710.06c.45,1.55.71,2.7,1.1,3.79,1.91,5.25,2.8,10.3-1.96,14.7-2.48,2.29-1.93,5.44-1.37,8.16.48,2.32,1.86,4.54,3.17,6.59,1.72,2.71,2.07,5.3.27,8.03-1.14,1.72.27,1.97,1.34,2.31,1.53.49,3.72.34,4.55,1.35,3.41,4.18,7.92,3.63,12.45,3.75,3.43.09,6.75-3.08,10.23-.3,3.4-1.22,6.8-2.44,10.21-3.66.75-.27,1.67-.94,2.22-.71,5.13,2.13,11.36,2.46,14.3,8.3.33.66.53,1.87.17,2.32-2.12,2.61-1.71,4.81-.3,7.81,1.13,2.39.6,5.63.57,8.49-.02,2.33-3.55,4.09-1.56,6.67,1.78,2.3-.33,3.67-.6,5.48-.57,3.78-.29,7.38,3.17,10.04,1.85,1.42,2.38,4.08,1.32,5.62-2.84,4.12-2.37,6.25,2.42,8.28,3.02,1.28,3.11,3.35,1.65,6.08-4.26,8-9.36,15.37-16.36,21.27-1.89,1.59-4.9,2.01-6.8.12-3.21-3.2-6.76-4.2-11.15-3.93-3.62.22-7.46.75-10.65-2-.44-.38-1.79-.3-2.31.1-3.46,2.68-6.66,2.29-10.19-.04-1.18-.78-3.2-.42-4.83-.38-1.73.03-3.44.61-3.37,2.69.22,6.47-1.46,13.01,1.94,19.36,1.18,2.22.97,6.08-.18,8.42-1.43,2.91-.71,4.26,1.13,6.23,1.01,1.09,2.17,3.31,1.7,4.27-1.74,3.6-.29,6.84.1,10.28.42,3.68.1,7.44.1,11.16s-.05,7.45,0,11.17c.04,3.25-.14,6.39,1.72,9.54,1.08,1.83,1.28,5.38.18,7.02-1.84,2.75.31,4.53.21,6.68-.1,2.2-2.12,4.07-.06,6.66,1.17,1.47.25,3.82-.8,5.78-2.42,4.51-1.83,8.65,2.15,12.18,1.3,1.16,1.47,2.58.86,4.41-2.15,6.51-4.4,13-4.4,20.03,0,2.98-3.51,6.37-5.53,5.14-4.27-2.6-7.59,1.59-11.61.59-3.81-.95-6.9,2.08-10.13,3.7-2.93,1.48-5.35,1.57-7.92-.64-1.52-1.31-3.42-2.16-5.02-3.38-3-2.29-5.75-3.11-8.45.48-1.68,2.23-4.24,2.42-6.75,2.14-5.3-.59-9.47.95-13.09,5.13-2.8,3.23-5.65,3.42-8.57.68-5.23-4.9-11.25-6.35-18.12-5.81-2.87.22-5.79.07-8.68-.07-2.1-.1-5.05-2.7-5.11-4.7-.1-3.24-.77-6.5.79-9.71,2.28-4.67,2.53-9.39-.39-14.05-.58-.93-.87-2.7-.37-3.53,2.74-4.52,1.27-9.74,2.6-14.28,1.15-3.94.8-6.94-1.12-10.05-2.85-4.63-1.9-9.56-1.01-14.33.34-1.79,2.4-3.25,3.66-4.84-1.87-4.5-5.28-8.47-4.33-13.78.28-1.58.43-3.29,1.15-4.66,1.09-2.07,4.41-3.36,3.25-6.09-.66-1.55-3.34-2.11-4.7-3.52-1.05-1.08-2.03-2.77-2.07-4.22-.2-8.27-.37-16.56,0-24.82.18-4.13,2.67-7.57,5.35-10.77,2.52-3.01,2.58-3.36,0-6.19-2.09-2.29-3.03-4.62-3.05-7.73-.02-4.04-2.62-7.46-2.6-11.81.03-7.01,1.68-12.95,6.94-17.65,2.05-1.83,3.3-3.61.99-6.07-.12-5.34-.52-10.65-3.7-15.21-1.21-1.74-.17-2.86.36-4.35.53-1.49.44-3.21.56-4.84.21-2.98-.24-5.69-2.73-7.81-1.88-1.61-3.51-3.51-5.26-5.26-1.6-1.6-2.35-3.26-.85-5.4,1.86-2.66,3.72-5.35,5.34-8.16.53-.91.84-2.55.37-3.33-1.37-2.27-2.13-4.06-.32-6.68,2.84-4.12,3.78-8.86,3.56-13.99-.25-5.74.43-11.61-3.14-16.62-2.17-3.05-1.73-5.65-.59-9.12,2.05-6.26,2.24-13-.22-19.25-1.2-3.05-.77-5.24.29-8.1,1.73-4.66,1.73-9.57-.15-14.37-.58-1.47-1.59-3.55-1.02-4.58,3.25-5.8,2.07-12.01,2.19-18.09.04-2.2.82-3.86,2.18-5.56,1.51-1.88,2.66-4.06,3.85-6.18,3.42-6.12,4.19-6.51,11.6-3.85,2.29.82,3.42.87,4.9-1.45,2.03-3.15,5.41-4.87,9.23-4.95,7.03-.14,14.1-.49,21.08.13,4.3.38,8.98,1.6,12.36,4.39,4.9,4.05,9.62,3.51,14.85,1.4,1.45-.58,3.78-1.38,4.61-.71,4.87,3.92,11.52.43,16.39,4.29,1.06.84,3.21.19,4.83.43,5.02.74,9.88-5.55,14.98-.3,5.36.09,10.73.38,16.09.21,5.65-.19,11.42,1.19,16.88-2.1,1.83-1.1,4.87-.37,7.33-.14,1.1.11,2.57.78,3.11,1.66,2.2,3.57,6.53,6.8,2.64,11.77.84,3.37.68,6.75.05,10.13,2.59,2.73,1.89,6.15,1.95,9.41.04,2.46-.15,4.9,1.48,7.12.59.81.87,2.59.39,3.33-3.53,5.38-1.27,11.3-1.76,16.93-.12,1.43.62,3.48,1.7,4.35,2.92,2.35,2.62,5.86,3.98,8.72,1.32,2.77,2.61,5.31.56,8-2.55,3.34-5.49,5.55-10.32,5.62-3.47.05-6.76-3.97-10.25-.46-6.68-.34-12.78,1.87-18.79,4.38-2.79,1.16-5.53,1.1-8.35.08-2.27-.82-4.9-1.03-6.85-2.3-2.81-1.83-5-1.87-7.79-.01-1.55,1.03-3.78,1.03-5.99,1.56Z"></path><path class="cls-2" d="m3133.69,797.46c-.8-1.08-1.4-2.14-2.22-2.97-2.28-2.31-2.88-4.75-1.45-7.82,1.36-2.92,2.37-6.01,3.48-9.04,1.02-2.79,1.72-6.15-.33-8.22-3.97-4-4.96-7.22-.13-11.18.98-.8,1.02-3.02,1.09-4.61.15-3.72-.17-7.46.1-11.17.36-4.83-.4-8.98-4.65-12.01-2.13-1.52-2.98-3.76-2.87-6.48.13-3.3.03-6.62-.17-9.92-.08-1.23-1.24-2.89-2.32-2.08-3.33,2.53-6.24.1-9.04-.61-3.36-.84-5.75,3.25-9.23.95-2.32-1.53-5.38-1.4-8.05-2.66-2.4-1.13-5.68-.78-8.51-.5-4.59.46-7.58-1.77-10.81-4.63-5.28-4.69-5.78-11.51-8.61-17.27-.28-.56.09-1.63.46-2.29,2.87-5.07,2.22-10.29.5-15.44-.45-1.34-.3-2.18.28-3.26,1.58-2.9,1.23-5.57-1.26-7.79-3.32-2.97-3.16-5.93-1.28-9.9,1.54-3.24,2.54-6.57,4.69-9.7,2.19-3.18,2.78-7.52,3.76-11.43.5-2,1.64-2.66,3.4-2.8,2.44-.2,4.83-.03,7.07-1.64,4.53-3.28,9.77-3.89,15.25-3.46,2.88.23,5.79-.07,8.68.07,2.65.13,4.59-.91,6.68-2.51,5.17-3.95,7.05-3.47,10.87,1.96.45.65.75,1.41,1.33,2.51.6-1.16.95-2.18,1.57-3.01,3.75-5.01,6.49-5.3,11.14-1.17,1.54,1.36,2.96,2.85,4.33,4.17,7.07-3.05,13.99-5.19,21.51-4.47,6.44.62,13.16-1.48,19.34,2.12.67.39,2.3-.51,3.29-1.13,1.62-1.03,3.09-.99,4.49.17,2.61,2.15,4.49.77,6.35-1.13,1.82-1.87,3.66-3.32,6.38-1.24.86.66,2.72,1.26,3.32.81,4.89-3.63,10.4-1.73,15.63-1.98,1.93-.09,4.03.54,5.85,1.3,3.21,1.33,6.36,1.73,9.42.01,3.56-2,6.93-1.88,10.51-.1,1.39.69,3.51,1.5,4.59.93,3.54-1.87,6.43-1.79,10.19-.09,2.77,1.25,6.52.23,9.81.52,1.1.1,2.13,1.08,3.16,1.72,2.41,1.51,4.71,3.24,7.23,4.52,2.65,1.35,4.87,2.56,4.85,6.17,0,1.33,1.72,2.66,2.62,4.01,2.88,4.29,2.83,4.67-.57,9.68-.61.9-1.61,2.43-1.29,2.95,2.68,4.27,1.38,8.94,1.27,13.34-.1,3.94,2.1,7.02,2.52,10.59.43,3.67-2.52,6.59-2.63,10.55-.13,4.53,3.05,6.53,4.66,9.65-1.25,2.58-4.17,3.91-4.46,7.27-.19,2.32-1.54,4.57-2.53,6.78-1.27,2.83-3.38,4.95-6.65,4.46-3.69-.55-6.51,1.51-9.17,3.04-4.36,2.51-8.73,2.91-12.96,1.13-7.66-3.23-15.47-1-23.19-1.44-2.44-.14-7,4.99-7.38,7.59-.18,1.22.16,2.53-.12,3.71-.97,4,2.59,6.79,2.59,10.59,0,3.62-.83,7.34,1.37,10.87.99,1.58.81,3.92,1.04,5.93.3,2.55-.25,4.92-1.88,6.98,1.77,2.47,2.04,5.26,1.88,8.2-.13,2.48-.11,4.97,0,7.45.18,4.04.09,7.9,1.72,12.02,1.56,3.95,1.64,9.29.3,13.34-1.29,3.9-1.07,8.15-2.95,11.68-1.36,2.56-1.51,4.39.13,6.73.52.75.42,2.51-.12,3.33-2.1,3.18-1.78,5.94.13,9.16,1.49,2.52,1.51,5.71-.16,8.24-1.75,2.67-1.4,5.49-1.58,8.34-.17,2.75.73,5.28,3.12,6.23,3.94,1.56,5.04,4.95,6.6,8.26.06,2.35-1.77,3.66-3.28,4.9-4.97,4.1-4.92,9.22-2.97,14.51.73,2,1.81,3.54.32,5.6-2.48,3.41-2.47,6.88-1.58,11.13,1.07,5.16.25,10.71.31,16.09.03,2.85.46,5.52,1.38,8.36,1.21,3.76,1.21,8.13.74,12.12-.25,2.1-2.6,3.95-4.04,5.98.85.99,1.59,1.99,2.47,2.85,2.01,1.96,2.54,4.36,1.45,6.77-3.76,8.34-2.13,16.9-1.07,25.38.23,1.87,2.16,3.62.35,5.53-1.94,2.05-3.51,4.75-6.7,5.11-1.63.19-3.31,0-4.96.12-1.2.09-2.89,0-3.49.72-4.77,5.68-11.2,4.13-17.24,4.19-8.69.08-17.38.22-26.06,0-5.64-.15-11.62,1.58-16.77-2.3-4.44.29-9.1-1.45-13.28,1.31-2.67,1.76-5.62,1.03-8.44.93-3.59-.13-9.08-4.78-8.11-7.68,1.12-3.35.63-5.11-1.66-7.24-.79-.74-.93-2.18-1.31-3.32-.77-2.28-2.4-4.74-2.02-6.81.39-2.11,2.64-3.99,4.34-5.7,1.65-1.67,1.7-2.89.8-5.2-1.75-4.47.31-9.88-3.05-14.16-.41-.53.07-1.67-.18-2.43-.84-2.55,2.74-4.39,1.26-6.72-1.31-2.05-3.37-3.61-5.01-5.47-1.23-1.4-1.29-3-.03-4.42,1.65-1.85,3.45-3.57,5.1-5.42,1.52-1.71,1.93-4.17.77-5.73-2.23-2.99-2.1-6.18-1.99-9.46.12-3.41-.08-6.54-3.07-8.93-2.67-2.12-2.87-5.83-1.59-7.95,2.48-4.09,1.26-8.87,3.54-12.86,1.94-3.39,1.98-7.55.37-10.69-1.64-3.19-.77-6.75-2.2-9.4-1.88-3.48-2.41-5.83.76-8.62,1.1-.97,1.93-2.79,1.99-4.25.12-2.98.97-5.51,2.28-8.17.82-1.66.9-4.42.05-6.03-1.61-3.04-2.05-6.1-2.46-9.39-.22-1.79-2.12-3.35-3.24-5.04-2.47-3.73-1.92-6.47,2.04-9.43.95-.71,2.18-1.03,3.47-1.61Z"></path></g></g></g></svg> 