<svg xmlns="http://www.w3.org/2000/svg" xmlns:xlink="http://www.w3.org/1999/xlink"
    viewBox="0 0 7634.194 3627.071">
    <defs>
        <clipPath id="clip-path" transform="translate(806.797 166)">
            <rect width="6237" height="2333" fill="none" />
        </clipPath>
    </defs>
    <g id="Layer_2" data-name="Layer 2">
        <g id="flag">
            <g clip-path="url(#clip-path)">
                <rect x="806.797" y="166" width="6237" height="2333" fill="#dfdfdf" />
                <g>
                    <path
                        d="M4566.671,1553.478c-674.931-20.941-1347.929,83.575-2023.179,86.47-867.1,3.718-1757.151-157.517-2587.395,92.631-58.53,17.635-118.457,38.42-162.939,80.349s-69.363,110.624-43.388,165.96c42.279,90.068,170.7,83.531,268.029,62.86,318.8-67.708,638.283-134.561,961.846-173.6,937.424-113.111,1884.872,9.209,2824.953,97.55s1903.541,140.834,2814.9-106.1c22.391-6.067-60.565-148.605-69.9-159.752-35.839-42.81-87.514-80.552-137.729-105.113-51.391-25.136-97.444-14.829-152.437-6.31q-114.233,17.7-229.592,25.858c-310.01,22.183-620.836-2.789-929.916-27.151C4922.374,1573.132,4744.736,1559,4566.671,1553.478Z"
                        transform="translate(806.797 166)" fill="#c13e3e" />
                    <path
                        d="M6512.559,2318.866c-76.242-60.7-180.316-69.661-277.7-73.288-665.656-24.8-1329.115,83.24-1995.1,96.494-1323.34,26.337-2659.216-320.5-3959.535-73.329-348.041,66.158-702.343,182.943-952.5,433.8-73.273,73.477-139.682,168.878-128.218,272.011,12.93,116.308,118.825,198.29,221.855,253.785,199.7,107.561,421.742,169.513,646.4,200.789,509.556,70.94,1026.2-12.754,1535.761-83.687q1479.69-205.981,2974.6-269.361c518.448-21.943,1041.049-30.67,1552.853,54.925,157.892,26.406,323.576,61.192,474.641,8.212s269.6-234.9,192.659-375.287c-46.727-85.26-166.866-111.446-205.847-194.711C6551.578,2482,6605.732,2393.046,6512.559,2318.866Z"
                        transform="translate(806.797 166)" fill="#c13e3e" />
                    <path
                        d="M4750.144,845.615c328.782-2.374,655.7,45.041,983.869,65.222a5946.527,5946.527,0,0,0,606.794,6.289c60.215-2.452,121.742-5.671,179.584,11.244s112.394,58.392,127.3,116.786c17.279,67.709-24.108,139.757-82.292,178.459s-129.7,50.789-199.123,58.745c-628.556,72.034-1259.531-120.138-1891.866-99.517-363.138,11.842-722.4,93.83-1085.695,88.9-136.7-1.854-291.662-26.378-368.235-139.631C2992,1090,2977.838,1035.4,2994.5,987.369c33.326-96.074,145.737-73,224.373-65.536,122.75,11.649,245.728,14.665,368.955,10.81,248-7.759,494.287-40.036,741.128-62.9C4469,856.769,4609.442,846.631,4750.144,845.615Z"
                        transform="translate(806.797 166)" fill="#c13e3e" />
                    <path
                        d="M4413.241,592.965c151.12-28.15,298.116-76.664,450.075-99.863,570.972-87.165,1132.915,187.886,1709.241,226.03,52.379,3.467,117.974-3.032,137.212-51.873,20.383-51.746-29.527-102.707-75.294-134.307a1863.738,1863.738,0,0,0-382.787-203.021c-107.125-41.674-217.832-73.325-328.351-104.913C5608.6,135.06,5284.473,44.186,4958.826,77.463c-313.372,32.021-609.544,177.822-924.421,186.766-278.618,7.915-550.126-92.132-828.707-101.263-82.1-2.691-179.021,11.212-218.014,83.507-40.217,74.563,4.419,190.88,74.395,234.258,62.785,38.919,173.239,39.048,244.152,53.316,233.242,46.932,469.485,85.972,707.887,90.037C4147.752,626.362,4281.748,617.459,4413.241,592.965Z"
                        transform="translate(806.797 166)" fill="#c13e3e" />
                    <path
                        d="M6065.447,1303.53c-70.491,0-144.2-2.325-221.809-6.966-174.426-10.43-351.935-31.337-523.6-51.555-277.019-32.627-563.471-66.362-845.471-57.169-162.06,5.285-326.123,24.89-484.783,43.85C3803.411,1253.963,3611,1276.953,3420,1276.955q-15.7,0-31.354-.21c-82.984-1.126-151.051-10.373-208.094-28.269-73.639-23.106-128.89-61.313-164.216-113.561-32.407-47.933-42.335-103.7-26.559-149.185,14.011-40.392,42.419-64.247,86.845-72.93,37.633-7.352,80.853-2.615,118.986,1.565,8.291.909,16.123,1.768,23.739,2.491,117.336,11.134,241.26,14.765,368.326,10.79,179.085-5.6,360.331-24.32,535.609-42.419,67.242-6.944,136.775-14.123,205.214-20.464,115.037-10.656,266.92-23.031,421.614-24.148l.037,5-.037-5c212.733-1.52,428.115,18.061,636.416,37.011,113.95,10.366,231.779,21.086,347.8,28.221A5964.237,5964.237,0,0,0,6340.6,912.13l6.231-.255c58.177-2.392,118.326-4.865,174.959,11.7,52.256,15.283,114.041,54.923,130.737,120.348,8.453,33.124,3.886,68.934-13.209,103.558-15.629,31.656-40.9,60.174-71.158,80.3-61.141,40.667-135.977,52.063-201.324,59.551C6272.487,1298.141,6172.718,1303.529,6065.447,1303.53ZM4570.96,1176.3c251.233,0,504.437,29.823,750.249,58.774,244.9,28.844,495.809,58.394,745.76,58.394,99.885,0,199.573-4.714,298.732-16.078,64.19-7.356,137.636-18.506,196.924-57.942,51.213-34.064,98.159-102.75,80.217-173.059-15.656-61.352-74.245-98.714-123.855-113.223-55.057-16.1-114.375-13.661-171.741-11.3l-6.235.256a5974.754,5974.754,0,0,1-607.305-6.294c-116.165-7.143-234.067-17.87-348.088-28.244-200.354-18.227-407.308-37.054-611.869-37.054-7.87,0-15.706.028-23.569.085-154.317,1.114-305.925,13.468-420.765,24.106-68.387,6.335-137.892,13.512-205.108,20.453-175.454,18.118-356.881,36.852-536.325,42.467-127.486,3.987-251.832.344-369.584-10.83-7.688-.729-15.554-1.592-23.882-2.5-37.424-4.1-79.84-8.754-115.979-1.691-40.628,7.94-66.572,29.657-79.315,66.393-14.749,42.52-5.256,94.971,25.395,140.306,60.837,89.979,179.955,134.934,364.161,137.431,200.629,2.739,403.561-21.529,599.821-44.983,158.871-18.986,323.151-38.617,485.643-43.916Q4522.521,1176.271,4570.96,1176.3Z"
                        transform="translate(806.797 166)" />
                    <path
                        d="M6595.417,724.915c-7.9,0-15.688-.3-23.19-.793-229.429-15.186-459.771-68.587-682.529-120.23-260.89-60.485-528.743-122.578-796.272-122.578-76.549,0-153.02,5.077-229.356,16.73-83.928,12.813-167.842,33.745-248.995,53.988-65.555,16.352-133.344,33.26-200.918,45.848-124.1,23.116-258.725,33.616-400.124,31.2-251.123-4.281-499.219-47.966-708.788-90.134-20.957-4.217-45.408-7.188-71.3-10.335-60.7-7.377-129.506-15.739-174.505-43.634-34.836-21.6-64.974-62-80.62-108.076-16.491-48.571-14.866-96.976,4.459-132.8,18.323-33.972,50.544-58.288,95.767-72.276,34.937-10.806,77.6-15.472,126.812-13.854,127.876,4.191,256.131,27.827,380.164,50.684,146.342,26.97,297.662,54.855,448.237,50.578,171.036-4.858,339.73-51.114,502.871-95.847,136.778-37.5,278.215-76.286,421.184-90.9,146.721-14.994,306.272-5.957,487.764,27.623,165.694,30.658,331.947,78.176,478.629,120.1,108.83,31.106,221.364,63.27,328.789,105.061a1869,1869,0,0,1,383.815,203.566c19.321,13.341,46.065,34.737,63.755,60.914,18.7,27.667,23.191,54.362,13.352,79.341C6696.838,713.732,6643.959,724.914,6595.417,724.915Zm-1500.9-253.789q13.119,0,26.4.2c80.938,1.192,165.123,7.831,257.368,20.3,171.271,23.147,345.34,63.5,513.678,102.529,222.369,51.554,452.31,104.863,680.93,119.994,50.259,3.328,114-2.424,132.23-48.716,21.7-55.079-44.161-108.115-73.483-128.361a1859.02,1859.02,0,0,0-381.759-202.475c-106.993-41.623-219.3-73.723-327.912-104.765-296.888-84.856-633.4-181.033-962.628-147.389-142.144,14.524-283.172,53.194-419.557,90.591-163.71,44.889-332.994,91.306-505.231,96.2-10.476.3-20.98.44-31.456.441-141.156,0-282.17-25.988-418.877-51.181-123.67-22.791-251.552-46.358-378.68-50.525-76.128-2.5-174.954,9.512-213.45,80.883-39.753,73.7,6.708,186.771,72.629,227.634,43.125,26.733,110.766,34.954,170.443,42.207,26.085,3.17,50.724,6.165,72.062,10.459,209.128,42.079,456.665,85.67,706.985,89.938,140.742,2.4,274.686-8.042,398.122-31.034l.916,4.915-.916-4.915c67.279-12.533,134.918-29.4,200.33-45.721,81.373-20.3,165.518-41.287,249.907-54.17C4937.447,476.727,5013.592,471.126,5094.516,471.126Z"
                        transform="translate(806.797 166)" />
                    <path
                        d="M-175.539,1784.857c.987.488,1.987.945,2.979,1.42,38.745-25.012,84.1-40.274,128.657-53.7,830.244-250.148,1720.293-88.913,2587.4-92.631,266.614-1.143,532.877-18.13,799.047-36.981.094-1.121.171-2.251.22-3.393,23.35-547.043-87.312-1093.481-60.718-1640.376-136.261-36.649-280.063-5.834-420.906,2.734-93.634,5.7-187.543,3.9-281.332,2.093-62.488-1.2-128.656,4.581-190.669-3.2-465.1-58.345-936.309-39.946-1403.972-8.06-202.409,13.8-406.486,30.062-607.486,2.511C272.052-59.2,166.6-85.78,60.312-77.529S-157.46-16.846-198.656,81.485C-215.48,121.641-219.278,165.9-221.8,209.366c-6.363,109.532,47.945,235.269-3.657,332.093-136.695,256.488-194.779,554.2-164.523,843.258,8.231,78.631,23.129,157.556,56.585,229.189S-246.414,1749.825-175.539,1784.857Z"
                        transform="translate(806.797 166)" fill="#415eac" />
                    <path
                        d="M-93.024,2059.752a316.967,316.967,0,0,1-44.538-2.957c-58.03-8.244-97.459-33.741-117.193-75.782-12.776-27.216-14.506-58.867-5-91.529,8.672-29.808,26.246-58.288,49.487-80.195,45.767-43.14,106.57-63.915,164.926-81.5,142.651-42.979,289.978-75.051,450.4-98.046,142.884-20.481,292.962-33.235,458.807-38.991,307.965-10.688,624.948,5.1,931.492,20.36,245.828,12.24,500.022,24.894,748.117,23.834,302.1-1.3,608.84-23.307,905.482-44.594,366.171-26.278,744.81-53.454,1117.872-41.875,175.561,5.448,353.532,19.478,525.645,33.045l17.051,1.344c301.57,23.775,613.407,48.357,919.967,26.424,77.149-5.521,154.257-14.2,229.184-25.813q6.7-1.036,13.226-2.089c50.192-8.014,93.54-14.937,142.173,8.848,54.126,26.476,104.924,65.255,139.367,106.4,4.851,5.8,25.11,39.552,43.154,74.309,36.274,69.87,32.3,82.52,30.99,86.676a9.712,9.712,0,0,1-6.773,6.8c-417,112.986-874.263,171.522-1397.919,178.951q-57.654.819-115.427.808c-455.953,0-911.959-36.729-1303.333-73.507-116.786-10.975-235.678-22.669-350.655-33.979-812.566-79.929-1652.8-162.582-2473.23-63.585C646,1913.438,312.809,1984.2,18.837,2046.639-22.276,2055.371-59.719,2059.752-93.024,2059.752Zm1174.453-462.3c-380.676,0-760.084,30.3-1123.89,139.913-57.212,17.237-116.768,37.553-160.952,79.2-39.228,36.978-69.195,102.881-42.291,160.2,18.211,38.8,55.069,62.391,109.549,70.131,42.008,5.968,93.456,2.59,152.915-10.038,294.177-62.477,627.6-133.292,962.286-173.674,197.428-23.823,399.4-37.986,617.471-43.3,194.172-4.732,396.689-2.282,619.121,7.487,413.009,18.143,832.824,59.438,1238.816,99.374,114.966,11.309,233.847,23,350.611,33.976C4213.454,1999.1,4651.961,2034,5099.136,2034c505.5,0,1022.039-44.582,1518.841-179.168.667-1.443,3.722-13.233-28.7-76.259-18.15-35.284-39.369-70.573-43.506-75.516-33.577-40.105-83.18-77.949-136.092-103.83-45.789-22.4-87.687-15.7-136.2-7.959q-6.556,1.047-13.273,2.1c-75.2,11.649-152.581,20.364-230,25.9-307.307,21.989-619.528-2.625-921.468-26.429l-17.049-1.345c-172-13.558-349.848-27.579-525.169-33.018-372.55-11.554-750.928,15.594-1116.848,41.853-296.808,21.3-603.721,43.323-906.154,44.62-248.356,1.068-502.7-11.6-748.657-23.846C1558.979,1609.355,1319.932,1597.454,1081.429,1597.454Z"
                        transform="translate(806.797 166)" />
                    <path
                        d="M3342.763,1604.574c-.073,0-.145,0-.217-.005a5,5,0,0,1-4.782-5.208c11.523-269.961-9.993-544.434-30.8-809.871-21.331-272.124-43.388-553.513-29.917-830.534a5,5,0,0,1,5.237-4.752,5,5,0,0,1,4.751,5.237c-13.44,276.388,8.592,557.455,29.9,829.267,20.83,265.734,42.37,540.514,30.82,811.079A5,5,0,0,1,3342.763,1604.574Z"
                        transform="translate(806.797 166)" />
                    <path
                        d="M479.751,3461.071q-28.3,0-56.122-.444c-126.023-2.005-242.659-10.689-356.572-26.548-245.436-34.17-463.481-101.91-648.078-201.339-60.77-32.732-109.865-68.059-145.921-105-46.1-47.227-72.522-98.583-78.532-152.637-9.694-87.214,33.925-180.107,129.648-276.093,60.3-60.469,129.7-115.979,206.267-164.989,70.647-45.219,149.672-86.351,234.879-122.25,146.214-61.6,314.333-110,513.965-147.942,191.967-36.489,388.671-61.147,601.353-75.383,189.487-12.683,387.438-16.737,605.165-12.394,404.421,8.064,817.8,44.746,1217.575,80.218,456.256,40.486,926.64,82.222,1390.769,82.222q72.9,0,145.507-1.421c277.309-5.518,558.839-27.849,831.1-49.445,381.339-30.247,775.656-61.524,1164.286-47.048,47.974,1.787,99.063,4.884,147.648,15.352,54.291,11.7,97.79,31,132.985,59.022,58.511,46.584,60.749,100.119,62.913,151.892,1.379,32.961,2.8,67.043,18.351,100.252,19.195,41,58.493,67.622,100.1,95.808,40.319,27.315,82.008,55.558,105.609,98.619a200.435,200.435,0,0,1,24.688,92.329c.751,30.613-4.994,62.113-17.075,93.625-33.7,87.913-113.385,165.026-203,196.457-58.271,20.435-118.58,27.948-179.7,27.949-86.518,0-174.682-15.046-261.136-29.8q-18.2-3.1-36.28-6.149c-320.379-53.582-647.334-69.755-960.049-69.755-205.336,0-404.482,6.966-591.768,14.893-991.033,41.945-1991.671,132.556-2974.119,269.318-36.229,5.044-73.12,10.239-108.8,15.264-233.857,32.939-475.675,67-714.147,84C674.027,3457.307,574.811,3461.07,479.751,3461.071ZM1323.017,2184.8c-349.638,0-698.342,23.551-1041.864,88.85-436.631,83-738.468,220.4-949.9,432.417-93.475,93.734-136.133,183.877-126.79,267.928,10.345,93.053,84.113,177.144,219.256,249.937,183.547,98.863,400.46,166.232,644.715,200.238,135.841,18.911,272.741,26.754,409.874,26.754,339.995,0,681.854-48.155,1015.7-95.176,35.679-5.024,72.574-10.222,108.812-15.266,491-68.349,990.4-125.683,1484.3-170.41s995.477-78.031,1490.772-98.994c231.325-9.791,504.808-18.98,779.24-12.866,286.349,6.374,539.739,28.569,774.649,67.855q18.094,3.025,36.313,6.157c85.961,14.668,173.661,29.631,259.422,29.633,60.179,0,119.394-7.362,176.426-27.364,86.964-30.5,164.283-105.312,196.976-190.6,16.949-44.213,29.486-110.911-7.046-177.569-22.438-40.942-63.112-68.5-102.448-95.145-40.9-27.707-83.182-56.355-103.544-99.849-16.4-35.025-17.865-70.128-19.285-104.073-2.166-51.81-4.213-100.746-59.152-144.486-75.348-59.991-177.057-68.564-274.776-72.2q-100.966-3.76-202.433-3.639c-321.977,0-645.736,25.681-960.691,50.664-272.4,21.606-554.087,43.948-831.691,49.473q-72.693,1.448-145.723,1.423c-464.608.006-935.11-41.752-1391.637-82.261C2248.088,2225.913,1784.776,2184.8,1323.017,2184.8Z"
                        transform="translate(806.797 166)" />
                </g>
                <g>
                    <g>
                        <polygon
                            points="2216.797 746 2313.797 746 2346.797 670 2391.511 746 2466.797 752 2412.797 820 2436.797 888 2351.797 841 2282.797 883 2290.797 801 2216.797 746"
                            fill="#dfdfdf" />
                        <path
                            d="M1630,727a4.989,4.989,0,0,1-2.418-.625l-82.46-45.6L1478.6,721.271a5,5,0,0,1-7.577-4.756l7.726-79.188-71.731-53.314A5,5,0,0,1,1410,575h93.72l31.694-72.991a5,5,0,0,1,8.9-.545l43.395,73.759,72.692,5.793a5,5,0,0,1,3.519,8.093l-52.281,65.835,23.08,65.392A5,5,0,0,1,1630,727Zm-85-57a4.989,4.989,0,0,1,2.419.625l73.488,40.633-19.622-55.594a5,5,0,0,1,.8-4.773l48.165-60.652-65.932-5.255a5,5,0,0,1-3.912-2.448L1540.673,515l-29.087,66.987A5,5,0,0,1,1507,585h-81.891l61.873,45.987a5,5,0,0,1,2,4.5l-7.029,72.041,60.452-36.8A5,5,0,0,1,1545,670Z"
                            transform="translate(806.797 166)" />
                    </g>
                    <g>
                        <polygon
                            points="1914.797 979 2011.797 979 2044.797 903 2089.511 979 2164.797 985 2110.797 1053 2134.797 1121 2049.797 1074 1980.797 1116 1988.797 1034 1914.797 979"
                            fill="#dfdfdf" />
                        <path
                            d="M1328,960a4.989,4.989,0,0,1-2.418-.625l-82.46-45.6L1176.6,954.271a5,5,0,0,1-7.577-4.756l7.726-79.188-71.731-53.314A5,5,0,0,1,1108,808h93.72l31.694-72.991a5,5,0,0,1,8.9-.545l43.395,73.759,72.692,5.793a5,5,0,0,1,3.519,8.093l-52.281,65.835,23.08,65.392A5,5,0,0,1,1328,960Zm-85-57a4.989,4.989,0,0,1,2.419.625l73.488,40.633-19.622-55.594a5,5,0,0,1,.8-4.773l48.165-60.652-65.932-5.255a5,5,0,0,1-3.912-2.448L1238.673,748l-29.087,66.987A5,5,0,0,1,1205,818h-81.891l61.873,45.987a5,5,0,0,1,2,4.5l-7.029,72.041,60.452-36.8A5,5,0,0,1,1243,903Z"
                            transform="translate(806.797 166)" />
                    </g>
                    <g>
                        <polygon
                            points="1594.797 1164 1691.797 1164 1724.797 1088 1769.511 1164 1844.797 1170 1790.797 1238 1814.797 1306 1729.797 1259 1660.797 1301 1668.797 1219 1594.797 1164"
                            fill="#dfdfdf" />
                        <path
                            d="M1008,1145a4.989,4.989,0,0,1-2.418-.625l-82.46-45.6L856.6,1139.271a5,5,0,0,1-7.577-4.756l7.726-79.188-71.731-53.314A5,5,0,0,1,788,993h93.72l31.694-72.991a5,5,0,0,1,8.9-.545l43.4,73.759,72.692,5.793a5,5,0,0,1,3.519,8.093l-52.281,65.835,23.08,65.392A5,5,0,0,1,1008,1145Zm-85-57a4.989,4.989,0,0,1,2.419.625l73.488,40.633-19.622-55.594a5,5,0,0,1,.8-4.773l48.165-60.652-65.932-5.255a5,5,0,0,1-3.912-2.448L918.673,933l-29.087,66.987A5,5,0,0,1,885,1003H803.109l61.873,45.987a5,5,0,0,1,2,4.5l-7.029,72.041,60.452-36.8A5,5,0,0,1,923,1088Z"
                            transform="translate(806.797 166)" />
                    </g>
                    <g>
                        <polygon
                            points="1882.797 1338 1979.797 1338 2012.797 1262 2057.511 1338 2132.797 1344 2078.797 1412 2102.797 1480 2017.797 1433 1948.797 1475 1956.797 1393 1882.797 1338"
                            fill="#dfdfdf" />
                        <path
                            d="M1296,1319a4.988,4.988,0,0,1-2.418-.624l-82.46-45.6-66.521,40.491a5,5,0,0,1-7.577-4.756l7.726-79.188-71.731-53.314A5,5,0,0,1,1076,1167h93.72l31.694-72.991a5,5,0,0,1,8.9-.545l43.395,73.759,72.692,5.793a5,5,0,0,1,3.519,8.093l-52.281,65.834,23.08,65.393A5,5,0,0,1,1296,1319Zm-85-57a5,5,0,0,1,2.419.624l73.488,40.635-19.622-55.6a5,5,0,0,1,.8-4.773l48.165-60.653-65.932-5.254a5,5,0,0,1-3.912-2.449L1206.673,1107l-29.087,66.987A5,5,0,0,1,1173,1177h-81.891l61.873,45.987a5,5,0,0,1,2,4.5l-7.029,72.041,60.452-36.8A5,5,0,0,1,1211,1262Z"
                            transform="translate(806.797 166)" />
                    </g>
                    <g>
                        <polygon
                            points="2424.797 1317 2521.797 1317 2554.797 1241 2599.511 1317 2674.797 1323 2620.797 1391 2644.797 1459 2559.797 1412 2490.797 1454 2498.797 1372 2424.797 1317"
                            fill="#dfdfdf" />
                        <path
                            d="M1838,1298a4.988,4.988,0,0,1-2.418-.624l-82.46-45.6-66.521,40.491a5,5,0,0,1-7.577-4.756l7.726-79.188-71.731-53.314A5,5,0,0,1,1618,1146h93.72l31.694-72.991a5,5,0,0,1,8.9-.545l43.395,73.759,72.692,5.793a5,5,0,0,1,3.519,8.093l-52.281,65.834,23.08,65.393A5,5,0,0,1,1838,1298Zm-85-57a5,5,0,0,1,2.419.624l73.488,40.635-19.622-55.6a5,5,0,0,1,.8-4.773l48.165-60.652-65.932-5.255a5,5,0,0,1-3.912-2.448L1748.673,1086l-29.087,66.987A5,5,0,0,1,1715,1156h-81.891l61.873,45.987a5,5,0,0,1,2,4.5l-7.029,72.041,60.452-36.8A5,5,0,0,1,1753,1241Z"
                            transform="translate(806.797 166)" />
                    </g>
                    <g>
                        <polygon
                            points="2193.797 1132 2290.797 1132 2323.797 1056 2368.511 1132 2443.797 1138 2389.797 1206 2413.797 1274 2328.797 1227 2259.797 1269 2267.797 1187 2193.797 1132"
                            fill="#dfdfdf" />
                        <path
                            d="M1607,1113a4.989,4.989,0,0,1-2.418-.625l-82.46-45.6-66.521,40.491a5,5,0,0,1-7.577-4.756l7.726-79.188-71.731-53.314A5,5,0,0,1,1387,961h93.72l31.694-72.991a5,5,0,0,1,8.9-.545l43.395,73.759,72.692,5.793a5,5,0,0,1,3.519,8.093l-52.281,65.835,23.08,65.392A5,5,0,0,1,1607,1113Zm-85-57a4.989,4.989,0,0,1,2.419.625l73.488,40.633-19.622-55.594a5,5,0,0,1,.8-4.773l48.165-60.652-65.932-5.255a5,5,0,0,1-3.912-2.448L1517.673,901l-29.087,66.987A5,5,0,0,1,1484,971h-81.891l61.873,45.987a5,5,0,0,1,2,4.5l-7.029,72.041,60.452-36.8A5,5,0,0,1,1522,1056Z"
                            transform="translate(806.797 166)" />
                    </g>
                    <g>
                        <polygon
                            points="2466.797 922 2563.797 922 2596.797 846 2641.511 922 2716.797 928 2662.797 996 2686.797 1064 2601.797 1017 2532.797 1059 2540.797 977 2466.797 922"
                            fill="#dfdfdf" />
                        <path
                            d="M1880,903a4.989,4.989,0,0,1-2.418-.625l-82.46-45.6L1728.6,897.271a5,5,0,0,1-7.577-4.756l7.726-79.188-71.731-53.314A5,5,0,0,1,1660,751h93.72l31.694-72.991a5,5,0,0,1,8.9-.545l43.395,73.759,72.692,5.793a5,5,0,0,1,3.519,8.093l-52.281,65.835,23.08,65.392A5,5,0,0,1,1880,903Zm-85-57a4.989,4.989,0,0,1,2.419.625l73.488,40.633-19.622-55.594a5,5,0,0,1,.8-4.773l48.165-60.652-65.932-5.255a5,5,0,0,1-3.912-2.448L1790.673,691l-29.087,66.987A5,5,0,0,1,1757,761h-81.891l61.873,45.987a5,5,0,0,1,2,4.5l-7.029,72.041,60.452-36.8A5,5,0,0,1,1795,846Z"
                            transform="translate(806.797 166)" />
                    </g>
                    <g>
                        <polygon
                            points="2752.797 723 2849.797 723 2882.797 647 2927.511 723 3002.797 729 2948.797 797 2972.797 865 2887.797 818 2818.797 860 2826.797 778 2752.797 723"
                            fill="#dfdfdf" />
                        <path
                            d="M2166,704a4.989,4.989,0,0,1-2.418-.625l-82.46-45.6L2014.6,698.271a5,5,0,0,1-7.577-4.756l7.726-79.188-71.731-53.314A5,5,0,0,1,1946,552h93.72l31.694-72.991a5,5,0,0,1,8.9-.545l43.395,73.759,72.692,5.793a5,5,0,0,1,3.519,8.093l-52.281,65.835,23.08,65.392A5,5,0,0,1,2166,704Zm-85-57a4.989,4.989,0,0,1,2.419.625l73.488,40.633-19.622-55.594a5,5,0,0,1,.8-4.773l48.165-60.652-65.932-5.255a5,5,0,0,1-3.912-2.448L2076.673,492l-29.087,66.987A5,5,0,0,1,2043,562h-81.891l61.873,45.987a5,5,0,0,1,2,4.5l-7.029,72.041,60.452-36.8A5,5,0,0,1,2081,647Z"
                            transform="translate(806.797 166)" />
                    </g>
                    <g>
                        <polygon
                            points="2535.797 556 2632.797 556 2665.797 480 2710.511 556 2785.797 562 2731.797 630 2755.797 698 2670.797 651 2601.797 693 2609.797 611 2535.797 556"
                            fill="#dfdfdf" />
                        <path
                            d="M1949,537a4.989,4.989,0,0,1-2.418-.625l-82.46-45.6L1797.6,531.271a5,5,0,0,1-7.577-4.756l7.726-79.188-71.731-53.314A5,5,0,0,1,1729,385h93.72l31.694-72.991a5,5,0,0,1,8.9-.545l43.395,73.759,72.692,5.793a5,5,0,0,1,3.519,8.093l-52.281,65.835,23.08,65.392A5,5,0,0,1,1949,537Zm-85-57a4.989,4.989,0,0,1,2.419.625l73.488,40.633-19.622-55.594a5,5,0,0,1,.8-4.773l48.165-60.652-65.932-5.255a5,5,0,0,1-3.912-2.448L1859.673,325l-29.087,66.987A5,5,0,0,1,1826,395h-81.891l61.873,45.987a5,5,0,0,1,2,4.5l-7.029,72.041,60.452-36.8A5,5,0,0,1,1864,480Z"
                            transform="translate(806.797 166)" />
                    </g>
                    <g>
                        <polygon
                            points="2265.797 382 2362.797 382 2395.797 306 2440.511 382 2515.797 388 2461.797 456 2485.797 524 2400.797 477 2331.797 519 2339.797 437 2265.797 382"
                            fill="#dfdfdf" />
                        <path
                            d="M1679,363a4.989,4.989,0,0,1-2.418-.625l-82.46-45.6L1527.6,357.271a5,5,0,0,1-7.577-4.756l7.726-79.188-71.731-53.314A5,5,0,0,1,1459,211h93.72l31.694-72.991a5,5,0,0,1,8.9-.545l43.395,73.759,72.692,5.793a5,5,0,0,1,3.519,8.093l-52.281,65.835,23.08,65.392A5,5,0,0,1,1679,363Zm-85-57a4.989,4.989,0,0,1,2.419.625l73.488,40.633-19.622-55.594a5,5,0,0,1,.8-4.773l48.165-60.652-65.932-5.255a5,5,0,0,1-3.912-2.448L1589.673,151l-29.087,66.987A5,5,0,0,1,1556,221h-81.891l61.873,45.987a5,5,0,0,1,2,4.5l-7.029,72.041,60.452-36.8A5,5,0,0,1,1594,306Z"
                            transform="translate(806.797 166)" />
                    </g>
                    <g>
                        <polygon
                            points="1854.797 153 1951.797 153 1984.797 77 2029.511 153 2104.797 159 2050.797 227 2074.797 295 1989.797 248 1920.797 290 1928.797 208 1854.797 153"
                            fill="#dfdfdf" />
                        <path
                            d="M1268,134a4.989,4.989,0,0,1-2.418-.625l-82.46-45.595L1116.6,128.271a5,5,0,0,1-7.577-4.756l7.726-79.188L1045.018-8.987a5,5,0,0,1-1.765-5.584A5,5,0,0,1,1048-18h93.72l31.694-72.991a5,5,0,0,1,4.281-3,5.011,5.011,0,0,1,4.615,2.455l43.395,73.759,72.692,5.793a5,5,0,0,1,4.188,2.991,5,5,0,0,1-.669,5.1l-52.281,65.835,23.08,65.392A5,5,0,0,1,1268,134Zm-85-57a4.989,4.989,0,0,1,2.419.625l73.488,40.633-19.622-55.594a5,5,0,0,1,.8-4.773l48.165-60.652-65.932-5.255a5,5,0,0,1-3.912-2.448L1178.673-78l-29.087,66.987A5,5,0,0,1,1145-8h-81.891l61.873,45.987a5,5,0,0,1,2,4.5l-7.029,72.041,60.452-36.8A5,5,0,0,1,1183,77Z"
                            transform="translate(806.797 166)" />
                    </g>
                    <g>
                        <polygon
                            points="1914.797 556 2011.797 556 2044.797 480 2089.511 556 2164.797 562 2110.797 630 2134.797 698 2049.797 651 1980.797 693 1988.797 611 1914.797 556"
                            fill="#dfdfdf" />
                        <path
                            d="M1328,537a4.989,4.989,0,0,1-2.418-.625l-82.46-45.6L1176.6,531.271a5,5,0,0,1-7.577-4.756l7.726-79.188-71.731-53.314A5,5,0,0,1,1108,385h93.72l31.694-72.991a5,5,0,0,1,8.9-.545l43.395,73.759,72.692,5.793a5,5,0,0,1,3.519,8.093l-52.281,65.835,23.08,65.392A5,5,0,0,1,1328,537Zm-85-57a4.989,4.989,0,0,1,2.419.625l73.488,40.633-19.622-55.594a5,5,0,0,1,.8-4.773l48.165-60.652-65.932-5.255a5,5,0,0,1-3.912-2.448L1238.673,325l-29.087,66.987A5,5,0,0,1,1205,395h-81.891l61.873,45.987a5,5,0,0,1,2,4.5l-7.029,72.041,60.452-36.8A5,5,0,0,1,1243,480Z"
                            transform="translate(806.797 166)" />
                    </g>
                    <g>
                        <polygon
                            points="1544.797 734 1641.797 734 1674.797 658 1719.511 734 1794.797 740 1740.797 808 1764.797 876 1679.797 829 1610.797 871 1618.797 789 1544.797 734"
                            fill="#dfdfdf" />
                        <path
                            d="M958,715a4.989,4.989,0,0,1-2.418-.625l-82.46-45.6L806.6,709.271a5,5,0,0,1-7.577-4.756l7.726-79.188-71.731-53.314A5,5,0,0,1,738,563h93.72l31.694-72.991a5,5,0,0,1,8.9-.545l43.4,73.759,72.692,5.793a5,5,0,0,1,3.519,8.093l-52.281,65.835,23.08,65.392A5,5,0,0,1,958,715Zm-85-57a4.989,4.989,0,0,1,2.419.625l73.488,40.633-19.622-55.594a5,5,0,0,1,.8-4.773l48.165-60.652-65.932-5.255a5,5,0,0,1-3.912-2.448L868.673,503l-29.087,66.987A5,5,0,0,1,835,573H753.109l61.873,45.987a5,5,0,0,1,2,4.5l-7.029,72.041,60.452-36.8A5,5,0,0,1,873,658Z"
                            transform="translate(806.797 166)" />
                    </g>
                    <g>
                        <polygon
                            points="1171.797 914 1268.797 914 1301.797 838 1346.511 914 1421.797 920 1367.797 988 1391.797 1056 1306.797 1009 1237.797 1051 1245.797 969 1171.797 914"
                            fill="#dfdfdf" />
                        <path
                            d="M585,895a4.989,4.989,0,0,1-2.418-.625l-82.46-45.6L433.6,889.271a5,5,0,0,1-7.577-4.756l7.726-79.188-71.731-53.314A5,5,0,0,1,365,743h93.72l31.694-72.991a5,5,0,0,1,8.9-.545l43.4,73.759,72.692,5.793a5,5,0,0,1,3.519,8.093l-52.281,65.835,23.08,65.392A5,5,0,0,1,585,895Zm-85-57a4.989,4.989,0,0,1,2.419.625l73.488,40.633-19.622-55.594a5,5,0,0,1,.8-4.773l48.165-60.652-65.932-5.255a5,5,0,0,1-3.912-2.448L495.673,683l-29.087,66.987A5,5,0,0,1,462,753H380.109l61.873,45.987a5,5,0,0,1,1.995,4.5l-7.029,72.041,60.452-36.8A5,5,0,0,1,500,838Z"
                            transform="translate(806.797 166)" />
                    </g>
                    <g>
                        <polygon
                            points="1242.797 1338 1339.797 1338 1372.797 1262 1417.511 1338 1492.797 1344 1438.797 1412 1462.797 1480 1377.797 1433 1308.797 1475 1316.797 1393 1242.797 1338"
                            fill="#dfdfdf" />
                        <path
                            d="M656,1319a4.988,4.988,0,0,1-2.418-.624l-82.46-45.6L504.6,1313.271a5,5,0,0,1-7.577-4.756l7.726-79.188-71.731-53.314A5,5,0,0,1,436,1167h93.72l31.694-72.991a5,5,0,0,1,8.9-.545l43.4,73.759,72.692,5.793a5,5,0,0,1,3.519,8.093l-52.281,65.834,23.08,65.393A5,5,0,0,1,656,1319Zm-85-57a5,5,0,0,1,2.419.624l73.488,40.635-19.622-55.6a5,5,0,0,1,.8-4.773l48.165-60.653-65.932-5.254a5,5,0,0,1-3.912-2.449L566.673,1107l-29.087,66.987A5,5,0,0,1,533,1177H451.109l61.873,45.987a5,5,0,0,1,2,4.5l-7.029,72.041,60.452-36.8A5,5,0,0,1,571,1262Z"
                            transform="translate(806.797 166)" />
                    </g>
                    <g>
                        <polygon
                            points="806.797 1132 903.797 1132 936.797 1056 981.511 1132 1056.797 1138 1002.797 1206 1026.797 1274 941.797 1227 872.797 1269 880.797 1187 806.797 1132"
                            fill="#dfdfdf" />
                        <path
                            d="M220,1113a4.989,4.989,0,0,1-2.418-.625l-82.46-45.6L68.6,1107.271a5,5,0,0,1-7.577-4.756l7.726-79.188L-2.982,970.013a5,5,0,0,1-1.765-5.584A5,5,0,0,1,0,961H93.72l31.694-72.991a5,5,0,0,1,8.9-.545l43.4,73.759,72.692,5.793a5,5,0,0,1,3.519,8.093l-52.281,65.835,23.08,65.392A5,5,0,0,1,220,1113Zm-85-57a4.989,4.989,0,0,1,2.419.625l73.488,40.633-19.622-55.594a5,5,0,0,1,.8-4.773l48.165-60.652-65.932-5.255a5,5,0,0,1-3.912-2.448L130.673,901l-29.087,66.987A5,5,0,0,1,97,971H15.109l61.873,45.987a5,5,0,0,1,2,4.5l-7.029,72.041,60.452-36.8A5,5,0,0,1,135,1056Z"
                            transform="translate(806.797 166)" />
                    </g>
                    <g>
                        <polygon
                            points="733.797 679 830.797 679 863.797 603 908.511 679 983.797 685 929.797 753 953.797 821 868.797 774 799.797 816 807.797 734 733.797 679"
                            fill="#dfdfdf" />
                        <path
                            d="M147,660a4.989,4.989,0,0,1-2.418-.625l-82.46-45.6L-4.4,654.271a5,5,0,0,1-5.259-.037,5,5,0,0,1-2.318-4.719l7.726-79.188-71.731-53.314a5,5,0,0,1-1.765-5.584A5,5,0,0,1-73,508H20.72l31.694-72.991a5,5,0,0,1,8.9-.545l43.4,73.759,72.692,5.793a5,5,0,0,1,3.519,8.093l-52.281,65.835,23.08,65.392A5,5,0,0,1,147,660ZM62,603a4.989,4.989,0,0,1,2.419.625l73.488,40.633-19.622-55.594a5,5,0,0,1,.8-4.773l48.165-60.652-65.932-5.255a5,5,0,0,1-3.912-2.448L57.673,448,28.586,514.991A5,5,0,0,1,24,518H-57.891L3.982,563.987a5,5,0,0,1,2,4.5l-7.029,72.041,60.452-36.8A5,5,0,0,1,62,603Z"
                            transform="translate(806.797 166)" />
                    </g>
                    <g>
                        <polygon
                            points="1099.797 471 1196.797 471 1229.797 395 1274.511 471 1349.797 477 1295.797 545 1319.797 613 1234.797 566 1165.797 608 1173.797 526 1099.797 471"
                            fill="#dfdfdf" />
                        <path
                            d="M513,452a4.989,4.989,0,0,1-2.418-.625l-82.46-45.6L361.6,446.271a5,5,0,0,1-7.577-4.756l7.726-79.188-71.731-53.314A5,5,0,0,1,293,300h93.72l31.694-72.991a5,5,0,0,1,8.9-.545l43.395,73.759,72.692,5.793a5,5,0,0,1,3.519,8.093l-52.281,65.835,23.08,65.392A5,5,0,0,1,513,452Zm-85-57a4.989,4.989,0,0,1,2.419.625l73.488,40.633-19.622-55.594a5,5,0,0,1,.8-4.773l48.165-60.652-65.932-5.255a5,5,0,0,1-3.912-2.448L423.673,240l-29.087,66.987A5,5,0,0,1,390,310H308.109l61.873,45.987a5,5,0,0,1,1.995,4.5l-7.029,72.041,60.452-36.8A5,5,0,0,1,428,395Z"
                            transform="translate(806.797 166)" />
                    </g>
                    <g>
                        <polygon
                            points="1469.797 290 1566.797 290 1599.797 214 1644.511 290 1719.797 296 1665.797 364 1689.797 432 1604.797 385 1535.797 427 1543.797 345 1469.797 290"
                            fill="#dfdfdf" />
                        <path
                            d="M883,271a4.989,4.989,0,0,1-2.418-.625l-82.46-45.595L731.6,265.271a5,5,0,0,1-7.577-4.756l7.726-79.188-71.731-53.314A5,5,0,0,1,663,119h93.72l31.694-72.991a5,5,0,0,1,8.9-.545l43.4,73.759,72.692,5.793a5,5,0,0,1,3.519,8.093l-52.281,65.835,23.08,65.392A5,5,0,0,1,883,271Zm-85-57a4.989,4.989,0,0,1,2.419.625l73.488,40.633-19.622-55.594a5,5,0,0,1,.8-4.773l48.165-60.652-65.932-5.255a5,5,0,0,1-3.912-2.448L793.673,59l-29.087,66.987A5,5,0,0,1,760,129H678.109l61.873,45.987a5,5,0,0,1,2,4.5l-7.029,72.041,60.452-36.8A5,5,0,0,1,798,214Z"
                            transform="translate(806.797 166)" />
                    </g>
                    <g>
                        <polygon
                            points="706.797 217 803.797 217 836.797 141 881.511 217 956.797 223 902.797 291 926.797 359 841.797 312 772.797 354 780.797 272 706.797 217"
                            fill="#dfdfdf" />
                        <path
                            d="M120,198a4.989,4.989,0,0,1-2.418-.625L35.121,151.78-31.4,192.271a5,5,0,0,1-5.259-.037,5,5,0,0,1-2.318-4.719l7.726-79.188-71.731-53.314a5,5,0,0,1-1.765-5.584A5,5,0,0,1-100,46H-6.28L25.414-26.991a5,5,0,0,1,4.281-3,5.01,5.01,0,0,1,4.615,2.455l43.4,73.759L150.4,52.016a5,5,0,0,1,3.519,8.093l-52.281,65.835,23.08,65.392A5,5,0,0,1,120,198ZM35,141a4.989,4.989,0,0,1,2.419.625l73.488,40.633L91.285,126.664a5,5,0,0,1,.8-4.773l48.165-60.652L74.317,55.984a5,5,0,0,1-3.912-2.448L30.673-14,1.586,52.991A5,5,0,0,1-3,56H-84.891l61.873,45.987a5,5,0,0,1,2,4.5l-7.029,72.041,60.452-36.8A5,5,0,0,1,35,141Z"
                            transform="translate(806.797 166)" />
                    </g>
                    <g>
                        <polygon
                            points="2688.797 1099 2785.797 1099 2818.797 1023 2863.511 1099 2938.797 1105 2884.797 1173 2908.797 1241 2823.797 1194 2754.797 1236 2762.797 1154 2688.797 1099"
                            fill="#dfdfdf" />
                        <path
                            d="M2102,1080a4.989,4.989,0,0,1-2.418-.625l-82.46-45.6-66.521,40.491a5,5,0,0,1-7.577-4.756l7.726-79.188-71.731-53.314A5,5,0,0,1,1882,928h93.72l31.694-72.991a5,5,0,0,1,8.9-.545l43.395,73.759,72.692,5.793a5,5,0,0,1,3.519,8.093l-52.281,65.835,23.08,65.392A5,5,0,0,1,2102,1080Zm-85-57a4.989,4.989,0,0,1,2.419.625l73.488,40.633-19.622-55.594a5,5,0,0,1,.8-4.773l48.165-60.652-65.932-5.255a5,5,0,0,1-3.912-2.448L2012.673,868l-29.087,66.987A5,5,0,0,1,1979,938h-81.891l61.873,45.987a5,5,0,0,1,2,4.5l-7.029,72.041,60.452-36.8A5,5,0,0,1,2017,1023Z"
                            transform="translate(806.797 166)" />
                    </g>
                    <g>
                        <polygon
                            points="2990.797 1300 3087.797 1300 3120.797 1224 3165.511 1300 3240.797 1306 3186.797 1374 3210.797 1442 3125.797 1395 3056.797 1437 3064.797 1355 2990.797 1300"
                            fill="#dfdfdf" />
                        <path
                            d="M2404,1281a4.988,4.988,0,0,1-2.418-.624l-82.46-45.6-66.521,40.491a5,5,0,0,1-7.577-4.756l7.726-79.188-71.731-53.314A5,5,0,0,1,2184,1129h93.72l31.694-72.991a5,5,0,0,1,8.9-.545l43.395,73.759,72.692,5.793a5,5,0,0,1,3.519,8.093l-52.281,65.834,23.08,65.393A5,5,0,0,1,2404,1281Zm-85-57a5,5,0,0,1,2.419.624l73.488,40.635-19.622-55.6a5,5,0,0,1,.8-4.773l48.165-60.652-65.932-5.255a5,5,0,0,1-3.912-2.448L2314.673,1069l-29.087,66.987A5,5,0,0,1,2281,1139h-81.891l61.873,45.987a5,5,0,0,1,1.995,4.5l-7.029,72.041,60.452-36.8A5,5,0,0,1,2319,1224Z"
                            transform="translate(806.797 166)" />
                    </g>
                    <g>
                        <polygon
                            points="3301.797 1099 3398.797 1099 3431.797 1023 3476.511 1099 3551.797 1105 3497.797 1173 3521.797 1241 3436.797 1194 3367.797 1236 3375.797 1154 3301.797 1099"
                            fill="#dfdfdf" />
                        <path
                            d="M2715,1080a4.989,4.989,0,0,1-2.418-.625l-82.46-45.6-66.521,40.491a5,5,0,0,1-7.577-4.756l7.726-79.188-71.731-53.314A5,5,0,0,1,2495,928h93.72l31.694-72.991a5,5,0,0,1,8.9-.545l43.395,73.759,72.692,5.793a5,5,0,0,1,3.519,8.093l-52.281,65.835,23.08,65.392A5,5,0,0,1,2715,1080Zm-85-57a4.989,4.989,0,0,1,2.419.625l73.488,40.633-19.622-55.594a5,5,0,0,1,.8-4.773l48.165-60.652-65.932-5.255a5,5,0,0,1-3.912-2.448L2625.673,868l-29.087,66.987A5,5,0,0,1,2592,938h-81.891l61.873,45.987a5,5,0,0,1,1.995,4.5l-7.029,72.041,60.452-36.8A5,5,0,0,1,2630,1023Z"
                            transform="translate(806.797 166)" />
                    </g>
                    <g>
                        <polygon
                            points="3026.797 893 3123.797 893 3156.797 817 3201.511 893 3276.797 899 3222.797 967 3246.797 1035 3161.797 988 3092.797 1030 3100.797 948 3026.797 893"
                            fill="#dfdfdf" />
                        <path
                            d="M2440,874a4.989,4.989,0,0,1-2.418-.625l-82.46-45.6L2288.6,868.271a5,5,0,0,1-7.577-4.756l7.726-79.188-71.731-53.314A5,5,0,0,1,2220,722h93.72l31.694-72.991a5,5,0,0,1,8.9-.545l43.395,73.759,72.692,5.793a5,5,0,0,1,3.519,8.093l-52.281,65.835,23.08,65.392A5,5,0,0,1,2440,874Zm-85-57a4.989,4.989,0,0,1,2.419.625l73.488,40.633-19.622-55.594a5,5,0,0,1,.8-4.773l48.165-60.652-65.932-5.255a5,5,0,0,1-3.912-2.448L2350.673,662l-29.087,66.987A5,5,0,0,1,2317,732h-81.891l61.873,45.987a5,5,0,0,1,1.995,4.5l-7.029,72.041,60.452-36.8A5,5,0,0,1,2355,817Z"
                            transform="translate(806.797 166)" />
                    </g>
                    <g>
                        <polygon
                            points="3276.797 679 3373.797 679 3406.797 603 3451.511 679 3526.797 685 3472.797 753 3496.797 821 3411.797 774 3342.797 816 3350.797 734 3276.797 679"
                            fill="#dfdfdf" />
                        <path
                            d="M2690,660a4.989,4.989,0,0,1-2.418-.625l-82.46-45.6L2538.6,654.271a5,5,0,0,1-7.577-4.756l7.726-79.188-71.731-53.314A5,5,0,0,1,2470,508h93.72l31.694-72.991a5,5,0,0,1,8.9-.545l43.395,73.759,72.692,5.793a5,5,0,0,1,3.519,8.093l-52.281,65.835,23.08,65.392A5,5,0,0,1,2690,660Zm-85-57a4.989,4.989,0,0,1,2.419.625l73.488,40.633-19.622-55.594a5,5,0,0,1,.8-4.773l48.165-60.652-65.932-5.255a5,5,0,0,1-3.912-2.448L2600.673,448l-29.087,66.987A5,5,0,0,1,2567,518h-81.891l61.873,45.987a5,5,0,0,1,1.995,4.5l-7.029,72.041,60.452-36.8A5,5,0,0,1,2605,603Z"
                            transform="translate(806.797 166)" />
                    </g>
                    <g>
                        <polygon
                            points="3082.797 508 3179.797 508 3212.797 432 3257.511 508 3332.797 514 3278.797 582 3302.797 650 3217.797 603 3148.797 645 3156.797 563 3082.797 508"
                            fill="#dfdfdf" />
                        <path
                            d="M2496,489a4.989,4.989,0,0,1-2.418-.625l-82.46-45.6L2344.6,483.271a5,5,0,0,1-7.577-4.756l7.726-79.188-71.731-53.314A5,5,0,0,1,2276,337h93.72l31.694-72.991a5,5,0,0,1,8.9-.545l43.395,73.759,72.692,5.793a5,5,0,0,1,3.519,8.093l-52.281,65.835,23.08,65.392A5,5,0,0,1,2496,489Zm-85-57a4.989,4.989,0,0,1,2.419.625l73.488,40.633-19.622-55.594a5,5,0,0,1,.8-4.773l48.165-60.652-65.932-5.255a5,5,0,0,1-3.912-2.448L2406.673,277l-29.087,66.987A5,5,0,0,1,2373,347h-81.891l61.873,45.987a5,5,0,0,1,1.995,4.5l-7.029,72.041,60.452-36.8A5,5,0,0,1,2411,432Z"
                            transform="translate(806.797 166)" />
                    </g>
                    <g>
                        <polygon
                            points="2813.797 382 2910.797 382 2943.797 306 2988.511 382 3063.797 388 3009.797 456 3033.797 524 2948.797 477 2879.797 519 2887.797 437 2813.797 382"
                            fill="#dfdfdf" />
                        <path
                            d="M2227,363a4.989,4.989,0,0,1-2.418-.625l-82.46-45.6L2075.6,357.271a5,5,0,0,1-7.577-4.756l7.726-79.188-71.731-53.314A5,5,0,0,1,2007,211h93.72l31.694-72.991a5,5,0,0,1,8.9-.545l43.395,73.759,72.692,5.793a5,5,0,0,1,3.519,8.093l-52.281,65.835,23.08,65.392A5,5,0,0,1,2227,363Zm-85-57a4.989,4.989,0,0,1,2.419.625l73.488,40.633-19.622-55.594a5,5,0,0,1,.8-4.773l48.165-60.652-65.932-5.255a5,5,0,0,1-3.912-2.448L2137.673,151l-29.087,66.987A5,5,0,0,1,2104,221h-81.891l61.873,45.987a5,5,0,0,1,1.995,4.5l-7.029,72.041,60.452-36.8A5,5,0,0,1,2142,306Z"
                            transform="translate(806.797 166)" />
                    </g>
                    <g>
                        <polygon
                            points="2582.797 190 2679.797 190 2712.797 114 2757.511 190 2832.797 196 2778.797 264 2802.797 332 2717.797 285 2648.797 327 2656.797 245 2582.797 190"
                            fill="#dfdfdf" />
                        <path
                            d="M1996,171a4.989,4.989,0,0,1-2.418-.625l-82.46-45.595L1844.6,165.271a5,5,0,0,1-7.577-4.756l7.726-79.188-71.731-53.314A5,5,0,0,1,1776,19h93.72l31.694-72.991a5,5,0,0,1,4.281-3,5.013,5.013,0,0,1,4.615,2.455l43.395,73.759,72.692,5.793a5,5,0,0,1,3.519,8.093l-52.281,65.835,23.08,65.392A5,5,0,0,1,1996,171Zm-85-57a4.989,4.989,0,0,1,2.419.625l73.488,40.633-19.622-55.594a5,5,0,0,1,.8-4.773l48.165-60.652-65.932-5.255a5,5,0,0,1-3.912-2.448L1906.673-41l-29.087,66.987A5,5,0,0,1,1873,29h-81.891l61.873,45.987a5,5,0,0,1,2,4.5l-7.029,72.041,60.452-36.8A5,5,0,0,1,1911,114Z"
                            transform="translate(806.797 166)" />
                    </g>
                    <g>
                        <polygon
                            points="3051.797 133 3148.797 133 3181.797 57 3226.511 133 3301.797 139 3247.797 207 3271.797 275 3186.797 228 3117.797 270 3125.797 188 3051.797 133"
                            fill="#dfdfdf" />
                        <path
                            d="M2465,114a4.989,4.989,0,0,1-2.418-.625l-82.46-45.595L2313.6,108.271a5,5,0,0,1-7.577-4.756l7.726-79.188-71.731-53.314a5,5,0,0,1-1.765-5.584A5,5,0,0,1,2245-38h93.72l31.694-72.991a5,5,0,0,1,4.281-3,5,5,0,0,1,4.615,2.455l43.395,73.759,72.692,5.793a5,5,0,0,1,4.188,2.991,5,5,0,0,1-.669,5.1l-52.281,65.835,23.08,65.392A5,5,0,0,1,2465,114Zm-85-57a4.989,4.989,0,0,1,2.419.625l73.488,40.633-19.622-55.594a5,5,0,0,1,.8-4.773l48.165-60.652-65.932-5.255a5,5,0,0,1-3.912-2.448L2375.673-98l-29.087,66.987A5,5,0,0,1,2342-28h-81.891l61.873,45.987a5,5,0,0,1,1.995,4.5l-7.029,72.041,60.452-36.8A5,5,0,0,1,2380,57Z"
                            transform="translate(806.797 166)" />
                    </g>
                    <g>
                        <polygon
                            points="3301.797 299 3398.797 299 3431.797 223 3476.511 299 3551.797 305 3497.797 373 3521.797 441 3436.797 394 3367.797 436 3375.797 354 3301.797 299"
                            fill="#dfdfdf" />
                        <path
                            d="M2715,280a4.989,4.989,0,0,1-2.418-.625l-82.46-45.595L2563.6,274.271a5,5,0,0,1-7.577-4.756l7.726-79.188-71.731-53.314A5,5,0,0,1,2495,128h93.72l31.694-72.991a5,5,0,0,1,8.9-.545l43.395,73.759,72.692,5.793a5,5,0,0,1,3.519,8.093l-52.281,65.835,23.08,65.392A5,5,0,0,1,2715,280Zm-85-57a4.989,4.989,0,0,1,2.419.625l73.488,40.633-19.622-55.594a5,5,0,0,1,.8-4.773l48.165-60.652-65.932-5.255a5,5,0,0,1-3.912-2.448L2625.673,68l-29.087,66.987A5,5,0,0,1,2592,138h-81.891l61.873,45.987a5,5,0,0,1,1.995,4.5l-7.029,72.041,60.452-36.8A5,5,0,0,1,2630,223Z"
                            transform="translate(806.797 166)" />
                    </g>
                    <g>
                        <polygon
                            points="3562.797 471 3659.797 471 3692.797 395 3737.511 471 3812.797 477 3758.797 545 3782.797 613 3697.797 566 3628.797 608 3636.797 526 3562.797 471"
                            fill="#dfdfdf" />
                        <path
                            d="M2976,452a4.989,4.989,0,0,1-2.418-.625l-82.46-45.6L2824.6,446.271a5,5,0,0,1-7.577-4.756l7.726-79.188-71.731-53.314A5,5,0,0,1,2756,300h93.72l31.694-72.991a5,5,0,0,1,8.9-.545l43.395,73.759,72.692,5.793a5,5,0,0,1,3.519,8.093l-52.281,65.835,23.08,65.392A5,5,0,0,1,2976,452Zm-85-57a4.989,4.989,0,0,1,2.419.625l73.488,40.633-19.622-55.594a5,5,0,0,1,.8-4.773l48.165-60.652-65.932-5.255a5,5,0,0,1-3.912-2.448L2886.673,240l-29.087,66.987A5,5,0,0,1,2853,310h-81.891l61.873,45.987a5,5,0,0,1,1.995,4.5l-7.029,72.041,60.452-36.8A5,5,0,0,1,2891,395Z"
                            transform="translate(806.797 166)" />
                    </g>
                    <g>
                        <polygon
                            points="3562.797 81 3659.797 81 3692.797 5 3737.511 81 3812.797 87 3758.797 155 3782.797 223 3697.797 176 3628.797 218 3636.797 136 3562.797 81"
                            fill="#dfdfdf" />
                        <path
                            d="M2976,62a4.989,4.989,0,0,1-2.418-.625l-82.46-45.595L2824.6,56.271a5,5,0,0,1-7.577-4.756l7.726-79.188-71.731-53.314a5,5,0,0,1-1.765-5.584A5,5,0,0,1,2756-90h93.72l31.694-72.991a5,5,0,0,1,4.281-3,5.013,5.013,0,0,1,4.615,2.455l43.395,73.759,72.692,5.793a5,5,0,0,1,4.188,2.991,5,5,0,0,1-.669,5.1l-52.281,65.835,23.08,65.392A5,5,0,0,1,2976,62ZM2891,5a4.989,4.989,0,0,1,2.419.625l73.488,40.633L2947.285-9.336a5,5,0,0,1,.8-4.773l48.165-60.652-65.932-5.255a5,5,0,0,1-3.912-2.448L2886.673-150l-29.087,66.987A5,5,0,0,1,2853-80h-81.891l61.873,45.987a5,5,0,0,1,1.995,4.5l-7.029,72.041,60.452-36.8A5,5,0,0,1,2891,5Z"
                            transform="translate(806.797 166)" />
                    </g>
                    <g>
                        <polygon
                            points="3589.797 881 3686.797 881 3719.797 805 3764.511 881 3839.797 887 3785.797 955 3809.797 1023 3724.797 976 3655.797 1018 3663.797 936 3589.797 881"
                            fill="#dfdfdf" />
                        <path
                            d="M3003,862a4.989,4.989,0,0,1-2.418-.625l-82.46-45.6L2851.6,856.271a5,5,0,0,1-7.577-4.756l7.726-79.188-71.731-53.314A5,5,0,0,1,2783,710h93.72l31.694-72.991a5,5,0,0,1,8.9-.545l43.395,73.759,72.692,5.793a5,5,0,0,1,3.519,8.093l-52.281,65.835,23.08,65.392A5,5,0,0,1,3003,862Zm-85-57a4.989,4.989,0,0,1,2.419.625l73.488,40.633-19.622-55.594a5,5,0,0,1,.8-4.773l48.165-60.652-65.932-5.255a5,5,0,0,1-3.912-2.448L2913.673,650l-29.087,66.987A5,5,0,0,1,2880,720h-81.891l61.873,45.987a5,5,0,0,1,1.995,4.5l-7.029,72.041,60.452-36.8A5,5,0,0,1,2918,805Z"
                            transform="translate(806.797 166)" />
                    </g>
                </g>
            </g>
        </g>
    </g>
</svg>