<?xml version="1.0" encoding="UTF-8"?> <svg xmlns="http://www.w3.org/2000/svg" xmlns:xlink="http://www.w3.org/1999/xlink" viewBox="0 0 1543.43 1533.119"><defs><clipPath id="clip-path" transform="translate(-337.762 -866.864)"><rect width="6237" height="2333" fill="none"></rect></clipPath></defs><g id="Layer_2" data-name="Layer 2"><g id="hand2"><g clip-path="url(#clip-path)"><path d="M596.841,2313.4c4.869-9.721,7.437-20.993,4.935-31.573a55.7,55.7,0,0,0-5.864-14.024,134.506,134.506,0,0,0-55.338-53.8c10.5-2.94,21.767-5.233,32.2-2.043,15.524,4.747,24.944,20.046,32.95,34.168l17.386,30.666c3.414,6.022,7.357,12.5,13.884,14.806,7.957,2.807,17.094-2.089,21.421-9.333s4.778-16.154,4.053-24.56a101.771,101.771,0,0,0-26.52-59.918c3,4.117,6.082,8.322,10.321,11.14s9.941,4.006,14.46,1.662c7.665-3.976,7.772-14.857,5.845-23.275a115.4,115.4,0,0,0-19.516-42.557,101.254,101.254,0,0,0-31.624,36.617,92.9,92.9,0,0,0-46.571-11.214l42.973-48.648c1.861-2.106,3.856-4.742,3.094-7.447-.62-2.2-2.856-3.5-4.988-4.322-10.506-4.028-22.346-1.621-33.007,1.975-27.463,9.263-51.754,25.859-75.653,42.256-9.944,6.822-19.91,13.662-29.059,21.517-16.492,14.158-30.051,31.368-43.14,48.72-26.253,34.805-51.153,70.785-71.519,109.332-2.493,4.719-4.971,9.672-5.16,15.006-.309,8.769,5.6,16.528,12.085,22.434,16.444,14.967,38.148,23.163,60.087,26.783,31.641,5.221,65,1.323,93.831-12.712,10.25-4.989,19.857-11.188,29.434-17.371,10.038-6.48,20.285-13.317,26.844-23.56C581.489,2333.49,591.039,2324.984,596.841,2313.4Z" transform="translate(-337.762 -866.864)" fill="#d28d67"></path><path d="M573.71,2237.023a77.179,77.179,0,0,0,16.643-15.425c-7.329-3.749-14.769-7.537-22.828-9.218-4.884-1.019-26.67-2.656-28.108,4.019C552.293,2221.66,563.811,2226.78,573.71,2237.023Z" transform="translate(-337.762 -866.864)" fill="#23191d"></path><polyline points="231.098 1303.295 1239.238 97.136 1253.355 100.127 1271.143 118.168 277.669 1314.508 241.872 1303.662 231.098 1303.295" fill="#23191d"></polyline><path d="M1597.184,955.873a16.565,16.565,0,0,1-3.565-6.809,8.861,8.861,0,0,1,1.471-7.358,9.483,9.483,0,0,1,4.041-2.774,15.435,15.435,0,0,1,15.066,2.654,17.7,17.7,0,0,1,6.105,14.223c-.134,3.105-1.194,6.38-3.7,8.217a11.37,11.37,0,0,1-5.153,1.829,30.869,30.869,0,0,1-1.742,12.5c-.3.84-.831,1.808-1.724,1.827a2.37,2.37,0,0,1-1.511-.791,116.329,116.329,0,0,0-20.112-14.08c-4.319-2.456-2.539-4.058,1.08-6.587C1588.656,957.869,1595.794,954.163,1597.184,955.873Z" transform="translate(-337.762 -866.864)" fill="#cfcfcf"></path><path d="M1776.764,998.079c4.953-3.308,10.478-5.806,14.961-9.727,5.445-4.763,8.976-11.287,12.392-17.664,2.389-4.461,4.808-9,5.843-13.951a44.138,44.138,0,0,0,.157-14.018c-2.166-18.951-8.734-37.579-20.2-52.82l33.131,14.689c6.625,2.937,13.249,5.874,19.9,8.756,9.452,4.1,19.449,8.479,25.377,16.9,4.785,6.8,6.257,15.426,6.271,23.742.026,14.643-4.641,30.031-15.812,39.5-7.993,6.773-18.412,9.861-28.6,12.291-18.326,4.371-37.116,7.193-55.953,6.829-2.409-.047-18.069-.821-13.672-4.465,2.094-1.734,5.752-2.65,8.131-4.271C1771.42,1002.005,1774.006,999.921,1776.764,998.079Z" transform="translate(-337.762 -866.864)" fill="#23191d"></path><path d="M1803.968,923.412c3.188,10.913,6.2,22.373,3.991,33.524-1.9,9.56-7.546,18.05-14.471,24.908s-15.124,12.266-23.264,17.627c-5.4,3.555-11.023,7.2-17.416,8.153-4.081.609-8.239.078-12.314-.565a227.71,227.71,0,0,1-49.221-13.557,50,50,0,0,1-11.573-6c-4.392-3.291-7.722-7.8-10.591-12.474-4.643-7.569-8.325-16.137-7.962-25.01a366.324,366.324,0,0,0,55.693,11.3,7.579,7.579,0,0,0,4.357-.333,6.768,6.768,0,0,0,2.271-2.19c8.571-11.8,7.476-27.786,6.009-42.292a17.823,17.823,0,0,0-1.4-6.222c-2.519-5.062-8.933-6.507-14.521-7.376l-18.132-2.819c-8.521-1.325-17.875-3.117-23.206-9.895,5.418-9.587,16.022-15.513,26.912-17.143s22.044.6,32.42,4.285c6.065,2.156,12.043,4.833,18.438,5.57,4.5.518,9.052.056,13.567.383,12.55.909,24.184,8.066,31.987,17.938s12.015,22.238,13.567,34.725a70.708,70.708,0,0,0-25.1-49.588,2.481,2.481,0,0,0-1.594-.757c-2.385.113.592,1.993,1.036,2.287a31.309,31.309,0,0,1,3.54,2.733,38.128,38.128,0,0,1,5.875,6.693,68.473,68.473,0,0,1,8.006,16.384C1802.015,916.9,1803.016,920.152,1803.968,923.412Z" transform="translate(-337.762 -866.864)" fill="#cfcfcf"></path><path d="M1534.912,874.934c21.444.37,42.8,2.77,64.058,5.629,39.691,5.339,79.308,12.319,117.471,24.464,4.415,1.4,9.113,3.1,11.771,6.893,1.863,2.66,2.445,5.983,2.978,9.186,1.395,8.371,2.733,17.279-.583,25.09-1.96,4.615-5.388,8.424-8.756,12.139a10.264,10.264,0,0,1-3.315,2.753,9.967,9.967,0,0,1-4.885.392c-15.858-1.451-31.4-5.192-46.886-8.921-37.889-9.127-75.828-18.268-112.833-30.493-13.231-4.371-26.348-9.138-39.828-12.667-5.288-1.385-10.7-2.606-15.493-5.237s-8.98-6.958-9.986-12.331c-.729-3.894.724-9.281,4.305-11.472,2.613-1.6,6.556-1.057,9.5-1.91C1513.069,875.373,1523.887,874.745,1534.912,874.934Z" transform="translate(-337.762 -866.864)" fill="#23191d"></path><path d="M1880.665,948.779c-1.536-11.924-9.454-21.6-17-29.5-16.873-17.658-41.886-24.853-61.985-30.634-11.928-3.431-25.411-6.416-38.451-9.3-12.017-2.661-24.4-5.41-35.444-8.48a53.46,53.46,0,0,0-13.471-3.41c-10.072-1.327-19.053-.419-26.692,2.7-8.979,3.661-15.985,10.616-19.017,18.776-28.5-5.8-58.339-11.515-88.32-15.662-24.721-3.42-53.368-6.387-80.513,1.752-3.837,1.151-7.791,2.673-10.708,5.99a15.468,15.468,0,0,0-3.44,12.483,33.075,33.075,0,0,0-7.638,6.262,30.386,30.386,0,0,0-8.113,23.731c1.323,11.353,9.032,22.061,22.292,30.966,15.238,10.232,32.875,16.189,49.93,21.95,4.768,1.61,9.472,3.205,14.082,4.865l-18.847,22.5a41.612,41.612,0,0,0-28.663,9.91c-9.142,7.585-14.714,18.183-15.289,29.074a51.513,51.513,0,0,0,.962,12.34l-80.826,96.5a17.158,17.158,0,0,0-11.752-1.248,22.434,22.434,0,0,0-14.451,11.089c-3.38,6.454-4.053,14.293-2.032,23.868l-54.012,64.484c-.093-.026-.176-.069-.271-.09-16.591-3.673-32,7.521-38.647,20.47-4.652,9.066-6.425,19.95-5.326,32.441l-98.371,117.442a4.986,4.986,0,0,0-1.917-.131c-18.322,2.325-34,12.826-49.774,24.31-7.59,5.525-17.036,12.4-24.627,20.829-19.929,22.126-26.03,52.138-30.571,80.983-.1.657-.205,1.327-.308,1.988L947.449,1708.008c-4.708-1.384-13.029-3.662-19.719.8a20.683,20.683,0,0,0-6.255,7.315c-5.712,10.138-7.713,21.049-7.848,32.26l-116.8,139.44a21.457,21.457,0,0,0-19.954,1.481c-6.26,3.894-10.828,10.947-12.533,19.35a45.657,45.657,0,0,0,.152,17.773l-72.434,86.475c-16.279-4.986-34.308,4.36-43.316,17.458-10.492,15.257-11.551,34.47-11.364,47.823l-24.592,29.36c-13.548-5.486-29.116-1-40.02,3.066C523.812,2128.857,477.5,2163,435.119,2212.08c-37.491,43.423-67.557,93.032-96.632,141.009a5,5,0,1,0,8.552,5.183c28.861-47.624,58.706-96.869,95.649-139.657,41.27-47.8,86.21-80.981,133.573-98.631,8.347-3.111,19.827-6.578,29.611-4.179l-41.418,49.447c-5.571.123-11.061.72-16.415,1.308a5,5,0,1,0,1.091,9.939c6.678-.731,13.585-1.494,20.223-1.216,9.767.4,19.423,3.078,26.746,5.364,6.61,2.065,14.27,4.738,20.957,8.911a74.778,74.778,0,0,1,15.874,13.869,101.268,101.268,0,0,1,13.69,19.154,97.931,97.931,0,0,1,9.943,28.823c1.425,7.675,2.351,25.317-3.885,30.859-6.093,5.416-10.614,4.823-14.249,4.345-.408-.053-.8-.1-1.16-.145-2.272-.256-4.67-1.866-6.578-4.418a41.774,41.774,0,0,1-4.687-9.337l-.175-.432c-5.716-14.068-12.429-28.8-22.763-41.23-11.619-13.977-26.35-22.786-41.479-24.807-8.645-1.152-18.051-.244-28.76,2.782a5,5,0,0,0-.948,9.248c3.033,1.576,6.046,3.027,8.961,4.429,7,3.371,13.614,6.555,19.809,11.1,5.654,4.147,10.588,9.507,14.669,14.2,7.7,8.853,17.1,20.794,21.507,34.648a31.272,31.272,0,0,1,1.782,10.675,33.47,33.47,0,0,1-2.9,11.414,75.858,75.858,0,0,1-19.238,27.341c-.1-.367-.192-.735-.292-1.1-4.676-16.939-13.987-33.654-26.928-48.336-11.145-12.648-25.412-24.343-42.4-34.76a5,5,0,1,0-5.227,8.525c16.142,9.9,29.643,20.947,40.129,32.846,11.944,13.552,20.516,28.9,24.791,44.387.8,2.893,1.48,5.938,1.065,8.609-.328,2.106-1.526,3.943-2.914,4.467a12.366,12.366,0,0,1-4.081.3c-8.569-.246-17.476-.861-23.931-5.354-3.062-2.132-5.618-5.158-8.325-8.363a66.457,66.457,0,0,0-8.009-8.413,45.211,45.211,0,0,0-14.362-7.837c-15.644-5.474-33.537-4.924-50.38,1.552-14.773,5.679-28.672,15.92-40.2,29.617a5,5,0,1,0,7.652,6.437c10.438-12.406,22.933-21.646,36.132-26.721,14.423-5.543,30.274-6.07,43.49-1.446a35.451,35.451,0,0,1,11.249,6.07,57.98,57.98,0,0,1,6.784,7.193c3,3.558,6.111,7.235,10.252,10.118,8.714,6.065,19.281,6.855,29.358,7.143.521.014,1.088.031,1.691.031a17.423,17.423,0,0,0,6.2-.969c4.82-1.816,8.372-6.524,9.269-12.287.08-.515.133-1.026.174-1.534.148.013.294.047.443.047a4.981,4.981,0,0,0,3.241-1.2,85.861,85.861,0,0,0,23.615-32.568,44.051,44.051,0,0,0,3.641-14.85,40.811,40.811,0,0,0-2.248-14.075c-4.967-15.6-15.161-28.593-23.487-38.174-.924-1.064-1.9-2.164-2.91-3.276l7.7-8.7a72.1,72.1,0,0,1,7.719,7.973c9.463,11.383,15.776,25.281,21.188,38.6l.174.429c1.579,3.889,3.211,7.911,5.945,11.565,3.606,4.822,8.388,7.793,13.466,8.366.308.035.634.079.978.123,4.433.581,12.687,1.665,22.2-6.786,12.329-10.96,7.294-38.971,7.074-40.159a107.891,107.891,0,0,0-10.983-31.759c-.376-.694-.773-1.386-1.17-2.078a19.72,19.72,0,0,0,2.448.173c6.269,0,12.016-3.027,14.678-8a19.212,19.212,0,0,0,1.986-7.75c.567-7.556-.943-14.972-2.321-20.589a158.735,158.735,0,0,0-15.594-39.57l99.019-119.021a30.4,30.4,0,0,0,11.213,2.122,30.791,30.791,0,0,0,22.865-9.885c8.176-9.135,10.653-23.435,6.628-38.255-.2-.722-.421-1.431-.64-2.143l89.342-107.39c5.221,2.12,12.237,4.682,19.457,4.682a25.258,25.258,0,0,0,9.985-1.939c11.451-4.881,17.629-17.871,17.864-37.567.082-6.915-.163-14-.708-21.186l96.954-116.541c6.432,2.623,13.445,5.036,20.4,5.036a25.332,25.332,0,0,0,10.157-2.019c5.446-2.35,10.171-6.837,14.446-13.716,11.174-17.984,13.112-38.873,13.582-59.722l180.218-216.624c4.663,2.848,10.468,5.851,16.987,5.851.386,0,.776-.01,1.168-.032,11.308-.629,19.214-10.116,22.842-18.784,4.561-10.895,5.334-23.735,2.359-39.149l71.372-85.789a30.534,30.534,0,0,0,12.389,4.1q.918.075,1.821.074a18.822,18.822,0,0,0,14.734-6.542c3.586-4.4,4.3-9.867,4.517-13.6a66.205,66.205,0,0,0-2.487-21.257l50.816-61.082c7.035,2.37,13.972,4.273,20.815,4.273a31.61,31.61,0,0,0,10.962-1.875c14.451-5.277,23.325-21.586,23.737-43.627a143.38,143.38,0,0,0-1.62-23.553l65.673-78.939a35.759,35.759,0,0,0,12.571,5.487,20.545,20.545,0,0,0,3.759.342c5.518,0,11.521-2.158,14.818-7.478,5.64-9.1-.466-19.972-7.408-26.516-.058-.055-.119-.1-.177-.158l6.973-8.381a5,5,0,0,0,.7-5.276c-.475-1.04-1.008-2.043-1.566-3.029a20.17,20.17,0,0,0,4.16-8.222,15.027,15.027,0,0,0,.169-4.974c7.048-3.282,10.937-11.892,8.793-19.825,10.247,2.54,20.557,4.992,30.917,7.292a4.939,4.939,0,0,0,.089.519c3.106,11.159,9.7,26.626,23.465,36.936a46.9,46.9,0,0,0,22.929,9.147c.016,0,.029.014.045.019,27.591,8.365,58.808,16.382,88.954,16.381a147.116,147.116,0,0,0,22.973-1.722c17.759-2.809,35.989-7.16,49.015-19.865l.234-.227C1868.794,991.417,1884.222,976.4,1880.665,948.779ZM572.925,2231.02a73.762,73.762,0,0,0-6.36-5.285,109.806,109.806,0,0,0-16.749-9.8,46.137,46.137,0,0,1,29.818,7.5ZM1785.865,894.8a4.956,4.956,0,0,0,.971,2.12c8.363,10.465,13.841,21.443,16.283,32.629,2.693,12.337,1.462,24.741-3.467,34.928-3.5,7.244-9.252,14.282-18.089,22.152-9.61,8.56-17.969,13.731-26.306,16.273a4.949,4.949,0,0,0-2.175,1.378c-9.568-1.773-19.06-4.029-28.3-6.512,6.365-3.341,11.378-8.26,15.069-12.262,9.119-9.889,15.789-20.351,19.823-31.1,4.734-12.607,5.821-25.546,3.143-37.418a73.028,73.028,0,0,0-8.927-21.368A80.85,80.85,0,0,0,1747.2,886c4.621,1.057,9.272,2.089,13.87,3.107C1769.344,890.94,1777.794,892.814,1785.865,894.8Zm-289.29-7.193c1.254-1.426,3.659-2.292,6.071-3.015a125.86,125.86,0,0,1,36.211-4.795c13.812,0,27.459,1.626,40.06,3.369,35.092,4.854,70.119,11.9,102.987,18.693,13.727,2.838,27.625,5.751,41.342,8.666a30.484,30.484,0,0,1,1.442,3.157c.2.48.4.959.6,1.431a38.9,38.9,0,0,1,2.469,10.107c1.058,7.808.9,13.828-.485,18.945a21.322,21.322,0,0,1-9.118,12.176c-45.226-6.1-90.2-17.86-133.717-29.243-24.492-6.407-49.818-13.032-73.742-22.2-4.049-1.551-7.909-3.175-10.838-5.554.257-.007.514-.015.771-.012h.089a5,5,0,0,0,.085-10,27.173,27.173,0,0,0-5.27.434A4.67,4.67,0,0,1,1496.575,887.611Zm6.791,155.666c.428-8.112,4.689-16.1,11.689-21.906a33.558,33.558,0,0,1,13.227-6.8l-24.95,29.787C1503.339,1044,1503.347,1043.637,1503.366,1043.277Zm-107.195,122.788a12.341,12.341,0,0,1,7.857-5.987,8.87,8.87,0,0,1,2.563-.225l-12.437,14.848A19.223,19.223,0,0,1,1396.171,1166.065Zm-1.719,45.726c2.319,5.638,4.577,11.145,6.369,16.624l-94.155,113.175c-.92-3.331-1.895-6.624-2.858-9.853-2.018-6.764-4.105-13.759-5.478-20.682q-.538-2.71-.9-5.307l91.2-108.886C1390.408,1201.942,1392.449,1206.924,1394.452,1211.791Zm-308.244,394.791c.054-4.833.136-9.727.348-14.467a369.074,369.074,0,0,1,4.355-39.808l198.179-236.6c1.424,6.443,3.306,12.757,5.135,18.888,1.61,5.4,3.257,10.964,4.552,16.477Zm215.04-331.857c4.035-7.864,12.723-15.159,22.272-15.7l-26.629,31.791A42.632,42.632,0,0,1,1301.248,1274.725Zm-181.481,197.017c6.383-7.088,13.908-12.76,23.082-19.438,12.238-8.909,23.625-16.683,35.914-20.455l-84.609,101.012C1098.394,1510.336,1104.906,1488.239,1119.767,1471.742ZM930.188,1721.035a11.686,11.686,0,0,1,3.1-3.906c1.752-1.171,4.311-1.118,7.03-.605l-15.2,18.142A48.224,48.224,0,0,1,930.188,1721.035ZM774.144,1910.646c1.159-5.717,4.081-10.4,8.015-12.848a11.966,11.966,0,0,1,7.713-1.664l-16.317,19.479A30.851,30.851,0,0,1,774.144,1910.646Zm-2.845,35.42c1.474,3.117,3.063,6.206,4.6,9.2a170.083,170.083,0,0,1,7.325,15.513L750.39,2010.24a4.775,4.775,0,0,0-2.346,2.819L651.754,2128.8c-.363-3.388-.74-6.759-1.115-10.076-1.373-12.145-2.775-24.67-3.162-37.017l48.7-58.142a4.947,4.947,0,0,0,2.449-2.379,5.01,5.01,0,0,0,.339-.949l68.879-82.232C768.961,1940.956,770.166,1943.671,771.3,1946.066ZM656.984,2036.03c5.887-8.56,17.162-15.29,27.77-14.4l-37,44.175C648.759,2053.257,651.767,2043.618,656.984,2036.03Zm-80.047,129.894,61.113-72.961c.646,9.066,1.656,18.074,2.652,26.885.733,6.482,1.476,13.145,2.07,19.749l-30.267,36.381a134.065,134.065,0,0,0-13.425-4.875A132.334,132.334,0,0,0,576.937,2165.924Zm45.413,15.149c-.238-.148-.482-.279-.721-.424l22.14-26.613c.534,14.335-.9,27.4-9.335,36.574A75.342,75.342,0,0,0,622.35,2181.073Zm41.034,18.345a10.186,10.186,0,0,1-.831,3.779c-1.2,2.241-4.8,3.067-7.577,2.563-3.895-.7-7.64-3.242-11.262-5.7a5.009,5.009,0,0,0-.885-.48c-.483-.572-.981-1.141-1.479-1.71,9.839-10.307,12.425-23.979,12.494-38.38a148.718,148.718,0,0,1,7.478,22.472C662.6,2187.162,663.842,2193.3,663.384,2199.418Zm117.7-192.865c-4.776,5.336-12.683,7.558-19.7,6.1l25.159-30.241C788.086,1992.094,786.159,2000.885,781.086,2006.553Zm3.706-55.863c-1.5-2.917-3.049-5.932-4.454-8.9A84.152,84.152,0,0,1,775.392,1929l138.963-165.9c.688,6.862,1.765,13.758,2.834,20.586.507,3.238,1.031,6.587,1.49,9.814q.908,6.383,1.48,12.684L790.42,1962.123C788.653,1958.213,786.708,1954.42,784.792,1950.69Zm136.382-120.2c-.129,10.759-2.278,24.434-11.786,28.487-5.473,2.332-12.105.8-18.768-1.66l30.448-36.6Q921.226,1825.655,921.174,1830.492Zm7.406-38.408c-.47-3.3-1-6.681-1.512-9.953-1.577-10.076-3.179-20.313-3.393-30.167l155.109-185.18c-1.027,8.212-1.847,16.564-2.219,24.886-.279,6.272-.339,12.719-.4,18.954-.025,2.706-.051,5.423-.094,8.142L929.035,1795.507C928.887,1794.366,928.742,1793.227,928.58,1792.084Zm135.349-115.177c-3.162,5.088-6.405,8.3-9.915,9.813-5.79,2.5-12.829.741-19.862-1.929l41.28-49.619C1074.363,1650.147,1071.582,1664.591,1063.929,1676.907ZM1298,1389.013c-2.347,5.607-7.468,12.288-14.174,12.661-3.587.2-7.227-1.37-11.117-3.625L1301,1364.04C1301.941,1373.712,1300.95,1381.955,1298,1389.013ZM1404.43,1251.37c-.219,3.682-.966,6.257-2.283,7.871-1.615,1.979-4.752,3.081-7.994,2.823a18.974,18.974,0,0,1-6.663-1.989l16.333-19.632A50.317,50.317,0,0,1,1404.43,1251.37Zm-.73-43.383a201.086,201.086,0,0,1-7.47-20.191l101.141-120.748q.258.882.518,1.762l.306,1.036a288.914,288.914,0,0,1,7.846,32.094l-97.774,117.525C1406.823,1215.594,1405.256,1211.772,1403.7,1207.987Zm104.557-79.78c-.257,13.7-4.9,29.941-17.169,34.42-6.411,2.34-13.748,1.06-21.453-1.291l38.165-45.875A123.455,123.455,0,0,1,1508.257,1128.207Zm-.469-61.185-.308-1.042c-.824-2.8-1.63-5.536-2.312-8.241l60.9-72.708a117.654,117.654,0,0,1,25.713,13.847l-77.488,93.141C1512.46,1083.469,1510.169,1075.112,1507.788,1067.022Zm97.168-48.036c-1.5,2.42-5.28,3.126-8.24,2.573a24.372,24.372,0,0,1-7.952-3.418l10.7-12.859C1603.724,1009.41,1607.2,1015.361,1604.956,1018.986Zm-32.174-41.969,6.9-8.236c11.33,3.849,19.014,9.3,23.347,16.579l-4.847,5.826A123.363,123.363,0,0,0,1572.782,977.017Zm25.166-27.031c-.716-1.292-.184-3.463,1.16-4.74a8.9,8.9,0,0,1,7.016-1.919c4.28.452,8.183,3.365,9.28,6.924.967,3.141-.641,7.084-3.285,8.363a21.021,21.021,0,0,0-7.358-5.274,22.417,22.417,0,0,0-6.265-1.712A4.973,4.973,0,0,0,1597.948,949.986Zm-6.512,12.777a7.741,7.741,0,0,1,2.45-1.064,11.024,11.024,0,0,1,6.867.8,10.555,10.555,0,0,1,4.559,3.6,6.145,6.145,0,0,1,1.042,4.519,6.924,6.924,0,0,1-.758,1.9A50.668,50.668,0,0,0,1591.436,962.763Zm-3.027-9.7a17.066,17.066,0,0,0-7.022,5.764c-.65-.209-1.292-.422-1.961-.62a5,5,0,0,0-5.259,1.582L1563,973.123c-5.875-2.2-11.815-4.21-17.7-6.2-16.433-5.551-33.426-11.291-47.554-20.778-7.5-5.038-16.7-13.26-17.936-23.822a20.413,20.413,0,0,1,5.592-15.859,23.344,23.344,0,0,1,4.047-3.549c.208.279.414.56.636.824,4.535,5.4,10.9,8.151,17.037,10.5,24.438,9.363,50.035,16.059,74.79,22.534q4.593,1.2,9.208,2.406A14.277,14.277,0,0,0,1588.409,953.064Zm78.763,4.511c17,3.563,34.13,6.639,51.333,8.9a5,5,0,0,0,2.949-.515,31.1,31.1,0,0,0,15.47-19.174c2.3-8.477,1.527-17.134.744-22.91a47.98,47.98,0,0,0-3.2-12.735c-.184-.424-.362-.854-.541-1.286a25.124,25.124,0,0,0-3.918-7.063,5,5,0,0,0-2.759-1.64c-14.359-3.054-28.934-6.111-43.321-9.086-1.769-.366-3.567-.734-5.349-1.1a24.067,24.067,0,0,1,12.819-11.559c6.011-2.451,13.281-3.139,21.613-2.041a48.636,48.636,0,0,1,8.171,1.734,4.938,4.938,0,0,0,1.435.7c.629.181,1.278.356,1.916.534.042.019.087.035.13.054,7.634,3.35,14.577,10.2,20.635,20.358a63.267,63.267,0,0,1,7.761,18.446c2.248,9.964,1.3,20.927-2.749,31.7-3.58,9.532-9.573,18.895-17.814,27.832-3.308,3.586-7.8,8.036-13.188,10.63-9.979,4.8-23.538,2.892-33.74-4.747C1675.783,977.285,1670.262,966.563,1667.172,957.575Zm189.578,31.612-.241.233c-11.024,10.753-27.468,14.6-43.6,17.147-13.583,2.148-27.809,1.979-42.105.378a103.435,103.435,0,0,0,17.4-12.844c6.2-5.519,15.06-14.144,20.44-25.265,5.9-12.192,7.4-26.9,4.235-41.416a85.341,85.341,0,0,0-12.41-28.712c19.539,5.627,41.342,12.185,55.958,27.481,6.422,6.722,13.144,14.813,14.31,23.867C1873.665,972.72,1861.376,984.683,1856.75,989.187Z" transform="translate(-337.762 -866.864)"></path></g></g></g></svg> 