<?xml version="1.0" encoding="UTF-8"?> <svg xmlns="http://www.w3.org/2000/svg" xmlns:xlink="http://www.w3.org/1999/xlink" viewBox="0 0 386.9 771.927"><defs><clipPath id="clip-path" transform="translate(-3368.664 -1622.841)"><rect width="6237" height="2333" fill="none"></rect></clipPath></defs><g id="Layer_2" data-name="Layer 2"><g id="hand11"><g clip-path="url(#clip-path)"><path d="M3628.844,2181.181c-13.184-20.494-24.943-42.044-33.03-65.032-3.185-9.054-5.811-18.42-6.166-28.012-.919-24.818,13.287-47.95,14.682-72.746,1.885-33.5-19.3-63.184-35-92.834a311.915,311.915,0,0,1-31.679-92.907c-1.3-7.551-3.919-16.878-11.481-18.115-8.428-1.379-13.891,8.789-15.044,17.251-2.186,16.051,1.028,32.284,3.95,48.218,16.46,89.734,24.033,180.827,31.583,271.745l5.331,64.189c.429,5.172-2.191,12.8-6.976,10.792a1119.289,1119.289,0,0,0,53.594,135.593c4.1,8.669,8.571,17.614,16.209,23.41,7.368,5.591,16.8,7.572,25.949,8.944a279.8,279.8,0,0,0,63,2.261c17.585-1.359,38.6-5.819,46.263-24.043,6.074-14.436-9.1-31.978-16.4-43.678-20.427-32.724-44.755-62.745-68.056-93.416C3652.8,2215.983,3640.275,2198.951,3628.844,2181.181Z" transform="translate(-3368.664 -1622.841)" fill="#f4b3a7"></path><path d="M3487.334,2072.408a64.427,64.427,0,0,0,28.883.916c1.863-.369,3.821-.882,5.125-2.263,3.8-4.026-.984-10.3-5.572-13.4a141.29,141.29,0,0,0-27.335-14.389l21.215-5.9c3-.834,6.156-1.756,8.323-3.995,3.989-4.122,2.926-11.28-.751-15.682s-9.212-6.723-14.525-8.885l-41.1-16.73c14.4-3.168,30.674-7.751,37.116-21.012a8.6,8.6,0,0,0,1.079-5.18,8.9,8.9,0,0,0-2.334-4.12c-12.42-14.116-34.008-14.156-52.778-13.048-1.841.109-3.965.106-5.17-1.29a5.763,5.763,0,0,1-.96-3.925,50.332,50.332,0,0,1,15.9-35.665c4.336-4.022,9.367-7.249,13.639-11.34s7.863-9.376,8.128-15.284-3.8-12.239-9.675-12.874c-3.648-.393-7.158,1.339-10.371,3.11-15.323,8.446-29.8,19.226-39.513,33.778s-14.127,33.335-8.677,49.961c-6.29-1.419-11.1,7-8.987,13.1s8.094,9.831,13.663,13.083l19.521,11.4a116.147,116.147,0,0,0-18.026,8.349c-1.581.9-3.229,1.941-3.991,3.6-1.093,2.376,0,5.153,1.246,7.453a55.325,55.325,0,0,0,24.827,23.469,31.687,31.687,0,0,0-17.89,30.923c.583,6.252,3.046,12.152,5.481,17.94,7.658,18.2,15.383,36.536,26.352,52.96,15.864,23.753,40.85,48.748,66.725,61.426,3.546-5.744-3.331-22.117-4.9-28.775q-3.964-16.8-8.108-33.558-4.03-16.3-8.231-32.567C3494.743,2100.435,3490.01,2073.117,3487.334,2072.408Z" transform="translate(-3368.664 -1622.841)" fill="#f4b3a7"></path><path d="M3405.106,1827.112c-.87-25.219-16.736-47.129-24.948-70.99a121.682,121.682,0,0,1,10.594-100.777c5.21-8.673,11.7-16.847,20.318-22.154,22.516-13.875,53.312-3.945,72.017,14.754,19.592,19.586,29.706,47.064,33.186,74.549s.884,55.333-1.715,82.915l-1.361,14.452c-.764,8.1-1.528,16.239-1.209,24.373.509,12.952,3.748,25.614,6.137,38.353,3.131,16.695,4.813,33.622,6.491,50.524,9.555,96.217,19.111,192.445,26.362,288.863l-26.346,3.179-36.214-148.507a52.084,52.084,0,0,0,29.989-1.775c1.8-.667,3.733-1.587,4.5-3.353,1.344-3.108-1.666-6.258-4.355-8.316l-26.8-20.517c5.069-4.935,14.067.019,20.468-2.994,6.067-2.855,6.721-11.883,2.99-17.454s-10.23-8.5-16.387-11.153l-40.035-17.253a117.7,117.7,0,0,0,35.224-16.931c3.107-2.2,6.423-5.208,6.122-9-.186-2.338-1.76-4.334-3.5-5.91-8.722-7.916-21.753-8.365-33.5-7.558-6.693.46-14.177.946-19.3-3.389-4.736-4.012-5.8-11.114-4.3-17.136s5.107-11.264,8.515-16.45a367,367,0,0,0,20.657-35.643c1.561-3.081,2.713-7.6-.263-9.351-1.43-.842-3.233-.562-4.849-.186a58.806,58.806,0,0,0-35.5,24.794c-1.873-7.749-4.229-14.3-6.1-22.052-2.738-11.327-5.493-22.707-9.929-33.483C3409.687,1835.771,3405.322,1833.342,3405.106,1827.112Z" transform="translate(-3368.664 -1622.841)" fill="#3b3037"></path><path d="M3398.027,1797.386c27.025-10.631,58.046-11.343,86.525-14.329,8.746-1.418,17.465-3.221,26.334-3.556,1.972-.075,3.948-.05,5.917.058,1.382-19.057,1.865-38.148-.53-57.065-3.48-27.485-13.594-54.963-33.187-74.549-18.7-18.7-49.5-28.629-72.016-14.754-8.613,5.308-15.108,13.481-20.318,22.154a121.682,121.682,0,0,0-10.594,100.777C3385,1770.2,3392.506,1783.59,3398.027,1797.386Z" transform="translate(-3368.664 -1622.841)" fill="#4a4547"></path><path d="M3514.325,1755.77c-1.456-.673-3.225-1.246-4.874-1.932.629.588-.051.627-2.872-1.487-1.1-.419-2.205-.828-3.32-1.209a87.654,87.654,0,0,0-11.051-3.017,97.117,97.117,0,0,0-16.774.4c-8.816,1.428-17.579,3.384-26.232,5.543-1.109.276-2.659.535-4.122.927-.19.112-.511.286-1.041.554-.993.5-2,.976-2.986,1.491a139.763,139.763,0,0,0-12.073,7.271c-1.975,1.3-3.963,2.59-5.908,3.933a20.539,20.539,0,0,1-2.462,1.862c-3.083,2.517-6.123,5.087-9.2,7.608-5.247,4.293-10.6,8.826-16.353,12.643,5.25,11.854,9.608,23.87,10.052,36.75.142,4.106,2.087,6.564,4.076,9.411q1.941-1.86,3.851-3.754c3.719-3.685,7.413-7.387,11.449-10.729,11.248-9.314,23.768-16.177,38.245-18.9,16.936-3.186,35.322-3.768,51.954.966,1.461-15.519,2.885-31.12,3.2-46.689Q3516.1,1756.6,3514.325,1755.77Z" transform="translate(-3368.664 -1622.841)" fill="#ffaa25"></path><path d="M3754.876,2347.663c-18.935-32.3-42.442-62.66-65.176-92.017-36.371-46.967-73.981-95.535-92.318-152-4.636-14.274-1.667-30.38,1.848-44.253q.645-2.544,1.3-5.065c3.791-14.721,7.711-29.943,6.88-46.2-.805-15.807-4.982-32.088-12.768-49.775-4.336-9.85-9.378-19.467-14.253-28.768-3.44-6.56-6.995-13.344-10.239-20.092a321.5,321.5,0,0,1-24.688-72.418l-.276-1.311c-1.544-7.331-3.14-14.912-7.79-21.45-3.154-4.437-8.354-8.146-13.924-8.137l-2.455-48.031c.687-6.587,6.815-74.392-27.532-107.729-21.408-20.778-44.353-30.326-64.612-26.883-19.743,3.356-36.344,18.239-49.342,44.235-12.441,24.882-14.235,53.736-5.186,83.443a145.706,145.706,0,0,0,17.111,37l32.58,103.661a90.062,90.062,0,0,0-21.807,57.881,4.993,4.993,0,0,0-.047,1.715l.074.512-.017.01c-4.716,3.257-7.681,7.993-8.132,13a18.419,18.419,0,0,0,1.541,8.791c3.167,7.558,9.417,12.3,14.1,14.945a56.118,56.118,0,0,0,9.144,4.043,20.959,20.959,0,0,0-2.335,1.288c-8.081,5.246-11.15,16.6-7.137,26.418,2.676,6.548,8.165,12.162,15.637,16.077-5.825,5.932-8.524,14.958-8.018,26.834.79,18.555,7.292,38.01,19.875,59.473a237.35,237.35,0,0,0,78.531,80.842l5.707,22.531a4.987,4.987,0,0,0,5.608,3.713l7.709-1.186a165.748,165.748,0,0,1-2.547,36.111c-7.062,38.7-27.407,73.416-47.082,106.987a5,5,0,1,0,8.627,5.056c19.178-32.722,40.914-69.808,48.293-110.248a175.789,175.789,0,0,0,2.737-25.387c18.742,44.244,38.612,88.508,59.183,131.789a5,5,0,1,0,9.031-4.292c-22.2-46.7-43.573-94.544-63.59-142.27l3.639-.56a5,5,0,0,0,4.218-5.391l-27.332-302.478c1.224,3.236,2.36,6.483,3.331,9.733a5,5,0,0,0,9.582-2.862c-3.238-10.842-7.943-21.342-12.493-31.5-8.063-18-15.679-34.994-15.615-53.426.029-8.388,1.791-15.346,5.236-20.681a10.538,10.538,0,0,1,2.083-2.489c.029-.021.057-.045.085-.067a3.181,3.181,0,0,1,.815-.474c1.925-.712,4.85,1.374,6.573,3.8,3.443,4.841,4.759,11.094,6.153,17.714l.281,1.328a331.379,331.379,0,0,0,25.456,74.674c3.318,6.9,6.916,13.767,10.394,20.4,4.8,9.152,9.759,18.616,13.958,28.154,7.287,16.555,11.191,31.685,11.935,46.256.753,14.737-2.808,28.563-6.577,43.2q-.655,2.541-1.307,5.1c-3.866,15.256-7.088,33.1-1.667,49.8,18.876,58.122,57.028,107.39,93.924,155.036,22.539,29.105,45.846,59.2,64.455,90.95a5,5,0,0,0,8.627-5.057ZM3402,1788.4a4.975,4.975,0,0,0,1.72-1.858c2.244-4.232,5.927-8.113,11.94-12.583a105.478,105.478,0,0,1,71.079-20.17c10.033.866,17.895,3.133,24.036,6.928.119.074.248.118.371.181l2,39.037c-15.033-2.439-33.735-4.174-51.927.329a110.509,110.509,0,0,0-13.158,4.231c-14.471,5.569-25.779,12.479-34.393,21.015Zm-13.524-116.166c11.494-22.986,25.649-36.056,42.073-38.848,17.038-2.894,36.911,5.7,55.973,24.2,25.483,24.734,25.921,73.447,25.045,92.223-6.653-3.187-14.533-5.168-23.967-5.983a115.6,115.6,0,0,0-77.905,22.108,54.87,54.87,0,0,0-12.614,12.381C3388.471,1763.646,3365.781,1717.618,3388.472,1672.236Zm57.115,213.426c7.754-5.469,14.781-7.888,20.9-7.189a6.121,6.121,0,0,1,1.394.287,7.951,7.951,0,0,1-.865,2.656c-3.669,7.742-9.146,14.438-14.944,21.526-3.746,4.579-7.619,9.315-11,14.4-2.308,3.468-5.108,8.147-6.292,13.6a34,34,0,0,0,.025,13.321,109.312,109.312,0,0,0-20.29,2.793c-.725.172-1.476.365-2.236.571A79.822,79.822,0,0,1,3445.587,1885.662Zm-40.72,84.249a8.644,8.644,0,0,1-.8-4.028,8.312,8.312,0,0,1,3.854-5.664,26.887,26.887,0,0,1,8.906-3.439,101.217,101.217,0,0,1,23.453-2.66,135.9,135.9,0,0,1,36.055,5.2,53.512,53.512,0,0,1,13.6,5.327c2.754,1.671,4.544,3.853,4.353,5.306-.273,2.091-4.438,4.237-6.007,5.046a131.973,131.973,0,0,1-15.1,7,85.5,85.5,0,0,1-22.9,4.521c-7.22.547-14.2.894-20.251-.8h0c-5.481-1.535-10.78-3.125-15.357-5.709C3411.34,1978.137,3406.94,1974.859,3404.867,1969.911Zm13.81,46.776c-2.154-5.267-.661-11.658,3.326-14.246a23.484,23.484,0,0,1,4.337-1.957l.831-.314c.543-.207,1.084-.419,1.625-.632a40.5,40.5,0,0,1,5.75-1.945c4.22-.945,8.844-.307,12.811.44,12.977,2.447,25.716,7.535,38.036,12.456,2.843,1.136,5.684,2.271,8.532,3.377l1.027.4a75,75,0,0,1,11.455,5.167c3.906,2.334,6.665,5.065,8.2,8.116.055.11.1.2.133.277-.212.331-.562.781-.719.982a15.33,15.33,0,0,1-3.3,3.483c-1.437.9-3.645,1.134-5.971,1.317a185.887,185.887,0,0,1-25.087.263,5.062,5.062,0,0,0-3.9,1.581c-2.776-.894-5.473-1.732-8.049-2.532-6.223-1.931-13.275-4.119-20.7-4.307a33.6,33.6,0,0,0-12.582,2,4.949,4.949,0,0,0-2.07-1.66C3428.45,2027.294,3421.46,2023.5,3418.677,2016.687Zm26.865,101.112c-11.737-20.021-17.792-37.959-18.512-54.843-.384-9.035,1.367-15.58,5.207-19.452,3.238-3.263,8.525-5.05,14.532-4.9,6.04.154,12.114,2.039,17.988,3.862,16.513,5.126,30.108,9.671,42.243,17.528,4.551,2.947,7.689,5.677,9.88,8.592a4.536,4.536,0,0,1,.96,1.656c.041.288-.618,1.293-1.766,1.737-1.809.7-4.294.516-6.9.246a242.637,242.637,0,0,1-56.282-12.742,5,5,0,0,0-3.354,9.42,252.475,252.475,0,0,0,34.161,9.491l28.09,110.884A227.41,227.41,0,0,1,3445.542,2117.8Zm71.486-229.092a4.972,4.972,0,0,0-.007.743l29.577,327.322-16.867,2.6-35.213-139c4.525.721,9.069,1.334,13.628,1.807,3.709.385,7.659.636,11.538-.866,4.629-1.793,8.883-6.652,8.056-12.469a13.622,13.622,0,0,0-2.867-6.26c-3.833-5.1-8.934-8.707-12.437-10.976a110.3,110.3,0,0,0-14.023-7.607q3.57-.147,7.123-.422c3.467-.272,7.132-.713,10.481-2.8a23.318,23.318,0,0,0,5.891-5.82,11.472,11.472,0,0,0,2.935-6.9,10.587,10.587,0,0,0-1.3-5c-2.4-4.777-6.441-8.883-12-12.207a83.526,83.526,0,0,0-12.975-5.909l-1.016-.394c-2.818-1.1-5.63-2.218-8.443-3.342-6.505-2.6-13.124-5.239-19.894-7.554,2.559-.651,5.02-1.39,7.374-2.244a139.565,139.565,0,0,0,16.272-7.512c3.372-1.739,10.388-5.355,11.341-12.638.732-5.593-2.664-11.257-9.082-15.151a63.3,63.3,0,0,0-16.126-6.419,149.158,149.158,0,0,0-34-5.469,25.958,25.958,0,0,1-.439-11.155c.828-3.813,3.023-7.441,4.844-10.176,3.113-4.677,6.662-9.016,10.42-13.61,5.922-7.242,12.047-14.729,16.24-23.577,3.115-6.576,1.664-10.712-.1-13.023-1.794-2.348-4.518-3.7-8.329-4.137-8.627-.985-17.979,2.028-27.8,8.953a85.665,85.665,0,0,0-7.856,6.275l-14.861-47.284c7.907-9.341,19.2-16.751,34.538-22.651a100.719,100.719,0,0,1,11.969-3.857c17.321-4.287,35.634-2.265,50.047.186l.032.623a23.291,23.291,0,0,0-2.405,3.132c-4.5,6.968-6.8,15.739-6.835,26.07C3504.392,1857.26,3510.312,1873.267,3517.028,1888.707Z" transform="translate(-3368.664 -1622.841)"></path></g></g></g></svg> 