<?xml version="1.0" encoding="UTF-8"?> <svg xmlns="http://www.w3.org/2000/svg" xmlns:xlink="http://www.w3.org/1999/xlink" viewBox="0 0 1132.035 888.616"><defs><clipPath id="clip-path" transform="translate(-4852 -1526.006)"><rect width="6237" height="2333" fill="none"></rect></clipPath></defs><g id="Layer_2" data-name="Layer 2"><g id="hand8"><g clip-path="url(#clip-path)"><path d="M5324.515,2047.506a552.48,552.48,0,0,0-49.121,129.2c-.366,1.509-.833,3.175-2.158,3.986a5.993,5.993,0,0,1-4.023.335c-50.292-7.527-102.98-16.038-143.315-47.006,6.774-40.641,1.074-82.377-8.145-122.533s-21.944-79.505-29.488-120.01c-8.619-7.766-13.194-19.743-13.289-31.344-.065-8.044,3.951-17.628,11.961-18.377,5.173-.484,9.791,2.972,13.861,6.2q29.733,23.6,61.617,44.3c25.2,16.36,51.3,31.289,76.543,47.581,16.057,10.364,32.049,21.546,43.577,36.79,6.8,8.986,11.85,19.142,16.864,29.231l20.792,41.839C5321.574,2047.5,5323.132,2047.711,5324.515,2047.506Z" transform="translate(-4852 -1526.006)" fill="#ff8f5f"></path><path d="M5110.845,2086.953c-3.717-2.274-7.97-3.479-12.148-4.716q-18.909-5.6-37.31-12.757c.1-2.386,2.191-4.312,4.477-5a17.627,17.627,0,0,1,7.111-.142c6.449.745,13,1.436,19.409.423s12.778-3.939,16.613-9.178a8.543,8.543,0,0,0,1.708-3.667,7.887,7.887,0,0,0-.673-4.162c-1.953-4.7-6.3-7.884-10.45-10.827l-34.6-24.552c12.989-1.945,27.034-4.534,35.849-14.27a7.463,7.463,0,0,0,2.167-3.923,7.3,7.3,0,0,0-.673-3.52c-4.329-10.879-15.505-17.4-26.514-21.387-24.525-8.88-51.3-9.172-77.322-7.422-5.88.4-11.839.908-17.372,2.937s-10.677,5.777-13.153,11.125-1.7,12.38,2.737,16.254c3.331,2.907,7.973,3.644,12.345,4.3,12.181,1.834,24.761,4.14,34.855,11.2-5.024.851-10.381-.769-15.181.942a23.038,23.038,0,0,0-5.895,3.563l-12.288,9.225c-2.158,1.62-4.4,3.341-5.535,5.791-1.882,4.06-.063,9.094,3.228,12.126,2.589,2.386,5.911,3.789,9.16,5.146,18.942,7.911,38.234,15.913,58.662,17.927,1.9.187,3.9.352,5.488,1.4s2.554,3.334,1.505,4.928q-20.078,1.042-40.1,2.882a13.518,13.518,0,0,0-5.694,1.386c-4.282,2.515-4.493,8.776-2.68,13.4a24,24,0,0,0,11.607,12.63c4.754,2.343,10.127,3.027,15.387,3.679l62.286,7.712c5.312.658,11.028,1.245,15.728-1.318C5123.636,2103.606,5118.29,2091.507,5110.845,2086.953Z" transform="translate(-4852 -1526.006)" fill="#ff8f5f"></path><path d="M5023.85,1932.415c-4.206-10.689-14.622-17.736-24.289-24.406s-19.745-14.477-22.614-25.565c-1.19-4.6-1.086-9.621-3.593-13.7a2.933,2.933,0,0,0-1.792-1.526c-1.433-.268-2.479,1.231-3.093,2.5-4.086,8.459-8.2,17.007-10.231,26.125s-1.812,18.99,2.514,27.339c3.412,6.585,9.2,11.856,15.751,15.669s13.874,6.258,21.27,8.185c3.471.9,7.077,1.706,10.636,1.209s7.093-2.571,8.249-5.839c.541-1.532.546-3.245,1.382-4.65.946-1.59,2.775-2.491,4-3.89s1.516-3.978-.227-4.72" transform="translate(-4852 -1526.006)" fill="#ff8f5f"></path><path d="M5528.253,2370.666c-32.785-17.04-59.672-43.686-91.8-61.936-55.241-31.381-123.553-36.657-174.866-74.117,7.7-68.175,28.375-136.193,67.412-192.613,59.475,13.743,123.091,29.329,182.566,43.072,52.31,12.087,104.82,24.235,154.94,43.482,60.861,23.373,117.481,56.991,169.505,96.281,12.52,9.456,25.554,14.874,37.545,24.993,12.5,10.55,23.411,22.83,34.272,35.061l67.6,76.13c5.766,6.494,11.782,16.011,6.687,23.044-2.385,3.292-6.526,4.723-10.429,5.859a295.407,295.407,0,0,1-42.265,8.668c-44.167,6.089-88.955,5.367-133.457,8.066-74.089,4.492-150.693,18.177-220.937-5.8C5556.935,2394.677,5545.214,2379.483,5528.253,2370.666Z" transform="translate(-4852 -1526.006)" fill="#272b33"></path><polygon points="122 334.994 83.941 355.602 54.429 315.705 3.669 147.174 246.016 86.136 285 246.994 267.106 315.705 234.937 315.751 231 293.356 122 334.994" fill="#bb6a9b"></polygon><path d="M5122.584,2397.829q.6-122.721-6.983-245.3a21.307,21.307,0,0,1,.266-6.529c.717-2.841,2.561-5.237,4.161-7.692,6.4-9.825,9.292-21.591,10.194-33.282,1.728-22.374-3.435-44.65-8.734-66.456q-6.3-25.929-12.927-51.777c-5.717,16.061-24.477,22.587-40.926,27.068l36.8,30.671c2.894,2.411,6.059,5.418,5.812,9.177-.37,5.637-7.539,7.645-13.164,8.171l-33.961,3.174c-1.441.134-3.117.418-3.79,1.7-1.285,2.445,2.316,4.454,5.03,4.962a153.8,153.8,0,0,1,45.1,16.037c4.85,2.638,10.283,7.889,7.593,12.71a10.129,10.129,0,0,1-4.366,3.627,69.786,69.786,0,0,1-51.086,5.506A57.819,57.819,0,0,0,5082,2140c3.081,2.367,6.531,4.565,8.313,8.017,1.291,2.5,1.553,5.388,1.783,8.192a1316.632,1316.632,0,0,1,3.376,159.375c-.631,16.019-1.552,32.133.532,48.028s7.411,31.778,17.9,43.906c1.663,1.924,4.605,3.823,6.465,2.088a5,5,0,0,0,1.151-3.3l1.379-14.561" transform="translate(-4852 -1526.006)" fill="#33372d"></path><path d="M5089.725,1909.849c-1.186-7.434-1.69-15.072-4.366-22.108-3.391-8.914-10.224-16.81-10.607-26.34a20.677,20.677,0,0,1,7.735-16.793,8.716,8.716,0,0,0,2.789-2.8,7.2,7.2,0,0,0,.194-4.145l-1.652-10.94a9.144,9.144,0,0,0-1.28-4.044c-1.173-1.643-3.256-2.311-5.194-2.879-9.4-2.754-18.969-5.534-28.758-5.356-6.315.115-12.536,1.461-18.708,2.8-14.63,3.177-29.516,6.449-42.533,13.846-6.564,3.73-13.007,9.206-14.159,16.667-1.321,8.56,4.662,16.385,6.718,24.8,1.851,7.57,1.133,16.953,7.483,21.47,2.421,1.723,5.455,2.323,8.086,3.705,4.356,2.29,7.29,6.526,10.048,10.6L5016.2,1924.1c2.759,4.078,5.637,9.073,3.782,13.635-2.28,5.609-10.581,7.265-12.039,13.143-1,4.022,1.8,8.31.647,12.292a129.31,129.31,0,0,1,86.451,16.526c4.536,2.717,11.613,6.263,11.477-1.62-.123-7.133-2.538-14.828-4.374-21.669C5097.979,1940.9,5092.266,1925.761,5089.725,1909.849Z" transform="translate(-4852 -1526.006)" fill="#33372d"></path><path d="M4950.986,1623.241c7.794-3.609,16.222-5.6,24.591-7.524,16.094-3.709,33-7.279,48.927-2.91,6.845,1.877,13.209,5.157,19.515,8.414.828.427,1.8,1.164,1.528,2.055-.172.568-.782.86-1.33,1.087-2.206.913-4.412,1.825-6.631,2.7-30.969,12.256-64.127,17.7-96.356,26.1q-8.685,2.264-17.292,4.815c-4.459,1.322-10.606,4.61-15.176,4.483.174-2.815,4.862-6.745,6.629-8.867,3.419-4.106,6.941-8.134,10.687-11.946C4933.345,1634.26,4941.529,1627.62,4950.986,1623.241Z" transform="translate(-4852 -1526.006)" fill="#33372d"></path><path d="M4888.726,1580.141a10.467,10.467,0,0,1,3.112-9.976c12.1-14.613,26.008-29.053,44.169-34.539,6.837-2.065,14.006-2.762,21.133-3.233,10.552-.7,21.285-.9,31.554,1.621s20.14,8.067,26.009,16.864c2.782,4.172,4.577,8.91,6.348,13.6l17.854,47.3c.693,1.835,1.115,4.434-.648,5.3a4.017,4.017,0,0,1-2.142.192l-35.509-3.28c-10.607-.98-21.4-1.951-31.829.223-12.2,2.543-23.166,9.266-32.782,17.193-6.1,5.03-11.747,10.572-17.387,16.1-2.716,2.664-5.414,6.074-8.527,8.259-3.042,2.136-4.283.067-5.532-2.977-5.976-14.566-9.3-30.97-12.122-46.4Q4890.039,1593.348,4888.726,1580.141Z" transform="translate(-4852 -1526.006)" fill="#654b45"></path><path d="M5971.392,2348.254c-85.2-109.742-205.019-193.4-337.394-235.567-47.664-15.184-97.174-25.574-145.054-35.622-53.419-11.209-108.656-22.8-161.111-41.055a5,5,0,0,0-6.288,2.876c-21.316-48.512-49.046-84.725-82.506-107.69-11.679-8.016-24.325-14.612-36.556-20.99-5.311-2.77-10.8-5.635-16.107-8.56-16.185-8.93-31.282-20.25-45.883-31.2-10.853-8.138-22.009-16.481-33.763-24l10.946-1.494a5,5,0,0,0,4.095-3.459l21-67a4.99,4.99,0,0,0,.067-2.757l-42-161a5,5,0,0,0-6.169-3.557l-47.442,13.1-30.563-79.085a5,5,0,0,0-2.651-2.774c-54.385-23.911-98.154-13.253-130.088,31.681a4.993,4.993,0,0,0-.808,3.97l18.982,86.285-46.43,12.822a5,5,0,0,0-3.463,6.24l48,162a5.006,5.006,0,0,0,.858,1.663l29,37a5,5,0,0,0,5.876,1.524l23.258-9.792a44.106,44.106,0,0,0-6.434,20.2,58.477,58.477,0,0,0,44.691,61.535,35.5,35.5,0,0,0,6.785,1.021l.773,3.242c-3.164.2-6.223.415-9.111.634-8.457.641-16.017,1.5-22.88,5.533-7.612,4.472-13.8,14.047-10.9,23.695,1.5,5,5.3,9.324,10.686,12.188,4.223,2.244,8.739,3.3,13.381,4.277,4.741.994,9.513,1.911,14.293,2.782a67.4,67.4,0,0,0-6.769,2.189c-7.385,2.841-13.135,6.734-17.093,11.571a14.4,14.4,0,0,0-3.28,6.558,13.33,13.33,0,0,0,1.907,8.964c3.513,6.061,9.666,9.51,15.222,12.085,20.4,9.459,42.734,13.664,62.435,17.375,1.512.285,3.068.575,4.643.863a163.812,163.812,0,0,0-43.944-.944,12.146,12.146,0,0,0-8.809,5.607,15.79,15.79,0,0,0-1.948,12.905c2.126,7.1,8.185,11.465,12.559,14.129,12.9,7.856,27.512,11.461,41.515,13.886.016.1.014.2.036.3,3.989,17.67,14.684,30.877,29.478,36.6a1504.647,1504.647,0,0,1,5.528,204.866,5,5,0,1,0,9.992.414,1514.792,1514.792,0,0,0-6.058-211.44c-.412-4.161-.8-8.092.218-11.459.832-2.746,2.953-4.938,4.935-5.1,1.9-.128,4.245,1.489,5.562,3.9,1.535,2.815,2,6.319,2.454,10.607,5.75,54.652,6.051,110.685,6.343,164.874.153,28.393.311,57.753,1.248,86.624a5,5,0,0,0,4.995,4.838c.054,0,.11,0,.165,0a5,5,0,0,0,4.835-5.159c-.933-28.737-1.09-58.028-1.244-86.354-.276-51.377-.567-104.406-5.477-156.571a44.765,44.765,0,0,0,6.334-7.584,300.926,300.926,0,0,0,140.648,44.878,476.131,476.131,0,0,0-10.948,46.742,5,5,0,0,0,1.514,4.537c20.9,19.467,47.566,27.968,73.357,36.19q3.03.965,6.069,1.94a630.932,630.932,0,0,1,220.52,124.81,5,5,0,1,0,6.586-7.526,641.084,641.084,0,0,0-224.043-126.8q-3.051-.981-6.1-1.948c-24.986-7.965-48.635-15.505-67.568-32.16,9.934-53.481,30.736-105.192,50.864-155.226,3.938-9.789,7.991-19.867,11.932-29.876,51.679,17.565,105.6,28.881,157.8,39.834,47.635,10,96.892,20.333,144.072,35.362,130.467,41.557,248.561,124.012,332.53,232.172a5,5,0,1,0,7.9-6.133Zm-963.3-801.5,25.508,66c-7.267-3.163-15.189-4.56-22.55-5.6a109,109,0,0,0-18.892-1.346c-14.21.478-27.5,5.347-38.63,10.048-6.471,2.735-14,6.17-20.763,10.915-9.693,6.8-16.745,15.2-22.549,23.935l-16.851-76.6C4922.043,1535.044,4959.608,1526.084,5008.091,1546.756Zm-69.585,88.206c6-4.207,12.927-7.36,18.913-9.891,10.284-4.343,22.494-8.842,35.074-9.264a100.442,100.442,0,0,1,17.153,1.252c8.436,1.194,17.061,2.769,24.037,6.963l-114.787,31.7C4924.4,1647.508,4930.431,1640.626,4938.506,1634.962Zm-75.265,46.5,229.2-63.294,39.281,150.576-223.377,64.947Zm72.338,189.446-22.163-28.278,217.324-63.187-17.561,56.031-20.95,2.859c-.567-.2-1.138-.385-1.717-.545-.172-2.518-.274-5.107-.369-7.63-.12-3.163-.243-6.433-.51-9.656a5,5,0,0,0-3.565-4.382c-8.2-2.425-16.671-4.932-25.506-6.064-21.505-2.763-45.608,2.714-71.625,16.271-9.258,4.824-18.562,10.4-21.73,20.719a4.986,4.986,0,0,0-.086,2.619l.369,1.562c.445,1.879.906,3.78,1.359,5.673Zm36.253,54.251a49.193,49.193,0,0,1-9.1-32.352c.581-7.268,3.488-16.151,9.825-21.186,1.7,6.254,3.6,12.444,5.836,18.419,2.019,5.385,6.472,9.241,10.4,12.643,1.12.969,2.179,1.886,3.1,2.772l16.094,15.407c2.973,2.847,6.342,6.073,7.591,9.7a11.3,11.3,0,0,1-8.294,13.882,19.283,19.283,0,0,1-7.508-.621A49.184,49.184,0,0,1,4971.832,1925.161Zm43.017,30.79-.784-3.286a21.245,21.245,0,0,0,8.877-8.286,20.385,20.385,0,0,0,2.1-17.077c-2.038-5.912-6.524-10.208-10.129-13.66l-16.094-15.408c-1.107-1.059-2.31-2.1-3.475-3.11-3.175-2.749-6.458-5.592-7.584-8.593-4.447-11.866-7.542-24.95-10.534-37.6l-.03-.122c2.5-5.972,9.432-10,16.366-13.609,24.171-12.594,46.284-17.717,65.732-15.221a136.172,136.172,0,0,1,20.607,4.753c.107,1.934.181,3.891.253,5.807.087,2.311.2,4.678.342,7.043a12.924,12.924,0,0,0-5.34,3.075,17.055,17.055,0,0,0-4.031,6.519c-3.293,8.835-2.686,19.395,1.708,29.736a75.115,75.115,0,0,0,8.631,14.747,4.959,4.959,0,0,0,.153,1.043c7.362,28.26,14.83,56.97,21.695,85.937-3.983-5.329-10.24-8.206-14.753-10.276-16.2-7.432-35.668-11.132-59.5-11.312-4.784-.036-9.509.068-14.094.248A4.969,4.969,0,0,0,5014.849,1955.951Zm-37.355,35.078c-2.97-1.578-5.083-3.85-5.8-6.234-1.348-4.49,2.192-9.728,6.394-12.2,5.015-2.947,11.377-3.638,18.57-4.183h0c9.025-.686,19.618-1.374,30.434-1.374q.942,0,1.885.007c22.389.169,40.513,3.571,55.408,10.4,5.931,2.72,10.953,5.348,12.334,9.962,2.486,8.308,1.246,10.565-2.476,12.481-16.229,8.356-35.628,6.239-57.466,2.855-15.979-2.475-32.5-5.034-48.543-8.4C4984.177,1993.5,4980.566,1992.661,4977.494,1991.029Zm17.175,48.185c-4.348-2.016-8.663-4.384-10.776-8.029a3.865,3.865,0,0,1-.7-2.237,4.907,4.907,0,0,1,1.167-1.937c2.844-3.476,7.2-6.36,12.943-8.569a68.038,68.038,0,0,1,24.51-4.164,98.9,98.9,0,0,1,10.126.539c11.952,1.233,25.538,3.042,35.505,8.936,2.736,1.617,5.473,3.192,8.2,4.762,9.38,5.395,18.238,10.492,26.575,17.011,4.128,3.228,4.2,4.784,4.129,5.183-.06.318-.381,1.052-1.858,2.382a24.371,24.371,0,0,1-8.637,5.006c-3.768,1.238-8.105,1.687-14.037,1.46-9.162-.353-18.261-2.067-27.061-3.724C5035.623,2052.231,5013.943,2048.148,4994.669,2039.214Zm17.752,42.01a5.785,5.785,0,0,1,.713-4.527,2.4,2.4,0,0,1,1.584-1.179,154.746,154.746,0,0,1,17.363-.984c24.253,0,48.638,5.794,75.426,17.792a19.847,19.847,0,0,1,5.658,3.281,3.823,3.823,0,0,1,1.38,2.9c-.182.943-1.44,2.132-3.451,3.261-10.907,6.116-24.923,4.678-39.532,2.512-16.716-2.477-35.663-5.286-50.96-14.6C5015.888,2086.809,5013.288,2084.122,5012.421,2081.224Zm87.82,35.095c-7.094.572-11.993,6.523-13.7,12.166a28.535,28.535,0,0,0-1.051,9.06c-8.441-4.749-14.607-12.933-17.824-23.732l2.432.362a147.879,147.879,0,0,0,21.387,1.985c8.655,0,16.915-1.414,24.5-5.669,4.791-2.687,7.611-6.085,8.38-10.1a13.347,13.347,0,0,0-4.263-11.99,28.81,28.81,0,0,0-8.508-5.2,218.179,218.179,0,0,0-47.835-15.59,144.2,144.2,0,0,0,17.668,1.94c.97.038,2.046.066,3.2.066a46.393,46.393,0,0,0,14.343-2.018,34.455,34.455,0,0,0,12.208-7.076c1.806-1.627,4.291-4.224,4.993-7.968,1.44-7.68-5.512-13.117-7.8-14.9-8.9-6.956-18.479-12.47-27.749-17.8-2.506-1.442-5.02-2.891-7.532-4.372a65.662,65.662,0,0,0,25.729-6.692c5.7-2.932,8.108-7.021,8.9-11.12,6.156,27.278,11.634,54.75,15.83,82.265,1.762,11.56,3.241,22.856,1.987,33.942a50.3,50.3,0,0,1-7.1,21.308,29.632,29.632,0,0,0-3.052-9.775C5112.116,2119.408,5106.156,2115.825,5100.241,2116.319Zm169.55,60.22c-.136-.019-.265-.056-.4-.063a290.892,290.892,0,0,1-138.4-43.858,64.321,64.321,0,0,0,4.492-17.624c1.39-12.305-.171-24.321-2.039-36.574-8.676-56.9-22.734-113.408-36.988-168.4a192.055,192.055,0,0,0,18.178,18.32,286.049,286.049,0,0,0,23.615,17.793q2.883,2.019,5.756,4.048c19.571,13.883,41.607,31.215,56.65,54.494a5,5,0,0,0,8.4-5.428c-15.962-24.7-38.916-42.789-59.264-57.223q-2.892-2.052-5.8-4.083a277.777,277.777,0,0,1-22.8-17.156c-9.81-8.509-18.243-18.317-25.2-26.789-5.269-6.419-10.687-13.327-13.947-21-3.388-7.975-3.935-15.906-1.541-22.333a7.47,7.47,0,0,1,1.561-2.771c2.016-1.923,6.71-.612,10.218,1.421,14.784,8.562,28.734,19.021,42.224,29.136,14.875,11.153,30.256,22.685,47.052,31.95,5.4,2.983,10.951,5.874,16.313,8.671,11.967,6.241,24.341,12.7,35.522,20.368,33.446,22.956,61.021,60.081,81.96,110.342a4.963,4.963,0,0,0,1.215,1.735c-2.892,7.272-5.81,14.536-8.67,21.645C5294.349,2106.813,5280.511,2141.214,5269.791,2176.539Z" transform="translate(-4852 -1526.006)"></path></g></g></g></svg> 