<?xml version="1.0" encoding="UTF-8"?> <svg xmlns="http://www.w3.org/2000/svg" xmlns:xlink="http://www.w3.org/1999/xlink" viewBox="0 0 970.17 846.013"><defs><clipPath id="clip-path" transform="translate(-1910.461 -1639.302)"><rect width="6237" height="2333" fill="none"></rect></clipPath></defs><g id="Layer_2" data-name="Layer 2"><g id="hand14"><g clip-path="url(#clip-path)"><path d="M2604.33,2177.789c7.977-4.465,12.94-15.594,7.678-23.07-1.765-2.509-4.389-4.258-6.977-5.906a285.843,285.843,0,0,0-90.724-37.7q18.069-18.594,34.5-38.7c-38.11-15.459-81.278-6.141-121.122,4.046a696.879,696.879,0,0,0,49.554-122.345c1.311-4.393,2.589-9.018,1.64-13.5s-4.9-8.685-9.466-8.259c-3.126.292-5.673,2.573-7.782,4.9-7.232,7.967-12.171,17.694-17.192,27.209-18.635,35.314-39.809,69.718-67.577,98.41-10.7,11.051-22.4,21.293-31.2,33.9-15.319,21.939-21.019,49.834-38.186,70.358-18.161,21.714-46.306,31.923-73.279,40.51-10.8,3.438-22.195,7.116-29.733,15.58-7.575,8.506-9.918,20.425-10.667,31.791-1.169,17.722,1.083,36.359,10.8,51.223s28.2,24.889,45.478,20.763c17.1-4.085,29.058-20.253,45.87-25.392,16.1-4.921,33.285,1.117,50.11,1.713,38.972,1.381,72.148-25.858,107.123-43.106,6.045-2.981,12.588-5.748,19.292-5.055,5.045.522,9.654,2.956,14.335,4.91a80.46,80.46,0,0,0,54.39,2.549c9.561-2.976,19.823-9.7,19.961-19.708.126-9.117-8.128-15.843-15.584-21.091,11.429,1.393,24.162-.524,32.066-8.9a21.231,21.231,0,0,0,5.381-11.6c.733-5.225-1.473-8.436-2.346-13.2-.986-5.385,2.9-6.1,7.362-6.425C2593.72,2181.28,2599.26,2180.627,2604.33,2177.789Z" transform="translate(-1910.461 -1639.302)" fill="#4f2418"></path><path d="M2594.663,1954.766c-.111-4.353-.171-8.763.861-12.993,1.309-5.364,4.3-10.143,7.31-14.769,27.32-41.93,60.483-79.779,88.367-121.336a1072.877,1072.877,0,0,1,128.441,98.266,7.638,7.638,0,0,1,3.172,8.161q-2.163,29.5-4.327,59.009a21.885,21.885,0,0,1-1.569,7.877c-1.447,3.04-4.184,5.217-6.6,7.561-6.01,5.827-10.351,13.114-15.271,19.885-24.916,34.29-64.508,55.155-91.707,87.663a378.269,378.269,0,0,1-77.7-35.185c-4.505-2.69-9.01-5.518-12.6-9.343-9.063-9.648-12.974-26.394-14.49-39.252C2596.373,1991.879,2595.135,1973.317,2594.663,1954.766Z" transform="translate(-1910.461 -1639.302)" fill="#9e77c8"></path><path d="M2206.809,2208.461a6.32,6.32,0,0,0-2.227-2.9c-1.808-1.037-4.064-.091-5.921.854l-74.375,37.882c-34.209,17.423-68.546,34.9-104.787,47.568-9.1,3.181-18.344,6.067-27,10.307-7.062,3.458-13.658,7.779-20.313,11.966-16.707,10.511-34.26,20.542-46.907,35.7s-19.466,37.049-11.2,54.972c7.23,15.676,23.773,24.574,39.5,31.68,79.036,35.7,166.571,53.948,253.06,47.57,12.4-.915,25.085-2.419,36.173-8.055,6.053-3.077,11.787-7.752,13.787-14.241,2.153-6.992-.411-14.438-2.259-21.517-4.269-16.349-2.066-30.779-1.947-47.183.1-13.441-2.271-27.986-3.785-41.427a436.925,436.925,0,0,0-20.889-92.8A432.355,432.355,0,0,0,2206.809,2208.461Z" transform="translate(-1910.461 -1639.302)" fill="#2b2e38"></path><path d="M2459.82,2364.615a11.424,11.424,0,0,0,.48,3.876,10.535,10.535,0,0,0,2.238,3.3,58.453,58.453,0,0,0,8.17,7.49,3.809,3.809,0,0,0,2.871,1.073c1.939-.39,2.088-3.075,1.816-5.034a115.524,115.524,0,0,1-.684-25.59,46.812,46.812,0,0,0,.026,16.395c.807,5.413,2.551,11.4,7.386,13.968,2.846,1.508,6.222,1.5,9.443,1.463,5.184-.066,10.536-.167,15.265-2.29a34.029,34.029,0,0,0,8.209-5.725,6.321,6.321,0,0,0,2.607-6.538,126.983,126.983,0,0,0-2.766-22.905c-1.536-6.743-3.849-13.288-5.462-20.013-4.277-17.84-3.53-36.482-6.154-54.64-.38-2.632-1.639-5.955-4.3-5.822a3.761,3.761,0,0,0-3.082,2.566,11.067,11.067,0,0,0-.447,4.194l.274,12.3c.306,13.786.614,27.594,2.158,41.3,1.568,13.923,4.409,27.7,5.43,41.673a1.513,1.513,0,0,1-1.5,2.015q-7.455,1.338-14.973,2.279c-2.286.286-4.78.5-6.726-.732-2.012-1.275-2.868-3.741-3.493-6.04a90.165,90.165,0,0,1-3.124-25.645c.243-10.6,2.354-21.063,4.458-31.458l8.913-44.045a2.588,2.588,0,0,0-2.154-3.613c-2.247-.823-7.759-4.09-10.01-2.838-2.179,1.211-2.56,7.42-3.076,9.584q-2.859,11.985-5.068,24.113a418.9,418.9,0,0,0-5.949,48.259C2460.029,2346.559,2459.82,2355.58,2459.82,2364.615Z" transform="translate(-1910.461 -1639.302)" fill="#2a272a"></path><path d="M2456.687,2018.331a30.22,30.22,0,0,1-.157-7.02c.433-3.232,1.892-6.222,3.264-9.18a215.209,215.209,0,0,0,16.341-51.176,25,25,0,0,0,.5-8.992c-.54-2.971-2.3-5.887-5.1-7.019-4.449-1.8-9.308,1.409-12.6,4.9l.2-19.321c.023-2.193.07-4.486,1.113-6.414,1.124-2.079,3.227-3.411,5.24-4.649,14-8.618,29.286-17.561,45.666-16.145,7.134.616,13.937,3.193,20.573,5.881,9.317,3.773,19.494,8.835,22.653,18.378,1.622,4.9,1.074,10.212.539,15.343-4.894,46.957-7.219,94.139-9.542,141.292-9.076-.7-17.275-5.744-26.245-7.294a69.329,69.329,0,0,0-13.782-.529l-24.543.688c-3.588.1-16.373,2.608-18.972.029-1.7-1.684-1.164-9.114-1.4-11.484l-1.215-12.118Z" transform="translate(-1910.461 -1639.302)" fill="#2a272a"></path><path d="M2580.179,2040.123c13.439-14.81,26.942-29.682,42.44-42.322a19.7,19.7,0,0,1,6.4-3.921c3.026-.932,6.3-.427,9.379.3,11.826,2.8,23.029,9.024,30.668,18.477s11.4,22.259,8.827,34.137c-2.81,12.988-12.408,23.286-21.75,32.737q-32.588,32.97-67.336,63.7c-4.248-6.817-12.064-10.384-19.434-13.578-11.836-5.13-23.736-10.282-36.246-13.431-4.605-1.159-9.6-1.489-14.113-2.882-2.578-.8-3.418.1-2.9-2.592.3-1.531,3.672-4.081,4.735-5.253l19.775-21.793Z" transform="translate(-1910.461 -1639.302)" fill="#2a272a"></path><path d="M2552.792,1965.1c2.208-.1,20.446-1.9,21.827,0S2619,1757,2619,1757l-187-18-2,127,15.7,90.714,10.185-12.173L2460,1910l41-14,31,6,22.373,15.572Z" transform="translate(-1910.461 -1639.302)" fill="#7bb389"></path><path d="M2470.9,1696.349a70.879,70.879,0,0,1,25.819-37.782c8.169-5.97,17.6-9.953,27.06-13.543a28.972,28.972,0,0,1,9.005-2.311c4.4-.172,8.612,1.585,12.66,3.309,6.452,2.748,12.965,5.53,18.645,9.643,13.7,9.916,21.133,26.737,23.131,43.529s-.829,33.76-4.167,50.338a4.1,4.1,0,0,1-1.277,2.66,3.642,3.642,0,0,1-2.265.485c-3.056-.095-6.011-1.044-9.011-1.637-5.792-1.145-11.753-.96-17.657-.86a584.939,584.939,0,0,1-77.841-3.877,5.747,5.747,0,0,1-3.5-1.237c-1.144-1.14-.249-2.485-.356-3.814-.166-2.054-1.059-4.219-1.469-6.25a86.742,86.742,0,0,1-1.616-12.915A80.11,80.11,0,0,1,2470.9,1696.349Z" transform="translate(-1910.461 -1639.302)" fill="#4a4547"></path><path d="M2766.291,1791.2c7.958-4.984,16.78-8.4,25.543-11.77,12.462-4.8,25.5-9.661,38.786-8.366a52.286,52.286,0,0,1,21.157,7.205c10.521,6.161,19.567,15.914,22.007,27.859,1.839,9-.184,18.33-2.821,27.132-7.811,26.071-21.506,50.916-42.216,68.574a2.79,2.79,0,0,1-1.194.709,2.841,2.841,0,0,1-1.826-.484l-13.149-6.961a10.643,10.643,0,0,1-3.217-2.253,11.712,11.712,0,0,1-2.01-4.871c-5.338-20.544-21.393-36.895-39.609-47.79a75.081,75.081,0,0,0-16.515-7.613,46.113,46.113,0,0,0-8.769-1.818c-1.562-.159-7.216.7-8.148-.7-1.479-2.221,5.688-11.922,7.065-14.012a89.537,89.537,0,0,1,10.437-13.055A77.679,77.679,0,0,1,2766.291,1791.2Z" transform="translate(-1910.461 -1639.302)" fill="#4a4547"></path><path d="M2778.532,1846.8a74.5,74.5,0,0,1,9.73,8.369,41.063,41.063,0,0,1,8.3,11.206c2.178,4.674,2.956,9.856,3.71,14.957-8.974-4.254-17.983-8.527-26.271-14-7.59-5.009-14.5-10.971-21.38-16.915l-11.168-9.643c-.981-.847-4.608-3.084-4.311-4.611.357-1.837,3.625-1.479,4.877-1.452a65.866,65.866,0,0,1,24.4,5.29A64.484,64.484,0,0,1,2778.532,1846.8Z" transform="translate(-1910.461 -1639.302)" fill="#fff"></path><path d="M2876.638,1793.484a45.9,45.9,0,0,0-20.525-21.078,64.92,64.92,0,0,0-27.777-7.03c-19.6-.844-40.359,5.395-58.445,17.556-15.233,10.242-28.83,24.632-40.444,42.767l-33.477-24.721a5,5,0,0,0-6.991,1.051l-99,134c-.008.011-.013.022-.02.033s-.016.016-.022.025c-.046.064-.073.135-.116.2a4.851,4.851,0,0,0-.343.6c-.056.118-.094.24-.14.362a4.669,4.669,0,0,0-.171.517c-.035.135-.057.271-.08.408a5.091,5.091,0,0,0-.064.509c-.008.141-.008.28-.005.42,0,.095-.011.188,0,.283l6,78c0,.051.021.1.026.148l-46.054,49.039c-.027-.024-.056-.045-.083-.068l9.046-94.5h17.812a5,5,0,0,0,4.831-3.713l24.237-90.992.008-.038a4.829,4.829,0,0,0,.1-.475l19-120a5,5,0,0,0-4.536-5.765l-31.625-2.551c8.948-21.531,6.272-45.582,2.137-62.681-1.605-6.638-3.843-14.361-8.265-21.319-8.122-12.783-23.124-21.673-41.157-24.389a56.443,56.443,0,0,0-16.619-.292,54.952,54.952,0,0,0-21.117,8.165c-15.072,9.422-26.865,24.42-33.207,42.234a100.409,100.409,0,0,0-4.26,48.4l-31.887-2.571a5,5,0,0,0-5.4,4.862l-3,124c0,.126.023.251.03.377a5.154,5.154,0,0,0,.043.546c.005.033,0,.066.008.1l16.58,90.569c-8.508,12.421-15.918,25.578-23.157,38.449-12.481,22.189-25.386,45.135-43.459,62.99-3.3,3.262-6.881,6.456-10.343,9.545-6.783,6.052-13.8,12.309-19.595,19.776-9.318,12-14.908,26.3-20.313,40.125-6.656,17.029-12.943,33.113-25.515,44.494-7.586,6.867-17.229,11.606-26.456,15.871-18.858,8.717-38.35,16.555-58.007,23.36a38.906,38.906,0,0,0-5-8.133,5,5,0,0,0-6.038-1.283l-64.8,31.764c-18.374,9.007-37.373,18.321-56.447,26.518-8.424,3.62-17.095,7.122-25.481,10.509-9.561,3.861-19.448,7.855-29.09,12.069a559.882,559.882,0,0,0-109.173,63.266,5,5,0,0,0,5.958,8.031,549.834,549.834,0,0,1,107.221-62.134c9.512-4.159,19.332-8.124,28.829-11.959,8.436-3.408,17.159-6.93,25.684-10.594,19.3-8.3,38.417-17.666,56.9-26.728l60.923-29.865a52.811,52.811,0,0,1,2.587,5.278,4.883,4.883,0,0,0,.23,1.167,4.954,4.954,0,0,0,.929,1.622c.446,1.109.88,2.217,1.3,3.294.554,1.421,1.088,2.79,1.611,4.058a547.542,547.542,0,0,1,29.988,97.465,4.97,4.97,0,0,0,1.52,7.654q5.146,26.62,7.67,53.744a5,5,0,0,0,4.973,4.541c.154,0,.308-.007.465-.021a5,5,0,0,0,4.52-5.438,558.57,558.57,0,0,0-7.968-55.526,383.791,383.791,0,0,1,39.352-17.911c8.839-3.435,16.315-5.917,24.073-6.869a118.271,118.271,0,0,1,16.132-.483c2.8.042,5.7.086,8.582.029,34.01-.655,66.376-15.029,93.551-29l3.106-1.6c8.97-4.639,18.246-9.434,27.825-12.326,1.122-.339,2.253-.647,3.388-.938a472.139,472.139,0,0,0-11.9,92.63,5,5,0,0,0,4.856,5.14l.144,0a5,5,0,0,0,5-4.859,462.037,462.037,0,0,1,11.526-90.134q1.91.945,3.866,1.782c-7.058,34.5-12.829,65.762-12.526,97.978a5,5,0,0,0,5,4.954h.048a5,5,0,0,0,4.953-5.047c-.275-29.206,4.668-57.95,10.985-89.29a474.173,474.173,0,0,0,7.616,85.843,5,5,0,0,0,4.914,4.108,5.122,5.122,0,0,0,.9-.081,5,5,0,0,0,4.025-5.814,464.128,464.128,0,0,1-7.427-87.4l.416.063a675.706,675.706,0,0,0,9.678,85.349,5,5,0,0,0,9.844-1.76,665.375,665.375,0,0,1-9.458-82.7c.717.019,1.435.035,2.153.035a78.624,78.624,0,0,0,45.1-13.864c2.928-2.06,6.435-5,7.575-9.489a15.244,15.244,0,0,0-.349-7.987c-1.7-6.059-5.321-11.373-10.941-16.032,4.2-.4,8.4-.907,12.553-1.511,7.868-1.145,17.43-3.544,21.561-12.012,4.068-8.339.174-17.585-4.826-23.457-.305-.359-.627-.7-.942-1.042a111.873,111.873,0,0,0,18.851-1.873c3.853-.717,7.889-1.74,11.3-4.355,7.161-5.481,8.856-16.83,3.779-25.3-3.938-6.565-10.614-10.376-15.977-13.437l-.392-.223,58.015-59.042,43.087,17.2c.079.031.162.043.241.07.151.051.3.1.459.134a5.022,5.022,0,0,0,.525.093c.087.011.169.039.258.045.123.01.245.014.366.014h.01a5.036,5.036,0,0,0,.965-.095l.042-.012a4.943,4.943,0,0,0,.87-.264c.087-.035.166-.087.251-.128a4.936,4.936,0,0,0,.588-.313c.1-.066.192-.148.289-.222a4.912,4.912,0,0,0,.459-.379c.026-.024.057-.041.082-.066l114-115a5.007,5.007,0,0,0,1.435-3.142l5.291-69.661c10.852-11.624,21.936-23.668,31.234-37.059,11.181-16.1,18.238-32.191,20.976-47.824C2881.678,1813.325,2880.72,1802.44,2876.638,1793.484Zm-182.587,18.507,121.418,89.663L2707.881,2014.5l-106.846-76.607Zm50.841,25.114a89.826,89.826,0,0,1,47.026,31.331c1.7,2.192,3.351,4.529,4.993,7.083Zm-290.569,189.812,1.566,38.709q-10.287,1.983-20.371,4.853Zm11.506,37.009-2.355-58.207,1.323-3.066c6.436-14.909,13.092-30.327,17.235-46.538,1.074-4.2,2.126-9.107.985-14.163-1.452-6.439-6.534-11.292-12.359-11.8a12.888,12.888,0,0,0-5.642.774l.9-15.485c29.983-23.153,58.44-21.355,86.872,5.488l-13.7,143.147A241.864,241.864,0,0,0,2465.829,2063.926Zm13.141-370.389c5.588-15.7,15.918-28.876,29.087-37.106a45.044,45.044,0,0,1,17.249-6.749,46.663,46.663,0,0,1,13.7.284c15.17,2.284,27.638,9.524,34.207,19.863,3.638,5.725,5.573,12.467,6.985,18.308,3.97,16.413,6.525,39.737-3,59.476l-101.649-8.2C2472.8,1723.42,2473.963,1707.6,2478.97,1693.537Zm134.247,67.013-17.443,110.166-160.659-10.395,2.756-113.912ZM2436.072,1870.4,2593.6,1880.6l-21.683,81.4h-13.012l4.07-42.523a5,5,0,0,0-1.478-4.049c-33.345-32.656-68.189-34.818-103.569-6.423a5,5,0,0,0-1.862,3.608l-1.572,26.937q-2.413,2.842-4.708,5.776Zm171.765,289.889c2.459,4.1,1.86,9.81-1.281,12.214-1.65,1.263-4.014,1.9-7.056,2.464a101.479,101.479,0,0,1-32.035.812,105.181,105.181,0,0,0-15.405-5.922,244.414,244.414,0,0,0-96.793-9.557,5,5,0,0,0,1.034,9.947,234.279,234.279,0,0,1,92.8,9.163c3.373,1.045,6.884,2.236,10.31,3.682a4.969,4.969,0,0,0,3.3,2.109c.56.092,1.122.158,1.682.242a38.07,38.07,0,0,1,11.412,8.753c3.036,3.566,5.281,8.842,3.452,12.59-2.1,4.306-9,5.772-14.012,6.5-8.056,1.172-16.263,1.957-24.393,2.335a4.939,4.939,0,0,0-1.376.283c-.9-.4-1.817-.8-2.763-1.187a159.266,159.266,0,0,0-76.152-11.136,5,5,0,1,0,.995,9.951,149.264,149.264,0,0,1,71.356,10.433c12.986,5.339,20.356,11.7,22.532,19.463a5.934,5.934,0,0,1,.285,2.822c-.336,1.324-2.238,2.788-3.639,3.774-17.938,12.629-42.158,15.414-62.751,8.092,8.2-.53,16.485-.472,24.634-.413a5,5,0,1,0,.072-10c-17.206-.127-35-.254-52.182,4.933-10.463,3.158-20.155,8.17-29.529,13.016l-3.085,1.593c-26.155,13.45-57.2,27.282-89.17,27.9-2.718.051-5.526.01-8.243-.03a126.952,126.952,0,0,0-17.5.556c-9.3,1.142-18.222,4.266-26.474,7.473a393.956,393.956,0,0,0-37.813,17.054,557.5,557.5,0,0,0-29.843-96.057c-.493-1.194-1-2.485-1.517-3.822,19.766-6.864,39.363-14.758,58.329-23.524,9.927-4.589,20.342-9.724,28.971-17.534,14.318-12.961,21.333-30.91,28.117-48.268,5.146-13.165,10.468-26.779,18.9-37.631,5.241-6.747,11.611-12.43,18.355-18.449,3.556-3.172,7.231-6.451,10.714-9.893,19.072-18.841,32.328-42.409,45.147-65.2,10.676-18.982,21.717-38.61,35.948-55.044,1.044-1.2,4.213-4.9,6.622-4.661,1.44.125,3,1.937,3.471,4.037.652,2.89-.1,6.271-.918,9.486-3.949,15.449-10.446,30.5-16.728,45.052l-32.7,75.746q-10.214,3.522-20.074,7.957a5,5,0,1,0,4.114,9.115,232.3,232.3,0,0,1,134.489-16.907l-29.092,30.976a4.957,4.957,0,0,0-.809,1.2,243.07,243.07,0,0,0-53.837-3.913,5,5,0,1,0,.392,9.992,233.952,233.952,0,0,1,112.244,23.855c8.512,4.2,16.962,9.018,25.134,13.683C2600.057,2153.009,2605.245,2155.971,2607.837,2160.292Zm-33.071-32.548a243.23,243.23,0,0,0-52.027-18.616l103.5-110.207c13.765-.348,24.23,2.917,31.912,9.937,9.313,8.511,14.607,23.038,15.749,43.2l-20.623,20.988-.017.017-62.226,63.329C2585.7,2133.407,2580.278,2130.46,2574.766,2127.744Zm107.8-70.24a5,5,0,0,0,1.43-3.71c-.994-24.041-7.42-41.643-19.1-52.317-9.977-9.119-23.828-13.32-41.139-12.471a5,5,0,0,0-3.4,1.571l-16.057,17.1-4.49-58.359,103.5,74.207-4.785,64.3-32.862-13.116Zm26.426,24.349,4.362-58.6,103.6-108.663-4.8,63.2Zm160.645-257.743c-2.486,14.193-8.993,28.945-19.34,43.846-7.156,10.306-15.56,19.931-24.095,29.217-.077-.065-.15-.135-.232-.195l-10.616-7.84a5,5,0,0,0-.509-1.909c-3.528-7.137-8.425-16.421-15.028-24.926a99.622,99.622,0,0,0-58.576-36.3c10.086-14.586,21.576-26.263,34.229-34.771,16.329-10.978,34.94-16.611,52.439-15.864a55.066,55.066,0,0,1,23.532,5.882,35.873,35.873,0,0,1,16.1,16.383C2870.767,1804.716,2871.473,1813.625,2869.637,1824.11Z" transform="translate(-1910.461 -1639.302)"></path></g></g></g></svg> 