<?xml version="1.0" encoding="UTF-8"?> <svg xmlns="http://www.w3.org/2000/svg" xmlns:xlink="http://www.w3.org/1999/xlink" viewBox="0 0 501.966 668.651"><defs><clipPath id="clip-path" transform="translate(-2776.034 -1729.228)"><rect width="6237" height="2333" fill="none"></rect></clipPath></defs><g id="Layer_2" data-name="Layer 2"><g id="hand13"><g clip-path="url(#clip-path)"><path d="M2925.642,2215.762c10.7-12.8,21.154-26.162,27.287-41.671,5.419-13.7,7.254-28.575,12.1-42.493,8.6-24.692,26.267-45.21,45.584-62.833s40.643-33,59.337-51.279c2.856-2.793,6.089-5.847,10.084-5.88,4.915-.04,8.756,4.849,9.247,9.739s-1.506,9.664-3.661,14.081c-10.953,22.448-27.111,42.332-35.564,65.835-8.919,24.8-8.634,51.78-9.787,78.106-1.361,31.088-8.637,62.03-14.271,92.633-11.8-1.606-19.908,3.048-29.86,9.582s-18.488,14.973-27.875,22.294c-8.462,6.6-17.65,12.319-25.4,19.742-11.934,11.429-19.89,26.333-30.523,38.982-14.341,17.059-34.078,30.036-56,34.036s-45.918-1.658-62.241-16.832c-5.188-4.823-9.681-10.764-11.154-17.692-2.953-13.88,6.009-16.47,14.938-23.061,11.593-8.558,22.62-18.063,33.514-27.482a833.521,833.521,0,0,0,61.619-59.047Q2909.868,2234.63,2925.642,2215.762Z" transform="translate(-2776.034 -1729.228)" fill="#ffb4b8"></path><path d="M3137.409,2168.375c-3.381-.193-6.777.209-10.154-.03.586-3.185,3.059-5.737,5.852-7.377s5.941-2.546,8.948-3.748a73.3,73.3,0,0,0,12.619-6.825c3.22-2.095,6.436-4.382,8.592-7.562s3.075-7.455,1.4-10.913c-1.685-3.485-5.5-5.368-9.181-6.574a51.32,51.32,0,0,0-13.733-2.5c2-5.08,8.224-6.651,13.446-8.24a63.562,63.562,0,0,0,24.852-14.369c1.649-1.546,3.324-3.441,3.271-5.7-.059-2.494-2.189-4.4-4.261-5.789a43.249,43.249,0,0,0-25.273-7.242c.433-4.447,5.463-6.594,9.477-8.556,12.088-5.911,20.314-17.388,28.026-28.414,1.33-1.9,2.717-3.993,2.6-6.309-.172-3.309-3.407-5.695-6.628-6.474-4.41-1.067-9.032-.064-13.436,1.03-20.7,5.144-41.617,12.792-56.711,27.859-2.954,2.949-5.724,6.283-6.9,10.288s-.421,8.812,2.769,11.5c3.016,2.545,7.323,2.67,11.269,2.67l12.853,0q-11.067,8.165-21.6,17.016c-2.9,2.437-5.845,5.009-7.512,8.41a4.7,4.7,0,0,0-.61,2.627,4.969,4.969,0,0,0,1.175,2.326,21.613,21.613,0,0,0,17.314,8.115c-12.074,9.706-28.793,11.8-41.328,20.9-5.04,3.661-9.619,9.784-7.589,15.673,1.547,4.489,6.411,6.97,11.069,7.895s9.526.764,14.054,2.2l-14.98,7.141c-2.118,1.009-4.394,2.174-5.38,4.3a6.67,6.67,0,0,0,1.271,6.839,15,15,0,0,0,6.08,3.973c14.686,5.966,31.388,3.208,46.665-1.021,5.827-1.613,12.831-4.921,13.775-11.777C3150.5,2172.523,3143.5,2168.724,3137.409,2168.375Z" transform="translate(-2776.034 -1729.228)" fill="#ffb4b8"></path><polygon points="280.966 100.772 242.966 263.772 287.966 291.772 304.002 282.378 302.99 260.159 344.725 244.629 373.037 254.914 395.538 277.254 391.632 302.066 414.25 303.758 417.857 308.994 461.966 287.772 495.966 140.772 373.037 45.2 280.966 100.772" fill="#346475"></polygon><path d="M3116,1773.14c2.771-5.5,7.807-9.435,12.685-13.186,7.736-5.95,15.536-11.94,24.3-16.243a106.133,106.133,0,0,1,25.273-8.163,48.4,48.4,0,0,1,12.258-1.341,55.483,55.483,0,0,1,12.133,2.465c6.31,1.781,12.7,3.6,18.353,6.914,11.175,6.559,18.324,18.316,23.127,30.35s7.739,24.951,7.4,37.912-4.059,25.981-11.609,36.521c-24.594-31.459-61.337-50.453-93.261-74.442-8.473,5.374-16.81,11.131-25.487,16.166C3111.575,1795.659,3113.321,1778.444,3116,1773.14Z" transform="translate(-2776.034 -1729.228)" fill="#292929"></path><path d="M3041.256,2160.173c2.244-23.908,3.023-48.68,13.3-70.384,10.4-21.965,30.15-39.93,34.007-63.924.546-3.394.717-7.033-.813-10.112-1.129-2.273-3.079-4.023-4.468-6.147-4.562-6.979-1.971-16.925,4.051-22.691s14.574-8.078,22.866-8.945a84.65,84.65,0,0,1,26.018,1.32c10.071,2.1,20.013,6.233,27.206,13.587s11.195,18.316,8.472,28.236c-3.889,14.163-19.029,21.591-32.6,27.215s-28.742,12.858-32.9,26.945a8.812,8.812,0,0,0-.282,5.084c1.028,3.282,4.822,4.744,8.21,5.337a41.86,41.86,0,0,0,21.836-2.037l-24.511,21.868c-1.556,1.389-3.182,2.886-3.764,4.888-1.155,3.975,2.334,7.863,6.066,9.652s8.038,2.5,11.281,5.076a221.208,221.208,0,0,0-40.545,19.957c-3.1,1.943-6.392,4.281-7.3,7.827-1.563,6.075,4.9,11.441,11.077,12.54s12.67-.211,18.716,1.462a61.181,61.181,0,0,0-26.87,19.684,52.871,52.871,0,0,0,29.028,8.322L3058.54,2338.91c-5.895,16.711-12.252,34.138-25.337,46.088-4.512,4.121-10.039,7.573-16.142,7.887-18.623.958-13.535-18.927-11.852-30.384,2.415-16.444,5.407-32.8,8.634-49.1,6.458-32.628,13.895-65.062,19.688-97.821C3036.778,2197.215,3039.513,2178.747,3041.256,2160.173Z" transform="translate(-2776.034 -1729.228)" fill="#292929"></path><path d="M3063.927,2259.292a35.39,35.39,0,0,1,8.9,6.134,47.831,47.831,0,0,1,4.7,5.742,2.1,2.1,0,0,1,.482.979c.067.648-.46,1.187-.923,1.646-5.5,5.461-4.078,14.518-5.082,22.207s-4.775,14.772-8.578,21.53c-5.633-5.28-12.914-8.578-20.433-10.33s-15.3-2.034-23.024-1.871a239.842,239.842,0,0,0,5.473-25.855c.827-6.084,1.289-12.2,2.4-18.24.679-3.7,1.078-6.158,5.046-7.23C3042.965,2251.279,3054.943,2254.679,3063.927,2259.292Z" transform="translate(-2776.034 -1729.228)" fill="#a5a5a5"></path><path d="M3276.039,1868.029l-32.108-24.572a45.109,45.109,0,0,0,12.117-23.469c1.641-8.319,1.471-17.556-.523-28.238-3.074-16.481-9.227-29.994-18.287-40.163-13.342-14.973-34.122-23.3-55.559-22.275-19.444.929-38.916,9.289-54.83,23.54-5.7,5.1-9.626,9.818-12.365,14.843a31.772,31.772,0,0,0-3.867,20.289,4.935,4.935,0,0,0,.511,1.454l-56.822,36.35a5,5,0,0,0-2.16,3.014l-40,162c-.014.058-.016.117-.028.176-.025.118-.041.237-.057.358a4.873,4.873,0,0,0-.045.55c0,.118,0,.234,0,.353a4.852,4.852,0,0,0,.064.566c.017.111.031.22.056.33a5.113,5.113,0,0,0,.217.683c.023.058.036.118.061.176a5.027,5.027,0,0,0,.446.8c.014.02.021.042.035.062a5.179,5.179,0,0,0,.4.5c.009.009.019.017.027.026a4.966,4.966,0,0,0,.521.486c.048.039.1.075.147.113a4.817,4.817,0,0,0,.523.345c.029.018.054.04.085.057l43.191,23.664c-23.741,20.177-47.878,41.2-67.908,65.918-10.712,13.216-17.932,24.774-22.724,36.377a200.171,200.171,0,0,0-7.411,23.012c-1.858,6.687-3.778,13.6-6.289,20.051-6.606,16.969-17.377,31.818-31.518,48.892a740.232,740.232,0,0,1-143.784,132.988,5,5,0,0,0,5.759,8.176,750.309,750.309,0,0,0,145.728-134.785c12.77-15.421,25.623-32.351,33.133-51.643a219.205,219.205,0,0,0,6.606-21,189.837,189.837,0,0,1,7.019-21.872c4.412-10.682,11.164-21.453,21.249-33.9,21-25.913,47.006-47.967,72.152-69.294,3.008-2.551,6.417-5.444,9.958-6.1,2.382-.442,5.235.758,5.552,2.339.254,1.266-.591,3.342-1.207,4.857a434.585,434.585,0,0,1-25.77,52.767q-.987,1.718-1.987,3.431c-4.121,7.088-8.382,14.417-11.378,22.4-5.454,14.536-6.309,30.039-7.136,45.032-.117,2.126-.234,4.25-.364,6.367-2.4,39.1-9.664,78.091-17.894,116.315-8.629-.809-16.592,2.835-22.568,6.11-8.221,4.506-15.746,9.837-24.514,16.456-22.137,16.709-46.816,37.44-62.024,64.508a5,5,0,1,0,8.718,4.9c14.267-25.395,36.947-44.53,59.33-61.425,8.421-6.356,15.605-11.453,23.3-15.668,4.4-2.41,10.064-5.077,15.61-4.988q-2.756,12.54-5.558,24.955l-15.828,70.519a5,5,0,0,0,3.783,5.974,5.065,5.065,0,0,0,1.1.122,5,5,0,0,0,4.874-3.906l15.309-68.207a38.7,38.7,0,0,1,37.927,10.525l-4.5,13.2c-2.714,7.97-5.521,16.21-9.573,23.516a5,5,0,1,0,8.745,4.85c4.485-8.086,7.438-16.756,10.294-25.141l46.25-135.772a4.552,4.552,0,0,0,.118-.508c.559.013,1.119.037,1.677.037,11.541,0,22.934-2.586,32.031-7.647,2.532-1.408,6.169-3.711,8.5-7.421,2.772-4.409,2.93-9.815.4-13.773-3.982-6.235-12.1-6.143-15.562-6.108-1.3.015-2.644.031-4,.051a109.29,109.29,0,0,0,16.143-7.2,48.568,48.568,0,0,0,7.845-5.159c4.2-3.516,14.037-11.747,11-21.492-2.38-7.642-10.851-10.488-17.985-10.6-.952-.016-1.917-.014-2.889,0,2.406-1.008,4.786-2.063,7.148-3.112,1.918-.852,3.831-1.7,5.741-2.517l1.7-.718c8.059-3.407,17.193-7.267,22.387-15.6a10.722,10.722,0,0,0,1.782-5.113,10.16,10.16,0,0,0-1.275-5.219c-3.163-6.136-9.867-10.258-17.933-11.027a34.455,34.455,0,0,0-5.86-.021A123.768,123.768,0,0,0,3189.807,2055a27.3,27.3,0,0,0,5.577-8.327,15.886,15.886,0,0,0,.936-3.761l44.992-23.474c.017-.009.03-.022.047-.031a4.957,4.957,0,0,0,.847-.565h0a4.986,4.986,0,0,0,.676-.7c.028-.035.058-.067.086-.1s.036-.041.052-.063a4.936,4.936,0,0,0,.307-.516c.061-.107.135-.2.188-.318a4.938,4.938,0,0,0,.348-.98h0l34-143A5,5,0,0,0,3276.039,1868.029Zm-152.775-95.548c2.176-3.992,5.435-7.863,10.257-12.18,14.207-12.723,31.479-20.181,48.634-21,18.458-.867,36.263,6.2,47.616,18.938,7.831,8.788,13.189,20.68,15.924,35.345,1.756,9.412,1.933,17.416.542,24.469-1.559,7.9-5.225,14.693-10.353,19.245l-88.084-67.411c-.044-.034-.092-.057-.137-.089-.087-.063-.178-.118-.27-.175a4.981,4.981,0,0,0-.532-.288c-.09-.041-.177-.084-.27-.121a5.032,5.032,0,0,0-.847-.257l-.015-.005h0a4.985,4.985,0,0,0-.912-.085c-.085,0-.169.005-.254.008a5.107,5.107,0,0,0-.663.071c-.084.015-.167.028-.25.047a4.99,4.99,0,0,0-.746.233c-.031.012-.065.02-.1.034a4.864,4.864,0,0,0-.739.386l-21.8,13.949A23.18,23.18,0,0,1,3123.264,1772.481Zm-61.888,60.656,76.214-48.757-26.865,136.243-85.688,59.686Zm132.342,199.849c-2.367-2.918-6.915-5.756-15.642-5.292-1.5.079-3,.223-4.5.4l2.529-8.628c.879-3.006,1.974-6.746,1.406-10.784a22.368,22.368,0,0,0-3.643-8.8,61.66,61.66,0,0,0-31.522-24.526,71.967,71.967,0,0,0-39.585-2.009,39.4,39.4,0,0,0-9.719,3.334,48.1,48.1,0,0,0-10.324,7.918,12.079,12.079,0,0,0-4.641,10.226l-.316,12.253c-4.707.921-8.547,3.486-11.773,6.067l-39.509-21.647,88.676-61.768,114.44,84.544Zm-170.207,266c2.806-12.53,5.6-25.162,8.255-37.88a37,37,0,0,1,41.434,17.546l-10.626,31.194A49.625,49.625,0,0,0,3023.511,2298.985Zm114.017-123.506c3.985-.042,6.365.458,7.024,1.491a3.327,3.327,0,0,1-.441,3.068c-.855,1.361-2.366,2.6-4.9,4.005-13.683,7.61-33.622,8.564-49.618,2.37a6.45,6.45,0,0,1-2.241-1.14,2.222,2.222,0,0,1,.6-1.541c1.031-1.174,2.916-1.971,4.8-2.658C3107.175,2175.815,3123.3,2175.637,3137.528,2175.479Zm11.379-44.42c.453,0,.9,0,1.352.01,3.738.061,7.893,1.31,8.6,3.58.7,2.243-1.95,5.893-7.872,10.848a38.6,38.6,0,0,1-6.231,4.059,99.2,99.2,0,0,1-52.193,12.095c-3.673-.167-7.741-.63-10.061-2.795a4.009,4.009,0,0,1-1.247-2,4.835,4.835,0,0,1,1.139-3.525,19.044,19.044,0,0,1,4.788-4.075h0a96.422,96.422,0,0,1,20.849-10.415C3121.968,2133.8,3136.42,2131.059,3148.907,2131.059Zm-44.272-1.625a106.534,106.534,0,0,0-23.01,11.5,28.375,28.375,0,0,0-7.231,6.39,14.6,14.6,0,0,0-2.947,11.476,13.781,13.781,0,0,0,4.232,7.362c4.058,3.788,9.462,4.934,14.185,5.33-.178.064-.358.118-.535.183-2.98,1.086-6.367,2.583-8.888,5.454-3.411,3.885-4.074,9.376-1.611,13.352,1.779,2.874,4.615,4.268,7.155,5.252h0a69.1,69.1,0,0,0,14.181,3.748l-22.975,67.445a46.9,46.9,0,0,0-43.249-16.459c6.326-31.535,11.527-63.558,13.507-95.8.132-2.138.25-4.282.368-6.429.785-14.241,1.6-28.968,6.513-42.069,2.7-7.2,6.567-13.849,10.661-20.89q1.008-1.732,2.009-3.468a444.594,444.594,0,0,0,26.365-53.985c1.034-2.54,2.6-6.379,1.75-10.6a12.638,12.638,0,0,0-7.385-8.908l.342-13.25a2.826,2.826,0,0,1,1.471-3.178c2.912-2.72,5.36-4.916,8.129-6.363a29.146,29.146,0,0,1,7.268-2.436,61.96,61.96,0,0,1,34.089,1.684,51.605,51.605,0,0,1,26.417,20.486,13.1,13.1,0,0,1,2.16,4.805c.268,1.9-.427,4.278-1.1,6.576l-3.976,13.576c-14.458,3.893-29.166,12.109-43.906,24.58-6.029,5.1-12.078,10.9-15.486,18.7-2.38,5.449-1.816,10.575,1.509,13.716,2.852,2.691,6.668,2.828,8.72,2.9,2.563.091,5.164.183,7.793.183q2.328,0,4.684-.122c-5.024,3.6-10.2,7.323-15.121,11.325-2.252,1.831-7.525,6.117-7.5,12.5a12.905,12.905,0,0,0,6.74,10.881,17.083,17.083,0,0,0,3.779,1.581C3110.7,2127.356,3107.652,2128.344,3104.635,2129.434Zm61.494-41.716c3.6.343,8.114,2.009,9.994,5.655.029.058.055.108.076.154-.046.08-.1.181-.181.3-3.52,5.647-10.776,8.713-17.793,11.679l-1.727.731c-1.956.835-3.915,1.7-5.879,2.578-10.272,4.564-19.935,8.9-30.128,8.58a11.767,11.767,0,0,1-5.533-1.178,3.217,3.217,0,0,1-1.732-2.257c-.007-1.6,2.863-3.932,3.8-4.7,4.877-3.963,10.132-7.729,15.215-11.371l.088-.064c5.856-4.392,11.293-6.293,18.7-8.092,4.307-1.046,8.737-2.121,12.965-2.121C3164.717,2087.62,3165.427,2087.65,3166.129,2087.718Zm19.931-44.662a18.125,18.125,0,0,1-3.672,5.235c-9.547,10.562-23.617,20.5-38.605,27.262a52.224,52.224,0,0,1-13.874,4.208h0a92.238,92.238,0,0,1-16.184.366,14.064,14.064,0,0,1-2.045-.183,6.528,6.528,0,0,1,.624-2.436c2.59-5.928,7.674-10.744,12.781-15.066,18.354-15.528,36.359-23.859,53.518-24.761,3.883-.2,6.686.481,7.513,1.833A4.359,4.359,0,0,1,3186.06,2043.056Zm49.825-36.573-115.126-85.051,27.351-138.715L3267.386,1874Z" transform="translate(-2776.034 -1729.228)"></path></g></g></g></svg> 