<?xml version="1.0" encoding="UTF-8"?> <svg xmlns="http://www.w3.org/2000/svg" viewBox="0 0 1538.574 744.015"><g id="Layer_2" data-name="Layer 2"><g id="hand"><path d="M1337.375,250.068c67.636-34.512,132.744-82.029,178-143,1.576-2.122,3.337-6.683,2.083-9.621a6.764,6.764,0,0,0-4.724-3.773c-3.791-.923-7.486.618-10.955,2.136-37.5,16.408-74.321,34.5-109.318,55.731-11.161,6.771-22.161,13.873-33.931,19.519a155.524,155.524,0,0,1-55.763,14.843c10.739-21.711,32.224-35.936,53.833-46.88,50.658-25.656,106.962-38.981,156.933-65.95,3.571-1.927,7.378-4.2,7.611-8.971a10.29,10.29,0,0,0-3.939-8.291c-4.444-3.692-10.358-4.123-15.969-4.332a368.744,368.744,0,0,0-207.444,55.237c-39.377,24.565-74.043,54.442-116.484,73.223-5.112,2.263-10.369,4.561-15.952,4.837s-11.648-1.912-14.42-6.766a17.733,17.733,0,0,1-1.885-9.035c.2-17.895,12.48-33.083,24.126-46.672l82.869-96.7a14.312,14.312,0,0,0,3.545-10.353c-.75-9.536-10.408-11.213-18.186-10.645-29.31,2.142-54.785,20.469-76.779,39.961-65.2,57.783-111.979,137.775-179.859,192.387C854.013,338.931,687.19,374.345,525.973,396.164A3771.831,3771.831,0,0,1,80.991,429.741C17.77,519.234-8.625,631.654,10.663,739.515c218.031-3.088,428.7-49.5,641.665-96.331,93.267-20.507,186.879-41.114,276.463-74.19,86.789-32.045,168.959-75.49,255.179-109.037,94.653-36.829,195.031-62.151,280.9-116.4,24.541-15.5,48.743-34.631,59.4-61.632,1.72-4.357,3.686-9.819,2.174-14.253a12.268,12.268,0,0,0-10.513-8.081c-4.151-.284-8.117,1.585-11.812,3.5-36.39,18.835-68.651,46.638-108.082,57.782-5.994,1.694-12.281,2.989-18.424,1.964-6.195-1.033-12.664-5.219-11.411-12.766a12.45,12.45,0,0,1,1.992-4.876c2.914-4.339,7.542-6.781,12.007-9.227a379.018,379.018,0,0,0,119.251-102.713c15.395-20.258,28.976-42.673,33.934-67.629,1.044-5.253,1.516-11.358-3.4-14.845a11.529,11.529,0,0,0-8.6-1.73c-4.745.789-8.077,3.269-12.007,6.016" fill="#ffd3bd"></path><path d="M1371.926,307.705c2.21-3.29,6-5.362,10.007-7.556l.427-.233a385.035,385.035,0,0,0,120.672-103.938c19.364-25.479,30.41-47.555,34.764-69.474.748-3.762,2.735-13.758-5.214-19.393a15.746,15.746,0,0,0-10.97-2.633,12.818,12.818,0,0,0-.015-8.8,11.312,11.312,0,0,0-7.8-6.379c-5.378-1.307-10.259.826-13.822,2.386-42.308,18.513-78.24,36.833-109.849,56.007q-3.069,1.862-6.129,3.747c-8.852,5.432-18,11.049-27.414,15.562a152.268,152.268,0,0,1-45.517,13.523c11.828-17.738,31.3-29.252,47.566-37.489,23.8-12.052,49.388-21.556,74.138-30.747,27.7-10.29,56.351-20.929,82.9-35.256,3.355-1.811,9.6-5.182,9.968-12.712a14.669,14.669,0,0,0-5.558-11.972c-5.433-4.513-12.206-5.127-18.677-5.369A374.417,374.417,0,0,0,1291.41,102.9c-13.58,8.472-26.748,17.672-39.482,26.568-25.162,17.579-48.928,34.183-76.441,46.358-4.686,2.074-9.532,4.219-14.354,4.458-3.733.183-8.366-1.136-10.29-4.5a13.374,13.374,0,0,1-1.292-6.753c.179-15.822,11-29.744,23.043-43.8l82.87-96.7a18.911,18.911,0,0,0,4.613-13.634c-.806-10.248-9.411-15.772-23-14.78C1205.122,2.449,1177.84,23.3,1157.642,41.2c-30.668,27.178-57.626,59.628-83.7,91.009-29.562,35.586-60.132,72.383-96,101.241-127.4,102.5-292.809,136.637-452.577,158.26A3780.953,3780.953,0,0,1,80.918,425.242a4.5,4.5,0,0,0-3.6,1.9C12.866,518.375-13.042,632.519,6.233,740.307a4.5,4.5,0,0,0,4.429,3.708h.065c218.025-3.087,433.16-50.391,641.212-96.138l1.355-.3c91.947-20.218,187.023-41.124,277.055-74.365,46.575-17.2,92.508-37.975,136.93-58.07,38.512-17.421,78.335-35.436,118.323-50.995,26.841-10.443,54.638-20.131,81.52-29.5,67.975-23.691,138.263-48.188,200.147-87.284,22.334-14.11,49.471-34.111,61.184-63.785,2.119-5.37,4.215-11.583,2.248-17.357a16.869,16.869,0,0,0-14.466-11.119c-5.282-.355-9.9,1.774-14.187,3.991-13.027,6.742-25.648,14.693-37.853,22.381-21.883,13.784-44.51,28.038-69.385,35.068-5.062,1.432-10.977,2.77-16.459,1.856-1.458-.243-8.682-1.753-7.713-7.591A8.01,8.01,0,0,1,1371.926,307.705Zm4.944,19.572c7.235,1.209,14.366-.371,20.388-2.073,26.124-7.384,49.311-21.988,71.733-36.113,12.048-7.589,24.506-15.436,37.194-22,3.282-1.7,6.468-3.214,9.436-3a7.753,7.753,0,0,1,6.561,5.042c1.066,3.127-.994,8.347-2.1,11.15-10.757,27.249-36.443,46.1-57.62,59.48-61.012,38.546-130.806,62.871-198.3,86.4-26.956,9.395-54.831,19.11-81.822,29.613-40.213,15.645-80.148,33.711-118.768,51.181-44.278,20.03-90.064,40.741-136.338,57.826-89.451,33.028-184.221,53.867-275.87,74.019l-1.355.3c-206.384,45.379-419.771,92.3-635.569,95.868C-3.029,631.368,21.991,522.1,83.356,434.2a3789.765,3789.765,0,0,0,443.221-33.58c67.482-9.133,155.866-23.036,241.061-49.711,86.653-27.131,157.291-63.261,215.95-110.455,36.572-29.424,67.435-66.575,97.281-102.5,25.854-31.122,52.588-63.3,82.742-90.025,19.137-16.961,44.857-36.7,74.122-38.841,5.832-.425,12.888.357,13.372,6.51a9.86,9.86,0,0,1-2.476,7.072l-82.869,96.7c-13.163,15.359-24.995,30.707-25.208,49.549-.052,4.607.758,8.309,2.476,11.318,3.357,5.876,10.633,9.418,18.551,9.029,6.49-.322,12.366-2.922,17.55-5.217,28.31-12.528,53.547-30.159,77.953-47.21,12.64-8.831,25.71-17.962,39.092-26.31a365.3,365.3,0,0,1,204.894-54.558c5.324.2,10,.584,13.262,3.3a5.856,5.856,0,0,1,2.319,4.61c-.093,1.908-1.271,3.081-5.253,5.231-26,14.029-54.344,24.557-81.759,34.738-24.984,9.279-50.819,18.874-75.07,31.156-18.126,9.18-43.634,24.237-55.834,48.9a4.5,4.5,0,0,0,4.362,6.484,158.974,158.974,0,0,0,57.382-15.274c9.828-4.715,19.182-10.455,28.229-16.006q3.042-1.868,6.089-3.723c31.265-18.965,66.85-37.106,108.788-55.456,3.208-1.4,5.839-2.433,8.088-1.887a2.359,2.359,0,0,1,1.649,1.167c.342.808-.4,3.621-1.558,5.173-40.369,54.386-101.378,103.376-176.432,141.674a4.5,4.5,0,1,0,4.091,8.017c72.227-36.856,131.732-83.555,172.82-135.522l.347-.243c3.381-2.37,6.051-4.242,9.533-4.821a7.04,7.04,0,0,1,5.256.963c2.265,1.605,2.727,4.588,1.592,10.3-4.078,20.529-14.6,41.432-33.1,65.783a375.972,375.972,0,0,1-117.83,101.489l-.422.231c-4.558,2.494-9.724,5.32-13.159,10.434a16.845,16.845,0,0,0-2.7,6.647C1360.048,319.644,1368.392,325.862,1376.87,327.277Z"></path></g></g></svg> 