<?xml version="1.0" encoding="UTF-8"?> <svg xmlns="http://www.w3.org/2000/svg" xmlns:xlink="http://www.w3.org/1999/xlink" viewBox="0 0 1499.88 1511.288"><defs><clipPath id="clip-path" transform="translate(-3393.891 -312.603)"><rect width="6237" height="2333" fill="none"></rect></clipPath></defs><g id="Layer_2" data-name="Layer 2"><g id="hand6"><g clip-path="url(#clip-path)"><polygon points="1319.45 1385.254 1151.966 1180.618 273.36 123.54 303.109 101.397 1336.538 1338.206 1353.771 1370.756 1319.45 1385.254" fill="#333233"></polygon><path d="M4888.629,1802.506a332.546,332.546,0,0,0-23.885-86.125c-5.1-11.882-10.94-23.536-18.685-33.891-6.852-9.16-15.1-17.175-23.441-25-17.058-16.005-34.673-31.4-52.283-46.8-10.283-8.99-20.593-18-31.812-25.789a184.172,184.172,0,0,0-48.169-23.875c-10.208-3.308-22.674-5.271-30.6,1.966l42.1,57.7a35.869,35.869,0,0,0-33.213,7.326c-2.823,2.482-5.743,5.625-9.5,5.5-4.723-.163-7.451-5.235-9.554-9.467a93.063,93.063,0,0,0-27.3-32.827c-1.7-1.274-3.8-2.553-5.808-1.879-1.925.645-2.853,2.779-3.508,4.7a118.641,118.641,0,0,0-6.142,44.623,24.087,24.087,0,0,0,1.746,8.88c4.459,9.606,17.805,10.461,28.157,8.229-16.449,18.188-22.478,43.181-20.061,67.584.519,5.241,1.548,10.546,4.158,15.12s7.017,8.355,12.223,9.149c6.276.958,12.543-2.564,16.667-7.391s6.545-10.836,9.1-16.649a281.962,281.962,0,0,1,12.905-25.732c6.593-11.62,14.334-23.1,25.528-30.388s26.587-9.512,37.835-2.3a83.357,83.357,0,0,0-11.593,8.919l-31.716,29.686c-8.377,7.841-17.068,16.163-20.631,27.069-2.041,6.246-2.243,12.94-1.985,19.5.461,11.707,3.385,24.977,13.6,30.71,6.808,3.82,15.156,3.237,22.891,2.181-2.619,7.649.406,16.412,5.949,22.3s13.217,9.308,20.955,11.652c6.609,2,13.666,3.324,20.4,1.8,7.39-1.671,13.633-6.58,20.8-9.039,3.414-1.171,7.785-2.643,7.995-6.246l-17.407-13.568c-4.341-3.384-9.146-7.817-8.453-13.278.865-6.808,9.166-9.361,15.846-10.938a42.316,42.316,0,0,1,9.6-1.617,34.548,34.548,0,0,1,10.244,2.048,326.8,326.8,0,0,1,79.282,37.194c3.04,1.963,6.2,4.033,9.8,4.417S4889.118,1806.091,4888.629,1802.506Z" transform="translate(-3393.891 -312.603)" fill="#5d2617"></path><path d="M3469.03,363.585c-2.276,8.476-4.315,17.12-4.283,25.9.05,13.6,5.166,26.9,13.127,37.92s18.654,19.864,30.278,26.914c-9.3-.526-18.624-1.051-27.938-.738-9.793.33-19.612,1.586-29.36.582a64.3,64.3,0,0,1-40.6-20.533c-4.1-4.518-7.6-9.746-9.141-15.648-2.386-9.126.146-18.89,4.291-27.362,7.5-15.332,20.157-27.767,34.629-36.817a140.911,140.911,0,0,1,23.868-11.774c7.494-2.9,16.143-4.194,23.333-7.551C3476.786,331.163,3470.778,357.079,3469.03,363.585Z" transform="translate(-3393.891 -312.603)" fill="#333233"></path><path d="M3724.679,371.858c8.16-2.759,16.472-5.181,24.578-8.078,5.184-1.852,10.395-3.611,15.653-5.208q3.3-1.976,6.5-4.133c5.043-3.414,11.358-7.885,13.567-13.762a13.2,13.2,0,0,0-1.832-12.83c-3.765-4.555-10.267-5.485-16.145-6.094-13.294-1.379-26.611-2.76-39.976-2.93-35.764-.456-71,7.737-106.485,12.192-11.108,1.4-22.366,2.447-32.98,6.007-7.1,2.381-13.777,5.843-20.423,9.291l-16.524,8.573c-2.5,1.3-5.063,2.643-6.9,4.775a18.662,18.662,0,0,0-3.565,7.951c-2.044,8.43-2.1,17.475.823,25.644s8.978,15.363,16.959,18.76c.183.078.37.145.554.219a7.955,7.955,0,0,1,2.665.262c16.141,4.288,33.219-6.984,48.364-11.193,18.46-5.13,37.12-9.569,55.61-14.6,18.617-5.07,37.41-9.759,56.21-14.1C3722.444,372.345,3723.563,372.106,3724.679,371.858Z" transform="translate(-3393.891 -312.603)" fill="#333233"></path><path d="M3564.417,316.55c-8.423-1.19-16.965.556-25.229,2.577a371.157,371.157,0,0,0-37.906,11.444c-5.155,1.862-10.328,3.869-14.807,7.028-8.047,5.676-13.26,14.745-15.779,24.265s-2.556,19.524-1.869,29.347c.77,11.012,2.532,22.262,8.049,31.823,5.41,9.377,14.034,16.441,22.886,22.674,3.527,2.484,7.181,4.9,11.284,6.231a37.389,37.389,0,0,0,13.241,1.324,87.105,87.105,0,0,0,18.574-2.879c7.652-2.051,15.02-5.146,22.778-6.75,5.729-1.185,11.683-1.562,17.113-3.736,7.155-2.865,12.867-8.726,16.485-15.531s5.275-14.511,5.85-22.2a125.459,125.459,0,0,1-34.068,10.143,31.935,31.935,0,0,1-11.062.176c-7.8-1.6-13.829-8.3-16.52-15.79s-2.535-15.7-1.695-23.62c.649-6.113,1.823-12.5,5.74-17.24,5.478-6.625,14.718-8.325,22.886-11.006,7.574-2.487,15.531-6.137,21.744-11.221,2.132-1.744.888-2.228-.951-3.748-1.5-1.237-3.028-2.434-4.6-3.573a62.858,62.858,0,0,0-10.091-6.045A42.659,42.659,0,0,0,3564.417,316.55Z" transform="translate(-3393.891 -312.603)" fill="#c5c5c5"></path><path d="M3661.15,422.179a16.6,16.6,0,0,1,1.15-12.617,13.008,13.008,0,0,1-11.052-11.574,8.654,8.654,0,0,1,.708-4.395c1.5-3.122,5.128-4.514,8.448-5.507q5.608-1.679,11.334-2.917a6.4,6.4,0,0,1,2.449-.2,5.632,5.632,0,0,1,3.375,2.657,19.014,19.014,0,0,1,3.065,13.532c3.771.591,6.791,3.48,8.922,6.647,1.407,2.092,2.58,4.559,2.2,7.051-.412,2.678-2.508,4.752-4.6,6.471a61.7,61.7,0,0,1-15.593,9.241c-2.969,1.231-4.2.464-6.455-1.846A16.525,16.525,0,0,1,3661.15,422.179Z" transform="translate(-3393.891 -312.603)" fill="#6b5822"></path><path d="M4893.688,1801.778a227.032,227.032,0,0,0-46.9-123.171c-8.916-11.456-19.045-22.129-28.662-31.958-25.929-26.5-57.427-56.411-94.452-77.354-24.908-14.09-46.45-18.212-64.095-12.292l-21.721-26.013c.172-4.769.181-9.382.027-13.906-.283-8.28-1.169-19.072-5.554-29.1a52.571,52.571,0,0,0-35.432-29.559c-7.153-1.689-13.633-1.4-18.956.811l-64.669-77.45q.619-2.424,1.111-4.893c1.692-8.56,1.591-15.729-.307-21.915-2.584-8.421-8.831-14.983-16.3-17.124a21.419,21.419,0,0,0-18.276,3.484l-113.777-136.262c2.3-12.336,2.189-22.852-.3-32.492-1.375-5.317-3.291-9.2-6.029-12.212-3.323-3.659-8.206-6.247-14.124-7.485-7.628-1.594-15.04-.567-20.783,2.8l-137.66-164.863c-.8-3.515-1.615-7.029-2.482-10.54-5.724-23.173-13.834-49.854-30.59-72.046-17.578-23.281-42.637-37.255-67.324-37.65l-107.179-128.36c-.048-14.76-2.982-26.175-8.976-34.856-6.615-9.582-19.435-17.12-32.221-14.482l-48.938-58.609c.448-2.358.841-4.731,1.15-7.123.389-3.014.685-6.523-.746-10.022-1.712-4.185-5.25-6.69-7.832-8.519-5.646-4-13.221-9.384-22.159-9.77l-77.772-93.14a134.267,134.267,0,0,0-.913-23.242c-1.073-9.2-3.11-19.631-10.088-27.273-4.753-5.207-11.755-8.856-19.715-10.274-5.809-1.036-12.172-.979-19.912.156l-15.567-18.643c1.54-.854,3.108-1.7,4.73-2.54,7.108-3.672,14.593-7.054,21.832-10.323,11.481-5.187,23.354-10.549,34.394-17.341,7.967-4.9,19.248-12.822,25.191-24.957,4.476-9.14,5.419-22.133-2.563-30.561a22.068,22.068,0,0,0-7.046-4.915c-.035-.473-.085-.944-.16-1.412-1.51-9.525-10.657-16.506-24.468-18.674-15.265-2.4-30.554-.979-45.341.394l-76.233,7.075c-14.975,1.39-31.7,2.948-48.331,6.482a5.1,5.1,0,0,0-.308-.56c-7.552-10.965-22.389-17.245-38.731-16.425a46.243,46.243,0,0,0-12.975,2.369c-.122.011-.242,0-.366.023-49.3,8.111-86.385,19.44-110.226,33.673-12.858,7.676-22.878,16.587-29.781,26.486-8.5,12.187-12.411,26.114-11.012,39.217a38.358,38.358,0,0,0,3.358,12.448,43.688,43.688,0,0,0,10.571,13.429,77.2,77.2,0,0,0,26.3,15.548c11.362,3.928,23.264,5.07,35.5,5.07,6.558,0,13.211-.328,19.929-.73,23.264-1.4,47.808-5.529,71.543-9.525q5.182-.873,10.255-1.718a32.949,32.949,0,0,0,3.7-.345c9.482-1.5,18.421-7.363,25.172-16.519,5.96-8.082,9.437-17.475,12.228-25.643a5.026,5.026,0,0,0,.234-1.144c11.181-3.051,22.379-6.178,33.331-9.237l.11-.031c.012.456.032.917.073,1.4a23.728,23.728,0,0,0,3.493,10.977,16.861,16.861,0,0,0,7.751,6.521,19.212,19.212,0,0,0-.391,2.4,18.632,18.632,0,0,0,4.614,13.977l-.884.644a5,5,0,0,0-.9,7.241l10.812,12.993c-1.189,1.847-2.293,3.722-3.293,5.636-3.874,7.421-.763,11.546.757,12.977a9.741,9.741,0,0,0,4.433,2.28,16.86,16.86,0,0,0,4.113.5,18.227,18.227,0,0,0,9.518-2.733l72.134,86.691c-.1.405-.211.806-.3,1.213-2.776,12.1-5.413,34.8,8.127,50.933a39.273,39.273,0,0,0,23.171,13.4,37.372,37.372,0,0,0,6.542.578,35.227,35.227,0,0,0,14.812-3.21l52.516,63.114c-1.027,3.206-2.005,6.434-2.894,9.677-3.014,11-1.627,18.921,4.122,23.56,2.89,2.333,6.652,3.51,11.2,3.51q.863,0,1.765-.056a33.459,33.459,0,0,0,13.264-3.692l71.424,85.838a160.632,160.632,0,0,0-1.007,23.625c.3,7.493,1.393,17.072,7.283,24.7,4.872,6.31,12.822,10.617,21.811,11.816a43.622,43.622,0,0,0,5.773.374,61.171,61.171,0,0,0,14.825-2.006l179.975,216.295c.81,6.737,1.551,13.309,2.243,19.669l.053.487c1.037,9.533,2.108,19.39,5.777,28.715,4.408,11.2,12.262,19.694,21.551,23.3a27.538,27.538,0,0,0,9.967,1.848,26.636,26.636,0,0,0,17.037-5.966l93.1,111.888c-2.917,15.257-2.14,28.633,2.339,39.8a36.379,36.379,0,0,0,9.116,13.683c5.628,5.077,13.41,7.69,21.583,7.69a40.01,40.01,0,0,0,15.291-3.089l94.385,113.432c-2.156,5.608-4.385,12.305-4.62,19.5-.266,8.13,2.165,15.476,6.848,20.685,4.855,5.4,12.389,8.565,20.3,8.565.3,0,.593,0,.888-.013a25.935,25.935,0,0,0,13.656-4.18l95.594,114.886a80.319,80.319,0,0,0-15.561,49.114c.226,10.728,3.821,18.21,10.4,21.638a18.128,18.128,0,0,0,8.537,1.948,30.023,30.023,0,0,0,5.657-.581c.526-.1,1.05-.223,1.573-.345-14.114,21.572-18.262,48.907-10.42,71.87,2.446,7.167,5.521,12.186,9.674,15.8,5.9,5.124,13.826,6.678,20.2,3.956,7.141-3.049,10.532-10.329,12.776-15.148l10.566-22.689c5.681-12.2,11.559-24.792,21.085-34.062l9.2,10.532a210.5,210.5,0,0,0-14.915,14.943c-8.958,10.149-14.744,20.043-17.691,30.247-3.662,12.68-2.521,25.79,3.129,35.968,6.218,11.2,18.014,18.4,29.836,18.4.079,0,.158-.007.236-.008a31.417,31.417,0,0,0,1.3,6.154c2.79,8.649,9.7,16.283,19.449,21.5a56.57,56.57,0,0,0,26.637,6.548,57.377,57.377,0,0,0,34.252-11.162,9.652,9.652,0,0,0,3.806-4.948,8.889,8.889,0,0,0-.776-6.544c-3.058-6.252-9.2-8.757-14.613-10.966-4.059-1.656-7.893-3.22-9.426-5.962-1.69-3.021-.164-7.323,2.286-9.738,2.742-2.7,7.024-4.429,12.727-5.134,14.46-1.787,30.827,3.03,50.027,14.726,4.844,2.95,9.706,6.176,14.407,9.3,10.939,7.259,22.252,14.765,34.821,19.872,7.214,2.934,13.206,2.035,16.443-2.457C4894.076,1807.668,4893.823,1803.838,4893.688,1801.778Zm-197.448-185.27a113.485,113.485,0,0,0-33.864,11.53l-31.817-38.239c.679-5.887,1.652-11.768,2.613-17.55.44-2.651.88-5.3,1.294-7.952,1.04-6.672,1.843-12.924,2.42-18.873Zm-53.789,25.307c-10.376-10.842-12.46-26.409-12.745-34.944-.028-.827-.018-1.658-.022-2.488l23.988,28.83A100.269,100.269,0,0,0,4642.451,1641.815ZM4594.6,1468.156a42.39,42.39,0,0,1,28.568,23.833c3.705,8.475,4.47,18.045,4.722,25.436.019.558.031,1.12.044,1.681l-43.022-51.524A25.372,25.372,0,0,1,4594.6,1468.156Zm33.09,66.26a282.928,282.928,0,0,1-3.109,28.34c-.408,2.617-.843,5.235-1.278,7.854-.482,2.9-.967,5.824-1.42,8.768L4495,1426.879c1.837-4.35,3.825-8.684,5.775-12.915,3.122-6.778,6.3-13.69,8.937-20.85Zm-276.136-279.922c1.7-7.209,4.071-14.448,6.373-21.46,1.687-5.14,3.417-10.445,4.92-15.8l111.94,134.061a4.926,4.926,0,0,0,1.011,1.212l26.414,31.633c-2.687,8.61-6.524,16.947-10.528,25.639-1.284,2.787-2.584,5.622-3.858,8.487Zm143.465,92.972c4.192,1.2,7.919,5.3,9.5,10.444,1.193,3.89,1.375,8.518.562,14.063l-19.156-22.942A11.247,11.247,0,0,1,4495.023,1347.466Zm-151.8-184.792c2.677.56,6.373,1.782,8.768,4.42,1.606,1.767,2.8,4.306,3.75,7.992a57.394,57.394,0,0,1,1.351,19.65l-26.038-31.184A20.271,20.271,0,0,1,4343.223,1162.674Zm11.736,45.11q-.624,2.73-1.409,5.606c-1.509,5.521-3.345,11.115-5.121,16.525-1.621,4.939-3.275,9.99-4.736,15.128L4200.6,1073.077c-2.384-19.483-5.362-40.286-9.423-61.436ZM4145.774,914.263c13.507,17.889,21.1,39.288,26.446,59.068L4095.5,881.452C4114.06,884.647,4132.281,896.393,4145.774,914.263ZM3962.046,713.052a39.939,39.939,0,0,1,6.114,15.893l-21.981-26.325C3952.576,703.68,3958.592,708.048,3962.046,713.052Zm-86.137-96.276c1.669,1.183,3.747,2.655,4.358,4.146a7.312,7.312,0,0,1,.277,3.093l-7.971-9.547C3873.668,615.2,3874.778,615.975,3875.909,616.776ZM3749.288,454.763c5.8,1.034,10.807,3.581,14.084,7.172,5.062,5.544,6.651,14.074,7.539,21.688.417,3.579.693,6.924.855,10.117l-32.941-39.451A43.63,43.63,0,0,1,3749.288,454.763Zm43.441-87.892c-3.655,7.462-10.47,14.084-21.451,20.838-10.5,6.458-22.074,11.688-33.27,16.746-7.357,3.322-14.963,6.758-22.3,10.551-2.3,1.188-4.5,2.4-6.655,3.622l-8.21-9.833a5,5,0,0,0-6.778-.838l-.495.359a20.545,20.545,0,0,0-2.571-4.428,17.509,17.509,0,0,0-5.743-4.833,18.341,18.341,0,0,0-2.022-10.437,17.952,17.952,0,0,0-1.572-2.418c27.82-7.772,56.447-15.81,84.443-24.491,5.242-1.626,11.765-3.649,17.106-7.816a24.366,24.366,0,0,0,6.682-7.947,11.358,11.358,0,0,1,2,1.639C3796.546,352.5,3795.589,361.031,3792.729,366.871Zm-280.547,27.834a103.11,103.11,0,0,0,9.589,23.257,63.737,63.737,0,0,0,11.3,15.072,57.641,57.641,0,0,0,14.411,9.833c-12.839,2.122-25.79,4.133-38.488,5.588a4.908,4.908,0,0,0-1.094-1.019c-14.721-9.733-24.463-19.915-29.783-31.127-4.925-10.379-6.69-23.355-5.106-37.525,1.8-16.093,7.377-30.192,16.128-40.774a5.035,5.035,0,0,0,.439-.656q16.953-4.83,37.411-8.85c-9.61,10.8-15.79,23.815-17.428,36.829C3508.42,374.368,3509.3,384.25,3512.182,394.705Zm-22.949,55.519c-18.9,1.134-35.83,1.632-51.562-3.808A67.138,67.138,0,0,1,3414.8,432.9a34.06,34.06,0,0,1-8.246-10.31,28.445,28.445,0,0,1-2.443-9.21c-1.143-10.705,2.149-22.224,9.27-32.434,6.088-8.728,15.073-16.675,26.706-23.62q13.848-8.268,34.122-15.187a92.271,92.271,0,0,0-11.141,35.534c-1.791,16.021.287,30.864,6.009,42.923,5.022,10.585,13.259,20.228,25.039,29.293C3492.482,450.012,3490.853,450.127,3489.233,450.224Zm103.219-24.058c-5.105,6.923-11.914,11.507-18.681,12.575-5.677.9-12.148-.364-19.787-3.848a50.038,50.038,0,0,1-14.016-9.1,54.035,54.035,0,0,1-9.487-12.746,93.18,93.18,0,0,1-8.659-21c-2.526-9.179-3.315-17.748-2.343-25.469,1.435-11.406,7.06-22.912,15.836-32.4,3.988-4.309,7.765-7.228,11.546-8.923a33.68,33.68,0,0,1,12.178-2.6c9.145-.469,20.811,1.893,27.9,9.552-14.46,3.911-28.545,9.634-41.006,18.407a27.317,27.317,0,0,0-7.543,7.223c-2.918,4.489-3.48,9.683-3.652,14.628-.263,7.617-.012,18.885,5.2,28.754,4.06,7.7,11.056,13.547,18.71,15.642a19.61,19.61,0,0,0,5.211.689,37.76,37.76,0,0,0,10.9-2.084c1.216-.364,2.365-.708,3.507-1,7.168-1.813,14.742-3.789,23.154-6.04C3599.182,414.479,3596.408,420.8,3592.452,426.166Zm51.1-39.706c-14.628,4.085-29.753,8.309-44.659,12.3-8.39,2.246-15.939,4.216-23.078,6.022-1.351.341-2.659.733-3.922,1.111-3.964,1.186-7.385,2.208-10.6,1.329-5.036-1.378-9.712-5.364-12.506-10.661h0c-3.115-5.906-4.4-13.451-4.045-23.741.141-4.048.542-7.217,2.041-9.523a18.141,18.141,0,0,1,4.916-4.5c27.542-19.39,63.45-22.722,95.13-25.663l76.233-7.075c8.737-.81,17.656-1.639,26.5-1.639a105.426,105.426,0,0,1,16.366,1.167c6.088.956,12.752,3.487,15.225,7.832-.54-.012-1.084-.014-1.632,0-6.366.18-12.312,2.043-18.35,4.1a5,5,0,0,0,3.229,9.465c5.432-1.853,10.334-3.4,15.261-3.562a15.3,15.3,0,0,1-2.6,2.584c-3.9,3.042-9.22,4.693-13.915,6.149-29.365,9.106-59.509,17.524-88.671,25.668Zm14.817,16.526a13.939,13.939,0,0,1-1.927-6.4c-.2-2.384.273-3.024.328-3.089a4.839,4.839,0,0,0,.293-.428l12.928-3.611a8.168,8.168,0,0,1,5.348,8.05,19.57,19.57,0,0,0-5.8,2.222,25.444,25.444,0,0,0-7.332,6.169A6.49,6.49,0,0,1,3658.366,402.986Zm8.919,15.3c.361-3.8,3.1-7.566,7.133-9.825a8.55,8.55,0,0,1,3.512-1.225,6.453,6.453,0,0,1,5.134,2.749,12.231,12.231,0,0,1,2.043,4.485L3670.1,425.383A8.569,8.569,0,0,1,3667.285,418.283Zm3.972,18.621.978-.711a5,5,0,0,0,2.856-2.077l16.768-12.194a4.974,4.974,0,0,0,2.929-2.131l1.371-1,4.255,5.1a107.44,107.44,0,0,0-23.3,20.05Zm4.8,26.627a8.932,8.932,0,0,1,.481-1.074c.376-.72.781-1.431,1.189-2.141l2.244,2.7A7.818,7.818,0,0,1,3676.058,463.531Zm7.549-11.784c5.82-7.205,13.548-13.876,23.263-20.126L3771.479,509q-.157,1.554-.369,3.072c-1.26,9.019-4.048,17.655-7,26.8-.74,2.3-1.482,4.627-2.211,6.974Zm107.767,161.5a29.658,29.658,0,0,1-17.261-9.981c-8.79-10.472-8.823-25.185-7.254-35.827l37.405,44.953A26.392,26.392,0,0,1,3791.374,613.243Zm26.379-.279a4.877,4.877,0,0,0-3.338-4.012l-44.827-53.872c1.23-4.419,2.65-8.831,4.041-13.142a210.092,210.092,0,0,0,6.379-22.726l98.341,117.776c-2.353,10.388-5.908,20.563-9.619,31.172q-.742,2.125-1.49,4.277Zm59.308,97.317c-1.905.122-4.5,0-6.06-1.255-3.105-2.5-1.807-9.3-.757-13.134q.43-1.568.89-3.139l13.207,15.872A23.425,23.425,0,0,1,3877.061,710.281Zm-2.334-28.845c1.13-3.354,2.294-6.688,3.443-9.975,2.852-8.157,5.758-16.474,8.095-24.994l82.932,99.322c-.3,11.734-2.106,23.673-3.879,35.25q-.6,3.9-1.184,7.847Zm117.058,171.2c-6.4-.853-11.943-3.774-15.217-8.015-3.248-4.206-4.853-10.061-5.207-18.986-.161-4.065-.089-8.16.138-12.265l32.33,38.855A40.223,40.223,0,0,1,3991.785,852.638Zm-18.98-53.331c.7-5.625,1.552-11.227,2.4-16.755,1.281-8.366,2.58-16.919,3.353-25.555L4177.6,995.378c4.78,21.489,8.3,42.962,11.07,63.359Zm251.476,340.759c-6.695-2.6-12.477-9.032-15.866-17.643-3.178-8.077-4.176-17.257-5.142-26.135l-.052-.488c-.163-1.5-.333-3.024-.5-4.546l38.561,46.343C4237.086,1141.2,4230.181,1142.356,4224.281,1140.066Zm134.636,163.148a26.552,26.552,0,0,1-6.533-9.982c-2.936-7.319-3.935-15.946-3.017-25.735l32.928,39.573C4373.668,1309.686,4364.584,1308.326,4358.917,1303.214Zm147.679,164.2c-5.307.17-10.358-1.8-13.452-5.241-2.907-3.233-4.47-8.216-4.291-13.673a41.124,41.124,0,0,1,2.068-10.88l23.176,27.852A16.422,16.422,0,0,1,4506.6,1467.412Zm116.692,183c-3.34.642-5.923.5-7.683-.414-4.178-2.178-4.94-9.068-5.022-12.982a70.285,70.285,0,0,1,9.119-36.028c-.056,2.067-.06,4.139.01,6.216.53,15.882,5.35,29.693,13.675,39.507A34,34,0,0,1,4623.288,1650.413ZM4709,1681.68c-.6.562-1.212,1.118-1.817,1.678l-8.768-10.036a68.469,68.469,0,0,1,9.9-5.5c4.758-2.158,8.4-3.19,11.823-3.345a25.9,25.9,0,0,1,8.125,1.08c-6.21,3.8-11.58,8.875-16.838,13.838Q4710.214,1680.543,4709,1681.68Zm174.677,123.279c-.514.144-2.149.1-4.589-.892-11.641-4.73-22.044-11.633-33.058-18.941-4.781-3.172-9.724-6.452-14.733-9.5-21.2-12.916-39.665-18.189-56.456-16.109-7.942.981-14.173,3.651-18.521,7.936-6.033,5.947-7.714,15.089-3.995,21.74,3.242,5.8,9.158,8.212,14.378,10.341,3.959,1.616,7.421,3.029,9.028,5.444-14.053,10.285-34.483,11.759-49.844,3.548-4.317-2.306-11.959-7.419-14.645-15.745-2.193-6.8-.984-15.072,3.8-26.038a131.683,131.683,0,0,1,56.511-62.122,5,5,0,0,0-4.85-8.746,141.738,141.738,0,0,0-60.825,66.866,67.787,67.787,0,0,0-5.22,16.942c-8.308.206-17.068-5.13-21.566-13.231-4.368-7.868-5.194-18.2-2.265-28.34,2.527-8.752,7.624-17.388,15.581-26.4A244.235,244.235,0,0,1,4710.4,1694q2.722-2.5,5.43-5.017c.821-.767,1.642-1.542,2.463-2.317,7.744-7.312,15.06-14.218,24.324-16.52a5,5,0,0,0,.827-9.42c-6.653-2.959-14.938-6.639-23.757-6.241-6.156.281-11.794,2.548-15.5,4.231a72.217,72.217,0,0,0-19.78,12.991c-11.3,10.64-18.009,25.039-23.924,37.742l-10.566,22.69c-2.117,4.546-4.3,8.745-7.638,10.171-2.787,1.192-6.781.242-9.714-2.306-2.765-2.4-4.917-6.052-6.77-11.481-7.649-22.4-2.181-49.673,13.932-69.482,15.085-18.546,38.8-30.811,65.06-33.65,5.267-.57,12.069-.948,18,1.2a5,5,0,0,0,3.4-9.4c-6.176-2.236-12.608-2.451-18.158-2.11-.068-.094-.118-.2-.193-.286l-41.237-49.386c14.207-3.19,31.711,1.027,52.152,12.589,35.938,20.33,66.79,49.648,92.229,75.646,9.412,9.617,19.307,20.043,27.918,31.106a216.931,216.931,0,0,1,44.809,117.688A9.6,9.6,0,0,1,4883.678,1804.959Z" transform="translate(-3393.891 -312.603)"></path></g></g></g></svg> 