<?xml version="1.0" encoding="UTF-8"?> <svg xmlns="http://www.w3.org/2000/svg" xmlns:xlink="http://www.w3.org/1999/xlink" viewBox="0 0 1447.985 1067.666"><defs><clipPath id="clip-path" transform="translate(-3693.638 -1675.764)"><rect width="6237" height="2333" fill="none"></rect></clipPath></defs><g id="Layer_2" data-name="Layer 2"><g id="hand10"><g clip-path="url(#clip-path)"><path d="M3956.324,1859.056c-50.887-4.3-99.415-22.674-150.46-25.182a18.569,18.569,0,0,0-4.577.168,18.379,18.379,0,0,0-4.792,1.948l-12.249,6.4c-27.291,14.261-54.744,28.624-78.8,46.926a8.874,8.874,0,0,0-3.118,3.377,7.774,7.774,0,0,0,.132,4.706q16.155,67.716,32.309,135.431c.5,2.1,1.077,4.332,2.783,5.854a12.358,12.358,0,0,0,5.18,2.311,86.124,86.124,0,0,0,20.948,2.77,8.235,8.235,0,0,0,3.82-.6c1.525-.782,2.258-2.351,2.911-3.8a159.157,159.157,0,0,1,20.039-32.959c4.1-5.208,11.091-5.1,17.273-8.293,4.638-2.394,7.525-8.8,12.772-9.766a231.321,231.321,0,0,1,115.816,8.718c9.073,3.118,17.968,8.964,27.106,11.432,11.629,3.14,6.537-10.9,5.984-18.632q-2.194-30.669-5.2-61.284Q3960.787,1893.77,3956.324,1859.056Z" transform="translate(-3693.638 -1675.764)" fill="#bb6a9d"></path><path d="M3959.509,2736.077c-10.45-35.741-11.75-73.021-15.258-109.835-9-94.421-32.808-187.315-41.777-281.739-1.19-12.526-2.532-26.009-11.722-35.546-5.7,6.146-5.815,14.853-5.519,22.8,5.095,136.644,49.175,270.49,51.045,407.208" transform="translate(-3693.638 -1675.764)" fill="#272827"></path><path d="M3832.757,2043.989c-8.179,3.012-16.062,7.113-21.777,13.126a48.645,48.645,0,0,0-8.9,13.97c-3.546,7.96-5.744,17.1-1.893,24.923,24.97-14.217,53-23.5,80.791-32.676,12.308-4.064,26.364-7.165,37.906-12.667-2.822-4.408-14.179-7.282-19.459-8.848a104.007,104.007,0,0,0-21.884-3.961A107.621,107.621,0,0,0,3832.757,2043.989Z" transform="translate(-3693.638 -1675.764)" fill="#272827"></path><path d="M3906.157,2196.738c-10.09.243-20.241.492-30.134,2.3s-19.613,5.267-27.16,11.242a10.864,10.864,0,0,0-2.764,2.89,10.474,10.474,0,0,0-1.1,4.406c-2.395,26.131,3.225,52.313,10.846,77.611,1.675,5.561,3.481,11.168,6.753,16.132a38.3,38.3,0,0,0,21.314,15.225l3.919-11.886c.4-1.227,1.2-2.717,2.633-2.66a3.17,3.17,0,0,1,1.57.627,15.79,15.79,0,0,1,7.311,12.482c7.18-6.195,14.523-12.591,18.667-20.681,6.27-12.243,4.307-26.361,2.86-39.729a418,418,0,0,1-2.188-59.14C3918.964,2197.367,3914.993,2196.525,3906.157,2196.738Z" transform="translate(-3693.638 -1675.764)" fill="#272827"></path><path d="M3747.607,1728.242c2.087-11.414,5.7-23.256,14.875-31.477,4.825-4.324,10.9-7.367,17.088-9.982,11.345-4.8,23.77-8.4,36.269-7.444a71.327,71.327,0,0,1,22.278,5.9,62.018,62.018,0,0,1,11.935,6.416c8.047,5.759,13.389,14,17.225,22.532,4.163,9.254,6.75,19,9.147,28.744,2.774,11.272,5.328,22.842,3.628,34.294l-25.22-8.367c-5.588-1.853-11.221-3.718-17.113-4.558a74.259,74.259,0,0,0-14.843-.38c-25.88,1.54-51.144,10.683-70.9,25.659a5.281,5.281,0,0,1-3.041,1.4c-2.643,0-2.384-7.625-2.618-9.383q-.861-6.463-1.227-12.97a171.054,171.054,0,0,1,.5-25.816Q3746.282,1735.5,3747.607,1728.242Z" transform="translate(-3693.638 -1675.764)" fill="#604943"></path><path d="M3881.984,1786.951a25.42,25.42,0,0,0-3.424-7.547c-3.3-4.468-9.126-6.879-14.8-8.65-38.437-11.983-84.2-2.983-113.479,22.318a6.74,6.74,0,0,0-1.934,2.265,6.15,6.15,0,0,0,.234,4.126,474.093,474.093,0,0,1,12.888,56.66,102.919,102.919,0,0,1,30.56-19.539,48.677,48.677,0,0,1,10.667-3.3,55.923,55.923,0,0,1,13.507-.175,210.457,210.457,0,0,1,46.94,9.118c4.793,1.517,9.634,3.227,14.726,3.336,3.382.073,15.039,1.256,16.509-.655,2.222-2.887-2.179-16.234-2.819-19.761A299.975,299.975,0,0,0,3881.984,1786.951Z" transform="translate(-3693.638 -1675.764)" fill="#a0a0a0"></path><path d="M3740.5,2149.907q10.13-10.422,20.257-20.845c6.071-6.266,3.525-10.653,2.484-18.482-2.138-16.095-2.09-32.535,1.33-48.507a108.525,108.525,0,0,1,9.111-26.111c13.768-27.355,42.5-49.874,76.006-53.042,11.9-1.125,23.909.141,35.728,1.76q18.2,2.495,36.176,6.1c11.814,2.373,24.226,5.46,32.409,13.379a27.625,27.625,0,0,1,1.966,2.136,23.014,23.014,0,0,1,3.895-.1c5.736.352,10.982,2.871,15.912,5.488,73.833,39.2,121.105,111.791,198.819,144.569a7.441,7.441,0,0,1,3.036,1.887c1.576,1.979.238,4.682-.984,6.858-21.043,37.469,2.144,82.909-6.884,123.978-57.9-33.7-135.821-31.928-192.135-67.671-10.8-6.855-20.671-15.026-32.567-20.265-20.8-9.164-45.8-8.293-68.01-2.1s-42.233,17.257-61.987,28.211l-37.076,20.561c-2.216,1.229-4.626,2.5-7.228,2.355-6.213-.355-8.054-7.731-7.376-13.232a64.38,64.38,0,0,1,19.569-38.14,45.95,45.95,0,0,1-31.6-2.544c-1.305-.619-2.676-1.42-3.07-2.686-.416-1.338.4-2.711,1.183-3.914q4.788-7.337,9.578-14.673c-10.447,3.065-25.324.1-26.63-9.59C3731.634,2159.5,3736.209,2154.327,3740.5,2149.907Zm63.231-58.751c3.443,1.815,7.614-.762,10.731-3.01,21.6-15.583,49.894-21.077,76.575-28.032,6.36-1.658,12.809-3.478,18.2-6.915a33.649,33.649,0,0,0,4.59-3.55c-13.565-3.5-27.273-10.2-41.254-12.565-32.3-5.459-67.188,16.981-71.474,45.967C3800.662,2086.014,3800.848,2089.632,3803.735,2091.156Z" transform="translate(-3693.638 -1675.764)" fill="#ffcfc0"></path><path d="M4196.352,2142.7c-2.847-.311-5.949-.559-8.391.787a11.239,11.239,0,0,0-3.83,4.118c-9.051,14.257-13.615,30.44-16.063,46.647-6.049,40.051.332,80.887,12.14,119.859a7.97,7.97,0,0,0,1.639,3.344,9.633,9.633,0,0,0,3.083,1.886l9.652,4.364c7.292,3.3,15.049,6.682,23.223,6.164-3.5-1.685-4.755-5.524-5.66-8.972-4.246-16.166-8.079-32.533-8.551-49.138-.522-18.35,3.067-36.587,6.644-54.678,2.609-13.194,5.227-26.406,8.938-39.4a197.669,197.669,0,0,1,6.552-19.366c2.526-6.3,6.9-10.67-2.44-12.168C4214.372,2144.717,4205.344,2143.682,4196.352,2142.7Z" transform="translate(-3693.638 -1675.764)" fill="#d0bee8"></path><path d="M4942.655,2131.449c-145.85.3-289.107,49.373-434.481,39.337-49.133-3.392-97.286-13.5-145.739-21.409q-42.042-6.865-84.5-11.54c-13.263-1.46-27.437-2.629-39.381,2.744-16.531,7.435-23.595,24.873-27.641,40.926a266.9,266.9,0,0,0,10.007,161.279c58.28,17.374,119.6,25.046,180.508,32.635,187.776,23.4,375.675,46.8,564.686,60.607,34.357,2.509,69.161,4.684,103.15-.577,5.3-.821,55.937,9.945,59.733,6.549,3.377-3.021,8.831-19.875,10-24,18.841-66.494-70-276-70-276a104.652,104.652,0,0,0-20.752-4.333C5013.19,2134.18,4977.975,2131.377,4942.655,2131.449Z" transform="translate(-3693.638 -1675.764)" fill="#473a36"></path><path d="M3737.98,2044.645a5.749,5.749,0,0,1-.777-.049c-.073-.009-.144-.021-.216-.033a5.782,5.782,0,0,1-.573-.125c-.059-.017-.12-.03-.178-.048a5.42,5.42,0,0,1-.693-.267c-.035-.017-.066-.037-.1-.054a4.909,4.909,0,0,1-.541-.313c-.055-.036-.108-.074-.161-.112a4.867,4.867,0,0,1-.433-.353c-.045-.041-.092-.08-.136-.123a4.746,4.746,0,0,1-.463-.526l0-.007a4.311,4.311,0,0,1-.434-.739c-.045-.1-.072-.194-.109-.292-.047-.125-.105-.245-.14-.375l-39.247-145.973a4.254,4.254,0,0,1,2.05-4.729l58.368-35.673-3.437-18.949c-5.7-31.419-11.593-63.909-10.349-96.547.522-13.713,2.92-33.384,17.654-45.854,9.874-8.356,23.1-11.809,35.8-14.629,11.831-2.627,24.38-4.878,36.3-1.125,7.479,2.357,13.6,6.821,19,10.76a73.067,73.067,0,0,1,11.277,9.465c5,5.473,7.968,11.977,10.435,18.19,10.636,26.8,15.117,55.149,19.451,82.568l6.985,44.208a3.923,3.923,0,0,1,.033.941l63.666,10.767a4.664,4.664,0,0,1,4.063,4.1l10.164,148.918c33.263,17.586,61.651,42.354,89.323,66.5,34.191,29.842,69.545,60.692,113.32,76.987a86.439,86.439,0,0,1,8.491-11.6,5.343,5.343,0,0,1,4.452-1.719l37.724,3.118c1.413-2.474,2.857-4.935,4.368-7.367a5.245,5.245,0,0,1,4.912-2.3c41.093,3.612,82.493,9.823,122.53,15.83,61.625,9.246,125.349,18.806,188.641,18.917,65.577.1,132.148-9.9,196.528-19.581,87.972-13.232,178.939-26.913,268.46-14.878,3.3.444,6.591.922,9.89,1.4,13.789,2,28.045,4.063,41.9,3.34a4.838,4.838,0,0,1,5.3,4.2,4.714,4.714,0,0,1-4.741,4.722c-14.966.789-29.784-1.364-44.113-3.441-3.261-.473-6.519-.945-9.776-1.383-87.93-11.822-178.087,1.739-265.276,14.851-61.394,9.234-124.758,18.766-187.751,19.642-3.49.049-6.99.071-10.477.065-64.125-.111-128.266-9.734-190.3-19.041-38.786-5.819-78.855-11.831-118.521-15.451q-1.65,2.739-3.212,5.513c0,.048.006.094,0,.142a4.3,4.3,0,0,1-1.648,2.877c-31.653,58.2-35.629,127.374-10.325,187.91,69.283,18.764,142.244,28.394,212.825,37.71,206.536,27.26,420.1,55.448,632.561,57.056a4.738,4.738,0,0,1,4.968,4.5,4.789,4.789,0,0,1-4.963,4.428c-.041,0-.083,0-.124,0-213.156-1.613-427.076-29.848-633.952-57.152-71.75-9.47-145.941-19.262-216.651-38.648a4.807,4.807,0,0,1-3.2-2.662c-1.3-3.008-2.494-6.045-3.648-9.094a122.49,122.49,0,0,1-30.006-10.484,20.143,20.143,0,0,1-6.436-4.563,17.841,17.841,0,0,1-3.369-6.956q-3.021-10.221-5.3-20.4c-37.063-14.725-75.376-29.88-115.252-38.793-2.905-.649-5.822-1.267-8.74-1.885-9.591-2.031-19.51-4.131-29.009-7.379-13.9-4.754-26.582-11.848-38.845-18.711-14.455-8.088-28.109-15.727-43.615-19.892a97.544,97.544,0,0,0-11.11-2.263,699.608,699.608,0,0,1,4.278,76.328c.008,9.007-.207,17.8-2.888,26.387-3.094,9.907-9.239,17.893-17.342,22.6a136.775,136.775,0,0,1,2.362,17.048c4.474,47.1,12.8,94.679,20.86,140.692,8.067,46.077,16.409,93.724,20.917,141.045.687,7.2,1.3,14.531,1.889,21.619,2.422,29.05,4.928,59.089,13.226,87.471a4.463,4.463,0,0,1-3.6,5.456,5.09,5.09,0,0,1-6.13-3.183c-8.526-29.162-11.065-59.61-13.521-89.055-.589-7.065-1.2-14.37-1.88-21.525-4.479-47.011-12.794-94.5-20.834-140.428-8.083-46.163-16.44-93.9-20.944-141.312-.9-9.467-1.821-19.187-6.159-27.051-1.238,4.154-1.222,9-1.045,13.751,2.436,65.358,14.043,131.286,25.267,195.043,12.194,69.264,24.8,140.887,25.78,212.257a5.063,5.063,0,0,1-10.055.139c-.968-70.732-13.521-142.033-25.66-210.987-11.271-64.022-22.926-130.223-25.383-196.127q-.032-.837-.054-1.688c-12.385-4.221-22.982-14.106-29.1-27.17-5.3-11.327-6.937-23.32-8.268-35.634-1.73-16.02-2.979-32.27-3.726-48.4-5.566,3.025-11.026,6.217-16.4,9.366-14.655,8.59-29.809,17.473-46.885,22.793-7.316,2.279-12.923,1.75-16.669-1.572-4.025-3.573-3.636-8.9-3.508-10.653.889-12.17,6.968-24.412,19.132-38.525.1-.122.215-.238.32-.359a61.04,61.04,0,0,1-10.124.989c-1.972.028-3.947-.041-5.913-.206-5.611-.473-9.395-2.343-11.247-5.557-2.181-3.783-.6-7.826.071-9.553a68.325,68.325,0,0,1,2.989-6.576,35.343,35.343,0,0,1-4.377.346c-.558.007-1.121,0-1.688-.021-7.436-.28-16.151-3.938-18.858-11.478-3.543-9.87,5.645-18.93,9.569-22.8,9.081-8.956,17.832-17.449,26.749-25.389a4.722,4.722,0,0,1-3.262-3.021c-7.275-22.953-4.982-48.756,5.632-72.541l-26.6.371Zm3.161-11.7,57.7-33.82a76.1,76.1,0,0,1,13.741-8.822c1.58-.781,3.186-1.495,4.809-2.154l-20.965-148.277-92.064,56.268Zm120.245-313.782c-2.167-5.459-4.729-11.122-8.768-15.546a66.019,66.019,0,0,0-9.855-8.193c-5-3.645-10.166-7.415-15.992-9.25-9.284-2.926-20.16-.928-30.5,1.37-11.392,2.53-23.192,5.573-31.284,12.421-12.056,10.2-14.066,27.525-14.528,39.668a289.343,289.343,0,0,0,2.392,46.37c13.424-11.64,31.761-20.041,52.414-23.885a121.277,121.277,0,0,1,40.7-.987,92.037,92.037,0,0,1,29.49,9.654C3872.178,1753.279,3868,1735.819,3861.386,1719.161Zm18.978,80.844c-.891-5.639-1.792-11.318-2.749-17.011-.112-.067-.231-.119-.339-.195-9.09-6.483-20.524-10.933-33.064-12.868a110.025,110.025,0,0,0-36.919.929c-21.114,3.93-39.479,13-51.711,25.535a4.884,4.884,0,0,1-1.2.874c1.837,12.5,4.083,24.929,6.307,37.187l2.683,14.791,34.178-20.89c.048-.029.1-.047.153-.075.152-.086.311-.16.474-.232.137-.06.272-.118.413-.167.159-.055.323-.1.489-.137s.322-.076.487-.1c.068-.01.129-.033.2-.041.1-.011.2,0,.293-.007.169-.01.336-.017.506-.012a5.173,5.173,0,0,1,.517.041c.089.01.178.006.266.021l85.681,14.49Zm74.9,62.772-149.03-25.2,20.832,147.342c14.707-3.935,30.113-4.082,42.791-3.623,26.5.962,50.561,4.952,71.53,11.859a212.168,212.168,0,0,1,23.413,9.328Zm227.4,445.995a10.671,10.671,0,0,0,1.633,3.8,11.976,11.976,0,0,0,3.437,2.241,111,111,0,0,0,21.438,8.145c-18.445-56.921-13.156-119.44,14.7-173.412l-31.22-2.58c-12.621,15.49-19.675,36.634-21.543,64.528C4169.011,2242.983,4172.9,2275.71,4182.673,2308.772ZM3852.8,2266.543c1.254,11.612,2.775,22.878,7.544,33.064,4.5,9.618,11.746,17.09,20.206,20.988.7-5.193,2.417-10.257,6.326-14.472a5.314,5.314,0,0,1,3.814-1.632h.022a5.3,5.3,0,0,1,3.864,1.555,37.984,37.984,0,0,1,7.658,11.817,31.309,31.309,0,0,0,10.54-15.762c2.342-7.5,2.529-15.626,2.522-23.988a691.452,691.452,0,0,0-4.438-77.372,125.376,125.376,0,0,0-52.6,9.06c-3.153,1.271-6.267,2.669-9.346,4.152C3849.615,2231.45,3850.919,2249.134,3852.8,2266.543Zm-84.184-152.277a254.65,254.65,0,0,1,27.264-20.409c-3.982-17.638,4.781-37.2,21.59-47.391,5.7-3.456,11.989-5.8,18.474-8.091,11.611-4.1,23.048-7.712,35.328-6.782a79.085,79.085,0,0,1,15.449,3.081,262.692,262.692,0,0,1,37.683,13.79,4.358,4.358,0,0,1,2.687,4.468,4.7,4.7,0,0,1-3.756,3.832c-39.112,8.953-83.9,20.444-120.447,43.6-21.765,13.792-40.026,31.177-59.949,50.824-4.3,4.241-9.034,9.676-7.448,14.093,1.177,3.278,5.788,5.143,9.734,5.293,3.963.146,8.069-.91,12.5-2.374,9.55-12.873,22.787-23.69,36.17-33.588,16.61-12.282,36.745-26,60.149-34.659,24.628-9.106,51.093-12.053,76.685-14.9a4.927,4.927,0,0,1,5.6,3.877,4.627,4.627,0,0,1-4.382,4.988c-24.926,2.775-50.7,5.646-74.066,14.285-22.163,8.195-41.539,21.418-57.568,33.272-12.025,8.893-38.4,33.275-42.972,47.18a9.338,9.338,0,0,0-.641,2.526c0,.005.631.563,3.3.788,7.144.6,21.255-.513,25.254-2.657,39.954-38.791,99.188-59.615,155.132-53.608a4.592,4.592,0,0,1,4.371,4.97,4.962,4.962,0,0,1-5.609,3.9c-57.612-6.181-119.02,17.871-156.436,61.283-10.895,12.64-16.32,23.335-17.074,33.658-.2,2.752.348,3.555.592,3.772.547.485,2.511.639,6.25-.526,15.9-4.953,29.872-13.144,44.666-21.816,11.728-6.875,23.856-13.984,36.978-19.275,26.841-10.824,55.607-13.03,81-6.208,16.8,4.513,31.673,12.833,46.054,20.88,11.856,6.634,24.117,13.494,37.106,17.935,8.873,3.035,18.461,5.065,27.732,7.028,2.958.627,5.916,1.253,8.861,1.912,38.426,8.589,75.076,22.712,110.559,36.781a274.157,274.157,0,0,1-4.354-69c1.37-20.448,5.465-37.569,12.385-51.785-45.313-17-81.231-48.336-115.97-78.655-35.846-31.286-72.913-63.637-119.63-79.027-19.98-6.581-43.01-10.387-68.45-11.311-15.626-.569-35.658-.182-51.969,7.884-8.382,4.145-16.338,10.578-24.323,19.664C3768.175,2046.158,3758.791,2083.123,3768.616,2114.266Zm36.5-26.021c32.007-18.38,68.683-28.94,102.427-37.021-7.8-3.062-15.79-5.751-23.892-8.033a67.467,67.467,0,0,0-13.265-2.7c-10.1-.76-20.306,2.488-30.752,6.179-6.166,2.179-11.663,4.222-16.513,7.164C3810.77,2061.331,3803.81,2075.1,3805.117,2088.245Zm-28.062-65.668-22,12.895,14.012-.195A126.638,126.638,0,0,1,3777.055,2022.577Z" transform="translate(-3693.638 -1675.764)"></path></g></g></g></svg> 