<?xml version="1.0" encoding="UTF-8"?> <svg xmlns="http://www.w3.org/2000/svg" xmlns:xlink="http://www.w3.org/1999/xlink" viewBox="0 0 1392.276 1196.914"><defs><clipPath id="clip-path" transform="translate(58.276 -1161.329)"><rect width="6237" height="2333" fill="none"></rect></clipPath></defs><g id="Layer_2" data-name="Layer 2"><g id="hand1"><g clip-path="url(#clip-path)"><path d="M1072.326,1368.678c50.537-5.608,98.533-26.93,149.252-30.533a16.409,16.409,0,0,1,4.554.116,17.062,17.062,0,0,1,4.791,2.106l12.268,6.974c27.332,15.537,54.827,31.186,78.995,51.3a9.552,9.552,0,0,1,3.147,3.732,9.742,9.742,0,0,1-.066,5.269q-15.125,76.046-30.248,152.092c-.47,2.363-1.011,4.865-2.686,6.6a11.732,11.732,0,0,1-5.119,2.668,76.765,76.765,0,0,1-20.79,3.426,7.355,7.355,0,0,1-3.806-.616c-1.527-.851-2.277-2.6-2.947-4.211a182.836,182.836,0,0,0-20.381-36.578c-4.144-5.766-11.1-5.539-17.29-9.014-4.644-2.607-7.6-9.732-12.835-10.732a205.848,205.848,0,0,0-115.033,11.565c-8.978,3.632-17.741,10.314-26.793,13.218-11.519,3.7-6.65-12.1-6.207-20.76q1.756-34.363,4.322-68.677Q1068.369,1407.6,1072.326,1368.678Z" transform="translate(58.276 -1161.329)" fill="#4f9d81"></path><path d="M1081.311,2350.375c9.895-40.167,10.671-81.914,13.649-123.175,7.637-105.827,30.026-210.174,37.635-316,1.01-14.039,2.157-29.152,11.163-39.97,5.752,6.791,5.987,16.535,5.8,25.432-3.173,153.025-45.146,303.526-45.112,456.583" transform="translate(58.276 -1161.329)" fill="#272827"></path><path d="M1197.75,1573.745c8.174,3.244,16.069,7.712,21.835,14.352a55.53,55.53,0,0,1,9.041,15.5c3.636,8.854,5.948,19.049,2.228,27.868-25.024-15.525-53.026-25.478-80.782-35.315-12.295-4.357-26.314-7.608-37.866-13.587,2.745-4.978,14-8.372,19.225-10.207a93.31,93.31,0,0,1,21.7-4.775A95.9,95.9,0,0,1,1197.75,1573.745Z" transform="translate(58.276 -1161.329)" fill="#272827"></path><path d="M1126.886,1745.862c10.035.115,20.132.236,29.993,2.1s19.574,5.59,27.161,12.159a11.6,11.6,0,0,1,2.788,3.192,12.9,12.9,0,0,1,1.153,4.914c2.743,29.211-2.482,58.6-9.709,87.04-1.588,6.251-3.306,12.554-6.491,18.162A38.793,38.793,0,0,1,1150.8,1890.8l-4.062-13.244c-.419-1.366-1.228-3.022-2.654-2.936a2.975,2.975,0,0,0-1.552.727,18.264,18.264,0,0,0-7.1,14.085c-7.226-6.822-14.615-13.867-18.847-22.858-6.4-13.605-4.648-29.438-3.395-44.424a526.548,526.548,0,0,0,1.356-66.228C1114.16,1746.766,1118.1,1745.761,1126.886,1745.862Z" transform="translate(58.276 -1161.329)" fill="#272827"></path><path d="M1278.039,1219c-2.233-12.743-5.99-25.942-15.226-35-4.857-4.764-10.943-8.076-17.129-10.907-11.347-5.192-23.751-9.026-36.166-7.766-7.715.783-15.121,3.509-22.068,6.954a60.065,60.065,0,0,0-11.778,7.367c-7.921,6.571-13.119,15.884-16.815,25.489-4.011,10.423-6.448,21.376-8.7,32.316-2.6,12.66-4.981,25.65-3.133,38.442l24.961-9.759c5.53-2.162,11.105-4.336,16.952-5.368a65.641,65.641,0,0,1,14.753-.657,121.715,121.715,0,0,1,70.855,27.614,5,5,0,0,0,3.042,1.517c2.629-.038,2.265-8.572,2.474-10.543q.766-7.248,1.04-14.537a215.475,215.475,0,0,0-.855-28.888Q1279.457,1227.1,1278.039,1219Z" transform="translate(58.276 -1161.329)" fill="#4a4547"></path><path d="M1145.243,1286.811a30.405,30.405,0,0,1,3.3-8.5c3.22-5.053,8.978-7.842,14.6-9.913,38.052-14.012,83.678-4.652,113.14,23.21a7.364,7.364,0,0,1,1.955,2.506,7.707,7.707,0,0,1-.176,4.622,588.994,588.994,0,0,0-12.029,63.62,101.315,101.315,0,0,0-30.656-21.393,44.353,44.353,0,0,0-10.653-3.529,49.4,49.4,0,0,0-13.432.014,189.182,189.182,0,0,0-46.545,10.938c-4.745,1.773-9.535,3.762-14.6,3.964-3.362.134-14.936,1.64-16.424-.475-2.249-3.2,1.942-18.206,2.529-22.163A371.625,371.625,0,0,1,1145.243,1286.811Z" transform="translate(58.276 -1161.329)" fill="#a0a0a0"></path><path d="M1290.943,1690.86q-10.215-11.508-20.43-23.016c-6.122-6.918-3.652-11.868-2.726-20.648,1.9-18.049,1.628-36.449-1.994-54.273a131.641,131.641,0,0,0-9.42-29.084c-14.069-30.4-42.945-55.161-76.308-58.184-11.849-1.073-23.77.531-35.5,2.528q-18.063,3.075-35.885,7.395c-11.714,2.841-24.013,6.49-32.038,15.482a30.044,30.044,0,0,0-1.926,2.42,20.334,20.334,0,0,0-3.874-.047c-5.7.484-10.88,3.384-15.745,6.39-72.868,45.027-118.864,127.017-195.681,164.918a7.381,7.381,0,0,0-2.993,2.159c-1.539,2.24-.171,5.245,1.074,7.661,21.442,41.611-.983,92.834,8.562,138.661,57.1-38.618,134.6-37.855,190.1-78.74,10.644-7.842,20.345-17.141,32.1-23.192,20.559-10.581,45.428-10,67.593-3.415s42.231,18.657,62.024,30.61l37.149,22.435c2.22,1.341,4.634,2.73,7.219,2.523,6.173-.494,7.9-8.778,7.151-14.925a75.288,75.288,0,0,0-19.985-42.385,41.062,41.062,0,0,0,31.386-3.34c1.288-.714,2.641-1.631,3.015-3.055.395-1.5-.433-3.029-1.23-4.363q-4.865-8.136-9.727-16.273c10.429,3.268,25.18-.283,26.345-11.15C1299.9,1701.463,1295.276,1695.741,1290.943,1690.86Zm-63.684-64.774c-3.4,2.086-7.58-.733-10.711-3.2-21.694-17.105-49.9-22.812-76.526-30.181-6.347-1.757-12.784-3.693-18.189-7.456a34.034,34.034,0,0,1-4.612-3.9c13.439-4.127,26.975-11.843,40.844-14.707,32.035-6.614,67.039,17.959,71.7,50.335C1230.244,1620.283,1230.109,1624.336,1227.259,1626.086Z" transform="translate(58.276 -1161.329)" fill="#ffb4b8"></path><path d="M837.6,1689.905c2.827-.393,5.907-.719,8.354.749a12.062,12.062,0,0,1,3.865,4.551c9.2,15.816,13.96,33.859,16.618,51.961,6.57,44.734.791,90.542-10.41,134.347a7.127,7.127,0,0,1-4.622,5.928l-9.537,5.035c-7.2,3.8-14.87,7.714-23,7.261,3.46-1.94,4.651-6.256,5.5-10.13,4-18.161,7.582-36.54,7.821-55.133.265-20.548-3.557-40.9-7.364-61.1-2.776-14.727-5.562-29.474-9.432-43.962-1.946-7.285-4.161-14.5-6.784-21.574-2.6-7.007-7.013-11.835,2.259-13.658C819.71,1692.443,828.672,1691.144,837.6,1689.905Z" transform="translate(58.276 -1161.329)" fill="#e5c695"></path><path d="M95.4,1688.952c145.021-1.943,288.14,50.754,432.545,37.252,48.806-4.563,96.544-16.625,144.61-26.236q41.707-8.34,83.855-14.235c13.168-1.841,27.244-3.371,39.2,2.457,16.539,8.065,23.8,27.473,28.05,45.377a334.443,334.443,0,0,1-7.715,180.676c-57.707,20.356-118.568,29.9-179.026,39.345-186.379,29.115-372.882,58.246-560.623,76.645-34.125,3.344-68.7,6.321-102.568.963-5.283-.836-10.86-2.038-14.682-5.78-3.4-3.329-4.842-8.124-6.061-12.723A344.989,344.989,0,0,1-29.585,1787.6c5.015-11.422,10.791-23.269,9.717-35.7-1.246-14.416-11.441-25.5-14.615-39.209-3.55-15.339,13.778-13.707,24.98-15.139C25.306,1693.108,60.281,1689.422,95.4,1688.952Z" transform="translate(58.276 -1161.329)" fill="#555"></path><path d="M1291.995,1573a5,5,0,0,0,.772-.067c.072-.011.143-.026.214-.04a5.208,5.208,0,0,0,.568-.149c.059-.02.119-.035.177-.056a5.017,5.017,0,0,0,.685-.311c.034-.019.065-.041.1-.061a4.826,4.826,0,0,0,.533-.359c.054-.041.106-.084.159-.128a4.866,4.866,0,0,0,.425-.4c.044-.046.091-.09.133-.139a4.9,4.9,0,0,0,.453-.6l0-.007a4.942,4.942,0,0,0,.422-.834c.043-.108.069-.219.1-.328.045-.141.1-.276.134-.422l37-164a5,5,0,0,0-2.1-5.261l-58.528-39.019,3.155-21.262c5.231-35.257,10.641-71.715,8.952-108.227-.709-15.341-3.366-37.321-18.189-51.05-9.934-9.2-23.131-12.856-35.8-15.815-11.8-2.756-24.308-5.08-36.107-.693-7.4,2.755-13.428,7.847-18.743,12.34a76.02,76.02,0,0,0-11.082,10.77c-4.892,6.2-7.756,13.53-10.122,20.523-10.2,30.159-14.268,61.964-18.2,92.722l-6.334,49.591a5.1,5.1,0,0,0-.02,1.053l-63.152,13.044a5,5,0,0,0-3.983,4.656l-8.043,166.842c-32.829,20.2-60.712,48.368-87.891,75.832-33.583,33.936-68.307,69.017-111.607,87.939a96.714,96.714,0,0,0-8.6-12.851,5,5,0,0,0-4.45-1.854l-37.466,4.078c-1.439-2.747-2.909-5.478-4.445-8.177a5.01,5.01,0,0,0-4.916-2.495c-40.808,4.684-81.885,12.282-121.61,19.63-61.146,11.311-124.374,23.005-187.3,24.116-65.2,1.138-131.53-9.019-195.677-18.851-87.653-13.439-178.29-27.332-267.133-12.465-3.27.548-6.541,1.134-9.815,1.72-13.682,2.452-27.828,4.986-41.617,4.393a5.007,5.007,0,0,0-5.211,4.779,5,5,0,0,0,4.779,5.211c14.891.65,29.6-1.991,43.814-4.54,3.235-.58,6.468-1.159,9.7-1.7,87.265-14.6,177.1-.831,263.968,12.485,61.171,9.378,124.3,19.059,186.951,19.057,3.471,0,6.951-.029,10.418-.091,63.757-1.125,127.4-12.9,188.945-24.281,38.484-7.118,78.24-14.472,117.63-19.143q1.679,3.041,3.27,6.121c0,.054,0,.105,0,.159a4.958,4.958,0,0,0,1.679,3.194c32.279,64.648,37.191,142.014,12.87,210.167-68.627,22.083-141.038,34-211.087,45.528-204.98,33.734-416.938,68.616-628.159,73.73a5,5,0,0,0-4.877,5.119,5,5,0,0,0,5,4.879h.123c211.916-5.131,424.224-40.07,629.541-73.859,71.208-11.719,144.841-23.836,214.878-46.638a5,5,0,0,0,3.145-3.029c1.245-3.388,2.395-6.805,3.5-10.236a113.485,113.485,0,0,0,29.69-12.2,20.319,20.319,0,0,0,6.335-5.208,21.2,21.2,0,0,0,3.254-7.838q2.862-11.487,4.988-22.913c36.647-17.059,74.532-34.619,114.056-45.218,2.879-.771,5.772-1.508,8.664-2.246,9.509-2.423,19.342-4.928,28.741-8.712,13.757-5.538,26.267-13.676,38.365-21.549,14.26-9.278,27.73-18.042,43.089-22.946a87.819,87.819,0,0,1,11.016-2.7c-2.44,28.341-3.526,57.081-3.2,85.5.117,10.081.453,19.921,3.238,29.489,3.213,11.041,9.433,19.884,17.555,25.029a171.487,171.487,0,0,0-2.112,19.119c-3.8,52.789-11.419,106.174-18.791,157.8-7.382,51.7-15.017,105.161-18.844,158.2-.582,8.071-1.089,16.285-1.578,24.227-2.006,32.554-4.081,66.215-11.938,98.113a5,5,0,0,0,9.71,2.392c8.073-32.774,10.175-66.893,12.209-99.889.488-7.917.992-16.1,1.571-24.122,3.8-52.69,11.411-105.975,18.77-157.506,7.4-51.8,15.045-105.359,18.866-158.5.762-10.612,1.545-21.505,5.749-30.375,1.288,4.63,1.34,10.056,1.23,15.375-1.518,73.193-12.145,147.168-22.421,218.706-11.165,77.717-22.71,158.081-22.692,237.981a5,5,0,1,0,10,0c-.017-79.184,11.475-159.188,22.59-236.557,10.319-71.835,20.99-146.117,22.521-219.921q.02-.937.029-1.89c12.256-4.918,22.656-16.148,28.555-30.865,5.117-12.761,6.575-26.21,7.727-40.015,1.5-17.957,2.515-36.166,3.035-54.229,5.575,3.3,11.049,6.788,16.432,10.228,14.691,9.387,29.882,19.093,46.934,24.781,7.305,2.437,12.873,1.757,16.551-2.019,3.953-4.063,3.492-10.021,3.341-11.979-1.052-13.608-7.266-27.215-19.556-42.823-.106-.134-.217-.263-.323-.4a53.826,53.826,0,0,0,15.956.627c5.571-.618,9.308-2.769,11.106-6.4,2.116-4.267.49-8.768-.2-10.691-.9-2.506-1.934-4.939-3.063-7.314a31.269,31.269,0,0,0,4.356.319q.832,0,1.679-.049c7.389-.43,16-4.66,18.591-13.142,3.385-11.1-5.876-21.1-9.831-25.37-9.153-9.882-17.972-19.252-26.948-28a4.991,4.991,0,0,0,3.2-3.433c6.916-25.8,4.279-54.65-6.605-81.107h26.471Zm-3.3-13.049L1230.853,1523a74.943,74.943,0,0,0-13.784-9.659c-1.582-.85-3.188-1.624-4.811-2.337l18.79-166.293,92.318,61.545Zm-123.907-349.34c2.079-6.144,4.548-12.522,8.5-17.537a68.492,68.492,0,0,1,9.685-9.324c4.919-4.158,10.006-8.458,15.773-10.6,9.191-3.419,20.031-1.352,30.347,1.058,11.362,2.654,23.136,5.876,31.277,13.415,12.129,11.233,14.367,30.59,15,44.174a364.33,364.33,0,0,1-1.736,51.939c-13.508-12.819-31.857-21.936-52.445-25.917a107.343,107.343,0,0,0-40.484-.469,84.9,84.9,0,0,0-29.188,11.265C1154.526,1248.969,1158.44,1229.36,1164.783,1210.612Zm-17.749,90.784c.808-6.324,1.625-12.695,2.5-19.082.111-.077.229-.137.335-.224a72.454,72.454,0,0,1,32.7-14.919,97.387,97.387,0,0,1,36.722.464c21.048,4.069,39.434,13.933,51.77,27.775a4.914,4.914,0,0,0,1.21.96c-1.654,14.025-3.715,27.966-5.756,41.721l-2.462,16.6-34.273-22.848c-.048-.033-.1-.051-.153-.082a5,5,0,0,0-.475-.252c-.136-.065-.271-.129-.413-.181a4.911,4.911,0,0,0-.488-.146,4.723,4.723,0,0,0-.486-.105c-.067-.011-.128-.035-.2-.043-.1-.011-.194,0-.292,0a4.981,4.981,0,0,0-.5-.006,4.845,4.845,0,0,0-.513.054c-.088.013-.177.009-.264.028L1141,1348.659Zm-73.606,71.43,147.829-30.534-18.671,165.244c-14.678-4.175-30-4.1-42.6-3.388-26.33,1.491-50.2,6.332-70.957,14.39a198.589,198.589,0,0,0-23.15,10.806ZM853.5,1875.575a12.749,12.749,0,0,1-1.57,4.282,11.932,11.932,0,0,1-3.387,2.563,103.5,103.5,0,0,1-21.2,9.451A282.078,282.078,0,0,0,810.319,1698l31.006-3.375c12.763,17.141,20.07,40.7,22.314,71.89C866.173,1801.724,862.762,1838.416,853.5,1875.575Zm327.4-52.413c-1.086,13.017-2.442,25.651-7.043,37.126-4.344,10.837-11.442,19.312-19.8,23.808-.766-5.8-2.545-11.443-6.49-16.1a5,5,0,0,0-3.815-1.767h-.021a5,5,0,0,0-3.821,1.8,43.625,43.625,0,0,0-7.451,13.347c-4.8-4.009-8.543-10.074-10.7-17.479-2.432-8.356-2.731-17.45-2.84-26.809-.334-28.812.8-57.96,3.34-86.672a112.139,112.139,0,0,1,52.428,9.32c3.153,1.374,6.268,2.889,9.35,4.5C1183.586,1783.833,1182.534,1803.647,1180.905,1823.162Zm81.594-171.757a256.982,256.982,0,0,0-27.392-22.418c3.715-19.8-5.269-41.557-22.123-52.708-5.711-3.779-12-6.3-18.481-8.768-11.6-4.411-23.023-8.272-35.22-7.039a71.073,71.073,0,0,0-15.318,3.689,243.957,243.957,0,0,0-37.277,16.023,5,5,0,0,0,1.178,9.273c39.012,9.411,83.7,21.574,120.364,46.927,21.831,15.1,40.229,34.271,60.31,55.951,4.335,4.681,9.117,10.689,7.6,15.658-1.124,3.688-5.683,5.848-9.605,6.076-3.938.226-8.036-.892-12.463-2.462-9.673-14.259-22.984-26.16-36.428-37.03-16.686-13.488-36.895-28.534-60.286-37.855-24.614-9.809-50.968-12.695-76.454-15.487a5,5,0,0,0-1.089,9.942c24.822,2.718,50.49,5.529,73.841,14.834,22.151,8.827,41.6,23.325,57.7,36.343,12.08,9.766,38.643,36.646,43.381,52.138a11.655,11.655,0,0,1,.673,2.818c-.006.005-.62.639-3.27.933-7.1.782-21.141-.243-25.147-2.579-40.263-42.8-99.448-65.181-154.989-57.585a5,5,0,1,0,1.354,9.908c57.2-7.817,118.588,18.147,156.392,66.154,11.008,13.978,16.55,25.864,17.443,37.407.238,3.077-.3,3.985-.536,4.231-.537.552-2.489.755-6.222-.491-15.876-5.3-29.883-14.246-44.713-23.722-11.757-7.512-23.914-15.28-37.034-21-26.838-11.7-55.471-13.716-80.623-5.685-16.643,5.313-31.314,14.858-45.5,24.09-11.7,7.61-23.792,15.479-36.645,20.653-8.781,3.535-18.285,5.957-27.476,8.3-2.933.748-5.865,1.5-8.785,2.278-38.087,10.214-74.332,26.593-109.418,42.894a344.936,344.936,0,0,0,3.374-77.3c-1.646-22.867-5.955-41.966-13.032-57.77,44.818-19.733,80.1-55.369,114.218-89.847,35.208-35.578,71.615-72.367,117.852-90.322,19.774-7.677,42.62-12.3,67.9-13.727,15.529-.881,35.452-.761,51.781,8.013,8.392,4.509,16.392,11.585,24.457,21.631C1261.993,1575.166,1271.836,1616.4,1262.5,1651.405Zm-36.653-28.555c-32.08-20.074-68.692-31.322-102.356-39.84a233.638,233.638,0,0,1,23.644-9.364,60.756,60.756,0,0,1,13.152-3.225c10.027-1.008,20.225,2.469,30.663,6.437,6.16,2.342,11.655,4.543,16.518,7.761C1219.852,1592.813,1226.962,1608.115,1225.846,1622.85Zm26.991-73.94,22.052,14.09h-13.934A144.983,144.983,0,0,0,1252.837,1548.91Z" transform="translate(58.276 -1161.329)"></path></g></g></g></svg> 