<?xml version="1.0" encoding="UTF-8"?> <svg xmlns="http://www.w3.org/2000/svg" xmlns:xlink="http://www.w3.org/1999/xlink" viewBox="0 0 1147.344 442.241"><defs><clipPath id="clip-path" transform="translate(-4149 -1074.759)"><rect width="6237" height="2333" fill="none"></rect></clipPath></defs><g id="Layer_2" data-name="Layer 2"><g id="hand5"><g clip-path="url(#clip-path)"><path d="M4175.459,1391.79c.56,6.294,1.273,12.985,5.2,17.931,5.393,6.786,15.068,8.169,23.735,8.163,22.208-.015,43.953-5.73,65.653-10.447,54.547-11.857,110.237-17.578,165.121-27.76s109.725-25.158,157.634-53.807c5.036-3.011,10.35-6.627,12.072-12.236.98-3.193.645-6.622.3-9.944l-14.364-138.313c-.685-6.6-1.489-13.527-5.321-18.946-3.488-4.931-9.019-7.94-14.374-10.734-27.8-14.506-58.026-28.18-89.235-25.129-12.219,1.194-24.021,4.928-35.965,7.769-13.628,3.242-27.5,5.33-41.361,7.369q-94.746,13.938-189.874,25.086-23.954,2.805-47.928,5.434c-5.971.663-10.5,0-11.7,6.331-1.316,6.9,1.51,16.949,2.137,24l8.569,96.247Z" transform="translate(-4149 -1074.759)" fill="#493b37"></path><path d="M5256.153,1509.733c7.943-2.51,12.917-10.234,16.779-17.614,15.639-29.888,24.134-64.919,16.073-97.674-142.754-11.583-284.555-48.334-418.353-99.431-23.117-8.828-46.159-18.295-67.071-31.527-60.88-38.52-100.138-106.51-164.475-138.927-61.861-31.17-132.48-48.355-201.476-42.2-8.585.767-17.551,1.945-24.589,6.922s-11.288,14.953-7.144,22.511c3.759,6.859,12.414,9.073,20.142,10.276,37.725,5.872,77.175,3.956,112.839,17.585a137.75,137.75,0,0,1,74.016,67.957c3.693,7.64,6.691,15.7,7.808,24.117a57.327,57.327,0,0,1-11.568,42.395c-7.632,9.737-18.206,16.688-28.824,23.038a472.855,472.855,0,0,1-88.643,41.224c-26.176,9.014-53.081,15.707-79.761,23.1-8.279,2.294-17.522,5.469-21.059,13.3-4.621,10.225,4.128,22.437,14.826,25.822s22.245.632,33.179-1.887a747.4,747.4,0,0,1,105.305-16.462c29.112-2.442,55.3,14.293,83.221,22.885,14.586,4.488,29.406,9.016,44.664,9.314,27.046.529,53.135-12.256,80.16-11.067,25.96,1.141,49.379,14.911,72.529,26.712C4956.252,1497.147,5108.56,1506.732,5256.153,1509.733Z" transform="translate(-4149 -1074.759)" fill="#ff9062"></path><polygon points="63 95.241 354.572 55.259 386.572 64.241 405 235.241 271 282.241 244 295.241 242.381 313.194 96 334.241 63 95.241" fill="#78b1ec"></polygon><g><path d="M5291.823,1386.837a1673.942,1673.942,0,0,1-413.727-93.875c-30.788-11.248-63.119-23.993-90.266-45.075-15.093-11.721-28.522-26.089-41.511-39.983-5.358-5.733-10.9-11.661-16.512-17.359-80.744-81.968-188.487-124.673-288.208-114.235-11.282,1.181-22.934,3.328-31.729,10.979a27.977,27.977,0,0,0-9.433,19.48,20.431,20.431,0,0,0,5.418,15.28c.014.014.028.026.041.04l-252.5,30.948a5,5,0,0,0-4.365,5.482l26,249a5,5,0,0,0,2.14,3.6l16,11c.04.027.084.046.125.072.085.056.175.1.265.155a5.16,5.16,0,0,0,.477.237c.1.043.2.083.3.119a5.14,5.14,0,0,0,.525.151c.1.023.192.05.291.067a5.091,5.091,0,0,0,.818.077l.024,0h.018a4.967,4.967,0,0,0,.5-.025c.035,0,.066-.017.1-.021s.1,0,.149-.012l189.551-29.224a16.975,16.975,0,0,0,4.844,6.414c3.447,2.788,7.5,3.952,11.359,4.794,28.15,6.142,56.419-.839,83.755-7.589,23.342-5.764,47.485-11.718,70.88-9.149,17.62,1.937,34.916,8.751,51.643,15.341,20.269,7.986,41.23,16.243,63.657,16.429,14.06.117,27.855-2.972,41.209-5.958,16.636-3.72,32.347-7.232,48.163-4.939,16.281,2.361,31.45,10.963,46.12,19.282q3.054,1.731,6.1,3.44c53.75,30.023,118.3,50.926,197.335,63.9,69.551,11.419,141.223,15.459,210.535,19.367q17.014.957,33.794,1.937c.1.006.2.009.3.009a5,5,0,0,0,.291-9.991q-16.784-1-33.823-1.94c-140.376-7.912-285.533-16.093-403.556-82.017-2.013-1.124-4.024-2.266-6.041-3.409-15.474-8.775-31.475-17.848-49.617-20.48-17.637-2.559-34.994,1.323-51.781,5.077-12.8,2.863-26,5.848-38.945,5.717-20.57-.17-39.759-7.729-60.074-15.733-17.338-6.83-35.266-13.894-54.214-15.977-25.171-2.767-50.182,3.408-74.371,9.38-27.434,6.774-53.345,13.17-79.228,7.528-2.659-.58-5.372-1.321-7.2-2.8a8.125,8.125,0,0,1-2.765-5.964,15.3,15.3,0,0,1,4.137-11.063c5.409-5.587,13.953-7.941,22.272-10.234a895.707,895.707,0,0,0,146.66-54.644c13.487-6.422,27.45-14.033,38.443-24.083l.066-.059c8.649-7.924,15.451-17.363,18.713-28.934,6.423-22.786-3.518-45.638-12.989-60.8a150.834,150.834,0,0,0-17.118-22.347c-.087-.108-.184-.2-.28-.3a158.686,158.686,0,0,0-57.59-39.461c-.061-.031-.13-.048-.192-.078a152.888,152.888,0,0,0-38.723-9.857c-10.769-1.25-21.692-1.364-32.256-1.475-14.332-.15-27.869-.292-41.268-3-4.141-.835-8.743-2.074-11.484-4.932a10.549,10.549,0,0,1-2.645-7.906,18.3,18.3,0,0,1,6.006-12.388c6.7-5.829,16.556-7.567,26.207-8.578,96.733-10.122,201.414,31.487,280.042,111.307,5.521,5.606,11.017,11.485,16.332,17.17,13.255,14.181,26.962,28.844,42.683,41.053,28.283,21.965,62.818,35.555,92.967,46.569a1683.853,1683.853,0,0,0,416.2,94.436,5,5,0,1,0,.959-9.953Zm-1132.34-224.472,263.919-32.347a165.721,165.721,0,0,0,24.551,2.654l-235.965,31.765h-.007l-41.648,5.607a5,5,0,0,0-4.307,5.467l23.893,232.24-5.186-3.565Zm40.953,249.892-23.966-232.948,31.894-4.294,31.136,231.219Zm217.941-56.788c-9.11,2.51-19.438,5.356-26.744,12.9a25.568,25.568,0,0,0-6.895,15.469l-135.354,20.868-31.11-231.029,284.809-38.341a142.2,142.2,0,0,1,27.012,7.232l19.648,165.217A886.264,886.264,0,0,1,4418.377,1355.469Zm196.97-100.808a47.4,47.4,0,0,1-8.634,16.54l-8.844-77.611c1.977,2.7,3.865,5.456,5.634,8.287C4611.9,1215.322,4620.777,1235.4,4615.347,1254.661Zm-29.131-75.009,11.493,100.856c-9.844,8.508-22.247,15.194-34.258,20.913-1.384.659-2.775,1.3-4.163,1.954l-18.594-156.354A151.3,151.3,0,0,1,4586.216,1179.652Z" transform="translate(-4149 -1074.759)"></path><path d="M4559.139,1249.96c.815,7.9,2.509,16.813,8.892,23.05a8.734,8.734,0,0,0,6.031,2.774h.1a8.311,8.311,0,0,0,5-1.9c5.648-4.368,6.561-11.978,7-15.635,1.386-11.567,2.526-28.771-3.554-44.551a19.568,19.568,0,0,0-4.079-6.893,11.109,11.109,0,0,0-10.054-3.333c-7.864,1.68-9.634,12.734-9.99,19.173A173.392,173.392,0,0,0,4559.139,1249.96Zm9.334-26.761h0c.29-5.252,1.44-8.774,2.257-9.863a2.228,2.228,0,0,1,.662.471,10.849,10.849,0,0,1,1.887,3.488c4.019,10.429,4.958,23.065,2.956,39.767-.357,2.981-.877,5.925-2.144,7.784-3.362-4.077-4.424-10.282-5.005-15.912A163.471,163.471,0,0,1,4568.473,1223.2Z" transform="translate(-4149 -1074.759)"></path></g></g></g></g></svg> 