<?xml version="1.0" encoding="UTF-8"?> <svg xmlns="http://www.w3.org/2000/svg" xmlns:xlink="http://www.w3.org/1999/xlink" viewBox="0 0 727.462 849.179"><defs><clipPath id="clip-path" transform="translate(-876.362 -1587.02)"><rect width="6237" height="2333" fill="none"></rect></clipPath></defs><g id="Layer_2" data-name="Layer 2"><g id="hand4"><g clip-path="url(#clip-path)"><path d="M1247.2,2066.738a253.534,253.534,0,0,1,51.322-66.281,184.1,184.1,0,0,1,29.979-22.892c14.66-8.791,30.737-14.9,46.718-20.972,8.494-3.225,17.044-6.466,25.976-8.13,8.438-1.572,17.134-1.72,25.432-3.916s15.941-6.378,23.476-10.519,15.246-8.423,20.789-14.993c4.392-5.207,7.164-11.554,9.876-17.8l6.241-14.378,3.2-7.386c1.986-4.577,3.973-9.154,5.829-13.786q3.561-8.886,6.47-18.016c1.416-4.443,2.713-8.923,4.011-13.4l2.2-7.61,10.258-35.415c3.242-11.193,14.125-18.442,22.795-26.227a78.073,78.073,0,0,0,21.4-32.1,12.97,12.97,0,0,0,.993-6.382c-.759-4.42-5.69-7.113-10.172-6.949s-8.581,2.434-12.482,4.645c-16.69,9.46-33.424,18.948-48.9,30.287-18.938,13.877-35.817,30.4-54.751,44.282s-40.679,25.286-64.111,26.741c-3.6.224-7.36.178-10.6-1.4-8.783-4.293-9.031-16.759-6.417-26.179,8.247-29.718,31.1-53.055,43.879-81.121,1.9-4.172,3.268-9.835-.285-12.732-3.289-2.682-8.178-.787-11.868,1.309-42.945,24.394-74.38,64.416-104.669,103.428-15.039,19.369-30.124,38.806-42.529,59.959-11.311,19.285-20.321,39.876-32.16,58.841-16.209,25.966-37.4,48.391-58.439,70.623,2.2,5.7,7.291,9.135,12.787,11.8a338.549,338.549,0,0,1,82.153,56.119C1246.393,2066.9,1246.7,2067.669,1247.2,2066.738Z" transform="translate(-876.362 -1587.02)" fill="#ffb4b8"></path><path d="M1257.754,2079.761c-53.337,88.7-106.76,177.553-151.652,270.81-11,22.859-22.486,47.158-43.661,61.13-21.833,14.408-49.556,14.982-75.4,19.017-15.7,2.451-31.549,6.353-47.3,4.23-32.381-4.363-57.945-37.64-53.815-70.052,1.791-14.059,8.257-27.037,14.784-39.617A1674.1,1674.1,0,0,1,1096.944,2029c9.056-10.941,17.946-22,26.885-33.032,5.218-6.442,7-4.443,14.074-.877q9.274,4.673,18.348,9.731a497.3,497.3,0,0,1,66.885,44.754Q1241.135,2063.853,1257.754,2079.761Z" transform="translate(-876.362 -1587.02)" fill="#555"></path><path d="M1591.065,1682.632c3.273-4.651,6.657-9.6,7.149-15.263.381-4.395-1.034-8.732-2.539-12.88q-4.192-11.552-9.492-22.662c-8.124-17.025-20.078-34.585-38.468-38.791-14.026-3.208-28.571,2.229-41.207,9.11-42.5,23.141-73.53,62.415-102,101.545,3.914,11.761-4.512,23.67-11.928,33.6a349.515,349.515,0,0,0-32.117,51.938c-4.706,9.348-9.007,20.517-4.409,29.918,3.229,6.6,10.387,10.667,17.668,11.664s14.68-.689,21.6-3.154c26.637-9.486,47.6-29.908,69.269-48.074a517.53,517.53,0,0,1,82.291-56.43c4.936-2.725,8.451-3.051,13.881-3.323,4.2-.212,5.929-2.594,8.256-5.871C1576.416,1703.552,1583.718,1693.075,1591.065,1682.632Z" transform="translate(-876.362 -1587.02)" fill="#211d1f"></path><path d="M1535.3,1657.213a137.8,137.8,0,0,0-12.728,15.309c-3.48,4.864-6.643,9.952-10.226,14.741-3.792,5.067-8.037,9.776-12.275,14.476l-28.834,31.979a350.283,350.283,0,0,1-36.036-20.6,63.493,63.493,0,0,1-12.029-9.463,2.261,2.261,0,0,1-.744-1.325,2.319,2.319,0,0,1,.9-1.625c7.751-7.7,16.707-14.16,24.079-22.227,4.831-5.286,8.928-11.208,13.759-16.494,3.689-4.036,7.776-7.676,11.656-11.523,1.989-1.973,3.939-3.992,5.736-6.144,1.455-1.744,2.743-4.6,4.566-5.948,3.581-2.639,11.115,2.053,14.811,3.453q8.877,3.363,17.66,6.963Q1525.514,1652.848,1535.3,1657.213Z" transform="translate(-876.362 -1587.02)" fill="#52adea"></path><g><path d="M1422.375,1707.255l47,29a5,5,0,0,0,6.4-.981l65-75a5,5,0,0,0-1.9-7.91l-52-21a5,5,0,0,0-5.6,1.3l-60,67a5,5,0,0,0,1.1,7.591Zm64.008-65.3,42.254,17.064-57.631,66.5-38.294-23.629Z" transform="translate(-876.362 -1587.02)"></path><path d="M1603.674,1664.369a185.2,185.2,0,0,0-25.959-58.395,4.968,4.968,0,0,0-2.192-1.806,50.928,50.928,0,0,0-34.534-17.053c-19.247-1.184-36.978,8.879-50.261,17.794-1.51,1.014-3,2.064-4.489,3.1a4.945,4.945,0,0,0-.621.43,302.815,302.815,0,0,0-83.64,88.962c-3.674-1.129-7.408-.169-10.069.746-14.443,4.968-25.974,15.239-36.548,25.332-39.205,37.431-73.053,78.068-100.605,120.783-9.286,14.4-18.145,29.463-26.712,44.035-22.4,38.1-45.558,77.476-78.073,107.5l-17.811-11.158a5,5,0,0,0-6.605,1.173C1033.9,2103.98,939.119,2226.163,876.8,2365.634a5,5,0,0,0,9.13,4.08c61.2-136.971,154.327-257.609,244.756-374.19l34.865,21.842c5.811,3.641,12,7.278,18.545,11.128,25.251,14.846,53.745,31.6,68.018,53.5-78.717,126.283-140.83,239.854-189.854,347.127a5,5,0,1,0,9.1,4.156c49.182-107.622,111.622-221.659,190.887-348.628a5,5,0,0,0,.066-5.187,86.657,86.657,0,0,0-9.228-12.686c28.129-47.392,59-77.891,94.305-93.171,14.346-6.208,30.026-10.063,45.189-13.792,3.384-.832,6.765-1.664,10.136-2.52,18.915-4.807,38.758-10.8,55.73-22.053,19.181-12.712,31.868-30.927,34.807-49.974a4.95,4.95,0,0,0-.618-3.231,57.1,57.1,0,0,0,3.97-4.5c5.115-6.516,8.343-14.106,10.584-19.991,3.132-8.225,6.185-18.9,2.1-28.67.7-.96,1.4-1.92,2.079-2.894,6.784-9.668,14.57-22.642,14.56-37.275a4.969,4.969,0,0,0-.371-1.87q17.215-18.327,33.594-37.3c3.19-3.695,7.159-8.3,8.7-14.312a18.365,18.365,0,0,0-.378-10.281c14.309-17.461,28.848-35.6,36.114-57.808A5,5,0,0,0,1603.674,1664.369Zm-32.085-24.807c-1.359,2.509-2.8,4.973-4.3,7.392-23.235-10.942-46.372-22.73-68.923-35.111,2.406-1.576,4.949-3.167,7.607-4.693a4.917,4.917,0,0,0,1.24.835c21.655,9.856,43.464,20.13,64.919,30.555C1571.952,1638.882,1571.772,1639.225,1571.589,1639.562Zm-31.221-42.466a40.656,40.656,0,0,1,31.425,18.687c2.769,4.417,4.075,8.542,3.881,12.261-.018.349-.065.7-.109,1.049-19.3-9.37-38.869-18.6-58.362-27.524C1524.554,1598.533,1532.408,1596.605,1540.368,1597.1Zm-51.216,21.084c23.7,13.136,48.081,25.635,72.58,37.207-2.83,4.087-5.743,8.039-8.608,11.837a695.061,695.061,0,0,1-69.182,78.568c-4.029,3.933-8.763,8.77-14.245,14.373-15.066,15.4-33.817,34.563-49.754,46.879-.038.029-.065.066-.1.1-13.254,7.1-27.513,12.475-42.735,14.455-7.882,1.022-13.227-.033-15.882-3.141-2.431-2.846-2.875-7.775-1.32-14.651,4.4-19.468,15.657-36.018,27.572-53.539,6.7-9.853,13.628-20.041,19.225-30.8,2.854-5.489,3.64-10.645,2.481-14.688A292.754,292.754,0,0,1,1489.152,1618.18Zm69,114.567c-.888,3.468-3.4,6.567-6.583,10.26a1185.531,1185.531,0,0,1-106.142,108.142,5,5,0,1,0,6.673,7.448q32.152-28.806,62.368-60.12c-2.313,8.146-7.025,15.671-11.3,21.759a201.242,201.242,0,0,1-51.234,50.65,5,5,0,0,0,5.649,8.252,211.1,211.1,0,0,0,43.659-39.9c-.013,4.991-1.712,10.291-3.41,14.747-1.988,5.223-4.821,11.918-9.1,17.374-3.46,4.407-7.842,8.082-12.481,11.975l-.686.575c-8.76,7.358-17.5,15-25.962,22.72a5,5,0,0,0,6.737,7.391c8.13-7.412,16.512-14.749,24.922-21.829-4.477,13.173-14.449,25.5-28.347,34.712-15.728,10.424-34.608,16.108-52.669,20.7-3.346.849-6.7,1.674-10.06,2.5-15.564,3.827-31.658,7.784-46.773,14.324-36.7,15.881-68.629,46.928-97.5,94.826-16.045-15.438-37.322-27.953-56.755-39.379-6.486-3.813-12.613-7.415-18.305-10.981l-12.112-7.588c32.545-30.757,55.6-69.97,77.919-107.934,8.515-14.483,17.32-29.461,26.494-43.683,27.126-42.054,60.471-82.082,99.108-118.97,9.772-9.329,20.361-18.8,32.895-23.109,2.938-1.011,3.851-.693,4.061-.571.827.478.606,3.97-1.394,7.814-5.325,10.236-12.085,20.176-18.622,29.791-11.915,17.521-24.236,35.639-29.057,56.957-2.288,10.12-1.121,17.975,3.47,23.35,4.991,5.842,13.323,8.048,24.775,6.563,35.409-4.6,65.282-25.709,89.835-45.748,5.278-4.308,10.575-8.777,15.7-13.1,19.68-16.6,40.03-33.768,63.172-45.028,2.762-1.345,6.7-3,9.016-1.847C1558.142,1726.8,1558.8,1730.2,1558.153,1732.747Zm2.833-15.674c-.139-.076-.268-.162-.411-.233-6.193-3.085-12.793-.655-17.851,1.806-20.9,10.172-39.261,24.627-56.829,39.3,1.792-1.806,3.473-3.481,5.032-5a705.011,705.011,0,0,0,70.18-79.7c6.647-8.811,13.583-18.414,19.275-28.922a58.5,58.5,0,0,0,3.33-7.068,175.56,175.56,0,0,1,9.9,28.133C1586.981,1684.654,1574.487,1700.568,1560.986,1717.073Z" transform="translate(-876.362 -1587.02)"></path></g></g></g></g></svg> 