<?xml version="1.0" encoding="UTF-8"?> <svg xmlns="http://www.w3.org/2000/svg" xmlns:xlink="http://www.w3.org/1999/xlink" viewBox="0 0 1523.36 866.933"><defs><clipPath id="clip-path" transform="translate(-426.552 -1578.438)"><rect width="6237" height="2333" fill="none"></rect></clipPath></defs><g id="Layer_2" data-name="Layer 2"><g id="hand3"><g clip-path="url(#clip-path)"><path d="M1466.088,1901.926a495.863,495.863,0,0,1,1.784,186.064c-88.336.5-176.093,11.313-263.242,25.753-44.952,7.449-90,15.516-133.237,29.889-26.512,8.813-52.192,19.949-77.55,31.677-80.209,37.1-155.467,88.592-205.913,161.152-7.769,11.174-14.887,22.944-24.483,32.594-18.44,18.542-44.465,27.62-70.262,31.9s-52.123,4.339-78.025,7.929c-28.261-1.533-56.248-3.129-84.509-4.662-12.157-.659-24.606-1.384-35.795-6.183s-21.048-14.584-22.417-26.682c-1.832-16.2,11.148-29.766,22.186-41.764a207.591,207.591,0,0,0,22.1-28.145c6.289-9.792,11.51-20.259,18.175-29.8,8.777-12.565,19.891-23.285,30.93-33.918,54.205-52.214,108.518-104.522,167.548-151.21,23.33-18.453,44.31-40,70.643-53.832,16.821-8.837,34.568-15.907,50.932-25.564,10.807-6.378,20.934-13.839,31.567-20.5,14.459-9.062,29.81-16.621,45.389-23.584a689.213,689.213,0,0,1,128.521-42.845c22.176-5.035,44.06-8.928,66.425-13.042,16.491-3.033,33.02-6.071,49.741-7.337,22.726-1.721,45.558-.15,68.349-.268,24.919-.128,49.8-2.275,74.716-2.306,40.065-.05,80.012,5.37,120.071,4.736C1448.5,1901.837,1457.326,1902.151,1466.088,1901.926Z" transform="translate(-426.552 -1578.438)" fill="#272b33"></path><path d="M1538.737,1864.41c23.968-14,50.08-24.958,77.572-28.8,11.027-1.539,22.21-1.927,33.162-3.932,16.744-3.066,32.541-9.827,48.614-15.432,3.829-1.335,7.8-2.624,11.846-2.362s8.229,2.43,9.7,6.207c1.625,4.163-.476,8.97-3.641,12.126s-7.265,5.163-10.916,7.74c-13.587,9.592-19.986,26.131-27,41.211-6.381,13.716-13.816,26.911-21.242,40.09-6.8,12.071-13.619,24.168-21.682,35.435-6.355,8.881-13.493,17.261-18.769,26.823-9.317,16.884-12.323,36.564-12.794,55.842-6.42-2.867-13.806-.38-20.564,1.561-32.95,9.465-68.215,5.046-101.822-1.728-2.122-.428-4.353-.919-5.953-2.377-1.7-1.549-2.377-3.907-2.848-6.159-4.421-21.147,2.615-43.25-.572-64.617-1.373-9.208-4.622-18.066-5.863-27.293-1.9-14.123,2.438-24.479,13.428-32.946,12.159-9.368,24.41-18.63,37.1-27.273C1523.753,1873.585,1531.152,1868.842,1538.737,1864.41Z" transform="translate(-426.552 -1578.438)" fill="#ebccc6"></path><path d="M1742.819,1927.178c-12.687-5.726-26.627-8.172-40.5-9.252-8.638-.673-17.638-.779-25.593,2.655-4.49,1.939-8.808,5.47-9.536,10.307-.913,6.07,4.019,11.357,8.876,15.11a100.569,100.569,0,0,0,30.345,16.029c-10.985-4.284-23.249-1.07-35.011-.25-4.812.336-9.684.262-14.4,1.287s-9.389,3.331-12.032,7.367a7.416,7.416,0,0,0-1.346,5.606,8.5,8.5,0,0,0,1.847,3.32c5.679,6.986,14.456,10.534,22.844,13.805a172.931,172.931,0,0,0-37.948,4.162c-2.732.611-5.577,1.355-7.624,3.263-3.8,3.539-3.377,10.016-.39,14.262s7.841,6.733,12.6,8.8c8.581,3.733,17.676,6.685,27.032,6.88,6.132.128,12.259-.931,18.383-.58,5.542.318,11.021,1.787,16.565,1.5,7.544-.393,14.5-3.987,21.185-7.5a3.848,3.848,0,0,0,1.5-1.142c.94-1.415-.285-3.238-1.472-4.454A105.471,105.471,0,0,0,1692,1998.808c10.958-2.689,22.448-.414,33.73-.545a29.719,29.719,0,0,0,11.093-1.822c4.978-2.066,8.76-6.19,12.371-10.191,1.1-1.219,2.261-2.577,2.347-4.217.126-2.377-1.993-4.2-3.909-5.609l-14.992-11.06c11.6-4.517,24.79,1.078,36.224-3.952,5.65-2.485,6.271-6.277,2.731-10.957a78.8,78.8,0,0,0-12.231-13.028A72.549,72.549,0,0,0,1742.819,1927.178Z" transform="translate(-426.552 -1578.438)" fill="#ebccc6"></path><path d="M1801.365,1891.109a22.368,22.368,0,0,1-4.614,8.991,36.579,36.579,0,0,1-6.77,5.182c-6.5,4.388-12.7,9.949-20.437,11.188a33.239,33.239,0,0,1-8.844-.041c-3.848-.419-7.783-1.1-11.078-3.134s-5.842-5.684-5.542-9.543c.322-4.163,3.687-7.384,7-9.932,12.582-9.686,28.127-16.42,36.831-29.7,1.775-2.707,4.338-7.659,8.327-7.19,3.177.373,3.94,4.792,4.75,7.345A46.308,46.308,0,0,1,1801.365,1891.109Z" transform="translate(-426.552 -1578.438)" fill="#ebccc6"></path><path d="M1605.915,2055.493c1.5-2.815,3.054-5.725,3.294-8.9.314-4.174-1.667-8.132-2.639-12.2-2.275-9.532,1.033-19.445,4.749-28.513,21.525-52.523,58.1-98.363,75.269-152.466q9.023-5.683,17.649-11.964c5.269-3.836,10.637-8.11,13.154-14.122s1.031-14.195-4.821-17.065a93.9,93.9,0,0,1,11.762-23.851c31.978,4.274,61.945,23.606,78.39,51.363.906,1.53,1.806,3.256,1.466,5-.383,1.967-2.184,3.273-3.756,4.513a37.519,37.519,0,0,0-12.451,18.035c-.828,2.623-1.421,5.448-3.227,7.524-1.7,1.95-4.209,2.94-6.582,3.967a89.686,89.686,0,0,0-30.937,22.243c-2.218,2.465-4.436,5.633-3.549,8.828.869,3.132,4.32,4.765,6.062,7.509,2.733,4.305-.321,10.982-5.366,11.729a129.241,129.241,0,0,0-36.242-7.894c-11.632-.793-23.768.072-34.082,5.509a10.266,10.266,0,0,0-3.686,2.845c-2.821,3.909.066,9.369,3.431,12.821,10.453,10.722,25.264,15.759,39.489,20.439-4.286,2.15-9.274,2.234-14.069,2.273l-28.118.228c-9.455.077-19.662.4-27.141,6.186a4.36,4.36,0,0,0-1.4,1.552,3.6,3.6,0,0,0,.074,2.691c1.117,3.024,4.149,4.828,6.968,6.392l29.621,16.433a154.734,154.734,0,0,0-38.711-.266,41.326,41.326,0,0,0-11.538,2.672c-3.433,1.479-6.708,4.075-7.571,7.713a11.859,11.859,0,0,0,1.451,8.058c4.883,9.371,15.742,13.806,25.964,16.489a162.87,162.87,0,0,0,19.251,3.827c-5.378,2.778-10.834,5.61-15.232,9.77a61.966,61.966,0,0,1-5.674,5.349c-4.528,3.311-10.4,3.973-15.986,4.526-.643.064-1.611-.346-1.257-.887a444.353,444.353,0,0,0-28.515,57.065c-7.817,19.2-13.847,39.067-19.866,58.9-8.9,29.35-17.831,58.771-23.718,88.907-2.852,14.6-4.517,29.66-6.055,44.5-1.6,15.433-2.289,31.036-.68,46.5q.338,3.244.812,6.473c.323,2.19.7,4.374.892,6.579a5.938,5.938,0,0,1-.344,3.181,5.318,5.318,0,0,1-3.705,2.407,9.991,9.991,0,0,1-7.163-.679c-5.268-2.945-4.056-12.187-4.217-17.191q-.344-10.659-.294-21.325.1-21.327,1.757-42.609a592.928,592.928,0,0,1,37.4-165.882A580.821,580.821,0,0,1,1605.915,2055.493Z" transform="translate(-426.552 -1578.438)" fill="#252425"></path><path d="M1834.272,1639.811c11.811.607,23.109,5.707,32.4,13.022s16.716,16.762,23.026,26.765a174.1,174.1,0,0,1,16.493,33.745c14.738-22.231,26.475-46.286,38.166-70.26a4.068,4.068,0,0,0,.1-4.462l-2.9-6.556c-3.848-8.706-7.828-17.609-14.452-24.444-5.319-5.49-12.077-9.355-18.939-12.723a187.953,187.953,0,0,0-25.69-10.334c-5.511-1.757-11.226-3.273-17-2.947s-11.69,2.759-14.978,7.519a306.82,306.82,0,0,1-29.018,35.9,65.883,65.883,0,0,0-7.142,8.429c-1.021,1.534-5.027,8.033-2.91,9.491,1.9-2.061,7.819-2.058,10.515-2.441A64.322,64.322,0,0,1,1834.272,1639.811Z" transform="translate(-426.552 -1578.438)" fill="#121212"></path><path d="M1829.8,1643.892a115.1,115.1,0,0,1,18.04,3.429c13.914,4.133,26.211,13.015,35.357,24.286s15.23,24.853,18.616,38.968a16.938,16.938,0,0,1-5.784-2.221c-9.782-5.274-19.15-11.277-28.506-17.273l-29.061-18.623c-8.505-5.45-17.017-10.906-25.145-16.9-1.851-1.366-3.762-2.862-4.642-4.988-3.279-7.922,10.222-7.627,14.6-7.351C1825.457,1643.351,1827.629,1643.611,1829.8,1643.892Z" transform="translate(-426.552 -1578.438)" fill="#4a4547"></path><path d="M1872.681,1689.647c-21.481-15.546-42.983-31.106-65.409-45.276-11.1-7.011-22.412-13.679-34.019-19.811-7.776-4.109-7.918-4.721-11.887,3a68.645,68.645,0,0,1-9.689,14.16c-1.1,1.235-2.241,2.423-3.4,3.594-4.909,8.522-10.058,16.919-15.2,25.246a269.4,269.4,0,0,1-18.581,26.859,100.583,100.583,0,0,1-9.947,17.41c-4.217,5.713-9.445,10.931-11.722,17.657a45.489,45.489,0,0,0-1.8,11.391q-.958,13.289-1.916,26.577c-.447,6.2-.882,12.541.723,18.549a28.639,28.639,0,0,0,21.67,20.251,73.833,73.833,0,0,1,6.817-20.306,5.759,5.759,0,0,1,2.09-2.612,5.85,5.85,0,0,1,3.744-.268c30.453,4.722,58.378,22.761,76.187,47.911,2.075,2.93,4.083,6.13,4.323,9.713s-1.912,7.572-5.453,8.17l30.005,28.4c5.47-6.782,14.113-10.062,20.877-15.554,10.321-8.381,15.609-21.265,22.537-32.612,12.435-20.365,30.8-36.494,44.081-56.316,8.183-12.21,14.374-25.726,23.269-37.429Z" transform="translate(-426.552 -1578.438)" fill="#7d8ec1"></path><path d="M1949.855,1646.507c-3.392-22.3-14.417-41.372-30.248-52.341-5.556-3.85-11.939-6.988-20.7-10.179a80.248,80.248,0,0,0-17.3-4.537c-10.213-1.266-24.2-3-32.572,6.363-15.823,17.709-31.02,36.324-45.244,55.377l-35.025-23.35a5,5,0,0,0-6.971,1.444l-77,119a5,5,0,0,0-.8,2.822l1.2,56.6a5,5,0,0,0,2.163,4.012l11.832,8.148a102.991,102.991,0,0,0-14.831,4.868l-1.409.548c-15.256,5.93-31.031,12.062-47.028,15.864-8.614,2.047-17.6,3.491-26.287,4.885-6.15.988-12.51,2.009-18.766,3.245-24.86,4.911-58.451,24.034-76.262,35-16.837,10.363-36.16,23.771-45.489,32.361-.332-1.392-.66-2.785-1.011-4.174a5,5,0,0,0-4.545-3.767c-75.746-4.6-156.265-8.815-234.754-5.562-87.578,3.629-162.777,16.216-229.894,38.479-61.566,20.423-121.994,50.3-184.738,91.34-51.689,33.809-105.106,75.456-163.3,127.322C572.1,2220.487,475.452,2316.7,426.909,2438.52a5,5,0,1,0,9.289,3.7c47.769-119.874,143.381-215,221.34-284.48,124.8-111.224,234.278-180.061,344.535-216.635,141.3-46.875,290.759-42.688,457.222-32.649,14.2,59.232,10.3,121.447,5.054,175.821-101.5-4.352-202.256,12.792-279.024,28.314-50.775,10.264-110.143,23.758-165.487,46A576.593,576.593,0,0,0,769.5,2354.057a5,5,0,0,0,8.1,5.867c61.445-84.8,148.8-153.008,245.97-192.056,54.6-21.938,113.409-35.3,163.74-45.475,77.4-15.648,179.315-32.969,281.311-27.907a5.01,5.01,0,0,0,5.224-4.5c1.469-14.924,2.869-30.472,3.86-46.422a220.277,220.277,0,0,0,123.944-.423,24.668,24.668,0,0,0,3.089,5.242c.011.014.024.026.035.04-2,3.753-3.871,7.513-5.662,11.2a665.115,665.115,0,0,0-66.563,292.939,5,5,0,0,0,5,4.971h.029a5,5,0,0,0,4.972-5.028,655.04,655.04,0,0,1,65.557-288.51c5.292-10.885,10.044-19.817,16.034-28.02,2.2-3.013,3.1-3.018,3.105-3.023a2.755,2.755,0,0,1,1.086,2.089c.132,2.09-1,4.591-2.1,7.009-19.978,44.024-42.5,96.4-58.1,151.071-16.321,57.205-23.255,111.327-20.611,160.865a5,5,0,0,0,4.988,4.733c.09,0,.181,0,.271-.007a5,5,0,0,0,4.727-5.26c-2.585-48.429,4.225-101.449,20.241-157.587,14.024-49.152,33.774-96.551,52.15-137.6a38.737,38.737,0,0,0,39.361-21.456c2.742.141,5.552.223,8.454.228h.35c16.213,0,28.753-2.147,39.439-6.754,4.372-1.884,7-4.816,7.405-8.253.2-1.748-.042-5.119-3.99-8.061-4.115-3.067-8.37-6.238-13.615-8.549-.8-.353-1.613-.7-2.432-1.037,2.861.16,5.724.259,8.586.259a150.531,150.531,0,0,0,19.526-1.264c4.254-.556,9.156-1.385,13.5-4.172a30,30,0,0,0,6.959-6.606,13.176,13.176,0,0,0,3.371-7.12c.452-4.861-2.7-8.425-5.106-10.683a78.242,78.242,0,0,0-9.094-7.3c.4,0,.812.014,1.212.014a118.5,118.5,0,0,0,20.892-1.755c5.605-1,11.693-2.684,14.356-7.632,1.135-2.105,2.043-5.644-.069-10.545h0a22.882,22.882,0,0,0-5.889-7.6,82.389,82.389,0,0,0-21.449-13.948,60.093,60.093,0,0,0,2.831-5.427,30.948,30.948,0,0,0,7.025.75c.514,0,1.039-.01,1.572-.03a49.318,49.318,0,0,0,39.6-23,43.076,43.076,0,0,0,5.846-29.036l18.349,14.633a5,5,0,0,0,6.315-.065l30.334-25.229a5.021,5.021,0,0,0,.933-1.025l79.666-116.773a5,5,0,0,0-1.357-6.977l-29.664-19.777a346.229,346.229,0,0,1,35.868-63.892A5,5,0,0,0,1949.855,1646.507Zm-471.577,386.784c1.833-37,1.09-75.9-6.426-114.122a5,5,0,0,0,1.041-2.136c2.741-3.679,19.6-17.346,46.376-33.876,29.574-18.259,56.381-30.675,73.549-34.066,6.08-1.2,12.35-2.208,18.414-3.182,8.868-1.425,18.039-2.9,27.014-5.03,16.666-3.961,32.767-10.22,48.338-16.273l1.408-.546c7.048-2.739,15.042-5.845,22.645-5.251,2.13.165,3.031.607,3.414.949,1.392,1.248.087,5.59-2.792,9.29-15.976,20.54-41.493,32.484-61.938,40.6-5.381,2.134-10.929,4.218-16.295,6.233-18.771,7.051-38.181,14.341-55.422,25.6a5,5,0,0,0,5.467,8.373c16.32-10.654,35.207-17.747,53.471-24.608,5.408-2.03,11-4.131,16.466-6.3a260.564,260.564,0,0,0,25.9-11.731c-7.589,16.175-15.568,32.465-24.607,47.865-4.875,8.307-10.228,16.656-15.4,24.732-15.263,23.811-31.045,48.433-37.821,76.577a55.549,55.549,0,0,0-1.741,17.009A210.229,210.229,0,0,1,1478.278,2033.291Zm169.18,12.121a28.92,28.92,0,0,1-13.181,3.1c.351-.775.707-1.567,1.056-2.337,1.454-3.2,3.263-7.191,2.974-11.772a13.019,13.019,0,0,0-.69-3.373,101.526,101.526,0,0,0,20.665,4.788A28.939,28.939,0,0,1,1647.458,2045.412Zm66.209-24.379-.131.058c-9.463,4.079-20.852,5.977-35.811,5.936-18.4-.035-33.074-2.924-44.853-8.833-3.177-1.592-7.033-4.126-7.36-7.148-.189-1.746.947-3.892,2.828-5.339s4.555-2.459,8.37-3.145A58.112,58.112,0,0,1,1647,2001.7a116.55,116.55,0,0,1,23.658,2.958c13.2,2.771,23.556,5.917,32.6,9.9A54.7,54.7,0,0,1,1713.667,2021.033Zm33.186-36.514a6.064,6.064,0,0,1-1.187,1.776,21.042,21.042,0,0,1-4.587,4.483c-2.609,1.674-6.222,2.258-9.4,2.674a142.79,142.79,0,0,1-56.069-3.906c-9.991-2.76-17.224-6.079-22.76-10.446-2.486-1.961-3.853-3.857-3.751-5.2.106-1.4,2.07-3.132,4.774-4.2a23.334,23.334,0,0,1,6.949-1.585c.637-.045,1.28-.065,1.931-.065,2.208,0,4.5.229,6.891.468,1.1.11,2.206.22,3.31.309,5.322.431,10.639.379,15.811.328l18.083-.178c1.65-.017,3.339-.1,4.972-.188a49.264,49.264,0,0,1,9.807.123c6.961,1.135,15.647,6.06,23.237,13.176C1746.7,1983.807,1746.839,1984.51,1746.853,1984.519Zm22.961-33a3.641,3.641,0,0,1,.45,1.846c-.062.137-.8,1.369-7.306,2.528-13.325,2.373-28.3,2.113-47.13-.82-13.87-2.16-30.99-6.131-40.339-17.75-1.986-2.468-3.4-5.8-2.262-7.4a9.034,9.034,0,0,1,3.081-2.078c6.212-2.917,13.225-3.854,20.041-3.854a108.62,108.62,0,0,1,14.727,1.158c24.27,3.341,42.867,10.805,55.274,22.184A14.149,14.149,0,0,1,1769.814,1951.523Zm-57.375-36.277c-11.817-1.627-27.087-2.694-40.381,3.55a17.189,17.189,0,0,0-6.976,5.329c-3.78,5.308-2.778,12.769,2.616,19.472,6,7.463,14.18,12.277,22.845,15.534l-1.908.019c-5.147.05-10.007.1-14.878-.3-1.041-.084-2.081-.188-3.122-.292a60.889,60.889,0,0,0-10.527-.427,33.365,33.365,0,0,0-9.922,2.262c-6.519,2.584-10.654,7.35-11.062,12.748-.256,3.386.841,8.53,7.529,13.806a54.284,54.284,0,0,0,7.735,5.062,74.975,74.975,0,0,0-19.448.707c-3.431.617-8.481,1.813-12.7,5.063-4.682,3.6-7.238,9.1-6.67,14.34.484,4.466,2.986,8.4,7.447,11.736-3.558,1.568-5.9,4.759-6.958,6.21-1.967,2.695-3.8,5.484-5.549,8.317-1.822-4.817-1.727-11.3.287-19.664,6.381-26.5,21.7-50.407,36.516-73.521,5.229-8.156,10.635-16.59,15.609-25.065,11.778-20.069,21.7-41.4,31.268-62.073a108.734,108.734,0,0,0,24.963-22.875c5.54-7.122,8.175-16.958,1.574-22.876a12.634,12.634,0,0,0-4.459-2.53l7.844-17.213c30.9,4.826,58.757,23.818,74.04,50.49a268.474,268.474,0,0,0-20.752,27.857,117.954,117.954,0,0,0-26.084,15.306c-10.983,8.54-12.027,16.293-10.969,21.293a16.069,16.069,0,0,0,5.193,8.615,50.14,50.14,0,0,1-3.27,6.107A152.176,152.176,0,0,0,1712.439,1915.246Zm81.751-22.208a39.73,39.73,0,0,1-31.473,18.281,18.361,18.361,0,0,1-8.447-1.3,7.163,7.163,0,0,1-4.14-4.574c-.89-4.209,4.207-8.9,7.325-11.328a108,108,0,0,1,37.029-18.631,4.989,4.989,0,0,0-1.4-9.8q1.182-1.623,2.389-3.227C1801.3,1871.627,1799.407,1884.631,1794.19,1893.038Zm35.744-19.486-26.529-21.156c1.489-1.814,3.02-3.648,4.6-5.522a5,5,0,0,0,.6-5.557c-16.947-32.118-50.248-54.792-86.906-59.173a5,5,0,0,0-5.143,2.891l-8.549,18.758-12.859-8.856-1.017-47.8L1852.6,1854.7Zm29.484-26.311-162.037-109.989,70.063-108.28,165.577,110.384Zm-45.118-199.05a53.607,53.607,0,0,1,21.644-2.032,63.145,63.145,0,0,1,18.507,5.229c21.438,9.557,37.891,29.7,43.39,52.5Zm93.331,53.665c-6.154-25.874-24.793-48.762-49.109-59.6a73,73,0,0,0-21.452-6.031,63.471,63.471,0,0,0-17.289.44c11.709-15.154,24.011-29.966,36.718-44.186,4.88-5.461,15.418-4.155,23.884-3.1a70.824,70.824,0,0,1,15.1,4.01c7.92,2.885,13.6,5.661,18.425,9,13.121,9.091,22.431,24.922,25.733,43.65A351,351,0,0,0,1907.631,1701.856Z" transform="translate(-426.552 -1578.438)"></path></g></g></g></svg> 