<?xml version="1.0" encoding="UTF-8"?> <svg xmlns="http://www.w3.org/2000/svg" xmlns:xlink="http://www.w3.org/1999/xlink" viewBox="0 0 952.06 928.47"><defs><clipPath id="clip-path" transform="translate(-4163.895 -1508.046)"><rect width="6237" height="2333" fill="none"></rect></clipPath></defs><g id="Layer_2" data-name="Layer 2"><g id="hand7"><g clip-path="url(#clip-path)"><path d="M4378.6,2065.272c14.207-12.764,12.12-35.2,8.877-54.018l-44.907-260.621a13.053,13.053,0,0,0-6.8-10.822l-51.569-37.839c-5.868-4.306-12.223-9.4-13.2-16.61-1.605-11.9,12.375-20.064,24.362-20.723a56.067,56.067,0,0,1,36.4,11.054c3.771-20.176-10.719-40.126-8.223-60.5.765-6.243,3.106-12.187,4.238-18.375,4.712-25.752-11.757-50.288-28.678-70.264l1.285,7.9c-19.5-22.288-54.546-30.6-82.267-20.175s-47.834,38.032-50.289,67.546a82.271,82.271,0,0,0,8.385,43.421c6.935,13.839,17.638,25.423,25.564,38.72,7.528,12.629,12.441,26.61,17.3,40.485l21.216,60.523c.948,2.7,1.957,5.507,3.988,7.527a16.878,16.878,0,0,0,7.068,3.693c9.248,2.888,19.006,3.833,28.294,6.589s18.524,7.8,23.127,16.322c1.409,2.608,2.261,6.031.457,8.382a8.77,8.77,0,0,1-4.2,2.543,82.39,82.39,0,0,1-42.153,3.462c-1.807,7.366,4.251,14.65,11.224,17.634s14.8,3.045,22.229,4.561a57.552,57.552,0,0,1,32.378,19.326c2.8,3.346,5.316,7.457,4.739,11.778-.958,7.163-9.407,10.451-16.573,11.39a87.7,87.7,0,0,1-26.548-.582,63.7,63.7,0,0,0,4.532,21.357,72.294,72.294,0,0,1,30.354,11.264c4.087,2.69,8.348,7.1,6.88,11.771-1.1,3.5-4.937,5.258-8.418,6.426a113.4,113.4,0,0,1-18.171,4.469c17.36,26.241,19.388,61.714,34.211,91.289,4.923,9.821,8.189,20.382,12.785,30.36,2.445,5.308,6.121,11.447,11.966,11.406,7.222,29.831,13.909,58.271,15.062,88.943.52,13.834-.209,27.681-.742,41.515-.938,24.344-1.269,48.707-1.6,73.067l-1.744,128.213c-.076,5.546-.1,11.326,2.311,16.32a5.265,5.265,0,0,0,2.641,2.872c3.161,1.154,5.527-2.968,6.343-6.233a367.14,367.14,0,0,0,10.235-65.981c2.627-41.793-1.91-83.825,1.332-125.576.7-8.964,1.751-17.908,2.01-26.9.4-13.926-1.108-27.832-2.811-41.66C4387.946,2121.645,4383.843,2093.894,4378.6,2065.272Z" transform="translate(-4163.895 -1508.046)" fill="#56322e"></path><path d="M4232.367,1623.327c14.93-7.364,30.711-13.455,47.238-15.462s33.938.324,48.238,8.848c-1.561-10.3,5.091-21.016,1.761-30.884-1.73-5.127-5.912-9.041-10.32-12.18-16.209-11.541-36.9-15.255-56.784-14.624-10.45.332-20.966,1.8-30.711,5.589-9.49,3.688-18.04,9.494-25.777,16.112-9.874,8.446-18.618,18.383-24.663,29.886-1.867,3.552-3.5,7.394-3.421,11.406.09,4.352,2.179,8.379,4.218,12.224,3.092,5.83,6.353,11.86,11.661,15.78a8.144,8.144,0,0,0,4.421,1.862c3.755.121,4.7-5.063,6.473-7.623a45.5,45.5,0,0,1,7.661-8.389C4218.335,1630.7,4225.311,1626.807,4232.367,1623.327Z" transform="translate(-4163.895 -1508.046)" fill="#f4b3a7"></path><path d="M4325.951,1986.373a73.478,73.478,0,0,1,8.891-3.147c5.559-1.875,10.809-4.616,16.437-6.27,8.8-2.588,18.214-2.417,27.283-1.029a3.316,3.316,0,0,1,1.673.584,3.388,3.388,0,0,1,.9,2.188q3.207,21.432,6.413,42.863c-.862-1.853-3.1-2.549-5.094-2.982a49.1,49.1,0,0,0-10.132-1.283c-7.08-.034-14.022,2.212-20.316,5.457s-12.018,7.472-17.712,11.679a259.374,259.374,0,0,0-8.338-27.593c-1.581-4.345-3.9-8.658-5.185-13.077C4319.661,1989.977,4322.676,1987.97,4325.951,1986.373Z" transform="translate(-4163.895 -1508.046)" fill="#60a4dd"></path><path d="M4387.064,2006.863c15.5,2.44,30.546,7,45.73,11a697.121,697.121,0,0,0,170.834-25.117c-3.225.894-17.482-45.5-18.694-50.016a285.881,285.881,0,0,1-7.723-108.121q.831-6.843,2-13.64c.685-3.983,2.685-8.948,2.517-12.943-.306-7.274-12.771-4.776-18.163-5.813-19.037-3.663-35.848-15.249-49.823-28.222-18.612-17.278-34.348-37.934-55.488-52.006-13.209-8.794-28.086-14.706-42.88-20.445-35.063-13.6-70.64-26.669-107.768-32.665-7.725-1.247-15.93-2.131-23.135.919s-12.753,11.384-10.061,18.731c1.1,3.013,3.375,5.426,5.59,7.748,14.1,14.791,28.35,29.7,45.279,41.154,5.86,3.963,12.193,7.658,16.213,13.479,2.948,4.269,4.416,9.363,5.719,14.384,10.625,40.942,13.338,83.441,18.58,125.412a1038.234,1038.234,0,0,0,21.226,115.954C4387.03,2006.727,4387.048,2006.8,4387.064,2006.863Z" transform="translate(-4163.895 -1508.046)" fill="#ffc09e"></path><path d="M4319.818,1993.043a360.427,360.427,0,0,1-19.468-61.317,169.235,169.235,0,0,0,17.839-5.35,15.262,15.262,0,0,0,5.684-3.073c4.018-3.938,2.589-11.188-1.553-15s-10.015-4.983-15.6-5.658-11.4-1.058-16.344-3.738a5.426,5.426,0,0,1-2.648-2.516,7.371,7.371,0,0,1-.1-3.514,21.223,21.223,0,0,0-2.109-11.665,92.481,92.481,0,0,0,35.026-12.052,5.92,5.92,0,0,0,2.686-2.519c.778-1.856-.418-3.92-1.679-5.49-5.066-6.31-11.9-10.937-18.78-15.19a307.169,307.169,0,0,0-41.126-21.3l.223-11.678a49.4,49.4,0,0,0,41.421-9.417,6.439,6.439,0,0,0,2.492-3.16,5.8,5.8,0,0,0-.308-3.2c-3.793-11.7-17.588-16.528-29.739-18.456s-25.737-3.206-33.915-12.4c-3.6-4.045-5.674-9.185-7.681-14.214q-14.777-37.036-29.554-74.072c-4.719-11.827-17.3-20.242-25.64-29.862-1.643-1.895-4.027-3.984-6.332-3-1.829.783-2.393,3.069-2.61,5.047-1.509,13.713,2.333,27.5,7.729,40.194,5.537,13.029,12.715,25.286,19.915,37.475,9.956,16.854,20.826,34.469,38.127,43.626a40.886,40.886,0,0,0-34.323,15.163c-2.217,2.8-4.1,6.04-4.439,9.6-.59,6.211,3.545,11.8,7.724,16.435a156.524,156.524,0,0,0,15.878,15.28c-3.884-2.476-9.374-.45-12.133,3.237s-3.433,8.5-3.775,13.09c-.524,7.035-.462,14.258,1.8,20.939,5.045,14.908,19.663,24.062,33.253,32a28.551,28.551,0,0,0-16.438,23.906c-.313,6.852,2,13.582,5.129,19.689a75.856,75.856,0,0,0,28.058,30.139c10.167,6.157,21.625,9.82,32.286,15.077,4.582,2.258,9.07,4.833,14.01,6.133C4309,1993.872,4313.43,1993.526,4319.818,1993.043Z" transform="translate(-4163.895 -1508.046)" fill="#ffc09e"></path><path d="M5025.927,1813.853c20.194,38.1,31.583,80.133,42.815,121.765l43.344,160.651a3010.015,3010.015,0,0,0-489.049-82.716c-5.625-.48-11.609-1.079-16.039-4.578-3.05-2.408-4.992-5.922-6.749-9.388-24.918-49.155-28.148-106.683-22.421-161.495,2.053-19.642,5.841-40.541,19.623-54.686,23.356-2.1,45.353,7.241,68.8,7.19,11.311-.024,22.525-1.9,33.782-3,47.012-4.6,94.142,4.345,141.23,8.084C4903.453,1800.618,4966.876,1793.739,5025.927,1813.853Z" transform="translate(-4163.895 -1508.046)" fill="#e1a499"></path><path d="M5112.267,2091.7c-67.928-18.5-135.992-31.115-199.426-42-115.4-19.795-211.086-34.036-300.852-44.77a307.633,307.633,0,0,1-30.184-159.742c1.406-17.386,4.7-39.173,17.654-55.15,46.6.817,91.566,3.278,139.129,5.881l96.931,5.292c62.447,3.41,127.019,6.935,189.219,19.6a5,5,0,1,0,1.994-9.8c-62.917-12.807-127.862-16.353-190.669-19.781l-96.929-5.293c-48.467-2.653-94.245-5.158-141.881-5.934h-.081a5,5,0,0,0-3.754,1.7,72.412,72.412,0,0,0-11.622,18.422c-18-3.328-36.478-6.948-51.942-16.606-11.821-7.382-21.13-17.768-30.988-28.765-5.348-5.966-10.879-12.136-16.84-17.768-24.7-23.34-56.964-37.376-85.266-48.029-19.335-7.277-39.141-13.865-59.044-19.671-1.173-8.52-2.4-17.025-3.592-25.281-1.175-8.134-2.382-16.51-3.536-24.89a4.991,4.991,0,0,0,.869-1.763c6.272-23.572,3.268-47.9-8.239-66.741a84.65,84.65,0,0,0-21.027-22.946c-19.292-14.774-43.578-21.717-66.635-19.054-24.316,2.81-46.427,16.317-59.147,36.13-14.1,21.963-16.466,52.312-6.182,79.2a71.784,71.784,0,0,0,10.625,19.218c-3.835-2.167-6.832-1.769-8.739-.974-2.734,1.137-4.641,3.576-5.669,7.248a40.07,40.07,0,0,0-1.163,11.954c.743,22.914,11.772,43.728,21.3,59.3,13.75,22.477,27.495,38.375,42.751,49.356a69.171,69.171,0,0,0-24.6,9.35,25.888,25.888,0,0,0-6.863,5.733,22.213,22.213,0,0,0-4.141,9.308,29.252,29.252,0,0,0,.289,13.713c2.447,8.97,9.233,15.493,16.211,20.421a21.931,21.931,0,0,0-5.128,4.3c-5.5,6.363-6.9,15.87-4.046,27.492a52.779,52.779,0,0,0,5.632,14.462c5.967,10.086,16,16.837,24.682,22.248-.161.084-.326.161-.486.247a28.059,28.059,0,0,0-9.591,7.734c-4.341,5.926-5.27,14.179-2.687,23.868,3.352,12.57,10.782,24.363,21.488,34.1,5.993,5.451,12.991,10.342,22.69,15.862,19.067,10.851,37.944,18.069,56.122,21.474q7.053,19.263,14.415,38.3c2.864,7.406,6.429,16.624,12.858,23.77a34.9,34.9,0,0,0,7.062,6.027c.024.089.031.179.061.268,11.484,34.138,12.032,71.005,12.562,106.658,1.082,72.882,2.2,148.245-.547,222.285a5,5,0,0,0,4.811,5.182c.063,0,.126,0,.188,0a5,5,0,0,0,4.994-4.815c2.758-74.3,1.637-149.8.552-222.805-.5-33.909-1.028-68.893-10.768-102.3a24.888,24.888,0,0,0,3.261.224,23.109,23.109,0,0,0,5.273-.6c.275-.065.544-.154.816-.229,9.052,37.756,11.455,76.989,12.659,113.865a1831.35,1831.35,0,0,1-8.468,244.817,5,5,0,0,0,4.467,5.482,4.923,4.923,0,0,0,.513.026,5,5,0,0,0,4.969-4.493,1841.358,1841.358,0,0,0,8.513-246.158c-1.247-38.224-3.767-78.995-13.535-118.4a32.307,32.307,0,0,0,10.44-18c2.107-9.806.454-19.762-1-28.546l-.808-4.865c22.316,1.572,45.362,2.911,68.634,2.911a475.356,475.356,0,0,0,49.592-2.4c15.512-1.627,31.086-4.211,46.156-6.712l43.286-7.186q2.115,4.6,4.375,9.14a5,5,0,0,0,3.883,2.732c90.369,10.751,186.66,25.056,303.034,45.018,63.19,10.839,130.97,23.4,198.491,41.788a5,5,0,0,0,2.627-9.649ZM4276.89,1702.376a207.785,207.785,0,0,0,34.979,29.131c4.505,2.98,9.165,5.807,13.672,8.541,3.956,2.4,7.979,4.841,11.917,7.4l36.785,221.571a65.08,65.08,0,0,0-50.864,14.337q-8.467-23.584-16.376-47.255c4.688-1.124,9.1-2.446,13.085-3.734,2.966-.959,10.844-3.507,12.668-10.706a13.2,13.2,0,0,0-3.21-11.788,25.69,25.69,0,0,0-7.867-5.675,120.39,120.39,0,0,0-30.407-10.583,50.854,50.854,0,0,1-2.89-10.117,93.326,93.326,0,0,0,14.306-.729,132.448,132.448,0,0,0,14.578-3.13c3.119-.8,8.923-2.276,11.75-7.321,2.745-4.9,1.583-11.374-3.034-16.887-3.567-4.26-8.022-7.278-11.92-9.773-14.31-9.158-28.789-15.72-43.034-19.5-1.359-.361-2.72-.688-4.083-1a4.958,4.958,0,0,0-.12-1.878l-.948-3.606c2.626-.1,5.262-.308,7.908-.669,9.906-1.351,19.236-4.654,28.257-7.85,5.423-1.92,8.356-4.938,8.72-8.971a11.033,11.033,0,0,0-2.3-7.165c-4.215-6.07-10.363-11.084-18.274-14.9-6.845-3.3-14.21-5.326-21.148-7.017a139.861,139.861,0,0,0-21.1-3.773c-.039-.113-.059-.228-.107-.34-16.6-38.544-31.668-78.3-44.787-118.206a26.449,26.449,0,0,1,3.966-6.512c8.317-10.852,20.421-19.514,35-25.05,12.7-4.822,27.014-7.319,43.769-7.635,9.915-.184,24.055.4,34.672,7.311,1.224,8.938,2.515,17.872,3.767,26.533.986,6.829,2,13.829,2.979,20.858-.839-.233-1.678-.475-2.518-.7-14.806-4.055-31.852-7.767-46.79-.493-4.464,2.174-7.682,5-9.563,8.389C4263.794,1681.668,4266.832,1691.932,4276.89,1702.376Zm50.167,291.132a54.6,54.6,0,0,1,48.925-14.009l5.364,32.3a55.293,55.293,0,0,0-42.673,12.881Q4332.763,2009.175,4327.057,1993.508Zm-3.691-410.033a5.014,5.014,0,0,0,.8.762,81.923,81.923,0,0,1-1.042,24.611c-12.377-6.83-27.05-7.461-37.527-7.261-17.923.339-33.339,3.048-47.129,8.283-16.321,6.2-29.942,15.988-39.392,28.317a45.39,45.39,0,0,0-3.663,5.428c-6.18-4.716-11.28-11.972-15.206-21.634.045-.07.1-.133.137-.206,12.583-22.136,31.264-39.574,52.605-49.1,22.933-10.235,48.607-11.176,70.437-2.578C4312.119,1573.536,4318.84,1578.037,4323.366,1583.475Zm-129.866,70.9c.085.05.174.086.26.131.389,1.182.79,2.362,1.183,3.544-1.1-1.692-2.255-3.36-3.49-4.974C4192.125,1653.528,4192.806,1653.965,4193.5,1654.375Zm-8.675-104.238c11.116-17.317,30.51-29.129,51.879-31.6,20.5-2.369,42.154,3.848,59.407,17.06a74.711,74.711,0,0,1,18.572,20.218,65.4,65.4,0,0,1,5.613,11.773,70.929,70.929,0,0,0-13.243-6.8c-24.314-9.574-52.808-8.571-78.177,2.752-20.817,9.291-39.257,25.427-52.674,45.886C4171.239,1588.5,4174.271,1566.58,4184.825,1550.137Zm10.284,165.33c-8.883-14.525-19.166-33.834-19.834-54.409a29.17,29.17,0,0,1,.8-8.937c.015-.055.03-.107.045-.157q.162.1.354.231c5.456,3.743,9.15,9.71,13.062,16.027,3.436,5.549,6.989,11.287,12.026,15.971a4.97,4.97,0,0,0,2.8,1.289c8.987,25.314,18.711,50.453,29.075,75.152C4219.964,1750.485,4207.607,1735.9,4195.109,1715.467Zm26.331,108.465c-7.547-4.555-15.562-10.306-17.775-18.419a19.219,19.219,0,0,1-.154-9,12.423,12.423,0,0,1,2.188-5.164,16.96,16.96,0,0,1,4.305-3.457,59.172,59.172,0,0,1,29.859-8.866c9.075-.213,18.25,1.705,26.811,3.792,7.4,1.806,13.495,3.569,19.17,6.309,6.34,3.061,11.186,6.964,14.4,11.6.07.1.131.19.186.273a12.832,12.832,0,0,1-1.731.734c-8.546,3.026-17.382,6.156-26.27,7.368-13.727,1.873-27.928-.7-41.662-3.18a5,5,0,0,0-1.779,9.84,235.365,235.365,0,0,0,26.5,3.747l.987,3.75a103.836,103.836,0,0,0-33.122.663c-.487.092-1,.2-1.523.308A4.869,4.869,0,0,0,4221.44,1823.932Zm17.61,66.133c-8.662-5.351-18.481-11.417-23.757-20.336a43.049,43.049,0,0,1-4.527-11.756c-1.429-5.815-2.259-13.756,1.9-18.564,2.35-2.716,6.223-4.463,12.558-5.666,13.509-2.56,28.463-1.843,43.24,2.081,13.244,3.516,26.772,9.659,40.209,18.258,3.272,2.095,6.985,4.6,9.643,7.771,1.744,2.081,2.592,4.481,1.976,5.582-.728,1.3-3.829,2.091-5.495,2.516a124.575,124.575,0,0,1-13.477,2.914,96.529,96.529,0,0,1-17.05.5,219.14,219.14,0,0,1-42.773-6.128,5,5,0,1,0-2.389,9.711,229.138,229.138,0,0,0,39.084,6.092,60.945,60.945,0,0,0,1.831,8.6c-1.715-.243-3.45-.471-5.22-.672-7-.8-16.225-1.508-25.506.058a60.45,60.45,0,0,0-8.071,1.952A4.968,4.968,0,0,0,4239.05,1890.065Zm28.679,80.126c-9.034-5.139-15.482-9.632-20.908-14.568-9.281-8.444-15.7-18.569-18.553-29.281-1.014-3.8-2.221-10.861,1.091-15.383,1.241-1.693,3.164-3.181,6.238-4.823a50.212,50.212,0,0,1,15.362-5.245c8.049-1.358,16.366-.7,22.714.015,17.1,1.942,31.306,5.925,43.418,12.179a16.548,16.548,0,0,1,4.923,3.368,3.6,3.6,0,0,1,1.048,2.754c-.212.84-1.435,2.154-6.051,3.647-11.574,3.745-25.247,7.355-38.871,5.762a5,5,0,1,0-1.162,9.932,76.908,76.908,0,0,0,20.127-.505q8.555,25.631,17.79,51.261C4299.607,1985.736,4283.773,1979.322,4267.729,1970.191Zm116.495,77.175c-1.4,6.516-5.927,13.821-12.881,15.452-5.7,1.343-12.66-1.439-17.731-7.077-5.2-5.778-8.262-13.7-10.966-20.688-.032-.083-.063-.167-.095-.25a44.658,44.658,0,0,1,40.528-12.563l.053.321C4384.509,2030.85,4385.932,2039.422,4384.224,2047.366Zm170.7-47.379c-14.916,2.476-30.34,5.035-45.553,6.632-39.856,4.18-80.485,2.032-118.867-.706l-41.549-250.265c8.409,6.719,16.575,15.342,24.966,26.361a238.723,238.723,0,0,1,48.008,131.017,5,5,0,0,0,4.989,4.743c.087,0,.174,0,.262-.007a5,5,0,0,0,4.735-5.251,248.816,248.816,0,0,0-50.038-136.561c-8.907-11.7-17.648-20.9-26.721-28.148-2.848-2.274-5.8-4.406-8.8-6.443a4.987,4.987,0,0,0-4.3-2.84c-3.77-2.429-7.577-4.746-11.327-7.021-4.424-2.684-9-5.459-13.341-8.331a197.8,197.8,0,0,1-33.294-27.727c-3.149-3.269-10.134-11.482-7.011-17.113.865-1.561,2.613-2.99,5.195-4.248,11.815-5.752,26.725-2.424,39.772,1.148q4.309,1.179,8.618,2.412a4.952,4.952,0,0,0,2.468.718c20.259,5.86,40.428,12.548,60.1,19.953,27.37,10.3,58.508,23.815,81.921,45.938,5.659,5.347,11.049,11.359,16.261,17.174,9.889,11.032,20.114,22.439,33.137,30.572,16.462,10.281,35.958,14.335,53.608,17.621-3.98,12.293-5.519,24.771-6.327,34.768a317.606,317.606,0,0,0,23.863,148.836Z" transform="translate(-4163.895 -1508.046)"></path></g></g></g></svg> 