<?xml version="1.0" encoding="UTF-8"?> <svg xmlns="http://www.w3.org/2000/svg" id="Layer_2" data-name="Layer 2" viewBox="0 0 2492.64 2492.64"><defs><style> .cls-1 { fill: #cafafa; stroke-width: 79px; } .cls-1, .cls-2, .cls-3 { stroke: #363436; stroke-miterlimit: 10; } .cls-2, .cls-3 { fill: #77c26a; stroke-width: 20px; } .cls-3 { fill-rule: evenodd; } </style></defs><g id="Layer_1-2" data-name="Layer 1"><g><circle class="cls-1" cx="1246.32" cy="1246.32" r="1206.82"></circle><g><path class="cls-2" d="m965.33,557.52c-20.91-3.17-22.18-3.8-12.04-5.07,19.01-3.17,64,1.27,94.42,8.24,72.24,17.11,137.51,60.83,207.84,138.14l18.38,20.28,26.61-4.44c112.16-17.74,226.22-3.8,321.27,39.92,25.98,12.04,67.8,36.12,72.87,42.46,1.9,1.9,4.44,14.57,6.97,27.88,6.97,46.89,3.8,82.38-10.77,108.99-7.6,14.57-8.24,19.01-3.17,31.68,4.44,10.14,15.84,17.11,27.25,17.11,23.45,0,49.43-38.02,60.83-91.25l4.44-20.91,9.51,10.77c50.69,57.66,91.25,135.61,98.22,191.37l1.9,14.57-8.87-13.31c-14.57-22.81-29.78-38.02-48.79-50.69-34.22-22.81-70.34-30.42-166.02-35.49-86.81-4.44-135.61-12.04-184.4-27.88-82.38-26.61-124.2-62.73-222.42-190.74-43.72-57.03-70.34-88.08-97.59-113.43-60.2-56.4-119.76-86.81-196.44-98.22Z"></path><path class="cls-2" d="m1714.33,684.25c1.9-38.02,7.6-63.37,17.74-86.18,4.44-8.87,8.24-16.48,8.87-16.48s-1.27,6.97-3.8,15.21c-7.6,22.18-8.87,52.59-3.8,88.08,6.34,44.99,10.14,51.33,58.3,100.12,22.18,22.81,48.79,51.33,57.66,64l17.11,22.18-17.11-15.84c-20.91-19.64-69.7-57.66-79.84-63.37-6.97-3.8-8.24-3.8-12.67.63-3.8,3.8-5.07,10.14-5.7,38.65-.63,44.36-6.97,73.51-21.54,102.02-8.24,15.21-9.51,12.04-1.9-5.07,5.07-13.31,5.7-19.01,5.7-62.1,0-86.81-10.14-107.72-70.97-143.21-15.21-8.87-40.55-22.18-56.4-29.15-15.84-6.97-27.88-12.67-27.25-13.31,1.9-1.9,60.83,15.21,84.91,24.71,35.49,13.31,41.19,15.21,45.62,13.94,1.9-1.9,3.8-10.14,5.07-34.85Z"></path><path class="cls-2" d="m1005.89,832.53c-42.46-58.3-69.07-148.28-63.37-214.81l1.9-20.91,9.51,1.9c18.38,3.17,49.43,15.21,64.63,24.08,40.55,24.71,57.66,56.4,76.04,138.77,5.07,24.08,12.04,51.33,15.21,60.83,5.07,15.21,24.08,49.43,39.92,72.24,11.41,16.48,3.8,24.08-20.91,21.54-38.65-3.17-89.98-38.02-122.93-83.64Z"></path><path class="cls-2" d="m1662.37,1267.23c-199.61-79.84-269.94-148.91-269.94-266.14,0-17.11.63-31.05,1.27-31.05s8.24,5.7,17.11,12.67c40.55,32.32,85.55,46.26,211.01,64,73.51,10.77,115.33,19.64,153.98,31.68,121.66,39.92,197.07,121.66,214.81,232.56,5.07,32.32,1.9,92.52-6.34,124.83-6.97,25.35-27.25,70.34-32.32,72.24-1.27.63-3.17-5.07-3.17-13.31-1.9-41.82-23.45-82.38-58.93-112.79-39.92-33.58-94.42-61.47-227.49-114.69Z"></path><path class="cls-2" d="m1522.33,1300.82c-2.53-14.57-6.97-33.58-9.51-41.82l-5.07-15.21,9.51,10.77c13.31,14.57,23.45,33.58,32.32,58.3,6.97,19.01,7.6,24.71,7.6,55.76s-.63,36.75-6.97,53.86c-9.51,27.25-21.54,46.26-41.82,66.54-36.75,36.75-83.01,57.03-150.81,65.9-12.04,1.27-46.26,3.8-76.04,5.7-76.04,3.8-126.1,12.04-170.46,27.88-6.34,2.53-12.04,3.8-12.67,3.17-1.9-1.9,28.52-19.64,53.86-32.32,35.49-17.11,70.97-26.61,150.18-39.29,39.29-6.34,79.84-14.57,89.98-17.74,95.68-31.05,145.74-107.09,129.9-201.51Z"></path><path class="cls-2" d="m1613.58,1461.77c-26.61-56.4-32.32-111.53-18.38-162.22,1.27-5.7,3.8-10.14,5.7-10.14,1.27,0,7.6,3.17,13.94,7.6,12.04,8.24,36.75,22.18,102.02,57.03,81.74,44.36,128,78.58,159.69,117.23,27.88,34.22,44.99,72.87,53.23,120.4,4.44,26.61,1.9,91.88-5.07,118.5-22.18,85.55-72.87,152.71-145.11,191.37-10.77,5.7-20.28,10.14-20.91,10.77-1.27,0,2.53-9.51,8.87-21.54,24.71-50.69,27.25-100.12,8.87-155.25-11.41-33.58-34.22-74.77-81.11-143.84-55.13-79.84-68.44-101.39-81.74-129.9Z"></path><path class="cls-2" d="m864.58,1767.83c74.14-62.1,166.02-106.46,250.3-119.76,36.12-5.7,96.32-3.8,129.9,5.07,53.86,13.94,102.02,44.36,126.73,80.48,24.71,35.49,34.85,66.54,45.62,135.61,4.44,27.25,8.87,54.5,10.14,60.83,8.24,35.49,24.08,64.63,43.72,78.58,31.05,22.81,85.55,24.08,138.77,3.8,8.87-3.8,17.11-5.7,17.11-5.07,1.9,1.9-24.71,19.64-43.72,29.15-25.35,12.67-45.62,17.74-72.24,17.74-48.79,0-89.35-24.71-122.93-74.77-6.34-10.14-21.54-39.29-32.95-65.9-35.49-80.48-53.23-105.19-94.42-132.44-36.12-23.45-82.38-27.88-117.23-10.77-45.62,22.18-58.3,80.48-25.98,117.23,13.31,14.57,37.39,27.25,57.03,29.78,37.39,4.44,69.07-23.45,69.07-60.83,0-24.08-9.51-38.02-32.95-48.79-32.32-14.57-67.17,2.53-66.54,32.32,0,12.67,5.7,20.91,18.38,26.61q8.24,3.8,1.9,2.53c-29.78-6.34-36.75-41.82-12.67-65.27,28.52-28.52,87.45-15.84,107.72,22.81,8.24,16.48,9.51,48.16,1.9,67.8-16.48,43.72-65.27,66.54-114.06,53.86-33.58-8.24-46.89-17.74-87.45-58.93-70.34-71.6-97.59-85.55-198.34-101.39l-19.64-3.17,22.81-17.11Z"></path><path class="cls-3" d="m535.07,482.75c234.46,282.62,395.41,399.21,413.15,423.93,14.57,20.28,9.51,38.65-15.84,53.23-13.94,8.24-43.09,15.84-57.66,15.84-16.48,0-22.18-6.34-22.18-6.34-9.51-8.87-14.57-7.6-64-93.78-67.8-104.56-124.83-191.37-126.1-192.64q-3.8-3.17,119.13,215.45c19.64,45.62,3.8,62.1,3.8,68.44,0,13.31-3.8,20.28-20.28,38.02-27.25,30.42-39.29,64-48.16,134.34-10.14,78.58-37.39,134.34-114.69,230.02-44.99,55.76-52.59,65.9-64,88.71-14.57,28.52-18.38,44.36-19.64,79.84-1.9,38.02,1.9,62.1,13.31,98.22,10.14,31.68,20.91,52.59,48.16,94.42,23.45,36.12,36.75,62.73,36.75,73.51,0,8.24,1.9,8.24,38.02,0,86.81-19.64,157.78-53.86,197.07-95.68,24.71-25.98,30.42-40.55,30.42-76.04,0-23.45-.63-28.52-6.97-41.82-10.14-21.54-29.15-39.92-70.34-68.44-54.5-36.75-77.31-66.54-83.64-107.72-5.07-33.58.63-57.03,31.05-119.76,31.05-64.63,38.65-92.52,43.72-157.78,3.17-42.46,8.24-58.93,20.28-72.24,12.67-13.94,24.08-18.38,55.76-22.81,51.33-6.97,84.28-20.28,110.89-44.99,23.45-21.54,32.95-41.82,34.22-72.87l1.27-23.45-13.31-15.21c-46.89-54.5-502.5-446.74-505.67-446.74.63,1.27,15.84,20.28,35.49,44.36Zm108.99,1097.52c10.77-19.01,5.07-43.09-12.67-54.5-17.11-11.41-43.09-5.7-43.09,8.87,0,4.44,2.53,7.6,8.24,10.77,9.51,5.07,10.14,10.14,2.53,20.91-7.6,11.41-6.97,20.91,1.9,27.25,13.94,10.77,32.95,5.07,43.09-13.31Z"></path><path class="cls-3" d="m1051.51,1054.95c-24.08,7.6-47.53,32.95-54.5,59.57-4.44,16.48-1.9,44.99,4.44,53.23,10.77,13.94,20.91,17.74,48.79,17.74,55.13-.63,102.65-24.08,108.36-53.23,4.44-24.08-16.48-57.03-44.99-71.6-15.21-7.6-46.89-10.77-62.1-5.7Zm64,49.43c8.24-12.04,5.07-24.71-9.51-33.58-27.25-16.48-69.07-3.17-69.07,22.81,0,12.67,21.54,26.61,41.19,26.61,13.94,0,31.68-7.6,37.39-15.84Z"></path></g></g></g></svg> 