<?xml version="1.0" encoding="UTF-8"?> <svg xmlns="http://www.w3.org/2000/svg" id="Layer_2" data-name="Layer 2" viewBox="0 0 2101.26 2101.26"><defs><style> .cls-1 { fill: #009345; stroke-width: 19px; } .cls-1, .cls-2, .cls-3, .cls-4, .cls-5, .cls-6 { stroke: #363436; stroke-miterlimit: 10; } .cls-2 { fill: #cafafa; stroke-width: 79px; } .cls-3 { stroke-width: 14px; } .cls-3, .cls-5 { fill: #58595b; } .cls-4 { stroke-width: 23px; } .cls-4, .cls-7 { fill: #fff; } .cls-5 { stroke-width: 3px; } .cls-6 { fill: #77c26a; stroke-width: 26px; } .cls-8 { fill: #cafafa; } .cls-8, .cls-7 { stroke-width: 0px; } </style></defs><g id="Layer_1-2" data-name="Layer 1"><g><path class="cls-2" d="m2061.75,1046.17c2.47,558.43-448.23,1013.12-1006.66,1015.59-558.43,2.47-1013.12-448.23-1015.59-1006.66C37.04,496.72,487.66,42.05,1046.04,39.51c558.45-2.48,1013.19,448.2,1015.71,1006.66Z"></path><path class="cls-8" d="m1985.58,1046.38c2.35,516.36-414.34,936.85-930.7,939.2-516.36,2.35-936.85-414.34-939.2-930.7-2.35-516.35,414.33-936.84,930.68-939.2,516.36-2.36,936.86,414.32,939.22,930.68,0,0,0,.01,0,.02Z"></path><path class="cls-7" d="m1067.67,176.3c59.44-10.61,120.29-10.61,179.73,0,60.01,9.51,118.01,28.95,171.63,57.53,53.27,29.3,99.4,69.04,145.21,106.54,45.81,37.5,91.51,75.43,134.98,117.19,44.32,41.06,83.01,87.81,115.06,139.03,33.04,50.87,60.11,105.39,80.65,162.47,39.97,114.01,51.35,236.08,33.13,355.51h-5.97c-17.55-114.1-46.9-226.06-87.57-334.1-19.49-53.43-42.45-105.53-68.72-155.97-27.61-50.3-57.98-99.02-90.98-145.95-33.67-47.5-74.91-89.14-122.09-123.26-47.41-33.77-101.95-55.72-154.8-76.49-52.84-20.77-105.68-41.44-160.55-57.32s-111.01-27.7-169.5-39.21l-.21-5.97Z"></path><path class="cls-6" d="m1561.24,696.14c-71.12-20.66-145.15-49.8-219.51-79.27-35.96-25.91-67.96-44.56-92.14-57.43-33.6-17.89-52.26-27.66-78.81-34.15-42.16-10.31-79.07-6.2-102.94-1.32-87.31-20.54-173.62-27.8-256.8-7.93-359.99,99.12-420.06,274.39-434.73,485.6-19.36,232.32-30.24,404.73-117.95,602.01,170.4,272.84,568.27,485.36,939.18,415.81,13.42-2.25,26.94-4.81,40.57-7.73,0,0-.13-.32-.37-.92.12-.03.25-.06.37-.09-40.98-286.72,209.57-567.64,350.81-711.34,30.6-31.18,77.5-73.71,121.97-119.16,188.17-172.7,229.31-380.7-149.66-484.1Z"></path><path class="cls-4" d="m1644.87,994.37c.18,22.69-18.06,41.24-40.75,41.42-22.69.18-41.24-18.06-41.42-40.75s18.06-41.24,40.75-41.42c.07,0,.15,0,.22,0,22.63-.12,41.08,18.12,41.2,40.75h0Z"></path><path class="cls-1" d="m1060.5,527.16c46.03,12.24,94.35,26.52,144.55,43.22,47.54,15.82,92.42,32.37,134.54,49.18-6.25-13.5-36.49-75.05-109.18-103.51-84.83-33.21-159.23,5.34-169.91,11.11Z"></path><path class="cls-4" d="m1114.85,805.34c0,104.83-84.98,189.81-189.81,189.81s-189.81-84.98-189.81-189.81,84.98-189.81,189.81-189.81,189.81,84.98,189.81,189.81Z"></path><path class="cls-3" d="m1058.69,807.02c.06,73.63-59.57,133.36-133.2,133.42-73.63.06-133.36-59.57-133.42-133.2-.06-73.63,59.57-133.36,133.2-133.42.04,0,.07,0,.11,0,73.56.06,133.19,59.64,133.31,133.2Z"></path><path class="cls-5" d="m1792.36,1085.03c-48.91,42.06-103.48,77.05-162.12,103.95-58.45,27.77-119.38,49.98-181.99,66.32-62.53,16.19-127.95,28.36-194.16,22.33-66.21-6.03-133.98-28.58-177.64-78.16l2.12-2.46c54.04,34.95,115.78,47.23,177.42,49.02,62.58,1.82,125.16-3.39,186.57-15.52,62.05-12.93,122.75-31.62,181.32-55.83,59.52-22.73,115.56-53.7,166.47-92l2.01,2.34Z"></path></g></g></svg> 