<?xml version="1.0" encoding="UTF-8"?> <svg xmlns="http://www.w3.org/2000/svg" id="Layer_2" data-name="Layer 2" viewBox="0 0 2215.92 2215.92"><defs><style> .cls-1 { fill: #cafafa; stroke-width: 79px; } .cls-1, .cls-2 { stroke: #363436; stroke-miterlimit: 10; } .cls-2 { fill: #77c26a; stroke-width: 26px; } </style></defs><g id="Layer_1-2" data-name="Layer 1"><g><circle class="cls-1" cx="1107.96" cy="1107.96" r="1068.46"></circle><path class="cls-2" d="m1681.61,1261.83c-25.02,17.22-57.57,19.37-84.74,5.65-31.2-17.75-48.15-59.18-48.15-115.4v-172.97c0-83.12-32.82-142.03-87.96-158.17-92.81-27.17-162.21,86.62-188.84,129.39l-164.36,266.04v-324.69c-1.88-74.78-26.09-119.71-72.36-133.16-30.4-8.88-76.13-5.38-120.51,62.41l-367.46,589.92c-48.96-93.34-74.51-197.45-73.98-302.9,0-355.62,284.07-644.8,634.31-644.8s635.11,289.18,635.11,644.8v3.77c3.5,68.6-18.83,123.47-61.06,150.1h0Zm203.1-153.87v-3.5c-2.96-433.09-350.51-784.68-777.15-784.68s-776.34,353.47-776.34,788.18,348.09,788.18,776.34,788.18c196.37,0,385.21-75.32,527.78-210.36,28.78-27.17,30.4-72.36,3.77-101.41-25.82-28.51-69.67-30.67-98.45-4.84l-.27.27c-251.52,238.6-648.83,228.11-887.44-23.4-5.92-6.19-11.57-12.37-17.22-18.83l330.6-531.82v245.33c0,117.82,45.73,156.02,83.93,167.32,38.2,11.3,97.11,3.5,158.44-96.3l182.92-295.9c5.65-9.42,11.03-17.75,16.14-24.75v150.37c0,110.29,44.12,198.25,121.86,241.83,71.82,38.74,158.98,35.24,227.58-9.15,85.27-55.41,131.81-155.75,126.97-276.53h.54Z"></path></g></g></svg> 