<?xml version="1.0" encoding="UTF-8"?> <svg xmlns="http://www.w3.org/2000/svg" xmlns:xlink="http://www.w3.org/1999/xlink" id="Layer_2" data-name="Layer 2" viewBox="0 0 2215.92 2215.92"><defs><style> .cls-1 { fill: #cafafa; stroke-width: 79px; } .cls-1, .cls-2, .cls-3, .cls-4 { stroke: #363436; stroke-miterlimit: 10; } .cls-2 { fill: #009345; } .cls-2, .cls-3, .cls-4 { stroke-width: 25px; } .cls-3 { fill: #77c26a; } .cls-4 { fill: url(#linear-gradient); } </style><linearGradient id="linear-gradient" x1="767.01" y1="10008.14" x2="1548.21" y2="9719.45" gradientTransform="translate(0 11137.39) scale(1 -1)" gradientUnits="userSpaceOnUse"><stop offset="0" stop-color="#234588" stop-opacity="0"></stop><stop offset="1" stop-color="#009345"></stop></linearGradient></defs><g id="Layer_1-2" data-name="Layer 1"><g><circle class="cls-1" cx="1107.96" cy="1107.96" r="1068.46"></circle><g><path class="cls-2" d="m1827.15,1296.18l-321.39-557.49c-70.46-116.2-242.28-117.43-310.27,4.94l-337.46,579.74c-63.05,106.31,14.83,239.8,140.92,239.8h676.15c127.32,0,222.5-137.21,152.05-267Z"></path><path class="cls-3" d="m1363.6,1339.45l-19.78-34.61c-18.54-32.14-59.33-101.36-59.33-101.36l-271.95-472.2c-70.46-105.07-237.33-113.72-307.79,18.54l-316.45,547.6c-65.51,114.96,12.36,264.53,154.51,265.77h1129.81c-174.29,1.24-229.92-89-309.03-223.74Z"></path><path class="cls-4" d="m1363.6,1339.44l-19.78-34.61c-18.54-32.14-59.33-101.36-59.33-101.36l-175.53-309.03-252.17,430.17c-63.04,106.31,14.83,239.8,140.92,239.8h674.92c-175.53-1.24-229.92-90.24-309.03-224.97Z"></path></g></g></g></svg> 