<svg xmlns="http://www.w3.org/2000/svg" xmlns:xlink="http://www.w3.org/1999/xlink"
    viewBox="0 0 1982.968 2235.559">
    <defs>
        <clipPath id="clip-path" transform="translate(-2062.996 -144.441)">
            <rect width="6237" height="2333" fill="none" />
        </clipPath>
    </defs>
    <g id="Layer_2" data-name="Layer 2">
        <g id="man">
            <g clip-path="url(#clip-path)">
                <path
                    d="M3444,2371c0-3,16.333-826.516,16.333-826.516l12.338-26.817h36.805L3531,1468l-6-53-992,8,3.42,48.762L2564,1510h14l16.613,36.81L2596,2380Z"
                    transform="translate(-2062.996 -144.441)" fill="#522914" />
                <polygon
                    points="1317.335 1268.684 1317.335 1097.7 1309.602 949.059 1347.986 1053.797 1377.079 1126.522 1409.674 1180.551 1516.381 1287.702 1637.753 1398.084 1672.384 1423.367 1704.004 1428.559 1783.623 1372.801 1786.605 1318.357 1668.077 1218.623 1607.441 1159.18 1577.908 1144.949 1548.104 1049.035 1495.004 913.559 1461.004 839.559 1407.004 741.559 1371.004 685.559 1359.004 667.559 1292.004 596.559 1242.004 559.559 1184.004 532.559 1166.67 528.345 877.505 551.702 845.004 569.559 805.004 592.559 742.48 639.161 679.004 705.559 568.004 844.559 508.004 946.559 477.004 1015.559 419.004 972.559 323.004 909.559 226.004 827.559 192.004 867.559 139.004 925.559 223.004 1020.559 298.004 1090.559 397.004 1177.559 465.004 1231.559 502.875 1238.75 552.004 1235.559 594.004 1217.559 619.004 1179.559 646.004 1195.559 634.924 1276.588 1317.335 1268.684"
                    fill="#1d1d1d" />
                <path
                    d="M3190.287,722.036c-1.6-7.05-6.113-13.027-10.514-18.762-11.054-14.406-22.315-29.017-36.96-39.753-27.608-20.239-64.8-24.287-98.164-16.619s-62.855,26.013-89.855,47.057c13.092,26.533,15.028,57.193,25.624,84.818,5.26,13.712,12.646,26.653,16.358,40.863,5.376,20.581,2.691,42.289.317,63.428a1942.028,1942.028,0,0,0-6.944,358.094c2.624,35.857.838,70.336-.2,106.275q1.157-9.486,2.314-18.972c3.241,2.82,3.256,7.759,3.013,12.048q-1.4,24.777-2.807,49.554c-.48,8.479-.945,17.12,1.19,25.34.293,1.13.65,2.251,1.058,3.356,9.2.482,18.3,1.982,27.395,3.45,14.926-1.642,29.888-3.022,44.79-4.844,8.837-40.918,16.98-82.184,17.192-123.991.054-10.691-.411-21.4.371-32.061,1.458-19.9,7.219-39.2,11.134-58.77,5.21-26.039,7.159-52.612,11.236-78.852,3.7-23.818,9.149-47.324,14.592-70.8l14.148-61.034c4.737-20.435,3-42.714,6.918-63.322,3.562-18.752,8.932-37.148,11.844-56.012,5.475-35.46,2.585-73.5,19.572-105.109C3181.723,752.879,3193.932,738.129,3190.287,722.036Z"
                    transform="translate(-2062.996 -144.441)" fill="#ede9eb" />
                <path
                    d="M2168.345,995.856c-38.6-37.127-73.323-80.395-89.29-131.519-2.986-9.561-5.292-19.32-7.46-29.1-3.384-15.26-6.452-31.013-3.869-46.428.389-2.32,1.04-4.833,2.954-6.2,2.167-1.545,5.305-1.011,7.444.572s3.491,3.991,4.7,6.362c14.321,28.108,17.835,61.919,38.011,86.17,7.714,9.272,17.409,17.226,27.063,24.457,1.771-12.321,4.779-24.784,11.7-35.127a47.916,47.916,0,0,1,27.312-19.837c11.138-2.879,23.554-1.029,32.989,5.553a29.031,29.031,0,0,0,5.341,3.384,27.758,27.758,0,0,0,5.979,1.325,43.14,43.14,0,0,1,30.054,21.3c1.391,2.512,2.557,5.206,4.522,7.3,3.092,3.294,7.682,4.625,11.565,6.935a25.574,25.574,0,0,1,12.175,19.2c.252,2.6-.014,5.5-1.862,7.342-2.909,2.906-7.763,1.653-11.674.386a133.3,133.3,0,0,0-29.071-5.946c-4.12-.372-8.811-.348-11.7,2.617-2.227,2.289-2.732,5.863-1.952,8.96a21.241,21.241,0,0,0,4.726,8.238c13.5,16.016,35.851,24.464,44.652,43.472-2.443,2.614-3.687,5.337-5.445,8.453-4.982,8.834-12.993,15.466-20.428,22.364s-14.458,14.259-21.467,21.606c-4.137,4.337-8.3,8.711-11.505,13.778-2.118,3.352-4.238,7.337-8.092,8.272-7.8-11.253-19.518-19.072-29.238-28.715C2178.907,1013.505,2176.04,1003.257,2168.345,995.856Z"
                    transform="translate(-2062.996 -144.441)" fill="#ffb49e" />
                <path
                    d="M3218.987,712.285a1007.475,1007.475,0,0,1,61.931-154.323c17.469,6.237,37.619,6.417,54.014-2.261s28.005-27.028,26.1-45.479-19.081-34.822-37.576-33.407c-23.125,1.769-36.56,25.9-53.539,41.7-23.981,22.313-61.262,29.055-91.539,16.554s-51.941-43.58-53.2-76.311c-.13-3.384-.236-7.2-2.726-9.492-1.762-1.624-4.289-2.043-6.661-2.39l-14.294-2.091c-3.595-.526-7.35-1.039-10.791.128-3.233,1.1-5.8,3.552-8.139,6.042a110.981,110.981,0,0,0-22.511,35.8c-1.787,4.621-3.3,9.44-6.217,13.448-2.964,4.077-7.2,7.058-11.605,9.5-21.841,12.132-49.577,12.157-72.151,1.451s-39.79-31.5-47.642-55.216c-.648-1.955-1.314-4.049-2.914-5.345a9.126,9.126,0,0,0-4.658-1.622c-17.3-2.258-35.08,8.58-42.347,24.445s-4.369,35.5,5.969,49.56,27.368,22.541,44.762,23.95c3.836.31,7.959.389,11.074,2.649,2.789,2.024,4.2,5.409,5.311,8.671,9.609,28.242,6.261,59.015,8.844,88.735,4.113,47.347,26.236,95.659,67.4,119.407,44.154,25.473,101.168,17.667,146.478-5.688,8.964-4.621,14.579-15.323,22.175-21.955,3.507-3.063,7.219-6.077,11.633-7.56,2.229-.749,4.619-1.1,6.667-2.255a19.041,19.041,0,0,0,5.2-5.041C3211.359,719.722,3217.418,717.375,3218.987,712.285Z"
                    transform="translate(-2062.996 -144.441)" fill="#ffb49e" />
                <path
                    d="M4037.121,1550.084c-1.436-3.063-5.012-4.379-8.253-5.349-40.066-11.991-82.289-15.854-122.014-28.93-6.327-2.083-12.718-4.474-17.827-8.747s-8.779-10.8-8.009-17.417c.841-7.221,6.729-12.989,13.306-16.084s13.907-4.087,20.995-5.7c15.561-3.534,30.227-10.141,44.771-16.7,4.754-2.146,10.36-5.756,9.552-10.909-.481-3.064-2.974-4.928-5.987-6.069-.928-.161-1.855-.33-2.786-.48a162.673,162.673,0,0,0-37.153.256c-12.978,1.81-25.948,3.817-38.595,7.306a220.463,220.463,0,0,0-22.121,7.48c-.717.282-5.253,1.9-5.216,2.115l3.447-1.449q-1.716.738-3.422,1.494c-1.385.614-2.764,1.243-4.141,1.875-4.92,4.377-9.507,9.254-15.367,12.221-20.639,10.451-26.822-15.469-42.85-20.5-3.813-1.2-7.91-.935-11.9-.662-17.994,1.235-36.159,2.5-53.449,7.633-14.151,4.2-28.637,12.14-34,25.893-3.906,10.017-2.247,21.264-.038,31.786.337,1.6.746,3.312,1.958,4.414,1.605,1.458,4.026,1.364,6.193,1.433,8.047.257,15.619,3.915,22.3,8.407,11.739,7.894,21.415,18.428,30.972,28.859q13.005,14.195,26.011,28.39c24.538,26.782,49.212,53.692,77.714,76.207s61.26,40.637,96.949,47.391c1.487.281,3.276.445,4.268-.7a4.129,4.129,0,0,0,.585-3.239c-1.447-11.946-10.842-21.153-19.683-29.318l-56.226-51.936c41.819,16.88,83.948,33.855,128.2,42.558,4.117.81,9.122,1.252,11.783-1.991,4.213-5.135-2.014-12.187-7.573-15.822l-74.049-48.423c17.631-2.767,35.071,5.425,52.885,6.5,9.506.573,19-.892,28.413-2.353a3.816,3.816,0,0,0,2.543-1.088,3.258,3.258,0,0,0,.452-2.339c-.81-8.167-9.778-12.537-17.483-15.364l-28.886-10.6c16.526,1.053,34.492,1.727,48.056-7.771C4035.469,1559.547,4039.206,1554.531,4037.121,1550.084Z"
                    transform="translate(-2062.996 -144.441)" fill="#ffb49e" />
                <path
                    d="M3051.293,1415.187l19.33-79.753c5.092-21.006,10.2-42.094,12.341-63.6,1.24-12.443,1.484-24.98,3.084-37.382,1.527-11.836,4.281-23.477,6.216-35.253,3.085-18.774,4.078-37.821,5.066-56.822q3.351-64.41,6.7-128.819c2.352-45.223-8.416-89.843-13.235-134.869-.436-4.071-.869-8.216-.078-12.233,2.074-10.533,12.165-18.517,12.825-29.232.225-3.659-.7-7.277-1.484-10.859a144.542,144.542,0,0,1-3.05-39.868,238.043,238.043,0,0,0-41.495-8.169,9.921,9.921,0,0,0-5.078.369,10.115,10.115,0,0,0-3.567,3.287l-9.207,11.767c-4.524,5.782-9.192,11.876-10.5,19.1-2.83,15.624,10.642,29.424,13.276,45.083,1.95,11.6-2.185,23.24-5.942,34.381-23.148,68.643-34.152,141.158-34.868,213.595-.436,44.166-2.415,87.841,1.575,131.829,1.833,20.2,4.493,40.32,7.152,60.43,5.331,40.317,10.675,80.707,19.832,120.331l21.408.228C3052.362,1417.979,3051.681,1416.185,3051.293,1415.187Z"
                    transform="translate(-2062.996 -144.441)" fill="#daa96a" />
                <path
                    d="M2891.533,418.311c-2.3-13.858.65-27.99,3.592-41.728,4.245-19.826,8.5-39.693,14.756-58.98,18.337-56.542,55.037-108.076,106.048-138.59s116.594-38.095,171.083-14.344c10.685,4.658,21.443,10.995,26.844,21.325,1.7,3.246,3.089,7.1,6.4,8.652,2.268,1.063,4.9.763,7.4.55a85.449,85.449,0,0,1,67.525,25.239c17.076,17.589,25.614,41.614,32.4,65.17,13.78,47.807,22.411,97.657,18.842,147.282-.637,8.866-1.92,18.316-7.785,25s-17.876,8.549-23.248,1.467c5.237-30.14-15.3-58.542-37.44-79.658-28.016-26.724-61.111-48.9-98.214-59.965-56.492-16.845-118.2-6.69-172.719,15.738-19.5,8.021-38.629,17.754-54.156,32.013s-27.249,33.547-29.01,54.555c-.678,8.084-1.874,29.585-15.7,25.577C2898.246,444.737,2893,427.121,2891.533,418.311Z"
                    transform="translate(-2062.996 -144.441)" fill="#ce592e" />
                <path
                    d="M3304.637,302.851c-4.019-16.523-9.1-32.976-17.7-47.65-20.47-34.962-58.78-56.11-97.836-66.877-30.59-8.434-62.936-11.5-94.238-6.291s-61.51,18.971-84.23,41.122a137.159,137.159,0,0,0-21.9,27.706c-3.339,5.577-6.277,11.383-9.147,17.214-18.809,38.211-35.1,78.775-36.991,121.322,17.592-22.267,47.767-33.839,75.737-29.046s52.569,25.754,61.741,52.608c1.69,4.949,3.163,10.461,7.41,13.511,2.375,1.706,5.314,2.386,8.166,3.028l30.869,6.949c10.093-27.193,31.961-50.13,59.245-59.975s59.538-5.826,82.641,11.712,35.715,48.477,29.935,76.9c-.172.849,11.352-2.238,12.781-3.712,2.648-2.734,2.521-6.98,2.921-10.55q1.983-17.718,2.468-35.561a427.791,427.791,0,0,0-4.113-72.025Q3309.5,322.873,3304.637,302.851Z"
                    transform="translate(-2062.996 -144.441)" fill="#ffb49e" />
                <path
                    d="M2902.5,441.5a10.333,10.333,0,0,1-2.488-3.589,7.867,7.867,0,0,1,.557-6.109,14.578,14.578,0,0,1,4.1-4.728,13.178,13.178,0,0,1,7.516-3.224c2.772-.095,5.725,1.409,6.656,4.021a8.685,8.685,0,0,1,.414,2.555,60.4,60.4,0,0,1-.908,10.383c-.273,2.092.156,6.305-2,7.584C2912.617,450.6,2904.866,443.923,2902.5,441.5Z"
                    transform="translate(-2062.996 -144.441)" fill="#fff" />
                <path
                    d="M3295.646,486.21a3.249,3.249,0,0,1-1.363-1.084,3.013,3.013,0,0,1-.179-2c.751-4.768,3.147-9.1,5.5-13.309a12.939,12.939,0,0,1,3-4.026,11.809,11.809,0,0,1,3.953-1.82,67.433,67.433,0,0,1,29.828-2.159c2.774.425,5.659,1.092,7.751,2.962,2.411,2.154,3.326,5.5,3.921,8.675.588,3.144.87,6.735-1.16,9.206a82.709,82.709,0,0,0-20.227-5.4c-5.28-.71-11.209-.722-15.247,2.752-2.405,2.07-3.806,5.1-6.263,7.1C3301.582,490.012,3299.241,488.123,3295.646,486.21Z"
                    transform="translate(-2062.996 -144.441)" fill="#fff" />
                <path
                    d="M3292.918,429.306c2.033,6.9,4.078,13.86,4.681,21.028,1.079,12.806-2.481,25.5-6.005,37.857a57.228,57.228,0,0,1-4.543,12.279c-3.092,5.556-7.932,9.91-12.85,13.94-11.327,9.283-23.667,17.51-37.272,22.932s-28.561,7.952-43.038,5.742c-13.951-2.129-26.949-8.542-38.6-16.509-5.363-3.668-10.543-7.73-14.593-12.811a62.115,62.115,0,0,1-8.628-15.607c-5.743-14.21-8.76-29.638-7.72-44.928s6.255-30.423,15.7-42.489c6.057-7.735,13.707-14.087,21.75-19.727,17.064-11.965,36.813-21.138,57.641-21.875a66.357,66.357,0,0,1,38.519,10.411,51.456,51.456,0,0,1,14.311,13.919c3.523,5.167,8.9,8.509,12.189,14.163C3288.384,414.356,3290.73,421.881,3292.918,429.306Z"
                    transform="translate(-2062.996 -144.441)" fill="#ebeae8" />
                <path
                    d="M3028.8,514.338c-10.448,3.118-21.261,6.082-32.108,4.972-7.555-.774-14.783-3.5-21.615-6.817-19.856-9.632-37.488-24.952-46.9-44.911s-9.672-44.743,2.058-63.436c4.607-7.34,10.826-13.532,17.353-19.233,12.591-11,27.166-20.682,43.693-23.2a99.086,99.086,0,0,1,20.062-.491,110.5,110.5,0,0,1,18.879,2.227,64.92,64.92,0,0,1,38.449,25.957c4.317,6.21,7.5,13.125,11.334,19.644,2.787,4.739,5.954,9.343,7.605,14.587,3.035,9.634.524,20.27-4.135,29.233s-11.324,16.69-17.27,24.855a94.273,94.273,0,0,0-7.831,12.4c-2.027,3.957-2.652,9.127-5,12.781-1.94,3.02-6.561,4.783-9.676,6.194A116.849,116.849,0,0,1,3028.8,514.338Z"
                    transform="translate(-2062.996 -144.441)" fill="#ebeae8" />
                <g>
                    <path
                        d="M3276.705,446.307c-.344-4.5-1.017-9.257-3.886-12.741-2.091-2.54-5.517-3.593-8.736-4.273a43.825,43.825,0,0,0-5.058-.664,49.823,49.823,0,0,0-5.282-.43c-7.241.046-14.331-1.894-21.294-3.88-9.9-2.825-19.825-5.787-30.047-7.036s-20.874-.705-30.368,3.285c-2.7,1.134-5.388,2.628-7.04,5.047a18.606,18.606,0,0,0-2.3,5.981c-1.448,5.642-2.9,11.284-4.243,16.951-.478,2.01-.943,4.03-1.368,6.058a34.515,34.515,0,0,0-7.231-8.405c-4.627-3.584-10.539-4.941-16.191-6.459-11.6-3.115-22.987-7.3-34.915-8.676q-2.718-.314-5.455-.4c-8.569-.25-17.46,1.268-24.861,5.787-1.144.7-3.039,1.617-3.927,2.779a1.894,1.894,0,0,0-.375,1.282,1.63,1.63,0,0,0,.531.823c2.319,2.224,5.941,2.114,9.148,1.922,18-1.077,36.3-.258,53.609,4.776,9.767,2.84,19.274,7.017,29.356,8.136a73.562,73.562,0,0,0-1.654,16.676c.314,9.59,3.307,18.864,6.272,27.989a4.542,4.542,0,0,0,4.018,3.9c26.748,7.165,53.94,14.386,81.623,13.749,4.87-.112,9.773-.466,14.589.266,2.438.371,5.2.942,7.153-.571,1.574-1.221,2.008-3.377,2.333-5.342C3274.748,490.825,3278.4,468.555,3276.705,446.307Z"
                        transform="translate(-2062.996 -144.441)" fill="#b6bdc1" />
                    <path
                        d="M3064.041,439.134q.027-.921.037-1.843a63.309,63.309,0,0,0-2.678-20.533c-2.165-6.587-5.992-12.756-11.528-16.931a43.608,43.608,0,0,0-13.435-6.36,98.98,98.98,0,0,0-26.047-4.43c-14.051-.482-28.037,2.033-42.094,2.28-4.8.084-9.97.008-13.915,2.748a15.769,15.769,0,0,0-5.365,7.388c-3.819,9.794-1.445,20.738-1.011,31.241.43,10.385-1.1,20.882.621,31.133a22.474,22.474,0,0,0,3.677,9.805c4.69,6.316,13.431,7.714,21.269,8.39a424.939,424.939,0,0,0,80.066-.665c1.8-.186,4.46-.66,4.983-2.718-3.491.012-1.573-3.974-.93-5.789a112.15,112.15,0,0,0,3.487-11.817,109.822,109.822,0,0,0,2.432-14.86c.174-1.861-.273-4.981.667-6.623a3.106,3.106,0,0,1,.226-.315,8.578,8.578,0,0,0,.463-.83A2.279,2.279,0,0,1,3064.041,439.134Z"
                        transform="translate(-2062.996 -144.441)" fill="#b6bdc1" />
                    <path
                        d="M3065.019,437.59h0a.733.733,0,0,0-.073-.17A.138.138,0,0,0,3065.019,437.59Z"
                        transform="translate(-2062.996 -144.441)" fill="#b6bdc1" />
                    <path
                        d="M3065.207,437.727a.686.686,0,0,0-.186-.136.984.984,0,0,1-.055.814,2.493,2.493,0,0,0,.19-.271A.384.384,0,0,0,3065.207,437.727Z"
                        transform="translate(-2062.996 -144.441)" fill="#b6bdc1" />
                </g>
                <path
                    d="M2962.441,339.9a11.51,11.51,0,0,1-2.935-2.165,10.2,10.2,0,0,1-1.895-3.714,34.022,34.022,0,0,1-1.49-7.113,8.273,8.273,0,0,1,.382-4.147,6.932,6.932,0,0,1,4.165-3.427c3.285-1.183,6.889-.965,10.368-.678,36.066,2.978,72.722,12.4,101.288,34.617,2.73,2.124,5.659,5.113,4.908,8.49-.8,3.617-5.2,4.97-8.888,5.356-15.79,1.651-31.577-2.228-46.98-6.078-15.892-3.971-31.594-7.674-46.509-14.653C2973.389,345.706,2962.441,341.277,2962.441,339.9Z"
                    transform="translate(-2062.996 -144.441)" fill="#a1948e" />
                <path
                    d="M3260.424,333.973a14.778,14.778,0,0,0-4.35-2.592c-20.817-9.11-44.265-9.662-66.984-9.262-7.473.132-15,.357-22.3,1.947-11.475,2.5-21.937,8.253-32.215,13.936a13.423,13.423,0,0,0-4.2,3.1c-1.464,1.836-1.858,4.283-2.124,6.616-.478,4.206-.512,8.993,2.447,12.02,2.683,2.742,6.911,3.089,10.746,3.2a332.144,332.144,0,0,0,54.5-2.909,333.446,333.446,0,0,0,53.723-11.9c3.7-1.148,9.717-1.965,12.686-4.591C3265.194,341.026,3262.669,336.1,3260.424,333.973Z"
                    transform="translate(-2062.996 -144.441)" fill="#a1948e" />
                <path
                    d="M3212.748,601.785a9.092,9.092,0,0,0-.506-4.574c-.934-2.034-3.043-3.252-5.125-4.075-7.766-3.072-16.579-2.375-24.6-.031s-15.474,6.235-23.127,9.578a179.768,179.768,0,0,1-45.573,13.072c-8.719,1.29-17.64,1.933-26.325.431-8.542-1.476-16.587-4.975-24.451-8.624-6.91-3.206-13.82-6.591-19.77-11.348-7.137-5.705-12.625-13.162-18.829-19.871a120.922,120.922,0,0,0-24.525-20.335c-6.249-3.917-14.722-7.152-20.555-2.638-4.866,3.766-5.131,10.99-4.115,17.059,3.124,18.675,13.974,35.139,26.025,49.744a166.353,166.353,0,0,0,23.675,24.05c31.611,25.437,76.859,32.753,114.875,18.573,14.045-5.238,26.937-13.1,39.731-20.909C3194.919,632.509,3211.071,621.361,3212.748,601.785Z"
                    transform="translate(-2062.996 -144.441)" fill="#6b2a31" />
                <path
                    d="M2986.9,568.221c-.661,5.155.61,10.821,4.452,14.322s10.51,3.965,14.058.167a16.387,16.387,0,0,0,23.254,17.743,19.717,19.717,0,0,0,26.659,19.977c-2.77,4.077-.238,9.825,3.519,13.016,8.283,7.036,22.254,5.824,29.2-2.533,4.1,5.715,10.263,10.255,17.25,11.047s14.624-2.831,17.29-9.338c5.783,5.156,14.006,7.86,21.52,5.972s13.776-8.864,13.771-16.612a14.229,14.229,0,0,0,21.512-8.4,28.493,28.493,0,0,0,.609-6.966l.029-5.479c.011-2.149-.333-4.831-2.366-5.529a5.246,5.246,0,0,0-3.622.559l-19.367,8.043c-9.117,3.787-18.353,7.607-28.122,9.028-13.772,2-27.714-.863-41.56-2.262-5.849-.591-11.754-.925-17.468-2.307-15.19-3.675-27.618-14.349-38.8-25.271-7.421-7.251-14.624-14.8-22.861-21.147-2.056-1.584-4.17-3.094-6.358-4.49-1.355-.864-5.071-3.921-6.636-3.695C2989.7,554.519,2987.257,565.422,2986.9,568.221Z"
                    transform="translate(-2062.996 -144.441)" fill="#f3c7aa" />
                <path
                    d="M3379.481,1251.808a3.246,3.246,0,0,1-3.9,1.7q-6.786-.715-13.557-1.573a36.532,36.532,0,0,1-6.4-1.21,37.529,37.529,0,0,1-4.44-1.822l-10.915-5.031c-17.017-7.845-34.107-15.729-49.765-26.021q19-33.48,38.42-66.727a75.431,75.431,0,0,0,10.288,8.726c5.694,3.762,12.274,5.9,18.675,8.269a241.8,241.8,0,0,1,31.492,14.295,24.4,24.4,0,0,1,5.651,3.834,25.739,25.739,0,0,1,4.309,6.433l6.179,11.6a5.281,5.281,0,0,1,.871,2.831,5.086,5.086,0,0,1-.948,2.228,71.35,71.35,0,0,1-5.034,6.914,164.758,164.758,0,0,0-16.863-11.615,139.2,139.2,0,0,0-15.554,24.44c-.407.815,14.018,8.864,15.348,9.721C3388.693,1242.262,3382.06,1248.058,3379.481,1251.808Z"
                    transform="translate(-2062.996 -144.441)" fill="#ff5800" />
                <path
                    d="M3370.055,1227.452a132.573,132.573,0,0,1,9.764-20.38,3.447,3.447,0,0,1,1.158-1.351c1.207-.679,2.66.239,3.736,1.111,44.715,36.21,94.346,66.221,137.3,104.5a5.816,5.816,0,0,1,2.186,3.069c.365,2.086-1.525,3.814-3.219,5.085-1.775,1.331-4.5,4.344-6.789,4.541-2.245.192-5.02-2.317-6.829-3.41q-7.749-4.685-15.444-9.457-15.263-9.467-30.307-19.277-30.085-19.62-59.262-40.591-8.209-5.9-16.345-11.907C3384.542,1238.3,3369.741,1228.237,3370.055,1227.452Z"
                    transform="translate(-2062.996 -144.441)" fill="#95908e" />
                <path
                    d="M3342.009,1296.851q11.664,10.284,22.985,20.949c7.009,6.6,13.927,13.325,20.259,20.581,3.157,3.616,6.355,8.039,5.5,12.762-.661,3.651-3.745,6.526-7.235,7.788s-7.328,1.142-11,.618c-12.5-1.784-23.908-7.962-34.683-14.545a237.338,237.338,0,0,1-32.58-23.347,14.793,14.793,0,0,1-3.414-3.8,12.064,12.064,0,0,1-1.214-3.887,27.585,27.585,0,0,1,2.323-16.323,15.775,15.775,0,0,1,4.473-5.875,22.092,22.092,0,0,1,7.386-3.152c4.913-1.419,9.87-4.379,14.513-1.609a60.224,60.224,0,0,1,6.55,4.624C3336.745,1292.329,3342.009,1295.849,3342.009,1296.851Z"
                    transform="translate(-2062.996 -144.441)" fill="#8f7f7e" />
                <path
                    d="M3314.418,1250.587c-11.474-15.142-30.755-23.716-49.744-23.139-6.223.189-12.563,1.345-17.909,4.535-4.712,2.811-8.393,7.033-11.891,11.261-2.274,2.75-4.552,5.614-5.682,9-1.189,3.564-1.011,7.419-.82,11.171.371,7.3.756,14.692,2.876,21.69a55.605,55.605,0,0,0,6.6,13.888,43.467,43.467,0,0,0,7.7,9.274c6.656,5.839,15.577,8.581,24.4,9.269s17.682-.52,26.454-1.725l3.836-.527a3.025,3.025,0,0,0,1.587-.534,3.144,3.144,0,0,0,.666-2.624,58.657,58.657,0,0,1,1.012-13.832c.741-3.819,2.013-7.8,5.012-10.275,3.2-2.643,7.709-3.017,11.84-2.623a8.039,8.039,0,0,0,3.843-.195c4.127-1.708.1-13.986-.859-17.1A56.4,56.4,0,0,0,3314.418,1250.587Z"
                    transform="translate(-2062.996 -144.441)" fill="#3c3d3b" />
                <path
                    d="M3365.94,1357.364c-1.051,5.233-.023,10.623.484,15.936a81.248,81.248,0,0,1,.333,10.134c-.054,1.811-.248,3.8-1.553,5.061-1.175,1.131-2.928,1.352-4.55,1.515-13.284,1.332-26.722,2.662-39.939.785a161.726,161.726,0,0,1-1.035-39.9c4.472,1.345,9.394,2.673,13.684.828.518-.222-3.159-8.633-2.566-9.925,5.6,1.307,11.629,5.821,16.977,8.229Q3356.709,1354.05,3365.94,1357.364Z"
                    transform="translate(-2062.996 -144.441)" fill="#225660" />
                <path
                    d="M3218.4,1299.356a168.673,168.673,0,0,1-29.154-35.281c-.973-1.572-2.021-3.252-3.71-4.007a8.244,8.244,0,0,0-3.086-.549c-9.331-.337-18.486,2.291-27.752,3.448-7.329.914-14.737.907-22.108,1.364a175.5,175.5,0,0,0-23.346,3.03,4.236,4.236,0,0,0-2,.779c-.92.8-.984,2.178-.985,3.4a295.745,295.745,0,0,1-3.241,43.208,6.947,6.947,0,0,0,.149,3.86,7.409,7.409,0,0,0,3.005,2.822c13.012,8.517,20.891,22.81,31.686,34.005a10.937,10.937,0,0,0,2.769,2.27,10.768,10.768,0,0,0,4.952.849c7.134-.006,14.211-1.163,21.325-1.689,7.613-.564,15.279-.406,22.859-1.315s15.22-2.976,21.367-7.5a6.9,6.9,0,0,0,2.148-2.225c1.733-3.317-1.712-5.506-2.015-8.517-.361-3.6,1.932-8.627,2.7-12.174Q3216.7,1312.34,3218.4,1299.356Z"
                    transform="translate(-2062.996 -144.441)" fill="#4265b8" />
                <path
                    d="M3124.465,1233.524a70.132,70.132,0,0,0-21.748-14.532,12.99,12.99,0,0,0-4.5-1.239,14.314,14.314,0,0,0-5.276,1.157,51.941,51.941,0,0,0-8.778,3.756c-9.091,5.292-14.039,15.406-18.477,24.943-1.951,4.194-3.941,8.556-3.955,13.182a27.916,27.916,0,0,0,1.555,8.272c1.829,5.909,4.225,11.743,8.061,16.6,5.647,7.146,13.933,11.614,21.977,15.885,2.352,1.249,5.212,2.506,7.546,1.226,2.3-1.263,2.806-4.294,3.05-6.909.875-9.407,1.752-18.853,1.272-28.288a104.581,104.581,0,0,1,29.691-5.583c2.134-.087,5.432.593,7.424-.036,2.673-.845,1.016-2.16-.222-4.313-2.378-4.134-4.863-8.212-7.606-12.117A86.325,86.325,0,0,0,3124.465,1233.524Z"
                    transform="translate(-2062.996 -144.441)" fill="#1c1f18" />
                <path
                    d="M3029.22,1344.9a8.43,8.43,0,0,0-5.869-2.308,28.708,28.708,0,0,0-6.4.811c-16.563,3.237-33.578,3.223-50.448,2.751a42.285,42.285,0,0,0-8.284.3,2.862,2.862,0,0,1-1.747-.046c-.818-.406-.989-1.477-1.053-2.388a242.261,242.261,0,0,1,.324-37.943l22.318-20.211a73.9,73.9,0,0,1,9.066-7.378c.313,1.352,1.788,2.037,3.091,2.513a104.111,104.111,0,0,0,17.315,4.866,66.4,66.4,0,0,0,8.881,1.008c1.648.07,6.3-.921,7.606.019,1.52,1.093,1.312,6.382,1.537,8.173q.6,4.774,1.1,9.559.982,9.338,1.606,18.706Q3028.98,1334.1,3029.22,1344.9Z"
                    transform="translate(-2062.996 -144.441)" fill="#be6200" />
                <path
                    d="M3037.7,1299.879a24.189,24.189,0,0,0,3.941-8.962c1.248-6.964-2.13-13.986-6.564-19.5a26.831,26.831,0,0,0-7.964-7.062c-3.541-1.9-7.6-2.565-11.583-3.093a25.937,25.937,0,0,0-9.134-.059c-4.162.947-7.691,3.815-10.233,7.245a49.212,49.212,0,0,0-5.782,11.384,1.09,1.09,0,0,0-.105.739c.159.463.792.49,1.28.452,3.725-.293,7.418.659,11.113,1.211,6.666,1,13.6.725,19.943,3.008a3.081,3.081,0,0,1,2.38,2.527,36.349,36.349,0,0,1,1.075,11.968c-.109,2.511-.326,9.534,3.929,8.536C3033.006,1307.569,3036.119,1302.266,3037.7,1299.879Z"
                    transform="translate(-2062.996 -144.441)" fill="#3c3d3b" />
                <path
                    d="M3002.157,1341.343c-1.953,2.706-5.67,3.333-9,3.563a95.725,95.725,0,0,1-14.5-.1c.275,20.453.552,40.936,2.553,61.292a91.989,91.989,0,0,1,.742,13.28,38.308,38.308,0,0,1,16.38.122c.735.167,1.666.731,1.356,1.418-.8-25.538,3.2-51.155.817-76.594-.024-.259-.019-.579.208-.706s.5.324.246.368a1.207,1.207,0,0,0,.909-.864,3.831,3.831,0,0,0,.085-1.36C3001.943,1341.543,3002.17,1341.566,3002.157,1341.343Z"
                    transform="translate(-2062.996 -144.441)" fill="#8f7f7e" />
                <path
                    d="M2686.458,1243.468c1.53,2.567,3.111,5.325,2.995,8.311-.161,4.165-3.486,7.39-5.821,10.842-2.893,4.277-4.4,9.31-6.272,14.121-2.977,7.646-6.946,14.86-10.9,22.048a10.311,10.311,0,0,1-8.005,6.216l-45.706,14a4.652,4.652,0,0,1-6.343-1.781l-14.076-17.071c-2.65-3.214-5.444-6.823-5.337-10.987.114-4.416,3.422-7.975,6.018-11.55a42.6,42.6,0,0,0,7.357-17.026c.63-3.313.733-7.119-1.509-9.639-2.936-3.3-8.2-2.7-12.449-1.488a82.421,82.421,0,0,0-22.806,10.51,1.907,1.907,0,0,1-1.318.458,1.885,1.885,0,0,1-1.083-.919l-3.352-4.84a4.976,4.976,0,0,1-1.181-2.832,4.837,4.837,0,0,1,.851-2.243,129.694,129.694,0,0,1,20.94-26.125,50.973,50.973,0,0,1,8.878-7.337,32.678,32.678,0,0,1,14.194-4.575c3.951-.348,5.61-3.65,9.471-4.558a41.844,41.844,0,0,0,10-4c6.975-3.893,15.327-4.472,21.942-8.95,2.108-1.427,6.946-6.389,9.565-5.928,2.867.5,5.3,7.251,6.7,9.6Z"
                    transform="translate(-2062.996 -144.441)" fill="#fa9d1c" />
                <path
                    d="M2562.623,1294.11c-8.432,4.427-18.025,6-27.428,7.5a3.514,3.514,0,0,1-2.473-.21,3.109,3.109,0,0,1-1.125-2.08c-1.114-5.425,1.21-10.958,4.051-15.712a26.813,26.813,0,0,1,6.712-8.042c4.388-3.251,10.045-4.127,15.063-6.283,6.415-2.757,11.684-7.558,17.313-11.688s12.138-7.761,19.117-7.544a8.89,8.89,0,0,1,5.676,1.851,7.61,7.61,0,0,1,2.22,4.009,14.928,14.928,0,0,1-2,10.606,44.307,44.307,0,0,1-6.972,8.534c-4.307,4.459-8.742,9.058-14.19,12.134-2.309,1.3-4.4,1.543-6.845,2.263C2568.49,1290.407,2565.6,1292.546,2562.623,1294.11Z"
                    transform="translate(-2062.996 -144.441)" fill="#cd3539" />
                <path
                    d="M2728.188,1328.726c6.13-4.019,13.664-5.3,20.12-8.768a65.915,65.915,0,0,0,8.868-6.1l6.2-4.78a3.055,3.055,0,0,0,1.225-1.451,2.974,2.974,0,0,0-.293-1.857c-3.812-9.549-10.32-17.734-16.737-25.767l-7.477-9.359a3.033,3.033,0,0,0-.977-.908,3.092,3.092,0,0,0-2.643.43l-6.587,3.3a82.279,82.279,0,0,0-9.9,5.551c-2.931,2.019-5.617,4.126-8.888,5.576-4.166,1.846-2.325,4.07-.6,7.544q5.753,11.568,11.342,23.216Q2725.04,1322.03,2728.188,1328.726Z"
                    transform="translate(-2062.996 -144.441)" fill="#686300" />
                <path
                    d="M2776.111,1293.38a25.82,25.82,0,0,0,17.155,2.967c6.913-1.23,12.992-5.222,19.628-7.519,6.047-2.093,12.59-2.789,18.313-5.653,8.925-4.466,14.5-13.435,21.276-20.763,5.276-5.706,11.425-10.528,17-15.943,3.327-3.232,6.509-6.769,8.3-11.047,1.735-4.139,2.064-8.716,2.25-13.2.257-6.19.014-13.1-4.335-17.515-3.517-3.569-8.857-4.551-13.856-4.886-22.312-1.495-44.217,6.283-64.4,15.9-9.684,4.615-19.218,9.724-27.575,16.451-5.289,4.258-10.28,9.505-11.816,16.119-1,4.295-.441,8.8.458,13.113a84.35,84.35,0,0,0,5.074,16.079c2.915,6.783,7.876,13.945,15.238,14.485A15.505,15.505,0,0,0,2776.111,1293.38Z"
                    transform="translate(-2062.996 -144.441)" fill="#3e3e3e" />
                <path
                    d="M2850.152,1280.032a12.891,12.891,0,0,1-.46-4.933,14.016,14.016,0,0,1,2.063-4.791c3.478-5.909,7.049-11.932,12.246-16.4,1.95-1.677,4.1-3.108,6.082-4.747,2.325-1.923,4.481-4.17,7.267-5.328,3.627-1.508,7.814-.93,11.5.422s7.066,3.426,10.671,4.985c6.69,2.891,14.477,4.206,19.436,9.547,3.5,3.77,4.976,8.951,6.121,13.966,1.64,7.178,2.82,14.8.558,21.809-3.334,10.327-13.387,17.009-23.512,20.915a60.951,60.951,0,0,1-11.687,3.333c-3.193.543-6.751.674-9.371-1.229a14.3,14.3,0,0,1-2.481-2.532c-5.431-6.206-10.759-12.455-16.487-18.4-2.753-2.855-5.736-5.522-8.443-8.413C2851.457,1285.884,2850.894,1283.166,2850.152,1280.032Z"
                    transform="translate(-2062.996 -144.441)" fill="#363637" />
                <path
                    d="M2867.14,1369.1a4.842,4.842,0,0,1-.382,2.19,4.114,4.114,0,0,1-1.892,1.608c-5.954,3.01-13.06,1.305-19.652.277a88.2,88.2,0,0,0-13.235-1.051,4.019,4.019,0,0,1-2.061-.368c-1.045-.62-1.275-2.007-1.386-3.216a185.763,185.763,0,0,1-.755-19.164,12.9,12.9,0,0,1,1.161-6.229,12.728,12.728,0,0,1,3.846-3.791c8.775-6.378,18.684-12.488,28.952-16.145,4.872-1.735,6,1.619,6.106,6.049.148,6.194-.219,12.445-.328,18.641Z"
                    transform="translate(-2062.996 -144.441)" fill="#5c2278" />
                <g>
                    <path
                        d="M3154.2,703.359c-14.673,13.415-28.518,22.483-42.33,27.721-16.731,6.346-33.858,7.03-48.226,1.926a63.062,63.062,0,0,1-28.181-20.877,80.485,80.485,0,0,1-14.665-32.7,5,5,0,1,0-9.789,2.044,90.52,90.52,0,0,0,16.544,36.775,72.163,72.163,0,0,0,32.744,24.182,71,71,0,0,0,23.791,3.959,88.684,88.684,0,0,0,31.328-5.957c15.016-5.7,29.909-15.408,45.532-29.692a5,5,0,1,0-6.748-7.38Z"
                        transform="translate(-2062.996 -144.441)" />
                    <path
                        d="M2976.368,550.816a15.921,15.921,0,0,0-3.885,6.913c-3.3,10.84-1.11,23.454,6.695,38.563,12.707,24.6,31.352,44.731,53.92,58.227a127.494,127.494,0,0,0,65.053,18.267,116.7,116.7,0,0,0,12.412-.658c14.909-1.6,30.374-6.176,45.967-13.617a180.835,180.835,0,0,0,50.4-35.711c3.477-3.492,7.359-7.678,9.4-13.166,2.5-6.72,1.311-13.982-3.026-18.5-5.312-5.534-13.181-5.537-18.64-5.059a93.057,93.057,0,0,0-28.208,7.027c-2.711,1.149-5.357,2.34-7.918,3.494-8.35,3.76-16.235,7.311-25.2,8.9-2.544.451-5.064.93-7.571,1.407-10.482,2-20.389,3.878-30.833,3.418a75.539,75.539,0,0,1-21.434-3.948c-16.83-5.844-30.235-17.776-44.426-30.408-9.689-8.624-19.708-17.542-31.007-24.455-.315-.192-.627-.364-.939-.543a4.921,4.921,0,0,0-6-2.686C2985.219,546.415,2980.034,547.244,2976.368,550.816Zm219.175,45.22c5.343-.471,8.794.192,10.55,2.022,1.645,1.714,2,5.041.868,8.09-1.343,3.612-4.376,6.847-7.113,9.6a170.865,170.865,0,0,1-47.624,33.741c-14.57,6.953-28.944,11.225-42.724,12.7-24.127,2.578-49.436-3.19-71.27-16.248-20.968-12.54-38.315-31.294-50.167-54.235-6.55-12.678-8.517-22.838-6.014-31.059a6.509,6.509,0,0,1,1.3-2.665,2.27,2.27,0,0,1,1.139-.557,31.8,31.8,0,0,0-1.334,19.24c1.569,6.328,5.253,10.849,10.107,12.4a13.568,13.568,0,0,0,7.853.032,20.661,20.661,0,0,0,6.745,13.067,18.036,18.036,0,0,0,13.478,4.161,18.329,18.329,0,0,0,2-.3,23.064,23.064,0,0,0,27.22,18.677,23.742,23.742,0,0,0,37.837,12.565,26.53,26.53,0,0,0,17.485,9.156q.805.062,1.606.061a21.65,21.65,0,0,0,17.022-8.3,25.28,25.28,0,0,0,11.25,5.276,21.767,21.767,0,0,0,17.936-5.527,26.649,26.649,0,0,0,6.709-9.69,22.126,22.126,0,0,0,13.68-1.221,16.614,16.614,0,0,0,6.189-4.092,17.981,17.981,0,0,0,3.378-5.943,43.357,43.357,0,0,0,2.466-19.56A82.947,82.947,0,0,1,3195.543,596.036Zm-173.11-12.6c14.3,12.727,29.083,25.887,47.8,32.384a85.472,85.472,0,0,0,24.271,4.492c11.612.513,22.562-1.569,33.147-3.584,2.464-.469,4.942-.941,7.444-1.384,10.186-1.8,19.017-5.781,27.558-9.627,2.51-1.131,5.106-2.3,7.712-3.4q2.934-1.242,5.943-2.252a33.335,33.335,0,0,1-2.024,13.427,8.989,8.989,0,0,1-1.407,2.707,7.119,7.119,0,0,1-2.574,1.562c-2.874,1.175-7.193,1.781-9.91-.382a5,5,0,0,0-8.026,2.98,18.13,18.13,0,0,1-5.355,10.135,11.874,11.874,0,0,1-9.585,3.1c-3.891-.657-6.932-3.228-11.127-7.076a5,5,0,0,0-8.245,2.532c-1.045,4.406-6.288,7.795-11.406,7.4-5.171-.4-10.272-4-13.311-9.391a5,5,0,0,0-8.441-.431,13.855,13.855,0,0,1-25.164-8.458,5,5,0,0,0-7.358-4.576,13.205,13.205,0,0,1-19.025-14.933,5,5,0,0,0-8.77-4.341,6.061,6.061,0,0,1-4.193,2.053,8.191,8.191,0,0,1-5.986-1.773c-3.141-2.714-4.313-7.889-2.85-12.586a5,5,0,0,0-7.729-5.52c-1.282.939-5.187,3.794-7.511,3.05-1.41-.451-2.764-2.525-3.448-5.285a22.021,22.021,0,0,1,1.089-13.514C3004.059,567.1,3013.4,575.391,3022.433,583.432Z"
                        transform="translate(-2062.996 -144.441)" />
                    <path
                        d="M2960.752,592.476a5,5,0,0,0,4.967-5.628,65.834,65.834,0,0,1,2.239-26.979c1.7-5.681,3.9-9.994,6.712-13.188,3.176-3.606,7.262-5.772,11.211-5.941a5,5,0,1,0-.429-9.991c-6.656.286-13.321,3.684-18.286,9.323-3.785,4.3-6.659,9.833-8.787,16.923A75.914,75.914,0,0,0,2955.8,588.1,5,5,0,0,0,2960.752,592.476Z"
                        transform="translate(-2062.996 -144.441)" />
                    <path
                        d="M3201.553,571.108c5.518,2.788,15.225,8.933,18.247,18.763,2.341,7.619.521,15.926-2.1,26a5,5,0,1,0,9.678,2.519c2.379-9.14,5.341-20.515,1.98-31.451-3.045-9.91-11.318-18.7-23.3-24.751a5,5,0,1,0-4.509,8.925Z"
                        transform="translate(-2062.996 -144.441)" />
                    <path
                        d="M4040.517,1547.581c-20.9-10.863-44.2-15.214-66.735-19.421-18.068-3.374-36.753-6.863-53.726-13.7-3.118-1.256-6.412-2.368-9.6-3.444-9.994-3.373-19.434-6.56-24.316-13.854a9.539,9.539,0,0,1,.485-10.778c2.035-2.518,5.581-4.113,8.745-5.411,10.006-4.1,20.789-7.157,31.217-10.111,16.413-4.649,33.384-9.457,48.475-18.548,1.2-.725,4.015-2.42,4.746-5.858.364-1.722.582-6.1-5.259-9.513-11.476-6.713-25.031-7.733-35.559-7.871-.873-.01-1.738-.016-2.607-.016-32.936,0-63.749,8.18-89.492,23.7a5.012,5.012,0,0,0-.514-.6c-17.307-16.822-36.837-31.444-55.725-45.584-13.543-10.139-27.547-20.624-40.511-31.769-10.109-8.691-19.934-18.242-29.437-27.481-22.712-22.081-46.181-44.895-75.8-58.309a1774.838,1774.838,0,0,0-132.469-337.22c-25.806-49.964-61.782-114.423-111.332-169.849-48.332-54.063-104.476-92.977-162.65-112.806.395-1.325.785-2.654,1.193-3.975,8.123-26.278,19.99-51.854,31.465-76.589,3.9-8.4,7.839-16.895,11.67-25.492,10.06,4.939,21.312,5.344,29.23,5.167,5.5-.121,11.944-.586,17.965-3.11a52.672,52.672,0,0,0,10.516-6.335,62.724,62.724,0,0,0,10.707-9.26c3.88-4.437,6.611-9.739,8.8-14,1.837-3.568,4.123-8.008,5.111-12.893.938-4.629.784-9.675-.481-15.88-2.137-10.476-6.28-18.764-12.31-24.669,1.075-4.445,2.015-10.55-.869-15.928a18.117,18.117,0,0,0-8.521-7.655c1.379-3.454,3.981-10.032,6.648-17.1,4.917-13.029,2.485-64.739-11.672-138.359-14.625-76.048-49.943-94.312-66.916-103.089-.942-.487-1.825-.944-2.641-1.379-12.972-6.919-35.946-7.632-44.87-7.632h-.111c-4-8.148-17.886-26.82-64.02-39.77-57.137-16.038-108.936-3.865-173.2,40.706-60.948,42.27-82.042,117.148-97.029,184.014-9.42,42.028-.153,60.87,6.977,68.724a37.466,37.466,0,0,0-14.968,8.839,53.177,53.177,0,0,0-9.784,14.171,56.153,56.153,0,0,0-5.036,13.225c-1.757,7.8-1.275,16.541,1.472,26.712,2.18,8.072,5.1,14.512,8.933,19.688,4.867,6.577,11.819,12.054,21.254,16.746a96.9,96.9,0,0,0,34.053,9.638c2.1,7.395,4.162,14.958,5.691,22.467,3.27,16.06,4.319,32.971,5.334,49.325,1.3,20.975,2.658,42.6,8.651,63.259a4.9,4.9,0,0,0-.562.062c-11.5,2.3-22.2,8.572-32.546,14.636-4.338,2.542-8.435,4.943-12.49,7-46.853,23.753-92.651,59.428-144.128,112.271a1141.161,1141.161,0,0,0-224.884,332.1,292.086,292.086,0,0,0-25.5-22.509c-18.022-14.218-37.551-26.808-56.438-38.984q-7.554-4.869-15.082-9.771c-17.655-11.547-35.273-23.674-52.365-36.043-34.052-24.644-66.913-49.212-94.616-78.765a5,5,0,0,0-7.122-.176c-.223.215-.441.433-.664.648-5.2-9.724-14.052-16.758-20.749-21.454-2.236-1.567-4.531-3.094-6.751-4.57-7.1-4.723-13.8-9.183-19.083-15.092-.592-.663-2.393-2.679-2.46-4.151a3.778,3.778,0,0,1,.64-2,9.769,9.769,0,0,1,5.9-3.9,30.106,30.106,0,0,1,9.379-.513,33.084,33.084,0,0,1,8.759,1.5,41.147,41.147,0,0,1,5.29,2.507c1.635.868,3.326,1.765,5.169,2.533,5.839,2.43,11.449,2.458,15.794.081a11.338,11.338,0,0,0,5.176-5.643,13.531,13.531,0,0,0,.22-8.154,43.568,43.568,0,0,0-20.9-27.87c-1.028-.575-2.087-1.09-3.16-1.574a4.845,4.845,0,0,0-.139-.605,42.787,42.787,0,0,0-43.1-29.015,4.987,4.987,0,0,0-.467-1.161c-2.836-4.932-8.488-6.418-11.2-7.133-7.144-1.881-16.572-3.8-26.149-1.941-11.371,2.209-21.885,9.569-29.605,20.723-6.574,9.5-10.3,20.507-12.791,29.561-17.477-12.792-28.037-33.3-34.518-47.864-2.739-6.156-5.333-12.56-7.841-18.753-5.58-13.775-11.35-28.019-19.3-41.087-.846-1.39-2.827-4.644-6.627-5.477-4.318-.942-8.608,1.68-10.933,6.683-2.819,6.067-3.018,12.737-2.813,19.042,1.164,35.771,12.917,73.064,34.934,110.844,19.664,33.744,45.224,64.121,69.72,92.342,14.086,16.229,27.044,30.751,42.147,43.735-5.015,5.9-9.867,11.668-14.54,17.262a5,5,0,0,0,.117,6.546,2427.278,2427.278,0,0,0,263.64,252.455c16.774,13.794,36.419,29.615,57.319,42.813,11.65,7.358,26.726,15.8,43.389,18.7l.89,28.325-24.7.15a5,5,0,0,0-4.969,5.1l1,52a5,5,0,0,0,.985,2.885l26,35a5.025,5.025,0,0,0,4.388,2.005l10.593-.793,13.539,33.3,4.994,791.039a5,5,0,0,0,5,4.969h.032a5,5,0,0,0,4.968-5.031l-4.968-786.946,856.881,3.954L3440.5,2355.413a5,5,0,0,0,4.912,5.086h.089a5,5,0,0,0,5-4.913l13.984-805.1L3475.605,1522h31.585a5,5,0,0,0,4.552-2.932l21.81-48c.012-.028.021-.057.033-.085.024-.056.043-.113.065-.17a5.062,5.062,0,0,0,.24-.784c0-.02.011-.039.015-.059a5.026,5.026,0,0,0,.086-.9c0-.033.009-.063.009-.1s-.006-.038-.006-.058,0-.07,0-.105l-2-53A5,5,0,0,0,3527,1411h-.031l-54.071.327-4.183-82.575c27.143,33.133,58.305,62.922,88.614,91.866l36.443,34.8c36.057,34.433,73.341,70.038,115.613,98.532.084.057.174.1.261.149.212.224.42.452.635.674a77.143,77.143,0,0,0,54.839,23.147q2.229,0,4.461-.137a5,5,0,0,0,.565-.092c.543.618,1.093,1.241,1.632,1.856,8.9,10.137,18.1,20.618,27.91,30.328,16.509,16.339,34.9,30.667,52.312,43.717,28.31,21.217,61.69,44.689,99.633,54.695a20.5,20.5,0,0,0,5.209.744c4.412,0,6.914-1.916,8.305-3.8a10.816,10.816,0,0,0,1.942-6.553c.105-10.962-8-18.943-15.6-25.564-10.769-9.375-22.992-19.99-35.228-30.618-5.286-4.591-10.567-9.177-15.743-13.674,6.344,2.562,12.63,5.2,18.824,7.816,8.162,3.441,16.6,7,25.017,10.291,20.16,7.885,46.9,17.01,75.008,17.579.184,0,.4.008.637.008a9.689,9.689,0,0,0,6.773-2.311c2.976-2.78,3.345-7.23.989-11.9-4.524-8.966-12.239-15.376-19.9-20.968a295.487,295.487,0,0,0-46.164-27.26c9.453,1.683,19.071,3.1,28.744,4.121,12.6,1.33,26.013,2.021,38.782-1.889a10.4,10.4,0,0,0,4.618-2.572,7.93,7.93,0,0,0,2.231-6.533c-.453-4.045-3.669-7.464-6.527-9.315-9.171-5.939-19.5-9.735-27.467-12.379q-2.8-.928-5.625-1.8c15.182.027,30.718-2.167,44.659-9.6,1.083-.577,3.961-2.112,4.694-5.523C4046.173,1554.891,4046.383,1550.627,4040.517,1547.581Zm-713.356-819.9c3.516,24.806,6.078,48.97,8.323,71.388l37.115,370.52-43.245-21.722a5,5,0,0,0-6.668,2.138l-1.155,2.193a553.16,553.16,0,0,0-55.76-23.417c-22.279-7.765-39.844-11.635-52.923-11.633l5.88-21.221,104.65-7.939a5,5,0,0,0,4.61-4.64l1.46-21.076a5,5,0,0,0-4.988-5.346h-94.927l64.285-232.02a5,5,0,0,0-1.926-5.414L3236.6,780.3l54.539-25.777a5,5,0,0,0,1.738-7.681l-54.843-67.263c30.581,10.769,60.587,26.991,89.128,48.064C3327.161,727.654,3327.159,727.666,3327.161,727.679ZM3031.519,1414c-1.732-9.7-7.237-41.952-11.319-66h6.229a5,5,0,0,0,4.995-5.206l-1.172-28.47c11.386-3.539,16.666-15.307,17.717-24.772.7-6.294-2.4-14.4-7.895-20.659a36.64,36.64,0,0,0-27.266-12.289c-.234,0-.465-.006-.7-.006-.325,0-.637.016-.956.024-1.55-23.234-9.129-184.285,1.773-248.789,10.407-61.571,31.247-122.554,36.142-136.42,5.709-.487,11.587-.451,17.306-.412,5.851.041,11.88.1,17.4,1.438,3.081,16.018,14.369,78.611,15.22,139.774.913,65.57-11.525,188.184-13.462,206.828a63.575,63.575,0,0,0-14.464,13.863c-12.624,16.011-16.717,30.816-12.164,44,2.661,7.708,7.981,13.816,14.024,18.579L3047.366,1413.9Zm-471.088-162.792,25.756-29.781,37.157,52.248-14.175,35.438-12.733-12.7a4.951,4.951,0,0,0-1.131-.821L2595,1280.9a4.976,4.976,0,0,0-.1-.836c8.311-9.866,11.7-20.292,9.954-27.273-2.8-11.2-19.557-7.014-25.064-5.638-4.807,1.2-10.621,3.888-16.644,7.639Zm233-27.837c28.7-15.946,66.8-28.975,79.7-13.205a17.439,17.439,0,0,1,3.7,14.441c-2.979,19.434-28.568,42.427-49.574,56.212-18.7,12.274-32.983,12.483-40.891,11.018l2.489-1.733a5,5,0,0,0,1.33-6.84l-17-26a5,5,0,0,0-6.323-1.784l-2.978,1.409C2761.512,1245.625,2778.023,1231.929,2793.428,1223.371Zm120.913,35.761c5.483,5.157,7.867,12.266,7.287,21.733-.648,10.6-4.289,18.717-10.821,24.131a32.061,32.061,0,0,1-8.776,5.08c-.053.019-.1.044-.156.064a48.783,48.783,0,0,1-14,2.983,31,31,0,0,0,5.062-12.121c1.033-6.465-.65-12.552-5-18.091-7.413-9.434-20.239-7.891-33.163-2.476l-.8-7c-.009-.073-.034-.137-.046-.208a139.631,139.631,0,0,0,21.927-23.287C2878.4,1249.669,2902.046,1247.564,2914.341,1259.132Zm-51.308,106.991-29.856.75v-10.231c5.8-3.673,11.692-7.876,17.514-12.035,4.232-3.023,8.229-5.878,12.082-8.447.159-.106.306-.211.464-.317Zm-126.254-91.165L2757,1303.736l-26.189,17.959-16.339-31.123Zm-24.518,4.956-7.128,4.99a4.986,4.986,0,0,0-1.819,5.792,134.351,134.351,0,0,0-18.342,13.639c-14.7,13.252-17.64,23.98-16.412,31.784-15.807,23.725-43.15,40.161-71.517,42.814L2595.6,1309.7l11.869,11.839h0a5,5,0,0,0,1.039.771,5.063,5.063,0,0,0,.615.321l.019.01a4.984,4.984,0,0,0,.55.16c.118.033.233.08.353.1a4.855,4.855,0,0,0,1.718.033c.074-.012.146-.035.22-.05a4.977,4.977,0,0,0,.526-.128c.019-.006.038-.008.057-.014l54.667-18.048a5,5,0,0,0,2.833-2.374l25.333-46.952c.011-.019.017-.039.027-.058.024-.047.042-.1.065-.142a4.936,4.936,0,0,0,.265-.668c.022-.068.044-.133.063-.2a4.981,4.981,0,0,0,.153-.817c.006-.058,0-.116.008-.175.007-.119.018-.238.016-.358,5.48-2.279,15.233-6.439,26.788-11.815l-10.516,38.731C2712.265,1279.885,2712.265,1279.9,2712.261,1279.914Zm-79.49-2.876,47.918-15.458-18.479,34.248-42.579,14.057Zm50.772-26.886-52.591,16.965-36.339-51.1,56.222-21.818Zm-101.33,6.7c8.977-2.244,12.181-1.558,13.016-1.255,1.206,7.042-9.1,27.119-35.911,36.695-14.814,5.291-20.633,6.15-22.9,6.059.327-1.2,1.253-3.559,3.843-7.786C2550.676,1273.571,2571.714,1259.476,2582.213,1256.851Zm15.616,159.774-.577-27.677a107.643,107.643,0,0,0,76.208-42.429,16.159,16.159,0,0,0,9.177,5.109,19.629,19.629,0,0,0,3.605.319c5.391,0,11.322-1.954,17.043-4.733-3.737,22.857-6.962,45.912-9.64,68.831Zm116.682-75.94c4.353-2.911,8.17-5.865,10.974-8.167A4.871,4.871,0,0,0,2729,1334c.105,0,.208-.017.313-.023l-9,81.907-16.589.1C2706.675,1390.892,2710.29,1365.646,2714.511,1340.685Zm44.465-26.177,7.852-5.384a4.973,4.973,0,0,0,2.063-5.129l7.09-4.933a43.249,43.249,0,0,0,17.456,3.364c9.98,0,23.452-2.841,39.306-13.245,3.957-2.6,7.993-5.451,11.989-8.5l.5,4.377a174.382,174.382,0,0,0-19.224,12.389c-1.1.811-2.4,1.736-3.836,2.761-16.522,11.792-50.9,36.328-35.269,58.66a20.074,20.074,0,0,0,13.34,8.755,22.617,22.617,0,0,0,3.822.316c5.972,0,12.424-2.171,19.111-5.55V1372a5,5,0,0,0,5,5l.125,0,1.7-.043v38.265l-78.933.478ZM2866,1376.051l2.125-.053a5,5,0,0,0,4.875-4.965l.287-42.583q3.284-2.666,6.037-5.306c1.089.077,2.578.149,4.374.149a65.651,65.651,0,0,0,14.587-1.628c-1.036,17.913-3.9,65.338-6.671,93.182L2866,1415Zm42.5-57.877a40.941,40.941,0,0,0,8.627-5.43c8.783-7.25,13.655-17.769,14.481-31.267.761-12.442-2.744-22.411-10.418-29.629a38.545,38.545,0,0,0-10.807-7.037c0-.144.029-.284.022-.43L2892.1,870.818l51.9-57.457,47.188,55.866c.027.032.062.053.09.084-4.847,62.855-12.328,177.046-10.269,260.812,2.55,103.669,3.025,139.708,3.108,147.925l-1.99-.047a5.039,5.039,0,0,0-3.441,1.262l-27,24c-.1.088-.188.184-.279.279-.029.03-.06.057-.088.088a5.008,5.008,0,0,0-.5.66c-.034.052-.066.1-.1.157a5.021,5.021,0,0,0-.365.739c-.018.046-.031.094-.048.141a5.153,5.153,0,0,0-.209.775c-.006.035-.016.068-.022.1a5.052,5.052,0,0,0-.056.888c0,.032-.007.063-.006.1s.009.046.01.069c0,.046,0,.091,0,.137l3,38A5,5,0,0,0,2958,1350c.066,0,.132,0,.2,0l15.929-.625,3.66,64.954-76.116.461C2904.676,1384.1,2907.749,1331.432,2908.5,1318.174Zm42.641-613.255c7.671,19.766,14.423,37.983,20.974,56.6,1.85,5.257,3.693,10.638,5.476,15.842,5.343,15.6,10.8,31.518,17.394,46.993-.322,3.568-1.3,14.569-2.6,30.8l-78.2-92.582C2926.668,742.8,2944.5,714.812,2951.143,704.919Zm278.489-9.549c.99-2.282,1.887-4.6,2.729-6.924l48.727,59.763-112.727,53.28,3.693-22.853,32.31-47.007C3215.445,720.528,3224.037,708.26,3229.632,695.37Zm-2.666,90.358,56.278,39.89-81.07,292.6q-9.731,2.212-14.312,8.972a16.571,16.571,0,0,0-2.051,14.436,33.419,33.419,0,0,0,6.691,11.5l-28.808,103.977-15.881,1.449c-4.412-10.7-18.8-41.188-40.776-44.787a26.858,26.858,0,0,0-5.24-.325l64.63-399.978,59.886-28.305A5.045,5.045,0,0,0,3226.966,785.728Zm159.079,401.8-33.93,56.869-53.342-27.531L3329.248,1159Zm7.2,7.444,6.023,10.165-2.123,4.019-8.444-6.568Zm-27.146,156.7a4.966,4.966,0,0,0-.554-.208,166.131,166.131,0,0,1-23.009-11.152,401.155,401.155,0,0,1-36.989-24.165c-2.354-14.122,3.746-22.473,19.54-26.761,23.966,15.929,60.786,45.126,62.92,59.664a4.267,4.267,0,0,1-.834,3.725C3385.946,1354.239,3381.341,1357.278,3366.1,1351.676Zm-7.1,34.216-34.429-.738v-27.44h6.215a5,5,0,0,0,5-5v-4.739q.872.5,1.747,1A186.948,186.948,0,0,0,3359,1359.607Zm-63.711-71.168c-6.949,1.416-27.765,4.414-43.122-6.388-10.709-7.534-16.826-20.558-18.181-38.708-1.121-15.026,3.824-26.39,14.3-32.861,13.327-8.233,33.949-7.222,50.153,2.458,14.973,8.945,23.446,23.6,23.657,40.621C3298.526,1286.438,3293.989,1301.45,3295.289,1314.724Zm56.418-59.281c.108.056.22.1.33.146.049.021.1.045.144.064a4.856,4.856,0,0,0,.86.247c.022,0,.042.015.064.019l22,4a4.926,4.926,0,0,0,2.753-.285l-.63,57.994c-15.948-15.37-36.6-29.824-45.143-35.584.542-21.554-9.761-40.2-28.517-51.4-.237-.142-.479-.275-.718-.414Zm22.344-5.88-12.063-2.192,7.538-12.635,10.805,7.4Zm-147.288-182.639H3319.1l-.791,11.417-96.745,7.339Zm-18.916,256.051c-12-10.247-28.9-18.25-39.249-8.639a17.216,17.216,0,0,0-5.51,12.444c-.229,8.384,4.67,17.624,9.615,24.762l-27.218,1.209,3.642-41.057,61.728-4.258ZM3109,1314.15v-34.737l30.333,29.513-3.264,36.8Zm-40.638-40.507c-3.369-9.76.185-21.383,10.564-34.547,9.172-11.632,18.077-16.834,26.486-15.462,14.289,2.332,26.276,23.055,31.954,35.873l-33.82,3.085c-.1.009-.191.039-.289.054-.153.023-.3.048-.455.086a4.873,4.873,0,0,0-.481.149c-.138.049-.274.1-.408.16a4.906,4.906,0,0,0-.468.255c-.118.07-.236.137-.349.218a5,5,0,0,0-.467.393c-.069.063-.147.11-.212.178-.018.018-.029.039-.046.058a4.713,4.713,0,0,0-.44.554c-.05.07-.112.134-.157.206a4.962,4.962,0,0,0-.428.841c-.032.079-.044.164-.071.245a4.707,4.707,0,0,0-.188.667c-.027.143-.027.288-.041.432a4.815,4.815,0,0,0-.046.483v30.637C3089.792,1294.917,3073.053,1287.228,3068.362,1273.643ZM3109,1012.074c-.9-64.647-13.288-130.789-15.77-143.43a141.543,141.543,0,0,0,8.447-13.4l1.387,8.558a5,5,0,0,0,9.057,2.032l46.691-67.931-1.843,11.41v0L3102.1,1148.872C3105.8,1104.349,3109.516,1049.215,3109,1012.074Zm37.408,289.784-31.135-30.295,69.326-6.323,23.133,32.387Zm-35.467-451.964L3100.5,785.44a134.068,134.068,0,0,0,24.486-5.649c17.285-5.768,34.472-14.446,52.306-26.424Zm-20.418-63.48,8.39,51.771a131.767,131.767,0,0,1-13.577,24.328c-6.352-1.424-12.713-1.469-18.889-1.512-5.847-.039-11.859-.081-17.893.415-2.735-6.475-5.127-13.214-7.452-19.763-2.956-8.323-6.011-16.929-6.44-25.569-.008-.155-.047-.3-.068-.45q6.685-12.462,14.4-24.3c1.951-2.985,3.905-5.771,6.357-7.064.093-.049.169-.117.257-.171a137.5,137.5,0,0,0,26.578,2.6C3084.964,786.694,3087.745,786.583,3090.523,786.414ZM3021.219,1338h-4.087l-3.927-31.659,6.35-8.751Zm-58.613,1.815L2960.4,1311.8l43.208-1.631,3.462,27.9Zm51.007-51.061-8.231,11.342-36.644,1.382,15.112-13.432Zm15.383-4.96a5,5,0,0,0-4.877-4.793l-28.955-.689c1.75-4.866,6.226-11.936,17.457-11.709,10.193.19,16.47,4.939,19.94,8.889,4.214,4.8,5.789,10.079,5.47,12.956-.611,5.5-3.129,12.106-8.219,15.173Zm-21.673-28.712a4.673,4.673,0,0,1,.547.145A5,5,0,0,0,3007.323,1255.082Zm.823.223a4.884,4.884,0,0,1,.587.269A5.031,5.031,0,0,0,3008.146,1255.305Zm.76.354a4.863,4.863,0,0,1,.529.359A5.016,5.016,0,0,0,3008.906,1255.659Zm.688.474a5.076,5.076,0,0,1,.456.435A5.057,5.057,0,0,0,3009.594,1256.133Zm-6.524-249.966c-6.3,37.248-6.477,104.2-5.52,153.812.559,29,1.532,54.318,2.25,70.453.729,16.385,1.089,24.153,1.467,28.077a25.109,25.109,0,0,0-7.369,4.4c-.32-19.669-1.085-59.235-2.9-133.033-2.406-97.809,8.28-237.52,12.453-287.339,1.727,3.383,3.526,6.732,5.423,10.03a5,5,0,0,0,8.994-.682c2.791-7.181,5.859-14.259,9.152-21.231,1.311,4.909,3,9.668,4.657,14.344,2.568,7.233,5.223,14.691,8.371,21.94C3035.9,878.609,3013.908,942.038,3003.07,1006.167Zm37.55-220.308a337.969,337.969,0,0,0-28.059,52.545c-10.5-20.463-18.111-42.691-25.508-64.281-1.789-5.223-3.639-10.623-5.5-15.92-3.456-9.822-6.965-19.527-10.632-29.4a136.4,136.4,0,0,0,50.665,43.752,133.89,133.89,0,0,0,22.32,8.7A56.287,56.287,0,0,0,3040.62,785.859Zm-52.822,628.4-3.678-65.285,9.984-.391,1.94,65.626Zm18.249-.11-1.95-65.958,5-.2h.959c.907,5.348,3.369,19.84,5.848,34.343,1.56,9.129,3.126,18.259,4.314,25.105.445,2.564.837,4.807,1.156,6.613Zm21.866-1.1a4.972,4.972,0,0,1,.672.145A4.984,4.984,0,0,0,3027.913,1413.052Zm46.675-77.845-9.27,78.588-7.708.047Zm13.674-30.566a96.134,96.134,0,0,0,10.738,4.125V1316a5,5,0,0,0,1.2,3.254l36,42a4.933,4.933,0,0,0,.582.566c.038.033.075.066.115.1a4.856,4.856,0,0,0,.686.455c.049.027.1.053.148.078a4.929,4.929,0,0,0,.775.318c.045.014.092.025.138.038a4.9,4.9,0,0,0,.878.168c.011,0,.021.005.033.006.14.013.278.018.417.019h.032c.071,0,.142,0,.214-.005l40.1-1.782c.218.246.429.481.62.692l-1.524,51.2-104.022.63Zm130.351,108.226-.4-22.8a26.249,26.249,0,0,0,12.019,5.044c5.7.676,11.241-1.167,16.042-5.329a14.055,14.055,0,0,0,4.928-10.828c.1-13.815-17.471-32.418-34.675-48.193l5.382-27.807c.009-.044.005-.089.012-.134a4.766,4.766,0,0,0,.047-.524,4.844,4.844,0,0,0,.016-.5c0-.047.008-.092,0-.14-.008-.124-.044-.238-.061-.359-.024-.166-.045-.331-.085-.494a4.788,4.788,0,0,0-.165-.5,4.538,4.538,0,0,0-.168-.432,4.825,4.825,0,0,0-.258-.454c-.064-.105-.111-.218-.183-.319l-30-42a5,5,0,0,0-4.522-2.073l-12.207,1.113,26.256-94.764c24.819,22.175,72.379,44.11,89.023,51.422l-2.042,3.878a5,5,0,0,0,2.131,6.773l7.2,3.718c-18.213-8.285-39.091-8.041-53.88,1.1-13.66,8.438-20.414,23.394-19.017,42.113,1.588,21.278,9.124,36.8,22.4,46.143,10.937,7.693,23.726,9.7,34.109,9.7a82.888,82.888,0,0,0,18.891-2.164c3.657,2.7,13.871,10.11,26.373,17.912v5.748h-6.215a5,5,0,0,0-5,5v37.334a5,5,0,0,0,4.893,5l3.673.079.777,17.1ZM3360,1395.916l3.893.083H3364a5,5,0,0,0,5-5v-27.936a53.181,53.181,0,0,0,7.849,1.606c-.955,15.686-1.709,31.539-2.238,47.252l-14.611.089Zm26.9-31.744a15.3,15.3,0,0,0,7.927-4.951,14.29,14.29,0,0,0,3.08-11.619c-.873-5.947-5.087-12.8-11.041-19.81a4.942,4.942,0,0,0,.272-1.5l.82-75.429a4.977,4.977,0,0,0-.341-1.847l1.009-1.193,61.115,41.883-29.619-.7a5,5,0,0,0-5.119,5.018l.447,117.656-30.828.187C3385.157,1396,3385.922,1380,3386.9,1364.172Zm-12.238-138.04,8.883-14.889,133.994,104.219-5.12,5.076Zm30.505-10.739,4.257-8.057a4.989,4.989,0,0,0,.561-2.643l6.819,19.751Zm-7.769-33.038a4.983,4.983,0,0,0-4.225-2.434l-10.061-5.054a4.963,4.963,0,0,0,0-.679l-6.68-66.689,32.649,94.575Zm-42.56-673.588c.989,4.846,1.142,8.627.479,11.9-.713,3.525-2.566,7.124-4.2,10.3-2.046,3.974-4.365,8.478-7.441,12a54.273,54.273,0,0,1-9.061,7.755,43.636,43.636,0,0,1-8.5,5.2c-4.479,1.877-9.753,2.233-14.32,2.335-10.7.243-18.738-1.148-24.989-4.337a419.771,419.771,0,0,0,17.327-46.73c1.58-5.342,3.133-11.421,2.382-17.55,6.165-4.769,12.176-7.372,17.9-7.745a27.866,27.866,0,0,1,20.288,6.751C3349.616,493.128,3353.026,499.9,3354.835,508.767Zm-11.515-33.026a38.584,38.584,0,0,0-19.558-3.832c-8.3.539-16.707,4.293-25.02,11.142a101.747,101.747,0,0,0,2.907-11.174c4.158-1.258,8.266-2.436,12.225-3.5,7.746-2.076,16.615-4.053,23.875-1.217a9.206,9.206,0,0,1,4.894,3.735A8.524,8.524,0,0,1,3343.32,475.741ZM2916.011,441.2a66.561,66.561,0,0,1-7.928-6.787,5.89,5.89,0,0,1-1.47-1.748,6.646,6.646,0,0,1,1.082-2.413,10.5,10.5,0,0,1,1.784-2.538,4.809,4.809,0,0,1,3.465-.775,14.093,14.093,0,0,1,3.811,1.067A68.8,68.8,0,0,0,2916.011,441.2ZM2933.9,467.75c-8.736-15.5-10.319-31.948-4.706-48.9,4.727-14.276,13.763-25.649,20.065-31.051,13.38-11.467,47.778-30.207,82.2-19.04,27.995,9.08,45.443,45.131,50.943,58.167a80.4,80.4,0,0,0-17.2,4.319c-.308-4.923-.793-9.835-1.5-14.721-.7-4.867-1.737-10.458-5.074-15.229-3.3-4.71-8.558-8.219-16.087-10.726a103.788,103.788,0,0,0-19.61-4.1,224.678,224.678,0,0,0-50.591-.674c-4.349.437-9.385,1.067-14.135,3.037-5.669,2.35-9.971,6.3-12.114,11.107a30.69,30.69,0,0,0-2.1,9.1c-1.883,15.681-3.832,31.9-1.736,48.18.717,5.574,2.238,13.75,7.15,20.38a23.83,23.83,0,0,0,17.978,9.77c5.611.4,11.285.508,16.772.611,5.658.107,11.508.217,17.182.654,7.064.544,14.264,1.1,21.525,1.1a105.748,105.748,0,0,0,16.018-1.117,141.368,141.368,0,0,0,14.3-3.129,11.4,11.4,0,0,0,5.108-2.5c.137-.126.261-.257.385-.387-2.333,4.371-4.558,8.817-6.632,13.342-3.65,3.2-21.716,18.067-42.029,18.067C2994.958,514,2957.429,509.493,2933.9,467.75Zm20.97-131.13a17.052,17.052,0,0,0,3.128,5.692,18.357,18.357,0,0,0,5.569,3.972l.031.015c5.336,2.707,10.224,4.962,14.943,6.892q5.533,2.265,11.236,4.177a112.8,112.8,0,0,0-43.637,20.1A380.419,380.419,0,0,1,2954.865,336.62Zm82.5,21.9a142.622,142.622,0,0,0-17.252-3.839c-3.52-.63-7.16-1.282-10.673-2.1a179.459,179.459,0,0,1-27.118-8.643c-4.462-1.826-9.1-3.968-14.191-6.548a10.416,10.416,0,0,1-2.652-1.7,10.758,10.758,0,0,1-1.445-3.127c-.538-1.535-1.658-4.73-.915-6.144.366-.7,1.753-1.9,6.93-2.165,16.066-.814,33.086,1.566,52.025,7.278,21.611,6.517,37.891,15.279,49.769,26.785a9.5,9.5,0,0,1,1.136,1.292c-5.412,3.438-11.977,3.729-16.555,3.357C3050.062,362.446,3043.607,360.449,3037.365,358.518ZM3050.64,475.8a132.283,132.283,0,0,1-13.285,2.92c-11.515,1.762-23.586.833-35.261-.069-5.964-.459-11.963-.572-17.763-.681-5.358-.1-10.9-.2-16.248-.587a13.928,13.928,0,0,1-10.655-5.748h0c-3.522-4.753-4.693-11.239-5.267-15.7-1.937-15.049-.064-30.637,1.747-45.711a22.434,22.434,0,0,1,1.311-6.222,12.5,12.5,0,0,1,6.808-5.938,40.3,40.3,0,0,1,11.3-2.324q10.588-1.062,21.284-1.062a215.314,215.314,0,0,1,27.052,1.707,94.465,94.465,0,0,1,17.707,3.672c5.417,1.8,9.032,4.084,11.051,6.97,2.081,2.975,2.832,7.2,3.373,10.931a171.462,171.462,0,0,1,1.628,18.022c-4.118,2.654-10.658,7.591-10.855,12.271a6.02,6.02,0,0,0,2.994,5.484c2.571,1.535,5.381.473,7.644-.388-.169,2.686-.381,5.37-.677,8.046a54.735,54.735,0,0,1-2.9,13.722c-.08.207-.142.357-.19.464C3051.187,475.659,3050.839,475.75,3050.64,475.8Zm13.832-13.311q.657-5.942.915-11.912c2.376-.578,4.546-1.053,6.638-1.455,2.632-.5,5.105-.876,7.493-1.146-6.161,9.5-12.443,19.419-18.214,29.769A67.233,67.233,0,0,0,3064.472,462.49Zm23.9-25.024c-1.548,0-3.107.037-4.668.118h0c-2.512.132-5.08.38-7.756.752,14.119-3.546,30.708-3.049,50.275,1.463,1.535.354,5.6,1.557,15.581,5.635l.209.085a26.015,26.015,0,0,1,6.784,4.46c-1.056-.437-2.118-.883-3.194-1.335-4.374-1.838-8.9-3.739-13.608-5.212-8.686-2.714-17.713-3.866-25.493-4.732A163.623,163.623,0,0,0,3088.375,437.466Zm42.947,16.287c3.45,1.2,6.851,2.614,10.409,4.11,3.416,1.435,6.91,2.9,10.517,4.174-.243,1.969-.422,3.94-.581,5.872a98.789,98.789,0,0,0,2.614,32.185,14.561,14.561,0,0,0,3.643,7.2,14.4,14.4,0,0,0,6,3.21c16.922,5.419,34.588,8.287,52.709,10.982,8.113,1.207,17.389,2.587,26.935,2.586a80.2,80.2,0,0,0,13.783-1.128,85.948,85.948,0,0,1-94.576-1.1c-16.156-10.771-26.269-26.355-30.059-46.319A90.084,90.084,0,0,1,3131.322,453.753Zm41.035-28.325c.083-.2.3-.728.469-1.031.159-.042.418-.1.841-.167,8.867-1.484,18.375-.371,26.59.789,12.9,1.82,25.972,4.281,38.615,6.661,5.844,1.1,11.887,2.237,17.852,3.3,3.842.686,7.815,1.394,10.468,3.38,5.169,3.87,5.6,12.689,5.479,18.987a214.361,214.361,0,0,1-6.555,48.55c-.478,1.881-1.021,3.786-1.929,4.612a8.734,8.734,0,0,1-3.129,1.357c-14.074,4.025-30.089,1.642-42.956-.272-17.7-2.632-34.923-5.425-51.13-10.615a8.15,8.15,0,0,1-2.092-.871,7.986,7.986,0,0,1-.9-2.444,88.832,88.832,0,0,1-2.347-28.935c.135-1.643.282-3.263.463-4.847a6.017,6.017,0,0,0,3.116-2.272,6.243,6.243,0,0,0,.965-4.568,13.971,13.971,0,0,0-1.506-4.554c.637-2.258,1.091-4.49,1.531-6.666.3-1.487.586-2.892.925-4.3A109.1,109.1,0,0,1,3172.357,425.428Zm100.83,4.927c-4.554-3.409-9.949-4.371-14.708-5.219-5.917-1.055-11.937-2.188-17.757-3.283-12.754-2.4-25.943-4.883-39.067-6.736-8.955-1.263-19.368-2.469-29.638-.75a11.442,11.442,0,0,0-5.224,1.99,11.907,11.907,0,0,0-3.676,5.25,119.276,119.276,0,0,0-5.712,17.578c-.345,1.437-.636,2.853-.917,4.234a37.988,37.988,0,0,0-10.693-7.159l-.207-.084q-5.678-2.319-9.8-3.81c9.077-27.531,34.688-49.532,65.162-55.458,32.594-6.339,60.99,5.016,79.957,31.969,16.109,22.893,18.67,64.563-4.246,95.894a224.408,224.408,0,0,0,6-47.229C3282.836,449.044,3282.034,436.981,3273.187,430.355Zm15.9-27.232c-21.062-29.93-53.881-43.061-90.043-36.031-34.082,6.627-62.748,31.428-72.854,62.471a138.1,138.1,0,0,0-33.326-3.5c-3.135-8.067-14.71-35.153-34.968-53.016.495.017.992.033,1.511.033,5.766,0,12.89-1.095,19.224-5.227a10.486,10.486,0,0,0,3.766-3.869c.978-1.87,2.586-6.868-3.6-12.859-13.052-12.643-30.664-22.187-53.839-29.176-20.058-6.049-38.184-8.563-55.419-7.692a26.4,26.4,0,0,0-8.32,1.567c11.842-34.68,33.8-79.447,72.427-103.586,36.856-23.035,83.281-31.854,130.72-24.835,45.292,6.7,85.2,27.23,109.479,56.323,47.436,56.832,36.2,202.824,35.111,215.628q-2.828.777-5.725,1.62C3305.111,440.175,3300.487,419.319,3289.089,403.123ZM3266.4,208.85c15.575,8.053,47.982,24.812,61.69,96.094,15.89,82.633,15.039,125.249,12.136,132.941-2.975,7.885-5.859,15.131-7.026,18.041a48.23,48.23,0,0,0-14.006.919,672.615,672.615,0,0,0,.813-83.434c-3.549-63.964-16.5-109.751-38.481-136.091-11.655-13.964-26.642-26.056-43.953-35.78,9.316.777,19.687,2.466,26.074,5.872C3264.5,207.866,3265.418,208.342,3266.4,208.85ZM2898.879,378.094c14.575-65.025,34.98-137.766,92.971-177.986,62.374-43.258,110.121-54.641,164.8-39.294,31.851,8.94,46.558,20.323,53.214,27.939a218.3,218.3,0,0,0-44.029-11.241c-49.789-7.366-98.614,1.955-137.483,26.248-33.716,21.073-60.663,60.089-77.929,112.83a370.059,370.059,0,0,0-15.9,72.2A86.319,86.319,0,0,0,2919.7,415.7c-.27.815-.5,1.631-.744,2.446a21.886,21.886,0,0,0-5-1.156,14.639,14.639,0,0,0-10.964,3.115,18.6,18.6,0,0,0-3.964,5.163c-.346.6-.794,1.395-1.212,2.319C2894.742,418.365,2893.288,403.037,2898.879,378.094Zm-14.126,143.222c-3.075-4.154-5.468-9.5-7.317-16.347-2.313-8.563-2.761-15.729-1.371-21.909a46.772,46.772,0,0,1,4.2-10.906c2.658-5.256,5.084-8.818,7.866-11.55,7.085-6.956,18.835-9.634,29.62-6.875a71.767,71.767,0,0,0,7.209,18.521c-6.125,16.942-4.734,33.055-.716,51.937,1.366,6.419,3.065,12.792,4.815,19.039a86.793,86.793,0,0,1-26.643-8.169C2894.437,531.086,2888.657,526.591,2884.753,521.316Zm55.767,25.656c-2.32-8.133-4.719-16.541-6.49-24.866-3.091-14.528-4.484-26.573-1.926-38.593C2958.194,519.8,2994.617,524,3010,524c13.654,0,26.066-5.377,35.064-10.746a142.835,142.835,0,0,0-6.425,26.206c-.886,6.207-1.36,15.151,4.711,21.156,4.517,4.467,11.957,5.873,18.513,3.5a19.041,19.041,0,0,0,4-2.023l.015.669c.112,5.009.24,10.687,2.393,16.1,2.7,6.79,8.261,11.485,14.5,12.254a15.709,15.709,0,0,0,1.922.118c5.7,0,10.659-3.067,14.44-5.848,7.533-5.539,13.289-11.538,17.212-17.92a25.765,25.765,0,0,0,2.717,4.239,15.941,15.941,0,0,0,11.625,5.923,10.947,10.947,0,0,0,8.593-3.563,15.18,15.18,0,0,0,2.885-5.3,79.564,79.564,0,0,0,3.23-41.387,5,5,0,1,0-9.826,1.851,69.56,69.56,0,0,1-2.824,36.181,7.913,7.913,0,0,1-.912,1.979c-.064.071-.231.256-.875.24a6.131,6.131,0,0,1-4.1-2.188,27.657,27.657,0,0,1-3.282-6.114,46.342,46.342,0,0,0-3.156-6.273,5,5,0,0,0-9.026,1.261c-2.395,8.158-8.513,15.9-18.185,23.013-2.71,1.992-6.211,4.231-9.215,3.861-2.93-.361-5.343-3.288-6.434-6.028-1.487-3.736-1.588-8.254-1.687-12.622l-.288-12.833a5,5,0,0,0-9.187-2.619c-2.729,4.185-5.327,6.68-7.945,7.629-2.952,1.071-6.272.576-8.072-1.205-2.151-2.127-2.754-6.259-1.845-12.633,4.92-34.491,25.217-65.745,43.2-93.339,4.768.165,9.441.635,13.665,1.105,5.012.558,10.562,1.25,16.081,2.41a99.346,99.346,0,0,0,1.338,25.959c4.188,22.557,16.086,40.937,34.409,53.152a97.306,97.306,0,0,0,54.027,16.53,95.48,95.48,0,0,0,15.429-1.256c22.576-3.7,43.081-15.49,56.257-32.356a96.134,96.134,0,0,0,13.43-23.476c.978,4.552-.359,9.77-1.831,14.743-8.141,27.519-20.522,54.208-32.5,80.017-11.615,25.035-23.626,50.923-31.948,77.845-.743,2.4-1.459,4.822-2.174,7.239a189.835,189.835,0,0,1-7.461,21.942c-7.774,17.913-21.982,34.635-41.089,48.358-19.866,14.269-38.691,24.265-57.553,30.559a125.665,125.665,0,0,1-158.867-79.079c-7.111-21.107-8.476-43.109-9.921-66.4-1.036-16.7-2.107-33.96-5.516-50.7C2945.633,564.9,2943.034,555.785,2940.52,546.972Zm-29.9,172.344c4.327-2.194,8.748-4.785,13.024-7.29,5.537-3.245,11.184-6.549,16.855-9.151-.522.792-1.077,1.637-1.67,2.545-3.535,5.407-8.387,12.939-14.42,22.39-10.264,16.075-20.537,32.36-20.64,32.523a5,5,0,0,0,.409,5.894l33.3,39.424-54.19,60a5,5,0,0,0-1.284,3.6l18.247,372.245a80.59,80.59,0,0,0-18.077-1.87,45.841,45.841,0,0,0,4.54-13.5c1.3-8.463-.67-15.962-5.846-22.289-21.129-25.825-75.989,1.733-92.3,10.795-12.606,7-40.962,25.489-33.851,46.594l-11.538,5.457-1.092-1.555a5,5,0,0,0-6.958-1.221l-10.083,7.059,9.639-35.5c3.989-1.952,8.077-4,12.188-6.14,38.7-20.1,60.831-37.661,65.781-52.186a18.307,18.307,0,0,0-1.359-15.688c-7.482-12.6-27.139-14.964-59.768-7.1,20.57-138.055,53.325-268.453,99.986-398.125A411.117,411.117,0,0,1,2910.622,719.316Zm-735.361,281.148c-24.184-27.862-49.4-57.826-68.633-90.822-21.171-36.33-32.469-72.039-33.578-106.134-.191-5.858.057-10.566,1.887-14.5l.036-.075c7.481,12.338,13.073,26.143,18.482,39.5,2.54,6.27,5.166,12.753,7.974,19.065,7.244,16.28,19.293,39.553,40.2,53.628a5,5,0,0,0,.887.475c-3.046,13.712-4.024,25.395-3.057,36.271a5,5,0,0,0,4.975,4.557c.149,0,.3-.006.449-.02a5,5,0,0,0,4.537-5.423c-1.041-11.7.441-24.624,4.664-40.666,2.285-8.672,5.713-19.795,12.012-28.894,6.135-8.864,14.625-14.914,23.29-16.6,7.588-1.474,15.58.184,21.7,1.795a23.012,23.012,0,0,1,2.816.9c-12.04,4.129-23.084,13.51-30.636,26.38-8.185,13.949-11.7,29.96-14.592,45.163a5,5,0,1,0,9.823,1.871c2.732-14.344,6.016-29.4,13.394-41.973,7.83-13.345,19.864-22.162,32.19-23.586a32.705,32.705,0,0,1,32.05,16.022,43.125,43.125,0,0,0-19.119,1.857,70.474,70.474,0,0,0-14.614,7.409,84.066,84.066,0,0,0-14.9,11.247c-7.81,7.731-12.748,17.4-17.523,26.747-1.16,2.271-2.36,4.621-3.568,6.871a5,5,0,1,0,8.811,4.729c1.256-2.339,2.48-4.735,3.663-7.052,4.619-9.044,8.982-17.586,15.652-24.188a75.235,75.235,0,0,1,13.17-9.879,60.138,60.138,0,0,1,12.513-6.412,32.909,32.909,0,0,1,42.631,23.816,4.811,4.811,0,0,1,.237,2.22,1.773,1.773,0,0,1-.684.568c-1.607.88-4.215.683-7.153-.54-1.411-.587-2.825-1.338-4.323-2.133a49.253,49.253,0,0,0-6.624-3.094,42.08,42.08,0,0,0-11.466-2.054,39.092,39.092,0,0,0-12.593.827,19.5,19.5,0,0,0-11.864,8.343,13.567,13.567,0,0,0-2.1,7.678c.2,4.457,2.774,7.878,4.992,10.361,6.133,6.865,13.692,11.893,21,16.756,2.169,1.443,4.413,2.935,6.548,4.433,6.439,4.514,15.2,11.454,18.953,20.667-22.3,22.164-42.911,45.066-61.413,66.584C2201.767,1030.609,2189.078,1016.383,2175.261,1000.464Zm346.47,360.911c-20.411-12.89-39.766-28.48-56.306-42.083A2417.353,2417.353,0,0,1,2205.771,1071.1c23.831-28.452,52.07-61.085,83.534-91.876,27.532,28.551,59.492,52.419,92.541,76.336,17.218,12.46,34.967,24.677,52.753,36.312q7.543,4.934,15.138,9.806c18.689,12.048,38.015,24.507,55.662,38.43,25.463,20.089,43.75,40.435,55.906,62.2a5,5,0,1,0,8.73-4.875,186.871,186.871,0,0,0-25.6-35,5,5,0,0,0,.663-1.08,1124.9,1124.9,0,0,1,224.041-331.709c23.611-24.238,45.979-44.789,67.773-62.182-44.593,126.809-76.027,254.553-95.89,389.636q-7.925,2.238-16.719,5.155a657.406,657.406,0,0,0-65.246,26.193l-1.737-2.971a5,5,0,0,0-6.125-2.138l-67,26a4.992,4.992,0,0,0-1.973,1.39l-32,37a5,5,0,0,0-.2,6.291l4.9,6.473c-8.9,6.818-17.479,15.539-23.182,24.847-4.155,6.781-7.836,14.411-3.631,19.589,1.813,2.232,4.415,3.378,8.437,3.378,4.64,0,11.181-1.531,20.569-4.67l2.346,74.629C2545.266,1375.34,2532.073,1367.907,2521.731,1361.375Zm74.14,179.14-14.451-35.539,891.251-2.952-16.58,42.46Zm908.1-28.515H3479.51l5.147-13.182A5,5,0,0,0,3480,1492h-.017l-906,3a5,5,0,0,0-4.615,6.883l.642,1.578-4.638.348-18.455-24.844,974.3-4.925Zm19.838-47.974-981.9,4.964-.808-42.021,509.223-3.083.006,0a5.061,5.061,0,0,0,1.06.113,4.907,4.907,0,0,0,1.058-.128l469.743-2.844Zm76.871-15.838-36.444-34.8c-33.353-31.851-67.767-64.719-96.387-101.745l-.5-9.865,42.825,29.348a5,5,0,0,0,6.347-.573l12.095-11.992a5,5,0,0,0-.451-7.5l-96.9-75.369-56.037-162.325a4.986,4.986,0,0,0-2.5-2.841L3345.435,798.07c-1.954-19.5-4.149-40.332-7-61.788a448.257,448.257,0,0,1,55.216,52.324c48.8,54.586,84.368,118.334,109.9,167.772A1764.785,1764.785,0,0,1,3635.9,1293.961a5,5,0,0,0,2.833,3.253c28.978,12.535,51.332,34.267,75,57.275,9.61,9.343,19.547,19,29.887,27.893,13.221,11.366,27.362,21.953,41.039,32.192,11.894,8.9,24.045,18,35.661,27.677a128.57,128.57,0,0,0-29.105-2.769c-18.752.241-37.595,3.955-53.785,7.419-11.567,2.475-22.677,5.3-31.478,12.589-9.427,7.808-15.385,20.338-16.778,35.282a76.574,76.574,0,0,0,5.711,36.532C3661.321,1506.073,3630.569,1476.733,3600.68,1448.188Zm236.623,10.327a19.037,19.037,0,0,1-4,1.535c-4.555,1.105-10.135-.137-15.31-3.408a46.33,46.33,0,0,1-7.366-5.97A91.278,91.278,0,0,1,3837.3,1458.515Zm-119.837,89.3a66.659,66.659,0,0,1-16.716-30.577c16.319,7.99,32.412,20.57,50.158,39.18,3.539,3.712,7.038,7.536,10.489,11.386A66.985,66.985,0,0,1,3717.466,1547.819Zm254.746,12.16c-28.1-3.4-56.357-9.523-83.68-15.447a5,5,0,0,0-2.245,9.744l69.594,16.986c14.249,3.477,28.982,7.073,43.053,11.74,7.865,2.608,17.007,5.989,25.179,11.281a6.848,6.848,0,0,1,1.014.807c-10.738,3-22.494,2.338-33.632,1.163-32.321-3.412-64.229-11.4-91.18-18.768a5,5,0,0,0-2.961,9.546c35.306,12.284,72.417,26.891,104.617,50.384,6.55,4.78,13.1,10.156,16.7,17.075-26.209-.713-51.505-9.374-70.673-16.872-8.293-3.245-16.673-6.777-24.776-10.193-14.835-6.254-30.175-12.721-45.847-17.8a4.988,4.988,0,0,0-3.4,9.374c10.928,9.514,23.332,20.286,35.723,31.049,12.235,10.625,24.453,21.237,35.22,30.609,5.921,5.155,12.232,11.217,12.167,17.928,0,.185-.009.336-.02.457a9.781,9.781,0,0,1-2.885-.423c-36.2-9.547-68.632-32.377-96.188-53.027-17.127-12.836-35.193-26.907-51.272-42.822-9.561-9.463-18.646-19.811-27.431-29.819-6.816-7.764-13.865-15.793-21.149-23.431-20.76-21.771-39.55-35.777-59.132-44.076l-.024-.007a64.232,64.232,0,0,1,.143-9.738c.663-7.113,3.26-20.275,13.2-28.509,7.065-5.852,16.494-8.222,27.19-10.51,16.441-3.518,33.985-6.971,51.823-7.2,1.593-.02,3.162,0,4.72.029a4.926,4.926,0,0,0,.775,1.176c4.684,5.132,9.528,10.439,15.806,14.408,7.56,4.779,15.734,6.439,23.011,4.674,4.86-1.181,9.006-3.825,12.664-6.158l1.281-.813c25.289-15.954,56.175-24.161,89.257-23.728,8.847.116,20.037.89,29.248,5.731-13.482,7.723-28.444,11.962-44.246,16.438-10.695,3.03-21.755,6.163-32.285,10.48-4.629,1.9-9.375,4.227-12.727,8.377a19.5,19.5,0,0,0-1.02,22.627c6.775,10.119,18.811,14.181,29.43,17.766,3.193,1.077,6.209,2.1,9.06,3.244,17.9,7.211,37.077,10.793,55.627,14.257,21.683,4.049,42.224,7.885,61.021,16.989C4014.165,1563.525,3991.818,1562.35,3972.212,1559.979Z"
                        transform="translate(-2062.996 -144.441)" />
                    <path
                        d="M3262.539,329.659c-10.574-9.271-24.652-10.632-39.361-11.293-15.432-.692-32.922-1.477-50.067,1.416a124.021,124.021,0,0,0-24.439,6.755c-13.443,5.249-21.521,12.243-24.7,21.383a13.3,13.3,0,0,0-.271,9.165c1.116,2.974,3.563,5.4,7.27,7.2,5.757,2.8,12.009,3.527,18.233,3.527,2.524,0,5.045-.12,7.526-.267,15.449-.92,31.063-2.508,46.41-4.722,15.492-2.236,31.071-5.16,46.3-8.695.691-.16,1.509-.305,2.4-.466,4.828-.876,11.441-2.075,14.743-6.9a10.769,10.769,0,0,0,1.557-8.319C3267.537,335.3,3265.7,332.432,3262.539,329.659Zm-4.205,11.456c-.942,1.378-6.079,2.309-8.272,2.707-1.027.186-2,.362-2.874.565-14.96,3.47-30.259,6.343-45.473,8.538-15.071,2.175-30.405,3.735-45.575,4.637-7.574.451-14.864.617-20.79-2.269-1.947-.947-2.255-1.647-2.284-1.722a3.954,3.954,0,0,1,.355-2.37c2.157-6.207,8.336-11.228,18.888-15.348a114.089,114.089,0,0,1,22.466-6.211,159.325,159.325,0,0,1,26.387-1.92c7.427,0,14.708.326,21.567.634,12.862.578,25.081,1.687,33.218,8.822,1.76,1.543,2.267,2.575,2.383,3.171C3258.35,340.449,3258.441,340.958,3258.334,341.115Z"
                        transform="translate(-2062.996 -144.441)" />
                    <circle cx="968.004" cy="285.559" r="15" />
                    <circle cx="1151.504" cy="306.559" r="15.75" />
                </g>
            </g>
        </g>
    </g>
</svg>