<?xml version="1.0" encoding="UTF-8"?> <svg xmlns="http://www.w3.org/2000/svg" viewBox="0 0 1820 1820"><g id="Layer_2" data-name="Layer 2"><g id="plate"><circle cx="910" cy="910" r="905.5" fill="#efefef"></circle><path d="M570.394,476.831C671.641,388.955,792.547,326.3,917.3,277.225c24.143-9.5,48.615-18.524,73.747-25.081a669.171,669.171,0,0,0-81.41-4.963c-366.027,0-662.75,296.723-662.75,662.75s296.723,662.75,662.75,662.75a666.33,666.33,0,0,0,123.684-11.53c-114.44-11.567-227.05-38.894-330.19-89.08C559.51,1402.185,435.354,1284.864,377,1136.18a542.1,542.1,0,0,1-21.224-326.636C388.193,679.459,469.147,564.707,570.394,476.831Z" fill="#d6e7f5"></path><path d="M910,1820c-122.847,0-242.022-24.061-354.214-71.515a913.2,913.2,0,0,1-484.272-484.27C24.061,1152.022,0,1032.847,0,910S24.061,667.978,71.514,555.786A913.2,913.2,0,0,1,555.786,71.514C667.978,24.061,787.153,0,910,0s242.022,24.061,354.215,71.514a913.2,913.2,0,0,1,484.27,484.272C1795.939,667.978,1820,787.153,1820,910s-24.061,242.022-71.515,354.215a913.195,913.195,0,0,1-484.27,484.27C1152.022,1795.939,1032.847,1820,910,1820ZM910,9C413.187,9,9,413.187,9,910s404.187,901,901,901,901-404.187,901-901S1406.813,9,910,9Z"></path><path d="M909.641,1577.181a665.185,665.185,0,1,1,259.724-52.438A663.083,663.083,0,0,1,909.641,1577.181Zm0-1325.5c-362.961,0-658.25,295.29-658.25,658.25s295.289,658.25,658.25,658.25,658.25-295.289,658.25-658.25S1272.6,251.681,909.641,251.681Z"></path></g></g></svg> 