<?xml version="1.0" encoding="UTF-8"?> <svg xmlns="http://www.w3.org/2000/svg" viewBox="0 0 2220.68 2410.437"><g id="Layer_2" data-name="Layer 2"><g id="Layer_1-2" data-name="Layer 1"><g><path d="M739.235,1001.317S847.622,317.359,1101.77,317.359s370.187,683.958,370.187,683.958,652.634-74.75,717.417,109.632S1801.923,1631.7,1801.923,1631.7s265.36,588.029,87.207,717.595-748.74-368.349-748.74-368.349S656,2495.438,431.635,2363.814s68.4-671.065,68.4-671.065S-61.83,1347.656,36.59,1130.882,739.235,1001.317,739.235,1001.317Z" fill="#fefefe"></path><path d="M986.759,1231.121c16.166,27.117,22.063,58.919,32.439,88.735,7.974,22.91,18.774,45.2,21.652,69.285s-4.222,51.411-24.738,64.354c-12.85,8.106-28.716,9.349-43.875,10.37-49.361,3.324-99.265,6.625-148.048-1.608-26.794-4.522-52.873-12.469-79.314-18.73-71.564-16.948-147.778-22.238-211.651-58.692-2.264-1.293-4.574-2.681-6.1-4.8-2.223-3.083-2.4-7.14-2.5-10.94-.558-22.133-1.106-44.414,2.368-66.281,8.855-55.723,45.278-106.377,95.282-132.511,16.2-8.47,33.588-14.443,51.071-19.793,44.9-13.74,92.057-23.3,139.22-21.018,23.177,1.121,46.269,5.24,68.073,13.289,19.677,7.264,37.945,22.108,54.769,34.692C955.317,1192.367,973.931,1209.6,986.759,1231.121Z" fill="#eeb79a"></path><path d="M1722,1260.161c-17.834-20.638-41.492-35.958-57.506-58.038-7.632-10.524-13.359-22.372-21.453-32.543-17.915-22.511-46.073-34.895-74.412-39.851s-57.351-3.3-86.11-2.532c-47.078,1.256-97.9,1.222-135.85,29.111-13.091,9.62-23.816,22.073-33.858,34.843-29.941,38.076-55.1,80.464-69.38,126.749s-17.269,96.709-3.725,143.214l260.31,11.742c21.744.981,43.634,1.955,65.192-1.051,20.055-2.8,39.452-8.986,59.03-14.158,23.912-6.315,48.193-11.125,72.57-15.248,12.2-2.064,24.432-3.948,36.671-5.768,7.32-1.089,18.457-.854,24.32-6.3,10.669-9.914,6.062-39.079,5.45-52.126-.955-20.371-3.93-40.758-9.993-60.265C1746.7,1296.867,1736.466,1276.908,1722,1260.161Z" fill="#eeb79a"></path><path d="M791.467,686.359S606.082,703.67,600.33,795.494,897.507,940.21,1110.467,936.359s506.618-91.943,510.755-167.83-201.755-103.17-201.755-103.17l94-579c-279.909-86.485-540.633-84.885-783,1Z" fill="#42403e"></path><path d="M2212.96,1102.662c-9.6-27.322-29.586-50.985-59.405-70.333-24.986-16.213-57.659-29.818-97.11-40.437-64.1-17.254-148.026-27.312-249.437-29.894-133.293-3.392-263.071,7.185-314.618,12.107-3.515-18.365-9.237-46.68-17.25-81.54,42.7-14.843,79-31.032,105.966-47.322,40.485-24.455,60.864-49.152,62.3-75.5,2.336-42.844-36.267-77.3-114.739-102.412-31.72-10.151-63.3-16.713-83.7-20.368L1535.4,89.92a22.216,22.216,0,0,0-15.371-24.787C1379.087,21.585,1240.459-.31,1107.833,0A1157.793,1157.793,0,0,0,728.2,64.622a22.342,22.342,0,0,0-4.463,1.555c-.23.082-.461.16-.692.241A22.217,22.217,0,0,0,708.365,89.61l58.817,577.562c-18.816,2.968-47.252,8.538-76.2,18.26-29.8,10.007-54.1,22.427-72.231,36.916-25.216,20.152-38.875,44.294-40.595,71.756-1.221,19.5,6.306,37.912,22.376,54.712,27.235,28.474,77.544,49.492,129.886,64.65-5.224,24.911-9.124,45.448-11.753,59.988-49.4-5.918-167.562-17.752-294.656-13.631-97.134,3.148-179.111,15.1-243.654,35.529-85,26.9-141.025,69.022-166.529,125.2-26.106,57.5-15.209,125.7,32.39,202.72,35.645,57.676,92.379,121.118,168.625,188.563C316.3,1601.58,423.81,1673.6,467.238,1701.579c-22.318,43.877-74.022,151.3-109.5,270.195-27.049,90.659-38.835,169.1-35.03,233.14,5.065,85.242,37.456,145.959,96.273,180.464q42.741,25.074,97.95,25.059c95.619,0,218.914-56.408,368.242-168.716,117.215-88.158,218.33-187.448,256.831-226.537,43.8,36.915,161.7,133.72,292.224,219.424,97.377,63.938,182.913,109.459,254.233,135.3,43.7,15.835,82.868,24.5,116.414,25.744,39.771,1.467,73.074-7.313,98.955-26.136,83.12-60.45,94.1-206.508,32.635-434.121-35.549-131.644-84.65-251.18-103.773-295.727,35.013-27.136,121.945-96.818,205.1-181.7,62.4-63.7,109.5-122.687,140-175.331C2218.438,1212.475,2230.269,1151.924,2212.96,1102.662ZM1110.934,44.76c113.8,0,230.919,16.538,350.659,49.58a577.7,577.7,0,0,1-232.917,72.642c-51.481,4.567-108.658,2.655-179.938-6.021-107.191-13.045-191.313-35.334-260.176-69.25Q944.525,44.759,1110.934,44.76Zm-354.27,80.552c99.4,51.938,209.391,70.349,286.706,79.758,48.141,5.859,90.292,8.749,128.851,8.749,21.07,0,41.069-.864,60.381-2.577a622.341,622.341,0,0,0,250.774-78.175l-84.05,517.715c-34.624,30.408-70.5,61.491-112.059,79.507-20.56,8.913-42.261,14.515-60.778,18.819-58.053,13.494-109.675,19.077-157.805,17.082a448.636,448.636,0,0,1-256.377-94.484ZM632.644,818.1c-10.764-11.254-10.294-18.755-10.14-21.22,2.189-34.948,45.786-56.872,81.974-69.11,35.031-11.847,70.316-17.019,83.579-18.667a493.406,493.406,0,0,0,278.781,101.479q10.427.433,21.035.434c46.056,0,94.927-6.136,148.676-18.63,19.26-4.477,44.44-10.948,68.392-21.332,45.66-19.8,84.429-52.483,118.818-82.6,15.523,2.442,53.762,9.156,91.365,21.19,53.579,17.146,84.949,38.706,83.915,57.673-.882,16.178-44.653,53.754-161.621,90.968-102.658,32.66-228.092,54.064-327.353,55.859-91.961,1.667-196.215-7.178-286.028-24.256C728.7,871.762,658.941,845.6,632.644,818.1Zm1502,439.268c-28.338,48.978-72.811,104.564-132.185,165.215-102.386,104.588-214.344,188.226-215.461,189.057a25,25,0,0,0-7.867,30.343c.656,1.452,66.013,147.023,109.063,306.445,25.009,92.613,37.614,171.349,37.465,234.022-.174,72.694-17.413,122.026-51.237,146.626-62.746,45.635-209.194-2.67-412.369-136.016-161.651-106.091-303.813-229.715-305.23-230.952a25.007,25.007,0,0,0-34.638,1.7c-1.2,1.275-121.73,128.723-267.534,238.3-84.665,63.632-160.992,108.776-226.863,134.177-77.537,29.9-139.278,31.908-183.507,5.962-44.09-25.865-67.525-71.667-71.644-140.025-3.5-58.093,7.542-130.6,32.822-215.514C449.279,1839.55,521.289,1706,522.01,1704.674a25,25,0,0,0-8.887-33.227c-1.391-.854-140.522-86.738-265.582-197.447-72.455-64.14-125.922-123.765-158.917-177.22-38.194-61.879-48.042-114.217-29.27-155.562,45.482-100.176,223.95-126.749,365.658-131.4,17.447-.573,34.779-.828,51.816-.828,138.461,0,257.344,16.857,258.836,17.071a25,25,0,0,0,28.262-20.828c.114-.716,5.057-31.458,15.074-79.322,12.616,2.857,24.964,5.393,36.736,7.632,85.287,16.217,183.172,25.236,272.185,25.235q11.575,0,22.948-.2c97.273-1.759,213.726-20.546,316.368-50.72,13.293,58.214,19.937,96.843,20.073,97.646a25.006,25.006,0,0,0,27.49,20.656c1.619-.185,163.82-18.467,331.4-14.161,97.343,2.5,177.227,12,237.43,28.23,34.349,9.259,62.2,20.728,82.764,34.086,20.293,13.18,33.546,28.3,39.39,44.926C2178.017,1154.046,2167.541,1200.52,2134.648,1257.371Z"></path><path d="M986.735,1590.188a292.191,292.191,0,1,0-206.611,85.581A290.277,290.277,0,0,0,986.735,1590.188Zm-206.611-448.8c133.545,0,242.191,108.646,242.191,242.19a242.781,242.781,0,0,1-3.7,42.305c-164.93,32.406-326.495,15.759-480.562-49.52C541.88,1246.144,648.994,1141.388,780.124,1141.388ZM542.852,1432.275a868.349,868.349,0,0,0,227.314,55.1,855.934,855.934,0,0,0,86.721,4.388,886.056,886.056,0,0,0,145.553-12.151c-37.254,85.906-122.875,146.154-222.316,146.154C663.254,1625.769,565.454,1542.561,542.852,1432.275Z"></path><circle cx="754.929" cy="1346.664" r="59.18" transform="translate(-457.88 391.407) rotate(-22.5)"></circle><path d="M1673.348,1153.056a292.191,292.191,0,1,0-180.133,522.759,297.022,297.022,0,0,0,36.64-2.278,292.191,292.191,0,0,0,143.493-520.481Zm-209.423-9.819a243.453,243.453,0,0,1,30.057-1.866c120.328,0,224.945,89.9,240.166,212.327a242.113,242.113,0,0,1,.658,54.007c-151.743,55.472-320.739,65-477.747,26.9-1.488-6.931-2.7-13.978-3.6-21.144C1236.99,1280.934,1331.4,1159.714,1463.925,1143.237Zm59.762,480.683c-105.137,13.067-203.14-43.651-247.393-133.815a875.616,875.616,0,0,0,174.392,17.45,882.678,882.678,0,0,0,271.151-42.514C1691.929,1548.32,1617.329,1612.277,1523.687,1623.92Z"></path><circle cx="1533.064" cy="1324.398" r="59.181" transform="translate(-263.273 387.655) rotate(-13.283)"></circle><path d="M1524.037,1775.364c-10.248-4.014-21.96-2.1-29.837,4.891a26.2,26.2,0,0,0-7.989,26.3,25.027,25.027,0,0,0,25.4,18.7c.563.43,1.116.895,1.663,1.378-26.25,9.51-58.053-2.427-75.444-10.881-11.662-5.668-22.974-12.3-34.951-19.325-19.874-11.655-40.423-23.7-63.7-31.745a195.463,195.463,0,0,0-135.592,3.621c-18.464,7.5-35.14,17.588-51.267,27.34-22.441,13.571-43.637,26.389-66.191,30.032-35.241,5.7-73.356-11.944-102.62-27.945-5.834-3.19-11.828-6.569-17.625-9.836-31.98-18.024-65.048-36.662-103.6-43.321a179.309,179.309,0,0,0-160.691,55.3,25,25,0,1,0,37.026,33.6c28.364-31.253,73.565-46.81,115.156-39.625,30.041,5.187,57.981,20.934,87.561,37.607,5.935,3.345,12.072,6.8,18.188,10.148,30.917,16.9,70.4,35.183,112.51,35.181a138.387,138.387,0,0,0,22.07-1.746c32.145-5.191,58.553-21.162,84.093-36.606,15.129-9.15,29.418-17.791,44.219-23.806a144.8,144.8,0,0,1,100.44-2.682c18.584,6.42,36.142,16.716,54.729,27.617,12.278,7.2,24.972,14.643,38.385,21.163,26.471,12.867,52.281,19.344,75.958,19.344a112.955,112.955,0,0,0,38-6.3c.24,6.318.152,12.707,0,18.965a25,25,0,0,0,24.365,25.619c.214,0,.426.008.639.008a25,25,0,0,0,24.981-24.373c.477-19.032.4-41.145-6.6-62.726C1564.682,1804.625,1546.72,1784.253,1524.037,1775.364Z"></path></g></g></g></svg> 