<svg xmlns="http://www.w3.org/2000/svg" id="Layer_2" data-name="Layer 2"
    viewBox="0 0 1946.64 1946.64">
    <defs>
        <style> .cls-1 { fill: #cafafa; stroke-width: 79px; } .cls-1, .cls-2 { stroke: #363436;
            stroke-miterlimit: 10; } .cls-2 { fill: #0095ff; stroke-width: 26px; } </style>
    </defs>
    <g id="Layer_1-2" data-name="Layer 1">
        <g>
            <circle class="cls-1" cx="973.32" cy="973.32" r="933.82" />
            <path class="cls-2"
                d="m1407.24,601.58l-163.76,772.3c-12.36,54.5-44.57,68.06-90.35,42.4l-249.54-183.88-120.39,115.82c-13.33,13.33-24.46,24.46-50.16,24.46l17.95-254.11,462.45-417.88c20.12-17.91-4.38-27.87-31.24-9.92l-571.72,360.01-246.13-77.06c-53.53-16.71-54.5-53.53,11.16-79.23l962.69-370.9c16.78-8.83,37.16-7.42,52.44,3.62,15.7,11.35,23.39,30.96,19.64,50.08-1.02,8.09-2.03,16.19-3.05,24.28Z" />
        </g>
    </g>
</svg>